<svg id="flora_ecommerce_web_signe_amex_01" xmlns="http://www.w3.org/2000/svg" xmlns:xlink="http://www.w3.org/1999/xlink" width="27.2" height="17" viewBox="0 0 27.2 17">
  <defs>
    <clipPath id="clip-path">
      <path id="Path_53" data-name="Path 53" d="M13.9,24.575A1.279,1.279,0,0,1,15.175,23.3h24.65A1.279,1.279,0,0,1,41.1,24.575v14.45A1.279,1.279,0,0,1,39.825,40.3H15.175A1.279,1.279,0,0,1,13.9,39.025V24.575Z" transform="translate(-13.9 -23.3)"/>
    </clipPath>
    <clipPath id="clip-path-2">
      <path id="Path_54" data-name="Path 54" d="M61.592,67.717h-1.36c-.127,0-.234,0-.3.064-.085.043-.106.128-.106.234a.23.23,0,0,0,.17.234,1.077,1.077,0,0,0,.276.042h.4a1.264,1.264,0,0,1,.85.255.293.293,0,0,1,.064.085Zm0,2.061a1.15,1.15,0,0,1-1.02.4H59.127V69.5h1.445a.384.384,0,0,0,.3-.085.283.283,0,0,0,.085-.212.325.325,0,0,0-.085-.213.409.409,0,0,0-.255-.064c-.7-.021-1.572.021-1.572-.977a.941.941,0,0,1,1.063-.935h1.487V66.4H60.211a1.583,1.583,0,0,0-.935.255V66.4h-2.04a1.479,1.479,0,0,0-.892.255V66.4H52.689v.255a1.933,1.933,0,0,0-1-.255H49.268v.255a1.8,1.8,0,0,0-1.062-.255H45.527l-.616.7-.574-.659H40.3V70.8h3.952l.638-.68.6.68h2.444v-1.02h.234A2.581,2.581,0,0,0,49.2,69.63V70.8h2.019V69.672h.106c.128,0,.128,0,.128.128v1h6.1a1.863,1.863,0,0,0,1.02-.276V70.8h1.934a3.013,3.013,0,0,0,1.1-.191v-.829Zm-3-1.254a.853.853,0,0,1,.234.659c0,.68-.425.978-1.169.978H56.195V69.5H57.64a.384.384,0,0,0,.3-.085.283.283,0,0,0,.085-.212.325.325,0,0,0-.085-.213.438.438,0,0,0-.276-.064c-.7-.021-1.573.021-1.573-.977a.929.929,0,0,1,1.063-.935h1.487v.659h-1.36c-.149,0-.234,0-.3.064-.085.042-.106.127-.106.234a.23.23,0,0,0,.17.234,1.108,1.108,0,0,0,.3.042h.4A1.332,1.332,0,0,1,58.6,68.525Zm-6.736-.191a.687.687,0,0,1-.361.064h-.914v-.7H51.5a.65.65,0,0,1,.361.064.27.27,0,0,1,.149.276A.285.285,0,0,1,51.86,68.334Zm.467.382a.831.831,0,0,1,.361.255.887.887,0,0,1,.128.574v.616h-.744v-.383c0-.191.021-.467-.127-.616a.749.749,0,0,0-.552-.149h-.808v1.147h-.744v-3.1h1.721a1.826,1.826,0,0,1,.892.149.748.748,0,0,1,.382.7A.829.829,0,0,1,52.327,68.716Zm.935-1.658h2.486v.659H54.006v.574h1.7v.637h-1.7v.616h1.742V70.2H53.263ZM48.226,68.5h-.977v-.786h.977c.276,0,.446.106.446.382C48.694,68.355,48.5,68.5,48.226,68.5Zm-1.721,1.4-1.148-1.275L46.505,67.4Zm-2.954-.382H41.724v-.616H43.36V68.27H41.724V67.7h1.87l.807.914Zm5.929-1.445c0,.871-.638,1.041-1.3,1.041h-.935v1.041H45.8L44.89,69.12l-.956,1.041H40.98v-3.1h3l.914,1.02.956-1.02h2.38C48.821,67.059,49.48,67.229,49.48,68.079Z" transform="translate(-40.3 -66.4)"/>
    </clipPath>
    <clipPath id="clip-path-3">
      <path id="Path_55" data-name="Path 55" d="M17.8,43.68l-.51-1.254-.51,1.254Zm11.262-.489a.687.687,0,0,1-.361.064h-.914v-.7H28.7a.65.65,0,0,1,.361.064.27.27,0,0,1,.149.276A.317.317,0,0,1,29.064,43.191Zm6.481.489-.51-1.254-.51,1.254Zm-12.07,1.36H22.71V42.6L21.626,45.04h-.659L19.884,42.6V45.04H18.375l-.3-.7H16.526l-.3.7h-.808l1.339-3.124h1.1L19.14,44.87V41.916h1.211l.978,2.125.892-2.125h1.233V45.04Zm3.039,0H24.028V41.916h2.486v.659H24.771v.552h1.7v.638h-1.7v.616h1.742Zm3.528-2.3a.875.875,0,0,1-.531.829.831.831,0,0,1,.361.255A.887.887,0,0,1,30,44.4v.616h-.744v-.4c0-.191.021-.467-.127-.616-.106-.106-.276-.128-.552-.128h-.808V45h-.744V41.916h1.721a1.966,1.966,0,0,1,.914.149A.714.714,0,0,1,30.041,42.745Zm.425,2.3h.765V41.916h-.765Zm9.6,0H39.009L37.585,42.7V45.04h-1.53l-.3-.7h-1.53l-.276.7H33.08A1.66,1.66,0,0,1,32,42.3a1.469,1.469,0,0,1,1.126-.361h.723V42.6h-.7a.7.7,0,0,0-.574.191,1.021,1.021,0,0,0-.212.7,1.073,1.073,0,0,0,.212.744.677.677,0,0,0,.51.17h.34l1.062-2.465h1.126l1.254,2.954V41.916H38.01l1.317,2.167V41.916h.765V45.04ZM15.4,45.656h1.275l.3-.7h.638l.276.7h2.529v-.531l.234.531h1.3l.212-.531v.531H28.4V44.509h.127c.085,0,.106.021.106.149v1h3.23V45.38a2.389,2.389,0,0,0,1.19.276h1.36l.3-.7h.638l.276.7h2.614V45l.4.659h2.1V41.3H38.669v.51l-.3-.51H36.246v.51l-.276-.51H33.1a2.545,2.545,0,0,0-1.254.255V41.3H29.871v.255a1.232,1.232,0,0,0-.85-.255H21.775l-.489,1.126L20.8,41.3H18.5v.51l-.255-.51H16.292L15.4,43.361Z" transform="translate(-15.4 -41.3)"/>
    </clipPath>
  </defs>
  <g id="Group_3" data-name="Group 3">
    <g id="Group_2" data-name="Group 2">
      <g id="Group_1" data-name="Group 1" clip-path="url(#clip-path)">
        <path id="Path_52" data-name="Path 52" d="M13.9,24.575A1.279,1.279,0,0,1,15.175,23.3h24.65A1.279,1.279,0,0,1,41.1,24.575v14.45A1.279,1.279,0,0,1,39.825,40.3H15.175A1.279,1.279,0,0,1,13.9,39.025V24.575Z" transform="translate(-13.9 -23.3)" fill="#246ea9"/>
      </g>
    </g>
  </g>
  <g id="Group_5" data-name="Group 5" transform="translate(5.61 9.159)">
    <g id="Group_4" data-name="Group 4" clip-path="url(#clip-path-2)">
      <rect id="Rectangle_1" data-name="Rectangle 1" width="23.417" height="6.481" transform="translate(-1.063 -1.02)" fill="#fffffe"/>
    </g>
  </g>
  <g id="Group_8" data-name="Group 8" transform="translate(0.319 3.825)">
    <g id="Group_7" data-name="Group 7">
      <g id="Group_6" data-name="Group 6" clip-path="url(#clip-path-3)">
        <rect id="Rectangle_2" data-name="Rectangle 2" width="27.455" height="6.481" transform="translate(-1.063 -1.063)" fill="#fffffe"/>
      </g>
    </g>
    <rect id="Rectangle_3" data-name="Rectangle 3" width="0.765" height="3.124" transform="translate(15.066 0.616)" fill="#246ea9"/>
  </g>
</svg>
