<svg xmlns="http://www.w3.org/2000/svg" width="77.162" height="27.99" viewBox="0 0 77.162 27.99">
  <path id="Intersection_2" data-name="Intersection 2" d="M2998.735,21067.117l-1.726-1.955-1.832,1.955h-11.388v-12.572H2995.4l1.666,1.924,1.778-1.924h7.771c.9,0,2.371.094,3.034.736v-.736h6.943a5.59,5.59,0,0,1,2.9.736v-.736h10.525v.736a4.085,4.085,0,0,1,2.573-.736h5.894v.736a4.479,4.479,0,0,1,2.695-.736h3.985v1.793h-4.289c-2.259,0-3.089,1.375-3.089,2.682,0,2.852,2.523,2.721,4.545,2.789a1.087,1.087,0,0,1,.758.2.735.735,0,0,1,.263.6.793.793,0,0,1-.255.588,1.228,1.228,0,0,1-.871.223h-4.142v1.932h4.158a3.351,3.351,0,0,0,2.922-1.152v2.342a7.485,7.485,0,0,1-3.157.58h-5.579v-.8a5.008,5.008,0,0,1-2.93.8h-17.589v-2.906c0-.355-.036-.371-.392-.371h-.279v3.277h-5.791v-3.393a7.339,7.339,0,0,1-3,.441h-.69v2.957Zm30.9-1.77h4.194c2.171,0,3.383-.9,3.383-2.844a2.507,2.507,0,0,0-.644-1.908,3.475,3.475,0,0,0-2.459-.725l-1.159-.031a2.5,2.5,0,0,1-.837-.1.756.756,0,0,1-.148-1.32,1.455,1.455,0,0,1,.863-.162h3.949v-1.918h-4.316c-2.257,0-3.078,1.375-3.078,2.682,0,2.852,2.522,2.721,4.535,2.789a1.128,1.128,0,0,1,.767.2.77.77,0,0,1,.263.6.8.8,0,0,1-.255.588,1.271,1.271,0,0,1-.88.223h-4.177Zm-8.476,0h7.186v-1.869l-5.042-.008v-1.795h4.919v-1.836h-4.919v-1.639h5.042v-1.863h-7.186Zm-5.4-3.291c.785,0,1.264.076,1.58.4.4.418.348,1.223.348,1.764v1.127h2.162v-1.785a2.624,2.624,0,0,0-.357-1.645,2.341,2.341,0,0,0-1.054-.758,2.524,2.524,0,0,0,1.526-2.4,2.107,2.107,0,0,0-1.108-2,5.308,5.308,0,0,0-2.59-.426H3011.3v9.01h2.164v-3.291Zm-16.1,3.291h4.185v-3.023h2.687c1.882,0,3.75-.516,3.75-3.02s-1.92-2.967-3.628-2.967h-6.88l-2.739,2.953-2.649-2.953h-8.66v9.01h8.529l2.755-2.982Zm-1.265-4.49,3.306-3.553v7.225Zm-10.525,2.613v-1.793h4.727v-1.838h-4.727v-1.639h5.4l2.355,2.627-2.459,2.643Zm57.083-2.875a3.4,3.4,0,0,0-2.442-.725l-1.167-.031a2.481,2.481,0,0,1-.83-.1.682.682,0,0,1-.47-.672.7.7,0,0,1,.314-.648,1.487,1.487,0,0,1,.872-.164h3.924v2.564A1.162,1.162,0,0,0,3044.961,21060.6Zm-41.107-.1v-2.295h2.808c.777,0,1.317.316,1.317,1.1s-.515,1.191-1.342,1.191Zm9.611-.271v-2.023h2.651a2.123,2.123,0,0,1,1.028.162.859.859,0,0,1,.446.811.97.97,0,0,1-.446.865,2.05,2.05,0,0,1-1.063.186Zm-30.4-8.529-.646-1.535v1.527h-7.235l-.826-2H2972.5l-.829,2H2968v-6.584l2.606-5.971h5.612l.723,1.482v-1.482h6.58l1.44,3.242,1.4-3.242h20.89a3.541,3.541,0,0,1,2.43.732v-.732h5.719v.732a7.446,7.446,0,0,1,3.591-.732h8.286l.769,1.482v-1.482h6.134l.837,1.482v-1.482h5.978v12.555h-6.041l-1.141-1.9v1.9h-7.538l-.819-2H3023.6l-.838,2h-3.912a7.386,7.386,0,0,1-3.451-.762v.762h-9.3v-2.848c0-.4-.071-.426-.314-.434h-.348l.008,3.281h-17.978v-1.551l-.646,1.559Zm52.958-1.775h3.05v-9h-2.2v6.27l-3.782-6.27h-3.277v8.516l-3.643-8.516h-3.224l-3.032,7.078h-.966a2.077,2.077,0,0,1-1.5-.463,3.12,3.12,0,0,1-.592-2.113,2.972,2.972,0,0,1,.619-2.041,2.073,2.073,0,0,1,1.656-.531h2.04v-1.93h-2.083a4.366,4.366,0,0,0-3.268,1.049,4.793,4.793,0,0,0-1.16,3.521,3.813,3.813,0,0,0,4.27,4.432h2.519l.813-2.008h4.469l.838,2.008h4.383v-6.756Zm-24.618,0h2.2v-9h-2.2Zm-5.431-3.273c.775,0,1.254.068,1.568.385a2.7,2.7,0,0,1,.34,1.754l.008,1.135h2.171v-1.768a2.588,2.588,0,0,0-.356-1.652,2.489,2.489,0,0,0-1.064-.758,2.536,2.536,0,0,0,1.516-2.4,2.1,2.1,0,0,0-1.089-1.992,5.065,5.065,0,0,0-2.606-.432h-4.949v9h2.151v-3.273Zm-13.141,3.273h7.188v-1.861h-5.036v-1.8h4.916v-1.846h-4.916v-1.623h5.036v-1.873h-7.188Zm-3.81,0h2.207v-9h-3.583l-2.586,6.105-2.816-6.105h-3.512v8.523l-3.66-8.523h-3.2l-3.853,9h2.336l.835-2.008h4.481l.826,2.008h4.377v-7.057l3.128,7.057h1.89l3.12-7.051ZM3005.446,21051.688Zm17.578-5.652,1.48-3.588,1.489,3.588Zm-51.062,0,1.464-3.588,1.473,3.588Zm31.7-1.242v-2h2.649a2.193,2.193,0,0,1,1.021.164.822.822,0,0,1,.452.795.917.917,0,0,1-.443.855,2,2,0,0,1-1.065.188Z" transform="translate(-2967.999 -21039.133)" fill="#fff"/>
</svg>
