<svg xmlns="http://www.w3.org/2000/svg" width="27.2" height="17" viewBox="0 0 27.2 17">
  <g id="flora_ecommerce_web_signe_mastercard_01" transform="translate(0)">
    <path id="Path_19" data-name="Path 19" d="M43.2,122.088a.912.912,0,0,1-.91.91H16.912a.912.912,0,0,1-.91-.91V106.907a.912.912,0,0,1,.91-.91H42.292a.912.912,0,0,1,.91.91v15.181Z" transform="translate(-16.002 -105.997)" fill="#14477c" fill-rule="evenodd"/>
    <path id="Path_20" data-name="Path 20" d="M233.191,178.668l.286,0,.286-.014.279-.032.274-.037.268-.05.268-.055.256-.073.256-.078.244-.087.239-.1.233-.105.227-.114.221-.124.21-.128.2-.137.2-.147.181-.151.175-.16.169-.165.157-.169.14-.179.14-.183.116-.188.117-.2.1-.2.088-.206.076-.206.064-.21.047-.22.035-.215.023-.225.006-.224-.006-.225-.023-.224-.035-.215-.047-.215-.064-.211-.076-.206-.088-.206-.1-.2-.117-.192-.116-.188-.14-.183-.14-.178-.157-.169-.169-.165-.175-.16-.181-.151-.2-.142-.2-.137-.21-.133-.221-.119-.227-.115-.233-.105-.239-.1-.244-.087-.256-.078-.256-.069-.268-.059-.268-.05-.274-.037-.279-.028-.286-.018-.286,0-.286,0-.279.018-.28.028-.274.037-.268.05-.268.059-.257.069-.25.078-.245.087-.239.1-.233.105-.227.115-.215.119-.21.133-.2.137-.192.142-.187.151-.169.16-.169.165-.151.169-.146.178-.134.183-.123.188-.111.192-.1.2-.087.206-.076.206-.064.211-.046.215-.035.215-.023.224-.006.225.006.224.023.225.035.215.046.22.064.21.076.206.087.206.1.2.111.2.123.188.134.183.146.179.151.169.169.165.169.16.187.151.192.147.2.137.21.128.215.124.227.114.233.105.239.1.245.087.25.078.257.073.268.055.268.05.274.037.28.032.279.014Z" transform="translate(-216.587 -165.799)" fill="#fbb230" fill-rule="evenodd"/>
    <path id="Path_21" data-name="Path 21" d="M117.707,178.668l.286,0,.279-.014.28-.032.274-.037.268-.05.268-.055.256-.073.25-.078.245-.087.239-.1.233-.105.227-.114.215-.124.21-.128.2-.137.192-.147.187-.151.169-.16.169-.165.151-.169.146-.179.134-.183.123-.188.111-.2.1-.2.087-.206.076-.206.064-.21.046-.22.035-.215.024-.225.006-.224-.006-.225-.024-.224-.035-.215-.046-.215-.064-.211-.076-.206-.087-.206-.1-.2-.111-.192-.123-.188-.134-.183-.146-.178-.151-.169-.169-.165-.169-.16-.187-.151-.192-.142-.2-.137-.21-.133-.215-.119-.227-.115-.233-.105-.239-.1-.245-.087-.25-.078-.256-.069-.268-.059-.268-.05-.274-.037-.28-.028-.279-.018-.286,0-.286,0-.286.018-.28.028-.274.037-.268.05-.268.059-.256.069-.256.078-.244.087-.239.1-.233.105-.227.115-.221.119-.21.133-.2.137-.2.142-.181.151-.175.16-.169.165-.157.169-.14.178-.14.183-.116.188-.117.192-.1.2-.087.206-.076.206-.058.211-.053.215-.035.215-.024.224-.006.225.006.224.024.225.035.215.053.22.058.21.076.206.087.206.1.2.117.2.116.188.14.183.14.179.157.169.169.165.175.16.181.151.2.147.2.137.21.128.221.124.227.114.233.105.239.1.244.087.256.078.256.073.268.055.268.05.274.037.28.032.286.014Z" transform="translate(-107.111 -165.799)" fill="#eb2230" fill-rule="evenodd"/>
    <path id="Path_22" data-name="Path 22" d="M245.943,198.546H248.9v-.3h-2.7Z" transform="translate(-233.106 -193.027)" fill="#fbb230" fill-rule="evenodd"/>
    <path id="Path_23" data-name="Path 23" d="M239.091,208.916h3.4v-.3h-3.223Z" transform="translate(-226.668 -202.811)" fill="#fbb230" fill-rule="evenodd"/>
    <path id="Path_24" data-name="Path 24" d="M233.952,219.286h3.73v-.3h-3.6Z" transform="translate(-221.838 -212.595)" fill="#fbb230" fill-rule="evenodd"/>
    <path id="Path_25" data-name="Path 25" d="M230.434,229.743h3.957v-.3h-3.864Z" transform="translate(-218.533 -222.466)" fill="#fbb230" fill-rule="evenodd"/>
    <path id="Path_26" data-name="Path 26" d="M231.161,279.974H235v-.3h-3.928Z" transform="translate(-219.129 -269.851)" fill="#fbb230" fill-rule="evenodd"/>
    <path id="Path_27" data-name="Path 27" d="M234.813,290.343h3.555v-.3h-3.695Z" transform="translate(-222.517 -279.634)" fill="#fbb230" fill-rule="evenodd"/>
    <path id="Path_28" data-name="Path 28" d="M240.275,300.714h3.153v-.3h-3.345Z" transform="translate(-227.6 -289.419)" fill="#fbb230" fill-rule="evenodd"/>
    <path id="Path_29" data-name="Path 29" d="M247.659,311.083h2.6v-.3h-2.873Z" transform="translate(-234.467 -299.202)" fill="#fbb230" fill-rule="evenodd"/>
    <path id="Path_30" data-name="Path 30" d="M228.363,240.108h4.091v-.3h-4.033Z" transform="translate(-216.586 -232.245)" fill="#fbb230" fill-rule="evenodd"/>
    <path id="Path_31" data-name="Path 31" d="M266.954,269.6h1.562v-.3h-1.5Z" transform="translate(-252.839 -260.067)" fill="#fbb230" fill-rule="evenodd"/>
    <path id="Path_32" data-name="Path 32" d="M268.846,259.233h1.44v-.3H268.9Z" transform="translate(-254.616 -250.283)" fill="#fbb230" fill-rule="evenodd"/>
    <path id="Path_33" data-name="Path 33" d="M226.736,258.93h.408v.3h-.384Z" transform="translate(-214.816 -250.283)" fill="#fbb230" fill-rule="evenodd"/>
    <path id="Path_34" data-name="Path 34" d="M387.784,304.379a.265.265,0,0,1,.262.262.262.262,0,1,1-.524,0,.265.265,0,0,1,.262-.262Zm0,.047a.219.219,0,1,1-.216.215.22.22,0,0,1,.216-.215Z" transform="translate(-366.52 -293.181)" fill="#fbb230" fill-rule="evenodd"/>
    <path id="Path_35" data-name="Path 35" d="M390.049,307.033v-.221h.093a.128.128,0,0,1,.053.006.082.082,0,0,1,.023.017.089.089,0,0,1,.012.035.071.071,0,0,1-.012.041.115.115,0,0,1-.047.023.1.1,0,0,1,.047.053l.029.047h-.052l-.035-.053a.064.064,0,0,0-.023-.029c0-.006-.006-.006-.012-.012H390.1v.093Zm.046-.128h.029c.023,0,.035,0,.041-.006s.012,0,.012-.006a.031.031,0,0,0,0-.035c-.006-.006-.012-.006-.018-.012H390.1v.058Z" transform="translate(-368.872 -295.451)" fill="#fbb230"/>
    <path id="Path_36" data-name="Path 36" d="M386.885,270.472a.262.262,0,1,1-.262.262.261.261,0,0,1,.262-.262Zm0,.047a.219.219,0,1,1-.221.216.22.22,0,0,1,.221-.216Z" transform="translate(-365.672 -261.188)" fill="#fff" fill-rule="evenodd"/>
    <path id="Path_37" data-name="Path 37" d="M389.143,273.121V272.9h.093a.127.127,0,0,1,.053.006c.006,0,.017.012.023.018a.08.08,0,0,1,.012.035.051.051,0,0,1-.017.041c-.006.012-.023.017-.041.023.006.006.017.012.023.018a.28.28,0,0,1,.023.035l.029.041h-.052l-.035-.047c-.012-.017-.018-.029-.023-.029s-.006-.012-.011-.012h-.035v.088h-.041Zm.041-.122h.035c.023,0,.035,0,.041-.006a.021.021,0,0,0,.018-.023.061.061,0,0,0-.006-.018c-.006-.006-.012-.012-.018-.012h-.07V273Z" transform="translate(-368.018 -263.462)" fill="#fff"/>
    <path id="Path_38" data-name="Path 38" d="M332.7,248.2l.379-1.981h.472l.058.2a.679.679,0,0,1,.524-.2l-.146.524c-.128,0-.327-.023-.489.361a6.67,6.67,0,0,0-.245,1.1Z" transform="translate(-314.871 -238.4)" fill="#fff" fill-rule="evenodd"/>
    <path id="Path_39" data-name="Path 39" d="M216.082,238.554h.524l-.116.524h.291l-.088.408h-.262l-.146.787c-.029.146,0,.292.291.233l-.058.437a.53.53,0,0,1-.845-.524Z" transform="translate(-204.408 -231.198)" fill="#fff" fill-rule="evenodd"/>
    <path id="Path_40" data-name="Path 40" d="M233.215,247.326c.058-.32.2-1.107-.734-1.107a1.009,1.009,0,0,0-.991.99.859.859,0,0,0,.9.991,2.455,2.455,0,0,0,.705-.087l.087-.408a2.9,2.9,0,0,1-.618.058c-.2,0-.553,0-.5-.437h1.142Z" transform="translate(-219.375 -238.4)" fill="#fff" fill-rule="evenodd"/>
    <path id="Path_41" data-name="Path 41" d="M123.564,242.292l.466-2.389h-.909l-.641,1.457-.117-1.457h-.845l-.466,2.389h.524l.35-1.719.146,1.719h.5l.757-1.69-.321,1.69Z" transform="translate(-115.188 -232.465)" fill="#fff" fill-rule="evenodd"/>
    <path id="Path_42" data-name="Path 42" d="M164.224,246.4l-.087.437c.146,0,.5-.058.67-.058s.408-.029.321.262c-.146,0-1.107-.146-1.253.7-.081.559.583.763.991.5l.058.116h.5l.2-1.078c.216-.973-.723-.991-1.4-.874Z" transform="translate(-155.56 -238.527)" fill="#fff" fill-rule="evenodd"/>
    <path id="Path_43" data-name="Path 43" d="M281.107,240.459a.607.607,0,0,0-.385-.082.673.673,0,0,0-.6.6c-.082.548.274.793.792.63l.14.466c-.886.443-1.731-.245-1.451-1.317.227-.81,1.3-1.3,1.836-.629Z" transform="translate(-264.75 -232.38)" fill="#fff" fill-rule="evenodd"/>
    <path id="Path_44" data-name="Path 44" d="M354.017,238.856c-1.428-1.072-1.982,1.748-.874,1.748a1.1,1.1,0,0,0,.466-.146l.058.146h.583l.466-2.506h-.554Z" transform="translate(-333.685 -230.768)" fill="#fff" fill-rule="evenodd"/>
    <path id="Path_45" data-name="Path 45" d="M305,246.4l-.087.437c.145,0,.5-.058.67-.058s.379-.029.321.262c-.146,0-1.107-.146-1.253.7a.537.537,0,0,0,.553.612.651.651,0,0,0,.437-.116l.058.116h.5l.2-1.078c.222-.973-.717-.991-1.4-.874Z" transform="translate(-288.428 -238.527)" fill="#fff" fill-rule="evenodd"/>
    <path id="Path_46" data-name="Path 46" d="M240.625,252.285h.67c.076-.53-.559-.425-.67,0Z" transform="translate(-227.936 -243.678)" fill="#eb2230" fill-rule="evenodd"/>
    <path id="Path_47" data-name="Path 47" d="M172.971,263.139a.706.706,0,0,0-.467.059c-.174.116-.233.32-.029.379a.4.4,0,0,0,.466-.233Z" transform="translate(-163.513 -254.251)" fill="#eb2230" fill-rule="evenodd"/>
    <path id="Path_48" data-name="Path 48" d="M361.072,253.282c-.175-.233-.553-.058-.67.379-.087.292.088.5.262.5.367,0,.589-.6.408-.874Z" transform="translate(-340.933 -244.901)" fill="#fbb230" fill-rule="evenodd"/>
    <path id="Path_49" data-name="Path 49" d="M314.187,263.139a.7.7,0,0,0-.466.059c-.174.116-.233.32-.029.379a.382.382,0,0,0,.466-.233Z" transform="translate(-296.75 -254.251)" fill="#fbb230" fill-rule="evenodd"/>
    <path id="Path_50" data-name="Path 50" d="M258.3,248.649l.03-.2.35-1.777h.466l.058.2a.681.681,0,0,1,.525-.2l-.146.524c-.111,0-.344-.023-.519.443a7.111,7.111,0,0,0-.21,1.014Z" transform="translate(-244.659 -238.824)" fill="#fff" fill-rule="evenodd"/>
    <path id="Path_51" data-name="Path 51" d="M193.233,247.664h-.047l-.023-.006-.024-.006h-.023l-.023-.006a1.687,1.687,0,0,0-.3-.012c-.268.023-.385.192-.158.32.181.105.321.088.443.2a.6.6,0,0,1-.163.9l-.052.023-.058.023-.064.017-.058.018a2.108,2.108,0,0,1-.933-.058l.076-.391c.221.047.583.146.752.029.192-.128.018-.28-.123-.344l-.07-.023-.07-.029a.552.552,0,0,1,.1-1.061,2.11,2.11,0,0,1,.636-.029h.041a1.075,1.075,0,0,1,.146.023h.023l.018.006h.018l.012.006h.018l-.093.4Z" transform="translate(-181.869 -239.344)" fill="#fff" fill-rule="evenodd"/>
  </g>
</svg>
