<svg id="flora_ecommerce_web_signe_master_01" xmlns="http://www.w3.org/2000/svg" width="40" height="24" viewBox="0 0 40 24">
  <path id="flora_ecommerce_web_signe_master_01-2" data-name="flora_ecommerce_web_signe_master_01" d="M20.451,13.675a7.747,7.747,0,0,1-.159.826c-.034.114,0,.081-.122.125a4.212,4.212,0,0,1-2.353-.025c-1.815-.785-1.245-4.563,1.5-4.253a1.41,1.41,0,0,1,1.231.742,2.788,2.788,0,0,1,.068,1.709l-2.6.015c-.087.66.2.916.792.961a7.788,7.788,0,0,0,1.647-.1Zm-2.357-1.68a10.849,10.849,0,0,0,1.489-.012c.05-.535-.143-.866-.707-.781A.931.931,0,0,0,18.095,11.995Zm11.8.8a1.336,1.336,0,0,0-.99.091c-.851.536-.117,1.3.625.79.268-.184.32-.482.364-.88Zm6.389-1.411a1.4,1.4,0,0,0-.89,1.039c-.155.568.129,1.2.692,1.134C37.137,13.442,37.386,11.1,36.284,11.387ZM9.743,12.8a1.461,1.461,0,0,0-1,.093c-.181.115-.541.5-.289.8.194.226.675.164.918,0,.286-.2.306-.463.37-.885ZM27.892,11.42c.023-.2.07-.4.108-.6.082-.433,0-.35.29-.393a10.524,10.524,0,0,1,1.2-.108c.864-.034,1.531.192,1.784.858a5.2,5.2,0,0,1-.2,2.321c-.074.378-.144.75-.217,1.12-.029.149-.018.157-.166.163l-.977,0-.136-.236c-.238.06-.113.166-.8.236-1.858.189-1.884-2.008-.463-2.644A4.5,4.5,0,0,1,30.1,11.9c.029-.293.035-.476-.188-.562a6.444,6.444,0,0,0-2.024.078Zm-19.986-.9c.085-.151.94-.179,1.147-.186.8-.027,1.412-.01,1.845.474.477.532.305,1.252.165,1.973l-.2,1.013c-.055.28-.114.715-.2.986l-1.087,0a.649.649,0,0,1-.152-.235c-.133.045-.192.115-.362.166-1.072.325-2.18-.243-1.853-1.442a1.616,1.616,0,0,1,.947-1.127,4.156,4.156,0,0,1,1.791-.228c.1-.663-.283-.639-.863-.629a12.789,12.789,0,0,0-1.345.14l.168-.9Zm3.36,3.221c.171.016.351.072.553.092a4.19,4.19,0,0,0,1.189-.045.357.357,0,0,0,.134-.458c-.065-.149-.226-.206-.366-.283s-.263-.152-.415-.233c-.344-.184-.589-.21-.727-.571a1.672,1.672,0,0,1,.055-1.131c.446-1,2.486-.885,2.9-.611l-.28.865a4.383,4.383,0,0,0-1.184-.041c-.387.1-.289.511.045.67.633.3,1.222.561,1.241,1.243a1.36,1.36,0,0,1-1.039,1.451,5.479,5.479,0,0,1-2.283-.049l.177-.9Zm20.845-3.395,1.028.007.107.421a1.688,1.688,0,0,1,.481-.314,1.894,1.894,0,0,1,.657-.11l-.312,1.146a.869.869,0,0,0-.844.388,4.772,4.772,0,0,0-.554,1.9L32.5,14.7c-.032.073.005.036-.059.077H31.3l.815-4.429ZM21.47,10.4h1.015a2.238,2.238,0,0,0,.048.235l.087.182a1.273,1.273,0,0,1,1.088-.41l-.3,1.143c-.744-.006-1.024.5-1.2,1.216-.152.629-.2,1.407-.379,2.015l-1.172-.01L21.47,10.4Zm5.607,4.12a3.528,3.528,0,0,1-1.581.255,2.072,2.072,0,0,1-1.281-.549,2.785,2.785,0,0,1-.545-2.808,3.034,3.034,0,0,1,1.622-2,2.259,2.259,0,0,1,2.683.462l-.757.771c-.112-.028-.212-.1-.351-.141a1.69,1.69,0,0,0-.417-.058,1.742,1.742,0,0,0-1.258,2.814c.541.467,1.106.235,1.546.176l.34,1.077ZM2.046,9.434H3.951l.231,3.224L5.63,9.434H7.584L6.579,14.778l-1.214,0,.664-3.7-1.639,3.7-1.119,0-.314-3.82c-.095.175-.41,2.036-.479,2.4-.077.411-.157.813-.23,1.23-.042.239.006.187-.51.187-.232,0-.464,0-.71,0L2.046,9.434ZM37.7,9.156h1.231c-.075.546-.207,1.134-.307,1.682L38,14.195c-.13.691-.042.588-.394.583-.324,0-.651,0-.975,0-.084-.12-.094-.226-.174-.349-.762.461-1.379.512-1.924-.137a2.3,2.3,0,0,1-.337-2.145c.416-1.413,1.022-1.874,2.3-1.812.447.022.546.249.765.44.07.061,0,.028.1.067L37.7,9.156ZM16.46,14.585a1.41,1.41,0,0,1-1.616-.087c-.415-.443-.207-1.1-.088-1.713.158-.81.61-2.913.694-3.568l1.186.009-.23,1.169.629,0-.2.946h-.608c-.119.384-.2,1.014-.277,1.43-.132.687-.241.973.586.921l-.07.89Zm-.528-6.348a9.165,9.165,0,0,1,.6-1.652,12.858,12.858,0,0,1,1.936-3.05l.776-.855a9.953,9.953,0,0,0-1.475-1.05A11.722,11.722,0,0,0,16.081.79,11.844,11.844,0,0,0-.007,11.926a12.121,12.121,0,0,0,2.384,7.261,11.93,11.93,0,0,0,2.1,2.173,11.638,11.638,0,0,0,14.778-.085,13.932,13.932,0,0,1-2.735-3.957,9.282,9.282,0,0,1-.587-1.619h.96a11.892,11.892,0,0,0,2.132,3.9c.074.093.151.178.224.272.149.191.585.6.714.767a7.936,7.936,0,0,0,1-1.042,12.165,12.165,0,0,0,2.13-3.908h.973a12.26,12.26,0,0,1-1.383,3.1,14.459,14.459,0,0,1-1.3,1.764l-.671.714a4.534,4.534,0,0,0,.6.477A11.659,11.659,0,0,0,26.59,23.86a11.809,11.809,0,0,0,7-1.238,12.049,12.049,0,0,0,1.941-1.273,6.886,6.886,0,0,0,.564-.488c.182-.193.363-.337.548-.534.168-.178.329-.369.5-.554s.315-.386.466-.586A12.12,12.12,0,0,0,37.573,4.7a11.736,11.736,0,0,0-16.52-2.323,3.449,3.449,0,0,1-.351.267.977.977,0,0,0,.275.311,15.12,15.12,0,0,1,1.708,2.193,12.16,12.16,0,0,1,1.369,3.092H23.1c-.215-.5-.291-.821-.586-1.457a12.277,12.277,0,0,0-.719-1.3,10.659,10.659,0,0,0-1.846-2.2c-.152.2-.335.341-.491.525a12.735,12.735,0,0,0-1.3,1.707,10.179,10.179,0,0,0-.713,1.3l-.592,1.409h-.928Z" transform="translate(0.007 0.03)" fill="#fff" fill-rule="evenodd"/>
</svg>
