<svg id="flora_ecommerce_web_signe_visa_01" xmlns="http://www.w3.org/2000/svg" width="27.2" height="17" viewBox="0 0 27.2 17">
  <rect id="Rectangle-20" width="27.2" height="13.6" transform="translate(0 1.53)" fill="#f6f6f6"/>
  <path id="Rectangle-1" d="M25.16,0H1.36A1.463,1.463,0,0,0,0,1.36V3.4H27.2V2.04A1.8,1.8,0,0,0,25.16,0Zm0,0" transform="translate(0 0)" fill="#265697" fill-rule="evenodd"/>
  <path id="Rectangle-1-2" data-name="Rectangle-1" d="M0,80s0,0,0,1.36A1.8,1.8,0,0,0,2.04,83.4H25.16a1.8,1.8,0,0,0,2.04-2.04V80Zm0,0" transform="translate(0 -66.4)" fill="#d97b16" fill-rule="evenodd"/>
  <path id="Shape" d="M83.425,28.3A4.875,4.875,0,0,0,81.7,28c-1.9,0-3.241.978-3.252,2.38-.011,1.036.956,1.615,1.686,1.96.749.354,1,.579,1,.895,0,.484-.6.7-1.151.7a3.961,3.961,0,0,1-1.811-.379l-.248-.115-.27,1.615a5.976,5.976,0,0,0,2.143.385c2.023,0,3.336-.967,3.351-2.464.007-.821-.505-1.445-1.615-1.96-.673-.334-1.084-.556-1.08-.894,0-.3.349-.62,1.1-.62a3.484,3.484,0,0,1,1.44.276l.172.083.261-1.563" transform="translate(-64.45 -23.24)" fill="#265697" fill-rule="evenodd"/>
  <path id="Shape-2" data-name="Shape" d="M114.508,28.778h-1.487a.955.955,0,0,0-1.008.6l-2.858,6.611h2.021s.33-.889.405-1.084l2.464,0c.058.253.234,1.081.234,1.081h1.785l-1.557-7.209Zm-2.373,4.649c.159-.416.767-2.016.767-2.016-.011.019.158-.418.255-.688l.13.622.445,2.083Zm0,0" transform="translate(-90.6 -23.886)" fill="#265697" fill-rule="evenodd"/>
  <path id="Shape-3" data-name="Shape" d="M59.25,35.951l1.2-7.213h1.924l-1.2,7.213Zm0,0" transform="translate(-49.177 -23.852)" fill="#265697" fill-rule="evenodd"/>
  <path id="Shape-4" data-name="Shape" d="M26.569,28.768l-1.884,4.919-.2-1a5.59,5.59,0,0,0-2.665-3.026l1.723,6.308,2.036,0,3.029-7.2H26.569" transform="translate(-18.11 -23.878)" fill="#265697" fill-rule="evenodd"/>
  <path id="Shape-5" data-name="Shape" d="M13.127,28.742h-3.1l-.025.15a6.4,6.4,0,0,1,4.674,3.774L14,29.351a.806.806,0,0,0-.872-.609" transform="translate(-8.3 -23.856)" fill="#d97b16" fill-rule="evenodd"/>
</svg>
