<svg id="flora_ecommerce_web_signe_visa_01" xmlns="http://www.w3.org/2000/svg" width="70" height="24" viewBox="0 0 70 24">
  <path id="flora_ecommerce_web_signe_visa_01-2" data-name="flora_ecommerce_web_signe_visa_01" d="M16394.025,19379.113c.025-1.141,1.525-3.754,1.891-5.324a18.768,18.768,0,0,0,2.424,1.188c1.453.473,5.834,1.314,5.834-1.187,0-2.934-7.4-2.885-7.4-9.105h0c0-7.738,10.676-9.285,15.309-6.184a20.758,20.758,0,0,1-.932,2.676c-.322.838-.607,1.746-.959,2.477-.643-.148-1.244-.539-1.967-.785-1.352-.449-3.8-.668-4.7.316-1.74,1.906,2.92,2.908,5.512,5.574a6.692,6.692,0,0,1,1.135,1.785c1.475,3.654-.385,7.678-4.283,9.426a10.489,10.489,0,0,1-2.229.7,12.113,12.113,0,0,1-2.816.336A15.725,15.725,0,0,1,16394.025,19379.113Zm-26.145,1.547c-.316-1.355-.493-3.164-.7-4.629-.338-2.441-1.884-12.566-1.884-14.1l3.338,2a2.833,2.833,0,0,0,1.136.582l-6.684-5.35c-.527-.416-1.919-1.232-2.087-1.865l9.945.027c.595.219.342.488.393,1.328.21,3.387,1.185,10.705,1.185,13.418a1.209,1.209,0,0,0,.287-.4,2.4,2.4,0,0,0,.207-.477c.182-.447.216-.521.423-.953l5.277-11.221a11.592,11.592,0,0,1,.859-1.721h6.709l-12.041,23.363Zm2.46-15.754-.052-.051C16370.271,19364.871,16370.336,19364.9,16370.341,19364.906Zm39.679,15.754c.072-.855,4.172-8.727,4.93-10.363l3.449-7.211c.559-1.3,2.594-4.9,2.8-5.791h7.053c.2.881.25,1.891.373,2.891l2.377,20.475h-6.361c0-.348-.354-5.242-.373-5.3-.189-.521-.369-.4-1.162-.385l-4.141.016-2.582,5.668Zm11.008-10.652h2.75c0-1.947-.344-3.4-.344-5.152Zm-11.008,10.652Zm-25.283,0c1.543-6.609,2.918-16.691,4.471-23.365h6.02c0,1.115-2.893,15.863-3.223,17.568l-1.076,5.8Zm0,0Z" transform="translate(-16361.002 -19357)" fill="#fff"/>
</svg>
