<svg width="182" height="344" viewBox="0 0 182 344" fill="none" xmlns="http://www.w3.org/2000/svg">
<path fill-rule="evenodd" clip-rule="evenodd" d="M182 0H0.000488281L17.0356 344H166.864L182 0Z" fill="#EEECED"/>
<path fill-rule="evenodd" clip-rule="evenodd" d="M148.536 210.241L117.856 210.541L117.778 214.061L144.418 213.803L139.016 331.839L142.961 331.914L148.536 210.241ZM64.1021 33.9521L32.5278 32.4644L32.5825 36.2202L59.981 37.5112L62.2974 154.753H66.4771L64.1021 33.9521ZM109.079 36.332L108.485 157.432L104.391 157.24L104.961 39.8931L76.3208 37.5532L76.3091 33.6533L109.079 36.332ZM154.059 37.8203L120.403 36.6304L120.321 40.6543L149.59 41.689L144.118 157.644L148.399 157.728L154.059 37.8203ZM149.141 170.37V198.19L145.024 198.078V173.929L34.8169 170.776L34.7544 167.098L149.141 170.37ZM65.731 208.753L37.4106 208.944L37.4653 212.476L61.6177 212.312L64.7935 331.543L69.0083 331.636L65.731 208.753ZM107.731 210.241L105.34 330.149H101.297L103.614 213.801L77.8716 213.79L77.9185 210.229L107.731 210.241Z" fill="#BCAEB5"/>
<path fill-rule="evenodd" clip-rule="evenodd" d="M162.551 171.915C161.49 171.914 160.449 172.19 159.527 172.715C158.606 173.24 157.837 173.996 157.297 174.909C158.407 174.001 159.8 173.513 161.234 173.53C162.668 173.547 164.052 174.068 165.141 175.002C166.229 175.937 166.953 177.224 167.188 178.639C167.422 180.054 167.151 181.506 166.422 182.741C167.398 181.944 168.104 180.865 168.441 179.651C168.779 178.437 168.733 177.148 168.309 175.961C167.884 174.775 167.105 173.748 166.074 173.024C165.043 172.299 163.811 171.912 162.551 171.915Z" fill="#BCAEB5"/>
<path fill-rule="evenodd" clip-rule="evenodd" d="M157.296 174.906C156.182 175.818 155.427 177.095 155.163 178.51C154.898 179.925 155.142 181.386 155.85 182.639C156.559 183.892 157.685 184.855 159.034 185.357C160.383 185.86 161.866 185.869 163.221 185.385C164.577 184.901 165.719 183.952 166.444 182.709C167.169 181.466 167.432 180.008 167.186 178.59C166.94 177.172 166.201 175.886 165.1 174.959C163.999 174.032 162.606 173.523 161.167 173.523C159.755 173.523 158.387 174.011 157.296 174.906Z" fill="#D6CFD2"/>
</svg>
