<svg width="16" height="16" viewBox="0 0 16 16" fill="none" xmlns="http://www.w3.org/2000/svg">
<path d="M8 0C6.41775 0 4.87103 0.469192 3.55544 1.34824C2.23985 2.22729 1.21447 3.47672 0.608967 4.93853C0.00346629 6.40034 -0.15496 8.00887 0.153721 9.56072C0.462403 11.1126 1.22433 12.538 2.34315 13.6568C3.46197 14.7757 4.88743 15.5376 6.43928 15.8463C7.99113 16.155 9.59966 15.9965 11.0615 15.391C12.5233 14.7855 13.7727 13.7602 14.6518 12.4446C15.5308 11.129 16 9.58225 16 8C15.9976 5.87899 15.154 3.84552 13.6543 2.34574C12.1545 0.845963 10.121 0.00235276 8 0V0ZM11.2356 10.2933C11.298 10.3558 11.333 10.4406 11.333 10.5289C11.333 10.6172 11.298 10.7019 11.2356 10.7644L10.7644 11.2356C10.7019 11.298 10.6172 11.333 10.5289 11.333C10.4406 11.333 10.3558 11.298 10.2933 11.2356L8 8.94311L5.70667 11.2356C5.64417 11.298 5.55945 11.333 5.47111 11.333C5.38278 11.333 5.29806 11.298 5.23556 11.2356L4.76445 10.7644C4.70202 10.7019 4.66696 10.6172 4.66696 10.5289C4.66696 10.4406 4.70202 10.3558 4.76445 10.2933L7.05689 8L4.76445 5.70666C4.70202 5.64416 4.66696 5.55944 4.66696 5.47111C4.66696 5.38278 4.70202 5.29805 4.76445 5.23555L5.23556 4.76444C5.29806 4.70202 5.38278 4.66696 5.47111 4.66696C5.55945 4.66696 5.64417 4.70202 5.70667 4.76444L8 7.05689L10.2933 4.76355C10.3558 4.70113 10.4406 4.66607 10.5289 4.66607C10.6172 4.66607 10.7019 4.70113 10.7644 4.76355L11.2356 5.23466C11.298 5.29717 11.333 5.38189 11.333 5.47022C11.333 5.55855 11.298 5.64328 11.2356 5.70578L8.94311 8L11.2356 10.2933Z" fill="#A7A7A7"/>
</svg>
