<svg width="316" height="194" viewBox="0 0 316 194" fill="none" xmlns="http://www.w3.org/2000/svg">
<path fill-rule="evenodd" clip-rule="evenodd" d="M244.403 29.3262H110.964C108.213 29.3341 105.577 30.4304 103.632 32.3757C101.686 34.321 100.59 36.9571 100.582 39.7082V136.608C100.59 139.359 101.686 141.995 103.632 143.941C105.577 145.886 108.213 146.982 110.964 146.99H228.13C233.841 146.99 237.566 142.239 238.512 136.608L254.786 39.7082C255.732 34.0762 250.114 29.3262 244.403 29.3262Z" fill="#C2D1DB"/>
<path fill-rule="evenodd" clip-rule="evenodd" d="M137.754 32.6775C131.49 34.6962 124.903 35.5195 118.335 35.1045C118.335 35.1045 111.457 33.6885 103.164 51.2875C103.164 51.2875 86.5772 47.6465 92.0392 69.0875L84.9602 79.4035C84.9602 79.4035 63.7192 63.8275 73.0232 38.1385C73.0232 38.1385 77.0682 5.57251 117.523 9.81951C117.523 9.81951 145.842 14.8755 149.078 11.2355C149.078 11.2355 152.722 26.8125 137.752 32.6775H137.754Z" fill="#3E2D39"/>
<path fill-rule="evenodd" clip-rule="evenodd" d="M236.381 36.4033H118.989C116.573 36.425 114.262 37.3943 112.554 39.1025C110.846 40.8108 109.877 43.1215 109.855 45.5373L108.603 119.104C108.518 124.126 112.723 127.92 117.737 128.238L217.603 134.595C222.616 134.913 225.587 130.351 226.736 125.461L245.514 45.5373C246.663 40.6473 241.403 36.4033 236.38 36.4033H236.381Z" fill="#28CBF6"/>
<path fill-rule="evenodd" clip-rule="evenodd" d="M210.988 86.2383L128.781 86.8452L126.27 111.616H206.397L210.988 86.2383Z" fill="#DDE6EB"/>
<path fill-rule="evenodd" clip-rule="evenodd" d="M107.198 109.239L105.125 91.9951C105.125 91.9951 118.272 101.402 131.825 101.402C131.825 101.402 143.557 101.402 144.164 70.0491C144.164 70.0491 145.056 44.327 137.945 32.498L137.755 32.5751C131.491 34.5937 124.903 35.417 118.336 35.0021C118.336 35.0021 111.458 33.5861 103.165 51.1841C103.165 51.1841 86.5776 47.5431 92.0396 68.9841L84.9606 79.3L78.0176 106.457L107.198 109.237V109.239Z" fill="#DBAC7C"/>
<path fill-rule="evenodd" clip-rule="evenodd" d="M105.125 91.9895C110.199 95.4268 115.766 98.0742 121.635 99.8415C123.076 100.039 124.528 100.139 125.982 100.141C125.982 100.141 137.714 100.142 138.321 68.7885C138.321 68.7885 139.097 46.3765 133.421 33.7725C128.471 34.8547 123.399 35.2658 118.341 34.9945C118.341 34.9945 111.461 33.5895 103.161 51.1845C103.161 51.1845 86.5735 47.5435 92.0355 68.9845L84.9565 79.3005L78.1875 105.779L101.353 107.985L99.2786 90.7415C98.4626 89.4465 104.164 91.7295 105.12 91.9935L105.125 91.9895Z" fill="#AE8A64"/>
<path fill-rule="evenodd" clip-rule="evenodd" d="M77.4871 10.3633C84.7551 12.8993 89.1002 17.3873 90.3422 17.4373C91.3342 17.4763 92.6322 16.6103 92.2122 15.7113C75.4802 -20.0557 52.1192 15.7613 43.0762 20.5503L47.2852 25.4563C49.5152 29.5303 49.7932 30.3333 54.5352 29.8143C60.6092 29.1493 69.6851 25.8143 75.0161 19.2963C78.3161 14.7963 69.9731 16.2883 68.7031 16.6483C63.6551 18.0803 72.1341 11.5343 77.4871 10.3643V10.3633Z" fill="#AE8A64"/>
<path d="M312.193 186.175H149.145C147.042 186.175 145.338 187.88 145.338 189.982V189.983C145.338 192.086 147.042 193.79 149.145 193.79H312.193C314.295 193.79 316 192.086 316 189.983V189.982C316 187.88 314.295 186.175 312.193 186.175Z" fill="#BCAEB5"/>
<path fill-rule="evenodd" clip-rule="evenodd" d="M43.6718 18.9653L66.6979 33.1223C30.3049 67.1693 33.2029 62.2413 74.3659 103.422C64.3659 108.294 41.6158 121.622 26.3868 147.794L0.473849 69.4653C-4.55215 54.2653 31.7959 30.3653 43.6739 18.9653H43.6718Z" fill="#3F4D56"/>
<path fill-rule="evenodd" clip-rule="evenodd" d="M9.86523 193.999C12.9072 182.789 17.5082 166.788 18.8562 163.232C36.4822 116.699 79.3902 100.818 79.3902 100.818C128.746 106.358 134.127 113.335 139.922 166.898C140.18 169.283 145.922 182.74 150.533 193.998H9.86523V193.999Z" fill="#617885"/>
<path fill-rule="evenodd" clip-rule="evenodd" d="M112.688 193.999L110.33 158.342L102.395 193.999H112.688Z" fill="#3F4D56"/>
<path fill-rule="evenodd" clip-rule="evenodd" d="M159.324 144.659H196.043L190.695 179.52H162.295L159.324 144.659Z" fill="#C2D1DB"/>
<path fill-rule="evenodd" clip-rule="evenodd" d="M189.564 93.8901C189.8 93.8907 190.026 93.9848 190.193 94.1517C190.36 94.3187 190.454 94.545 190.454 94.7811V98.0342L193.745 97.1521C193.973 97.0913 194.216 97.1235 194.421 97.2416C194.625 97.3597 194.775 97.554 194.837 97.7821C194.897 98.0104 194.865 98.2535 194.747 98.4581C194.629 98.6627 194.435 98.8123 194.207 98.8741L191.006 99.7332L192.68 102.633C192.797 102.838 192.829 103.081 192.767 103.31C192.706 103.538 192.557 103.733 192.353 103.851C192.148 103.969 191.905 104.001 191.676 103.939C191.448 103.878 191.253 103.729 191.135 103.525L189.547 100.775L187.996 103.463C187.878 103.667 187.683 103.816 187.455 103.877C187.226 103.939 186.984 103.907 186.779 103.789C186.574 103.671 186.425 103.476 186.364 103.248C186.302 103.019 186.334 102.776 186.452 102.571L188.094 99.7281L184.922 98.8782C184.694 98.8163 184.499 98.6668 184.381 98.4622C184.263 98.2575 184.231 98.0145 184.292 97.7861C184.353 97.558 184.503 97.3637 184.707 97.2456C184.912 97.1275 185.155 97.0953 185.384 97.1561L188.673 98.0382V94.7852C188.674 94.549 188.768 94.3227 188.935 94.1558C189.102 93.9888 189.328 93.8947 189.565 93.8942L189.564 93.8901Z" fill="#3F4D56"/>
<path fill-rule="evenodd" clip-rule="evenodd" d="M174.804 147.288C175.955 147.288 177.086 147.588 178.085 148.158C179.085 148.728 179.919 149.549 180.504 150.539C179.299 149.552 177.784 149.02 176.226 149.038C174.668 149.056 173.166 149.622 171.984 150.637C170.802 151.652 170.014 153.051 169.761 154.589C169.507 156.126 169.804 157.704 170.597 159.045C169.54 158.178 168.777 157.006 168.411 155.689C168.046 154.372 168.097 152.974 168.556 151.687C169.016 150.399 169.863 149.286 170.98 148.498C172.097 147.71 173.431 147.288 174.798 147.287L174.804 147.288Z" fill="#DDE6EB"/>
<path fill-rule="evenodd" clip-rule="evenodd" d="M180.508 150.537C181.717 151.527 182.537 152.911 182.825 154.447C183.112 155.982 182.848 157.569 182.079 158.929C181.311 160.288 180.087 161.333 178.623 161.878C177.159 162.423 175.55 162.434 174.079 161.909C172.608 161.384 171.37 160.356 170.583 159.007C169.796 157.658 169.51 156.074 169.777 154.535C170.043 152.996 170.845 151.601 172.04 150.595C173.235 149.589 174.746 149.037 176.308 149.037C177.84 149.035 179.325 149.565 180.508 150.537Z" fill="#94ADBD"/>
<path fill-rule="evenodd" clip-rule="evenodd" d="M176.086 93.8901C176.322 93.8907 176.549 93.9848 176.716 94.1517C176.883 94.3187 176.977 94.545 176.977 94.7811V98.0342L180.267 97.1521C180.495 97.0913 180.739 97.1235 180.943 97.2416C181.148 97.3597 181.298 97.554 181.359 97.7821C181.42 98.0104 181.387 98.2535 181.269 98.4581C181.151 98.6627 180.957 98.8123 180.729 98.8741L177.529 99.7332L179.202 102.633C179.32 102.838 179.351 103.081 179.29 103.31C179.229 103.538 179.079 103.733 178.875 103.851C178.67 103.969 178.427 104.001 178.199 103.939C177.971 103.878 177.776 103.729 177.657 103.525L176.07 100.775L174.519 103.463C174.4 103.667 174.206 103.816 173.977 103.877C173.749 103.939 173.506 103.907 173.301 103.789C173.097 103.671 172.948 103.476 172.886 103.248C172.825 103.019 172.857 102.776 172.974 102.571L174.617 99.7281L171.445 98.8782C171.217 98.8163 171.023 98.6668 170.905 98.4622C170.787 98.2575 170.754 98.0145 170.815 97.7861C170.877 97.558 171.026 97.3637 171.231 97.2456C171.436 97.1275 171.679 97.0953 171.907 97.1561L175.197 98.0382V94.7852C175.198 94.549 175.292 94.3227 175.459 94.1558C175.626 93.9888 175.852 93.8947 176.088 93.8942L176.086 93.8901Z" fill="#3F4D56"/>
<path fill-rule="evenodd" clip-rule="evenodd" d="M162.606 93.8901C162.842 93.8907 163.069 93.9848 163.236 94.1517C163.403 94.3187 163.497 94.545 163.497 94.7811V98.0342L166.787 97.1521C167.015 97.0913 167.259 97.1235 167.463 97.2416C167.668 97.3597 167.818 97.554 167.879 97.7821C167.94 98.0104 167.908 98.2537 167.79 98.4584C167.672 98.6631 167.477 98.8125 167.249 98.8741L164.049 99.7332L165.722 102.633C165.84 102.838 165.872 103.081 165.811 103.309C165.749 103.538 165.601 103.732 165.396 103.851C165.191 103.969 164.948 104.001 164.72 103.939C164.492 103.878 164.297 103.729 164.178 103.525L162.591 100.775L161.04 103.463C160.922 103.668 160.727 103.817 160.499 103.878C160.27 103.939 160.027 103.907 159.822 103.789C159.618 103.671 159.469 103.476 159.407 103.248C159.346 103.019 159.378 102.776 159.495 102.571L161.137 99.7281L157.965 98.8782C157.738 98.8149 157.545 98.6651 157.427 98.4609C157.309 98.2567 157.276 98.0144 157.335 97.7861C157.397 97.558 157.546 97.3637 157.751 97.2456C157.956 97.1275 158.199 97.0953 158.427 97.1561L161.717 98.0382V94.7852C161.718 94.549 161.812 94.3227 161.979 94.1558C162.146 93.9888 162.372 93.8947 162.608 93.8942L162.606 93.8901Z" fill="#3F4D56"/>
<path fill-rule="evenodd" clip-rule="evenodd" d="M149.134 93.8901C149.37 93.8907 149.596 93.9848 149.763 94.1517C149.93 94.3187 150.024 94.545 150.025 94.7811V98.0342L153.315 97.1521C153.543 97.0913 153.787 97.1235 153.991 97.2416C154.196 97.3597 154.345 97.554 154.407 97.7821C154.468 98.0104 154.436 98.2537 154.318 98.4584C154.2 98.6631 154.005 98.8125 153.777 98.8741L150.577 99.7332L152.25 102.633C152.368 102.838 152.399 103.081 152.338 103.31C152.277 103.538 152.127 103.733 151.923 103.851C151.718 103.969 151.475 104.001 151.247 103.939C151.019 103.878 150.824 103.729 150.705 103.525L149.118 100.775L147.566 103.463C147.447 103.668 147.253 103.817 147.024 103.878C146.796 103.939 146.553 103.907 146.348 103.789C146.145 103.67 145.997 103.475 145.936 103.247C145.874 103.019 145.905 102.777 146.021 102.571L147.663 99.7281L144.491 98.8782C144.263 98.8165 144.068 98.667 143.95 98.4624C143.832 98.2578 143.799 98.0146 143.86 97.7861C143.921 97.558 144.071 97.3637 144.276 97.2456C144.481 97.1275 144.724 97.0953 144.952 97.1561L148.242 98.0382V94.7852C148.242 94.549 148.336 94.3227 148.503 94.1558C148.67 93.9888 148.897 93.8947 149.133 93.8942L149.134 93.8901Z" fill="#3F4D56"/>
<path fill-rule="evenodd" clip-rule="evenodd" d="M151.645 176.375H228.005V186.175H151.645V176.375Z" fill="#C2D1DB"/>
<path fill-rule="evenodd" clip-rule="evenodd" d="M270.609 148.208H300.925C296.431 160.653 292.879 173.177 295.083 186.179H269.63L265.713 163.902C264.457 156.758 260.854 148.208 270.609 148.208Z" fill="#907381"/>
<path fill-rule="evenodd" clip-rule="evenodd" d="M277.221 125.04C281.468 101.415 312.095 106.283 307.021 133.456C305.696 138.807 303.353 143.853 300.121 148.317H285.806C287.683 146.285 296.464 135.71 297.113 115.032C297.121 114.772 297.025 114.518 296.847 114.328C296.668 114.138 296.421 114.027 296.161 114.019C295.9 114.011 295.647 114.107 295.457 114.286C295.267 114.465 295.155 114.712 295.147 114.972C294.698 129.278 288.047 141.446 283.653 147.909C283.531 143.419 284.805 139.154 284.253 135.172C283.507 129.83 280.642 126.494 277.221 125.04Z" fill="#BFDFCF"/>
<path fill-rule="evenodd" clip-rule="evenodd" d="M284.245 134.806C281.945 118.291 259.37 120.921 262.787 139.231C263.613 142.566 265.036 145.724 266.987 148.552H268.087C268.917 148.379 269.765 148.297 270.613 148.307H276.202C274.241 145.862 269.747 138.993 269.37 127.007C269.38 126.844 269.45 126.691 269.567 126.578C269.684 126.464 269.839 126.399 270.002 126.394C270.165 126.389 270.323 126.445 270.447 126.551C270.571 126.657 270.65 126.805 270.67 126.967C270.956 136.093 275.047 143.908 277.953 148.308H283.686C283.379 143.538 284.834 139.015 284.248 134.808L284.245 134.806Z" fill="#E5F2EC"/>
<path fill-rule="evenodd" clip-rule="evenodd" d="M163.722 62.7114H173.535V62.1323C173.532 61.0075 173.084 59.9296 172.288 59.1342C171.493 58.3387 170.415 57.8905 169.29 57.8873H167.967C166.842 57.8905 165.764 58.3387 164.969 59.1342C164.174 59.9296 163.725 61.0075 163.722 62.1323V62.7114ZM175.983 72.7744C175.981 73.0921 175.854 73.3962 175.63 73.6208C175.405 73.8455 175.101 73.9725 174.783 73.9744H162.483C162.165 73.9725 161.861 73.8455 161.637 73.6208C161.412 73.3962 161.285 73.0921 161.283 72.7744V61.9744C161.288 60.2882 161.96 58.6724 163.152 57.48C164.344 56.2876 165.96 55.6154 167.646 55.6104H169.628C171.314 55.6151 172.93 56.2871 174.123 57.4796C175.315 58.6721 175.987 60.2881 175.991 61.9744L175.983 72.7744Z" fill="#C2D1DB"/>
<path fill-rule="evenodd" clip-rule="evenodd" d="M229.42 168.446C240.552 168.446 249.648 176.293 250.25 186.175H208.59C209.19 176.293 218.29 168.446 229.42 168.446Z" fill="#94ADBD"/>
</svg>
