<svg width="153" height="289" viewBox="0 0 153 289" fill="none" xmlns="http://www.w3.org/2000/svg">
<path fill-rule="evenodd" clip-rule="evenodd" d="M42.313 140.488L22.3799 114.98C22.3799 114.98 61.7392 82.7165 75.9292 49.4385C67.2412 103.974 58.179 122.12 42.313 140.488Z" fill="#3F4D56"/>
<path fill-rule="evenodd" clip-rule="evenodd" d="M73.0339 137.603L80.634 51.2825L84.688 40.9736L92.288 39.4575C92.288 39.4575 129.788 75.6066 136.888 146.558L109.353 146.727V137.098L73.033 137.604L73.0339 137.603Z" fill="#617885"/>
<path fill-rule="evenodd" clip-rule="evenodd" d="M84.1328 114.693L101.701 115.537L84.4712 106.922L84.1328 114.693Z" fill="#3F4D56"/>
<path fill-rule="evenodd" clip-rule="evenodd" d="M109.709 136.983L108.024 106.746L101.269 137.099L109.709 136.983Z" fill="#3F4D56"/>
<path fill-rule="evenodd" clip-rule="evenodd" d="M67.7459 264.8L49.1639 264.63C49.1639 264.63 47.6427 159.054 60.8187 128.311C61.3957 126.965 61.9445 125.752 62.4705 124.649L73.2318 124.013C73.5185 126.674 73.6602 129.349 73.6566 132.026L71.2918 136.925L85.4827 192.333L67.7459 264.8Z" fill="#617885"/>
<path fill-rule="evenodd" clip-rule="evenodd" d="M66.2649 128.395C66.2649 128.395 89.9139 232.45 109.848 259.141L129.105 258.802C129.105 258.802 111.93 180.282 111.379 146.441L109.666 146.451V136.822L73.3459 137.33L74.5269 123.915L69.2079 124.228L67.6989 124.317L66.2649 128.395Z" fill="#94ADBD"/>
<path fill-rule="evenodd" clip-rule="evenodd" d="M75.053 51.6299C68.753 90.4529 62.2087 110.43 52.9807 125.478L74.8889 124.186L81.3088 51.2859L85.363 40.9771L75.4626 42.377L75.053 51.6299Z" fill="#C2D1DB"/>
<path fill-rule="evenodd" clip-rule="evenodd" d="M64.732 9.7038C67.3473 10.5465 70.0982 10.8902 72.8404 10.7168C72.8404 10.7168 75.7124 10.1258 79.1754 17.4738C79.1754 17.4738 86.1004 15.9538 83.8204 24.9068L86.776 29.2138C86.776 29.2138 95.6453 22.7138 91.7603 11.9838C91.7603 11.9838 90.0713 -1.6162 73.1793 0.158797C73.1793 0.158797 61.354 2.2698 60.003 0.749797C60.003 0.749797 58.479 7.2548 64.732 9.7038Z" fill="#3E2D39"/>
<path d="M118.175 277.434L110.844 259.142L124.576 258.898L128.65 277.519C127.367 278.756 125.653 279.449 123.87 279.448C121.814 279.358 119.831 278.656 118.175 277.434ZM49.6299 277.057L50.5039 264.657L62.7178 264.768L60.3574 277.225C59.8172 277.853 59.1383 278.349 58.375 278.672C57.6117 278.995 56.7845 279.138 55.957 279.089C53.7058 278.981 51.523 278.28 49.6299 277.057ZM140.356 169.495C132.733 163.082 129.798 165.695 129.798 165.695L126.447 169.239C126.287 169.415 126.087 169.55 125.865 169.635C125.643 169.719 125.404 169.751 125.168 169.727C124.931 169.702 124.704 169.622 124.504 169.493C124.304 169.365 124.137 169.191 124.017 168.986L126.698 161.896C129.211 157.341 125.698 150.422 125.698 150.422L123.327 146.494L134.173 146.427C134.277 149.672 135.658 152.745 138.016 154.978L148.743 164.345C154.188 167.551 151.173 168.645 151.173 168.645C149.668 169.966 147.715 170.66 145.714 170.583C143.876 170.554 142.059 170.185 140.355 169.494L140.356 169.495ZM78.3438 34.4883C78.3438 34.4883 72.8972 38.4131 67.2842 38.4131C67.2842 38.4131 62.4209 38.413 62.1709 25.334C62.1709 25.334 61.8021 14.6039 64.7471 9.66992L64.8262 9.70215C67.4195 10.5447 70.1489 10.8881 72.8701 10.7148C72.8701 10.7148 75.7203 10.1228 79.1553 17.4658C79.1553 17.4658 86.0257 15.9446 83.7637 24.8896L86.6953 29.1895L89.5732 40.5186L77.4844 41.6797L78.3438 34.4883Z" fill="#AE8A64"/>
<path d="M91.0249 288.832C90.4855 288.199 90.1425 287.423 90.0386 286.598C89.9347 285.773 90.0743 284.934 90.44 284.188C91.693 281.488 97.7085 282.583 98.6265 282.667C99.5445 282.751 116.59 273.632 116.59 273.632L118.34 277.05C126.025 281.529 129.035 277.221 129.035 277.221C129.035 277.221 132.212 278.7 131.459 284.949L131.042 289.001L91.0249 288.832ZM22.398 288.832C21.8579 288.2 21.514 287.423 21.4097 286.598C21.3054 285.773 21.4443 284.934 21.8101 284.188C23.0641 281.488 29.0806 282.583 29.9966 282.667C30.9126 282.751 47.9624 273.632 47.9624 273.632L49.7124 277.05C57.3984 281.529 60.4048 277.221 60.4048 277.221C60.4048 277.221 63.5846 278.7 62.8316 284.949L62.4146 289.001L22.398 288.832Z" fill="#D9E4EA"/>
<path d="M12.2687 138.695C12.2687 138.695 15.7051 132.368 9.33511 133.801C9.33511 133.801 2.71709 135.151 1.79409 134.901C0.871092 134.651 -2.7302 134.565 3.9728 130.601C3.9728 130.601 7.49419 126.466 16.3732 124.188L23.9279 117.168L29.4279 124.262L21.8996 128.576C21.8996 128.576 19.0502 133.976 17.2072 136.001C17.2072 136.001 14.7366 139.293 13.8566 139.756C13.5868 139.902 13.2853 139.982 12.9787 139.989C12.3947 139.983 11.9557 139.61 12.2687 138.695Z" fill="#AE8A64"/>
</svg>
