<svg width="180" height="290" viewBox="0 0 180 290" fill="none" xmlns="http://www.w3.org/2000/svg">
<path fill-rule="evenodd" clip-rule="evenodd" d="M69.939 140.488L50.0059 114.98C50.0059 114.98 89.3652 82.7165 103.555 49.4385C94.8672 103.974 85.805 122.12 69.939 140.488Z" fill="#3F4D56"/>
<path fill-rule="evenodd" clip-rule="evenodd" d="M100.659 137.603L108.259 51.2825L112.313 40.9736L119.913 39.4575C119.913 39.4575 157.413 75.6066 164.513 146.558L136.978 146.727V137.098L100.658 137.604L100.659 137.603Z" fill="#617885"/>
<path fill-rule="evenodd" clip-rule="evenodd" d="M111.758 114.693L129.326 115.537L112.096 106.922L111.758 114.693Z" fill="#3F4D56"/>
<path fill-rule="evenodd" clip-rule="evenodd" d="M137.334 136.984L135.65 106.747L128.895 137.101L137.334 136.984Z" fill="#3F4D56"/>
<path fill-rule="evenodd" clip-rule="evenodd" d="M95.3699 264.801L76.7879 264.631C76.7879 264.631 75.2667 159.055 88.4427 128.312C89.0197 126.966 89.5685 125.753 90.0945 124.65L100.856 124.014C101.143 126.675 101.284 129.35 101.281 132.027L98.9158 136.926L113.107 192.334L95.3699 264.801Z" fill="#617885"/>
<path fill-rule="evenodd" clip-rule="evenodd" d="M93.8906 128.396C93.8906 128.396 117.54 232.451 137.474 259.142L156.731 258.803C156.731 258.803 139.556 180.283 139.005 146.442L137.292 146.452V136.823L100.972 137.331L102.153 123.916L96.8336 124.229L95.3246 124.318L93.8906 128.396Z" fill="#94ADBD"/>
<path fill-rule="evenodd" clip-rule="evenodd" d="M102.678 51.6299C96.3777 90.4529 89.8335 110.43 80.6055 125.478L102.514 124.186L108.934 51.2859L112.988 40.9771L103.087 42.377L102.678 51.6299Z" fill="#C2D1DB"/>
<path fill-rule="evenodd" clip-rule="evenodd" d="M92.3595 9.7038C94.9748 10.5465 97.7256 10.8902 100.468 10.7168C100.468 10.7168 103.34 10.1258 106.803 17.4738C106.803 17.4738 113.728 15.9538 111.448 24.9068L114.403 29.2138C114.403 29.2138 123.273 22.7138 119.388 11.9838C119.388 11.9838 117.699 -1.6162 100.807 0.158797C100.807 0.158797 88.9815 2.2698 87.6305 0.749797C87.6305 0.749797 86.1065 7.2548 92.3595 9.7038Z" fill="#3E2D39"/>
<path d="M145.801 277.434L138.47 259.142L152.202 258.898L156.276 277.519C154.993 278.756 153.279 279.449 151.496 279.448C149.44 279.358 147.457 278.656 145.801 277.434ZM77.2559 277.057L78.1299 264.657L90.3438 264.768L87.9834 277.225C87.4432 277.853 86.7642 278.349 86.001 278.672C85.2377 278.995 84.4105 279.138 83.583 279.089C81.3318 278.981 79.149 278.28 77.2559 277.057ZM167.982 169.495C160.359 163.082 157.424 165.695 157.424 165.695L154.073 169.239C153.913 169.415 153.713 169.55 153.491 169.635C153.269 169.719 153.03 169.751 152.794 169.727C152.557 169.702 152.33 169.622 152.13 169.493C151.93 169.365 151.763 169.191 151.643 168.986L154.324 161.896C156.837 157.341 153.324 150.422 153.324 150.422L150.953 146.494L161.799 146.427C161.903 149.672 163.284 152.745 165.642 154.978L176.369 164.345C181.814 167.551 178.799 168.645 178.799 168.645C177.294 169.966 175.341 170.66 173.34 170.583C171.502 170.554 169.685 170.185 167.981 169.494L167.982 169.495ZM105.97 34.4883C105.97 34.4883 100.523 38.4131 94.9102 38.4131C94.9102 38.4131 90.0469 38.413 89.7969 25.334C89.7969 25.334 89.428 14.6039 92.373 9.66992L92.4521 9.70215C95.0455 10.5447 97.7749 10.8881 100.496 10.7148C100.496 10.7148 103.346 10.1228 106.781 17.4658C106.781 17.4658 113.652 15.9446 111.39 24.8896L114.321 29.1895L117.199 40.5186L105.11 41.6797L105.97 34.4883Z" fill="#AE8A64"/>
<path d="M118.651 288.833C118.111 288.2 117.768 287.424 117.665 286.599C117.561 285.774 117.7 284.935 118.066 284.188C119.319 281.488 125.334 282.584 126.252 282.668C127.17 282.752 144.216 273.633 144.216 273.633L145.966 277.051C153.651 281.53 156.661 277.222 156.661 277.222C156.661 277.222 159.838 278.701 159.085 284.95L158.668 289.002L118.651 288.833ZM50.0239 288.833C49.4838 288.201 49.14 287.424 49.0357 286.599C48.9314 285.773 49.0703 284.935 49.436 284.188C50.69 281.488 56.7066 282.584 57.6226 282.668C58.5386 282.752 75.5884 273.633 75.5884 273.633L77.3384 277.051C85.0244 281.53 88.0308 277.222 88.0308 277.222C88.0308 277.222 91.2105 278.701 90.4575 284.95L90.0405 289.002L50.0239 288.833Z" fill="#D9E4EA"/>
<path d="M36.6222 129.653C36.3992 129.653 35.8222 134.171 35.5892 135.333H30.1672C30.8672 134.633 28.4242 117.876 28.3602 117.261C27.4672 110.784 26.9602 104.114 24.1602 98.4198C25.5988 98.3977 27.0071 98.0025 28.2472 97.2728C29.9766 96.304 31.6164 95.1833 33.1472 93.9238C33.4472 93.6878 33.7202 93.4758 33.9192 93.3238L33.9132 93.3158C34.0342 93.1408 33.8672 92.7508 33.9682 92.9018C34.2122 93.2668 34.1021 94.8018 33.9931 96.3198C33.7608 97.8019 33.8288 99.3155 34.1932 100.771L34.2072 100.804C34.5198 101.492 34.9363 102.128 35.4422 102.69C36.0032 103.331 36.713 103.824 37.5092 104.126C37.9466 104.288 38.4118 104.363 38.8781 104.345C39.3444 104.327 39.8026 104.217 40.2262 104.021C40.6427 103.828 41.0264 103.572 41.3632 103.26C44.8632 100.273 43.1782 96.4658 41.7362 93.2128C41.4692 92.6128 41.2092 92.0268 41.0002 91.4558C41.0093 91.4221 41.0249 91.3905 41.0462 91.3628C41.0651 91.3396 41.0862 91.3182 41.1092 91.2988L41.2762 91.4228H41.6161L42.2912 91.7228C44.6846 92.8986 47.215 93.772 49.8242 94.3228C44.6352 105.477 39.3372 117.323 36.6242 129.645L36.6222 129.653Z" fill="#C2D1DB"/>
<path d="M37.5075 104.697C36.7158 104.393 36.0113 103.899 35.4558 103.259C34.9531 102.697 34.5396 102.061 34.2311 101.373L34.2175 101.34C33.8549 99.8844 33.7868 98.3712 34.0173 96.8894C34.1979 95.7568 34.1903 94.6022 33.9938 93.4724C33.8938 93.3204 34.0572 93.7105 33.9372 93.8845L33.9431 93.8933C33.7431 94.0413 33.4794 94.2529 33.1794 94.4939C31.6602 95.7507 30.0326 96.8704 28.3161 97.8405C25.5161 99.3135 22.6614 99.7789 21.0964 96.7829C20.6028 95.8063 20.3801 94.7147 20.4518 93.6228C20.5236 92.5308 20.8874 91.4786 21.5046 90.5749C23.0054 88.2151 25.0572 86.2558 27.4841 84.8659L27.6345 84.779L27.7936 84.736C28.1556 84.646 28.5176 84.5526 28.7936 84.4616C29.0275 84.3922 29.251 84.2915 29.4577 84.1618L29.4968 84.1394L29.4616 84.1618C29.2529 84.2904 29.0284 84.391 28.7936 84.4616C28.5156 84.5536 28.1546 84.647 27.7936 84.736L27.6354 84.779L27.4831 84.8659C26.4602 85.4673 25.4961 86.1635 24.6032 86.945C24.2927 86.1057 24.0258 85.2504 23.8034 84.3835C23.0774 84.3835 22.3472 84.3586 21.6442 84.2976C20.6192 86.4398 19.2964 88.4266 17.7145 90.198C15.8035 92.12 13.6571 92.8978 11.5241 90.7468C7.99511 87.2348 10.9334 83.6595 13.3864 80.6765C13.8024 80.1675 14.2029 79.6761 14.5329 79.2331C12.0648 80.1561 9.48395 80.7471 6.86005 80.989C5.57302 81.1196 4.27358 81.037 3.01337 80.7448C2.39418 80.629 1.814 80.3598 1.32587 79.9616C0.837738 79.5635 0.457311 79.0488 0.219425 78.4655C-0.0820257 77.5313 -0.0639718 76.523 0.271183 75.6003L0.278996 75.5915C1.484 71.8675 6.66461 71.5999 10.3786 71.4099L10.9968 71.3757C10.7688 71.3517 10.5165 71.3312 10.2565 71.3122C9.90353 71.2892 9.54534 71.2647 9.43134 71.2507C8.14388 70.8362 6.9547 70.1623 5.9372 69.2712C5.14442 68.5992 4.50184 67.7688 4.05048 66.8327C3.69157 66.1277 3.55296 65.3313 3.65302 64.5466C3.75307 63.7619 4.08671 63.0247 4.61103 62.4323H4.62079C4.76503 62.2671 4.92192 62.1136 5.09052 61.9734C6.63852 60.7124 9.00143 60.719 11.1774 61.239C12.71 61.5974 14.1718 62.2097 15.5017 63.0515C14.8584 61.1143 14.5927 59.0721 14.7194 57.0349V57.0271C14.8606 55.7367 15.137 54.4639 15.5436 53.2312C15.795 52.432 16.1954 51.6885 16.7243 51.0388C17.0161 50.649 17.4177 50.3555 17.8776 50.196C18.3376 50.0365 18.835 50.0178 19.3054 50.1433C19.6147 50.2313 19.9089 50.3666 20.1774 50.5437L20.2097 50.5612C21.1183 51.2747 21.7893 52.2468 22.1345 53.3493C22.6135 54.7125 22.9027 56.1358 22.9929 57.5778C23.0391 59.6266 22.7054 61.6659 22.0095 63.5935L21.7809 64.3747H21.7946C21.8963 64.3808 21.9975 64.3565 22.0856 64.3054C22.3556 63.9744 22.7266 63.4384 23.1706 62.8054C24.3527 61.0003 25.6975 59.3078 27.1892 57.7487C29.6312 55.3537 32.4253 54.0676 35.0573 56.7956H35.0642C37.1002 58.9236 35.6786 61.4434 33.3356 63.7204C32.4539 64.5585 31.5242 65.3453 30.5515 66.0759C31.1315 66.5549 31.6159 67.0075 31.9069 67.2995V67.3054C32.0279 67.4264 32.1426 67.5496 32.2556 67.6726C33.9264 67.6673 35.5867 67.9374 37.1696 68.4724C36.2591 69.6824 35.546 71.0293 35.0573 72.4626C35.0577 72.4653 35.0577 72.4678 35.0573 72.4704C35.5646 70.9727 36.3187 69.5706 37.2878 68.321C38.6508 66.541 40.4873 65.0339 42.4753 65.0339C42.6405 65.0342 42.8056 65.0442 42.9694 65.0651C42.8037 65.0421 42.6367 65.0312 42.4694 65.031C41.5451 65.0545 40.6465 65.3381 39.8767 65.8503C39.5396 65.8363 39.1998 65.8178 38.8688 65.7868C36.4908 65.5798 34.4128 64.9514 33.5768 63.4724C35.4558 61.5724 36.6437 59.533 35.7087 57.695C37.0541 57.2059 38.4986 57.0525 39.9167 57.2487C42.0483 57.5132 44.1509 57.975 46.197 58.6286C46.938 58.8426 47.5632 59.0212 47.9782 59.1062C48.0783 59.0904 48.172 59.0456 48.2468 58.9773L48.2604 58.9694L47.5944 58.5075C45.8482 57.4494 44.3154 56.0748 43.0739 54.4538C42.2434 53.2737 41.5786 51.9849 41.0993 50.6237C40.6813 49.5434 40.5964 48.362 40.8561 47.2331L40.8708 47.2009C40.9689 46.8937 41.1143 46.6034 41.3024 46.3415C41.5872 45.9466 41.9834 45.6459 42.4401 45.4773C42.8969 45.3086 43.3938 45.2792 43.8669 45.3942C44.682 45.5672 45.4564 45.8922 46.1511 46.3523C47.2374 47.0538 48.2479 47.868 49.1647 48.78L49.1706 48.7859C50.5427 50.2916 51.6128 52.047 52.322 53.9567C52.8297 52.4585 53.5825 51.0547 54.5505 49.8034C55.9165 48.0244 57.751 46.5153 59.739 46.5153C59.9573 46.5165 60.1745 46.5371 60.3893 46.5759H60.3972C61.1757 46.7017 61.8975 47.0611 62.4665 47.6071C63.0354 48.1532 63.4251 48.8598 63.5827 49.6325C63.8163 50.6508 63.8347 51.7062 63.6374 52.7321C63.4173 53.9723 62.9773 55.1637 62.3376 56.2487L62.2526 56.3923L62.1579 56.486C62.0779 56.567 61.8143 56.8163 61.5573 57.0583C61.3693 57.2383 61.1842 57.4128 61.0212 57.5788L61.5212 57.2116C64.5272 55.0046 68.7212 51.9255 71.9792 54.0525L71.9909 54.0583C72.8311 54.5654 73.4764 55.3404 73.8229 56.2585C74.001 56.8646 74.0253 57.5058 73.8942 58.1237C73.7631 58.7417 73.4807 59.3169 73.072 59.7985C72.2764 60.8238 71.3192 61.7126 70.238 62.4304C68.0494 63.9048 65.6741 65.0817 63.1755 65.9304C63.7155 66.0714 64.3295 66.1949 64.9675 66.3249C68.7395 67.0899 73.2538 68.0054 72.7058 72.9704C72.3878 75.9964 70.2354 76.7524 67.5534 76.4704C64.7594 76.1814 61.3806 74.6477 59.5056 73.7927L58.8356 73.4929H58.4958L58.3308 73.3659C58.3076 73.3844 58.2866 73.4054 58.2692 73.4294C58.2481 73.4575 58.232 73.4887 58.2214 73.5222C58.4304 74.0952 58.6899 74.6769 58.9509 75.2819C60.3879 78.5339 62.0597 82.3409 58.5837 85.3269C58.2498 85.6384 57.8689 85.895 57.4548 86.0876C57.0354 86.2841 56.5807 86.3946 56.1179 86.4118C55.655 86.429 55.1932 86.3521 54.7604 86.1872C53.9677 85.8866 53.2629 85.3931 52.7097 84.7507C52.2074 84.1894 51.7936 83.5545 51.4841 82.8679L51.4684 82.8327C51.3649 82.5713 51.292 82.2984 51.2507 82.0202C49.5501 82.996 47.7598 83.8057 45.904 84.4382C46.441 84.5792 47.053 84.7037 47.694 84.8337C51.465 85.5977 55.9803 86.5132 55.4313 91.4792C55.1173 94.5022 52.962 95.2582 50.28 94.9792C47.487 94.6872 44.1071 93.1545 42.2311 92.2985L41.5622 91.9987H41.2243L41.0602 91.8728C41.0371 91.8916 41.0168 91.9125 40.9987 91.9362C40.9777 91.9643 40.962 91.9965 40.9518 92.03C41.1598 92.603 41.4173 93.1848 41.6813 93.7868C43.1143 97.0408 44.7892 100.849 41.3132 103.836C40.9793 104.147 40.5991 104.403 40.1862 104.597C39.7283 104.811 39.2296 104.923 38.7243 104.925C38.3086 104.919 37.8971 104.842 37.5075 104.697ZM39.9645 86.6609C40.8395 85.8169 41.3532 84.6667 41.3981 83.4519C41.4431 82.2371 41.0159 81.0515 40.2058 80.1452C39.7433 79.9278 39.3336 79.6123 39.0056 79.2204C36.5146 77.9434 33.2306 79.7867 32.0856 82.3327C32.1236 82.2477 32.1647 82.1628 32.2077 82.0788C33.0549 82.8919 33.7255 83.8705 34.1784 84.9538L34.1901 84.988C34.3792 85.7191 34.4563 86.474 34.4177 87.2282C34.405 87.4579 34.3786 87.6872 34.3386 87.9138C35.3015 88.2334 36.3327 88.2854 37.3229 88.0642C38.3131 87.8429 39.2252 87.3569 39.9606 86.6579L39.9645 86.6609ZM21.6061 84.2976H21.6403H21.6091C21.4861 84.2856 21.3658 84.2754 21.2458 84.2624C21.3608 84.2724 21.4802 84.2826 21.6022 84.2966L21.6061 84.2976ZM16.3747 71.696C16.1975 72.5616 16.2784 73.4598 16.6071 74.28C16.9358 75.1002 17.4974 75.8056 18.2233 76.3093C17.5419 76.6591 16.9697 77.1892 16.5681 77.8415C16.1665 78.4938 15.9515 79.2435 15.946 80.0095H15.9392C15.8574 80.6126 15.9524 81.2268 16.2126 81.7771C16.4728 82.3273 16.8879 82.7905 17.4059 83.1101C16.8888 82.7899 16.4756 82.3263 16.2165 81.7761C15.9574 81.2259 15.8634 80.6121 15.946 80.0095C16.289 76.2185 19.2639 75.4476 22.6569 75.7546C23.2469 75.8086 23.8451 75.8976 24.4401 76.0066C25.283 75.373 25.8949 74.4803 26.1813 73.4655C27.3742 74.8539 28.7736 76.0507 30.3298 77.0144L30.9968 77.4753L30.9821 77.488C30.9066 77.5528 30.816 77.5971 30.7184 77.6169C30.8173 77.5984 30.9091 77.554 30.9851 77.488L31.0007 77.4753L30.3347 77.0144C28.5875 75.9576 27.053 74.5835 25.8112 72.9626C24.98 71.7822 24.3161 70.4927 23.8376 69.1306C23.4194 68.0513 23.3349 66.8716 23.5954 65.7439L23.6101 65.7097C23.708 65.4021 23.8544 65.1115 24.0427 64.8493C24.2629 64.5317 24.5582 64.2739 24.903 64.0993C25.2478 63.9247 25.6309 63.8389 26.0173 63.8493C25.6304 63.8388 25.2475 63.9248 24.902 64.0993C24.5566 64.2739 24.2598 64.5316 24.0388 64.8493C23.8505 65.1119 23.7036 65.4023 23.6042 65.7097L23.5905 65.7439C23.3549 66.7247 23.3956 67.7514 23.7077 68.7107C22.9336 68.3777 22.0992 68.2075 21.2565 68.2107C19.0175 68.2117 16.7938 69.368 16.3698 71.697L16.3747 71.696ZM32.0417 82.446C32.044 82.4408 32.0458 82.4348 32.0476 82.4294C32.0441 82.4339 32.0407 82.4389 32.0368 82.4431L32.0417 82.446ZM32.071 82.3767C32.071 82.3677 32.0787 82.3593 32.0827 82.3513C32.0737 82.3553 32.0701 82.3638 32.0661 82.3728L32.071 82.3767ZM40.197 80.1374C40.0662 79.998 39.9273 79.8669 39.7809 79.7439C39.9253 79.8662 40.062 79.9961 40.1921 80.1335L40.197 80.1374ZM43.7643 76.0827L44.2643 75.7136C46.8643 73.8026 50.3648 71.2355 53.3708 71.9675C50.3598 71.2305 46.8704 73.7996 44.2624 75.7136L43.7624 76.0827H43.7643ZM49.8142 68.1452C51.6702 70.3882 55.3811 70.0142 57.2351 68.1452C57.705 67.6939 58.0765 67.1494 58.3239 66.5466C58.5714 65.9438 58.6899 65.2966 58.6726 64.6452C58.6552 63.9938 58.5025 63.3532 58.2233 62.7644C57.9442 62.1756 57.5448 61.651 57.0515 61.2253C56.3509 60.6138 55.4501 60.2809 54.5202 60.2888C50.9752 60.2838 47.1983 64.7213 49.8073 68.1423L49.8142 68.1452ZM45.2624 66.1726C45.5574 66.1006 45.8412 66.022 46.0622 65.946C46.2969 65.8761 46.5212 65.7744 46.7292 65.6452L46.7653 65.6218C46.3833 65.6218 45.8517 65.6598 45.2097 65.7028L44.736 65.7321C44.9228 65.8619 45.0979 66.0086 45.2585 66.1696L45.2624 66.1726ZM44.5339 65.5974L44.5895 65.6325L44.5339 65.5974C44.4819 65.5674 44.4336 65.5375 44.3776 65.5095C44.4276 65.5345 44.479 65.5644 44.53 65.5964L44.5339 65.5974Z" fill="#7D5A6B"/>
<path d="M56.9331 61.0918C53.1991 57.8488 46.4871 63.7268 49.7391 68.0108C51.5841 70.2558 55.2731 69.8808 57.1181 68.0108C57.5853 67.558 57.9534 67.0131 58.1991 66.4107C58.4448 65.8082 58.5627 65.1613 58.5454 64.5109C58.5281 63.8605 58.376 63.2208 58.0986 62.6323C57.8213 62.0437 57.4247 61.5192 56.9341 61.0918H56.9331ZM39.7651 79.6068C36.0311 76.3638 29.3191 82.2418 32.5711 86.5258C34.4161 88.7708 38.1051 88.3958 39.9501 86.5258C40.4174 86.0731 40.7856 85.5283 41.0313 84.9259C41.2771 84.3234 41.3951 83.6766 41.3779 83.0262C41.3607 82.3758 41.2087 81.736 40.9314 81.1474C40.6541 80.5589 40.2577 80.0343 39.7671 79.6068H39.7651ZM16.4991 71.5588C17.0791 68.3588 21.0621 67.3688 23.7921 68.5738C23.8311 68.7158 23.8741 68.8538 23.9211 68.9938C24.396 70.355 25.0559 71.6445 25.8821 72.8258C26.0011 73.0008 26.1261 73.1668 26.2531 73.3258C25.9683 74.3403 25.3575 75.2329 24.5151 75.8658C23.9241 75.7568 23.3281 75.6658 22.7421 75.6158C21.2523 75.3986 19.7315 75.5901 18.3421 76.1698C17.6187 75.6648 17.0587 74.9592 16.7313 74.1399C16.4038 73.3206 16.3231 72.4234 16.4991 71.5588Z" fill="#FBC02D"/>
<path fill-rule="evenodd" clip-rule="evenodd" d="M31.9138 123.923C33.4198 123.552 36.8368 121.652 37.2248 121.752C38.6914 119.737 39.7592 117.46 40.3708 115.044L40.9211 113.649C42.9365 114.418 44.8848 115.351 46.7468 116.44L51.6408 116.452L57.8142 124.961L47.7858 123.061C45.1677 123.993 42.4743 124.699 39.7351 125.17C39.7351 125.17 33.2599 125.93 32.3469 125.682C31.4339 125.434 30.7238 124.562 31.9138 123.923Z" fill="#AE8A64"/>
</svg>
