<svg width="16" height="16" viewBox="0 0 16 16" fill="none" xmlns="http://www.w3.org/2000/svg">
<path d="M8 0C6.41775 0 4.87103 0.469192 3.55544 1.34824C2.23985 2.22729 1.21447 3.47672 0.608967 4.93853C0.00346629 6.40034 -0.15496 8.00888 0.153721 9.56072C0.462403 11.1126 1.22433 12.538 2.34315 13.6569C3.46197 14.7757 4.88743 15.5376 6.43928 15.8463C7.99113 16.155 9.59966 15.9965 11.0615 15.391C12.5233 14.7855 13.7727 13.7602 14.6518 12.4446C15.5308 11.129 16 9.58225 16 8C15.9975 5.87903 15.1539 3.84563 13.6541 2.34587C12.1544 0.846118 10.121 0.00247015 8 0V0ZM12.5687 5.70733L6.80467 11.4713C6.67965 11.5963 6.51011 11.6665 6.33334 11.6665C6.15656 11.6665 5.98702 11.5963 5.862 11.4713L2.76467 8.374C2.70218 8.31149 2.66707 8.22672 2.66707 8.13833C2.66707 8.04995 2.70218 7.96518 2.76467 7.90267L3.236 7.43133C3.29851 7.36884 3.38328 7.33374 3.47167 7.33374C3.56006 7.33374 3.64483 7.36884 3.70734 7.43133L6.33334 10.0573L11.626 4.76467C11.6885 4.70218 11.7733 4.66707 11.8617 4.66707C11.9501 4.66707 12.0348 4.70218 12.0973 4.76467L12.5687 5.236C12.6312 5.29851 12.6663 5.38328 12.6663 5.47167C12.6663 5.56006 12.6312 5.64482 12.5687 5.70733V5.70733Z" fill="#46765D"/>
</svg>
