<svg width="182" height="344" viewBox="0 0 182 344" fill="none" xmlns="http://www.w3.org/2000/svg">
<path fill-rule="evenodd" clip-rule="evenodd" d="M182 0.43L0 0L16.972 344H166.829L182 0.43Z" fill="#C5C5C5"/>
<path fill-rule="evenodd" clip-rule="evenodd" d="M125.446 7.189L0.00195312 0L16.9502 344L109.551 343.167L125.446 7.189Z" fill="#EEECED"/>
<path fill-rule="evenodd" clip-rule="evenodd" d="M98.5605 210.16L80.9609 210.46L80.917 213.979L93.5654 213.72L90.4658 331.733L95.3662 331.807L98.5605 210.16ZM50.1104 33.9058L31.9932 32.418L31.7461 36.646L45.5586 37.937L47.1641 154.682H51.4766L50.1104 33.9058ZM75.9189 36.2861L75.5781 157.359L71.3145 157.168L71.6465 39.8452L57.123 37.5049V33.605L75.9189 36.2861ZM101.729 37.7729L82.416 36.584L82.3691 40.606L97.2549 41.6411L94.1143 157.573L98.4814 157.657L101.729 37.7729ZM98.9072 170.297V198.111L94.6348 197.999V173.855L33.3076 170.702L33.2734 167.025L98.9072 170.297ZM75.1465 210.16L73.7793 330.044H68.8203L70.1465 213.719L58.0146 213.708L58.04 210.147L75.1465 210.16ZM51.0469 208.673L34.7959 208.864L34.8252 212.395L46.0469 212.231L47.8721 331.438L52.9277 331.531L51.0469 208.673Z" fill="#BCAEB5"/>
<path fill-rule="evenodd" clip-rule="evenodd" d="M107.871 172.044C106.811 172.044 105.769 172.32 104.848 172.845C103.926 173.37 103.158 174.126 102.617 175.039C103.727 174.131 105.121 173.643 106.555 173.66C107.989 173.677 109.373 174.198 110.461 175.132C111.549 176.066 112.273 177.354 112.508 178.769C112.742 180.184 112.471 181.636 111.742 182.871C112.719 182.074 113.424 180.995 113.762 179.781C114.1 178.567 114.053 177.278 113.629 176.091C113.205 174.905 112.426 173.878 111.395 173.154C110.363 172.429 109.131 172.042 107.871 172.044Z" fill="#BCAEB5"/>
<path fill-rule="evenodd" clip-rule="evenodd" d="M102.616 175.035C101.502 175.947 100.748 177.224 100.483 178.639C100.218 180.053 100.462 181.515 101.171 182.768C101.879 184.02 103.005 184.984 104.354 185.486C105.703 185.989 107.186 185.998 108.542 185.514C109.897 185.029 111.039 184.081 111.764 182.838C112.489 181.595 112.752 180.137 112.506 178.719C112.261 177.301 111.522 176.015 110.421 175.088C109.319 174.161 107.926 173.652 106.487 173.652C105.075 173.652 103.707 174.14 102.616 175.035Z" fill="#D6CFD2"/>
</svg>
