<svg width="160" height="282" viewBox="0 0 160 282" fill="none" xmlns="http://www.w3.org/2000/svg">
<path fill-rule="evenodd" clip-rule="evenodd" d="M136.46 141.819L133.833 140.704C133.833 140.704 128.582 141.58 123.57 136.725L107.814 114.045C107.814 114.045 95.556 78.8718 101.605 62.3188C101.605 62.3188 120.704 100.994 136.458 112.93C136.458 112.93 152.933 127.254 143.542 136.406L144.47 138.37L136.46 141.819Z" fill="#7D5A6B"/>
<path fill-rule="evenodd" clip-rule="evenodd" d="M48.2827 116.46C48.2827 116.46 42.7125 140.811 58.6265 144.472C58.6265 144.472 86.7963 151.156 107.009 133.649C107.009 133.649 112.501 129.194 109.396 120.758C109.396 120.758 108.696 118.108 107.726 113.785C106.636 110.585 95.8609 78.0476 101.607 62.3186L104.783 50.8874C104.783 50.8874 106.763 47.4875 98.8784 46.5945L98.8589 46.9192L87.7983 43.8196C87.8763 43.6926 87.964 43.5474 88.0639 43.3864L86.0034 42.6946C86.0034 42.6946 80.6697 40.6265 80.9077 48.8225C63.0387 57.5485 12.365 103.899 19.314 127.522C21.232 134.045 20.7588 130.982 20.0288 135.241L29.1811 138.981C32.0721 140.162 32.1056 134.194 36.6616 134.923C39.2656 135.712 47.1087 119.024 48.2827 116.46Z" fill="#A38D97"/>
<path fill-rule="evenodd" clip-rule="evenodd" d="M58.1211 157.825L57.9609 186.47L49.0488 231.353L42.2812 261.67L55.6504 261.91L71.4082 213.61L88.9141 158.542L92.9414 142.034C75.7964 148.574 58.627 144.5 58.627 144.5C58.174 144.4 57.7384 144.271 57.3164 144.134L58.1211 157.825Z" fill="#7D7D7D"/>
<path fill-rule="evenodd" clip-rule="evenodd" d="M102.637 261.549L115.492 260.878L105.672 134.787C101.27 138.292 96.2812 140.988 90.9375 142.75L87.1621 158.225L82.0078 174.439L92.5742 199.922L102.637 261.549Z" fill="#686868"/>
<path fill-rule="evenodd" clip-rule="evenodd" d="M101.828 268.79L101.965 277.848C101.996 279.934 101.3 281.036 103.898 282L141.777 281.762L142.732 278.579C142.732 278.579 143.688 276.824 139.549 276.508C139.549 276.508 126.735 273.009 117.664 267.833C116.696 268.271 115.702 268.649 114.688 268.965C113.382 269.521 111.981 269.819 110.562 269.844C106.887 270.262 105.072 269.568 101.828 268.79ZM37.7695 268.708L37.9043 277.766C37.9333 279.852 37.2398 280.954 39.8398 281.918L77.7188 281.68L78.6719 278.497C78.6719 278.497 79.6272 276.746 75.4902 276.426C75.4902 276.426 62.6765 272.926 53.6055 267.754C52.636 268.19 51.6397 268.567 50.625 268.883C49.3195 269.442 47.9179 269.742 46.498 269.766C42.827 270.184 41.0095 269.49 37.7715 268.708H37.7695Z" fill="#3E2D39"/>
<path d="M104.314 269.408L102.655 261.548L115.489 260.879L115.44 260.248L116.361 268.283L116.177 268.452C115.668 268.645 115.173 268.816 114.689 268.965C113.382 269.521 111.98 269.82 110.56 269.847C109.872 269.927 109.181 269.969 108.488 269.971C107.079 269.958 105.677 269.769 104.314 269.408ZM39.8348 269.224L42.2772 261.676L55.6434 261.914L53.6805 267.797L53.6043 267.755C52.6351 268.19 51.6409 268.567 50.6278 268.886C49.3206 269.441 47.9195 269.74 46.4998 269.767C45.8124 269.847 45.1207 269.889 44.4285 269.891C42.8751 269.87 41.3313 269.646 39.8358 269.225L39.8348 269.224ZM144.735 155.038L139.964 144.219L137.306 141.466L144.47 138.382L143.544 136.418L146.249 142.148C146.249 142.148 155.161 147.639 157.79 150.904C160.419 154.169 157.949 154.485 157.949 154.485L151.741 152.256C145.531 148.756 147.205 155.356 147.205 155.356C147.205 155.356 146.726 156.549 146.17 156.628C146.156 156.629 146.143 156.629 146.13 156.628C145.572 156.634 144.736 155.039 144.736 155.039L144.735 155.038ZM21.951 150.11C21.951 150.11 20.1232 148.122 15.9852 150.51C15.9852 150.51 9.45927 153.217 4.52327 151.71C4.52327 151.71 -3.51355 148.687 4.68245 145.741C4.68245 145.741 16.8606 140.805 18.0526 138.577C19.2446 136.349 20.3787 133.588 20.3787 133.588C20.2787 133.979 20.1552 134.499 20.0262 135.254L28.3992 138.676L26.0887 143.113C26.0887 143.113 24.9748 148.367 27.0438 152.665C27.2838 153.247 27.5216 153.832 27.7606 154.416C27.7162 154.565 27.6258 154.695 27.5018 154.788C27.3777 154.882 27.2272 154.932 27.0721 154.933C25.4371 154.929 22.059 150.251 21.952 150.112L21.951 150.11ZM99.0555 42.4613L98.8563 46.9164L87.7947 43.8158C89.0567 41.7048 93.4733 34.9733 93.6453 32.6733C93.7253 31.5993 95.0369 32.9525 95.0369 32.9525L95.4744 32.2748C89.7744 25.2838 95.1302 22.1569 98.7752 27.0219C98.7752 27.0219 100.088 32.4339 103.789 29.6479C107.49 26.8619 111.667 22.1274 111.667 21.2484C111.667 20.3694 117.438 22.2815 117.833 26.6615C117.833 26.6615 118.509 29.6827 116.202 37.3217C116.202 37.3217 114.133 43.6892 111.349 47.5922C110.92 48.1169 110.307 48.4585 109.635 48.5473C109.386 48.5889 109.134 48.6092 108.882 48.6088C105.375 48.6118 101.598 44.7783 99.0574 42.4623L99.0555 42.4613Z" fill="#FFEBEE"/>
<path fill-rule="evenodd" clip-rule="evenodd" d="M91.2045 38.1901C87.7575 38.9901 80.7767 39.6731 76.6947 33.6121C76.6947 33.6121 59.4286 30.4291 68.6576 19.0491C68.6576 19.0491 69.8578 17.2992 67.9428 14.9112C67.9428 14.9112 62.4532 -1.95984 81.5502 0.189157C81.5502 0.189157 87.2 0.826108 91.099 8.38911C91.099 8.38911 94.3631 11.4132 99.0561 7.9112C99.0561 7.9112 109.798 4.1712 115.132 14.7552C115.132 14.7552 119.649 19.2421 117.931 28.2841C117.959 27.7419 117.929 27.1983 117.843 26.6622C117.443 22.2852 111.675 20.3752 111.675 21.2512C111.675 22.1272 107.497 26.8612 103.796 29.6512C100.095 32.4412 98.7846 27.0251 98.7846 27.0251C95.1346 22.1601 89.7778 25.2882 95.4838 32.2772L95.0483 32.9532C95.0483 32.9532 93.7348 31.6001 93.6518 32.6751C93.5678 33.8041 92.4625 36.0022 91.2065 38.1982L91.2045 38.1901Z" fill="#3E2D39"/>
</svg>
