<svg width="24" height="25" viewBox="0 0 24 25" fill="none" xmlns="http://www.w3.org/2000/svg">
<path d="M5.55796 10.4827L5.27096 9.41568C4.98196 8.34668 5.61696 7.24768 6.68696 6.96268L16.73 4.28668C17.79 4.00468 18.89 4.63968 19.176 5.69868L20.93 12.2077C21.218 13.2767 20.582 14.3757 19.514 14.6607L17.4 15.2237" stroke="#6D7686" stroke-width="1.5" stroke-linecap="round" stroke-linejoin="round"/>
<path fill-rule="evenodd" clip-rule="evenodd" d="M5 21.2199H15.4C16.505 21.2199 17.4 20.3249 17.4 19.2199V12.4829C17.4 11.3779 16.505 10.4829 15.4 10.4829H5C3.895 10.4829 3 11.3779 3 12.4829V19.2199C3 20.3249 3.896 21.2199 5 21.2199Z" stroke="#6D7686" stroke-width="1.5" stroke-linecap="round" stroke-linejoin="round"/>
<path d="M3 14.5596H17.4" stroke="#6D7686" stroke-width="1.5" stroke-linecap="round" stroke-linejoin="round"/>
</svg>
