<svg width="24" height="25" viewBox="0 0 24 25" fill="none" xmlns="http://www.w3.org/2000/svg">
<path d="M18.3549 17.8065C21.8819 14.3415 21.8819 8.7825 18.3549 5.3175C14.8279 1.8525 9.17088 1.8525 5.64488 5.3175C2.11888 8.7825 2.11788 14.3415 5.64488 17.8065" stroke="#6D7686" stroke-width="1.5" stroke-linecap="round" stroke-linejoin="round"/>
<path fill-rule="evenodd" clip-rule="evenodd" d="M4.09961 21.7197H20.0996H4.09961Z" stroke="#6D7686" stroke-width="1.5" stroke-linecap="round" stroke-linejoin="round"/>
<path d="M12 6.71973V7.96973" stroke="#6D7686" stroke-width="1.5" stroke-linecap="round" stroke-linejoin="round"/>
<path d="M12 16.7197V15.4697" stroke="#6D7686" stroke-width="1.5" stroke-linecap="round" stroke-linejoin="round"/>
<path d="M14.487 9.71973C14.422 8.74373 13.617 7.96973 12.625 7.96973H11.255C10.285 7.96973 9.5 8.75573 9.5 9.72473C9.5 10.5297 10.048 11.2317 10.828 11.4277L13.171 12.0157C13.952 12.2117 14.499 12.9137 14.499 13.7187C14.499 14.6887 13.713 15.4737 12.744 15.4737H11.374C10.38 15.4737 9.575 14.6977 9.511 13.7197" stroke="#6D7686" stroke-width="1.5" stroke-linecap="round" stroke-linejoin="round"/>
</svg>
