<svg width="24" height="25" viewBox="0 0 24 25" fill="none" xmlns="http://www.w3.org/2000/svg">
<path d="M17 21.7197C14.239 21.7197 12 19.4807 12 16.7197C12 13.9587 14.239 11.7197 17 11.7197C19.762 11.7197 22 13.9587 22 16.7197C22 19.4807 19.762 21.7197 17 21.7197" stroke="#6D7686" stroke-width="1.5" stroke-linecap="round" stroke-linejoin="round"/>
<path d="M2 7.56982H21" stroke="#6D7686" stroke-width="1.5" stroke-linecap="round" stroke-linejoin="round"/>
<path d="M21 13.7197V5.71973C21 4.61473 20.105 3.71973 19 3.71973H4C2.895 3.71973 2 4.61473 2 5.71973V14.7197C2 15.8247 2.895 16.7197 4 16.7197H12" stroke="#6D7686" stroke-width="1.5" stroke-linecap="round" stroke-linejoin="round"/>
<path d="M18.4098 15.3096L15.5898 18.1296" stroke="#6D7686" stroke-width="1.5" stroke-linecap="round" stroke-linejoin="round"/>
<path d="M18.4098 18.1296L15.5898 15.3096" stroke="#6D7686" stroke-width="1.5" stroke-linecap="round" stroke-linejoin="round"/>
</svg>
