<svg width="24" height="24" viewBox="0 0 24 24" fill="none" xmlns="http://www.w3.org/2000/svg">
<path d="M11.4972 17.005C11.2221 17.005 10.997 17.2301 11 17.5052C11 17.7803 11.2251 18.0054 11.5002 18.0054C11.7754 18.0054 12.0004 17.7803 12.0004 17.5052C12.0004 17.2301 11.7754 17.005 11.4972 17.005" stroke="#323232" stroke-width="1.5" stroke-linecap="round" stroke-linejoin="round"/>
<path d="M11.4972 11.0025C11.2221 11.0025 10.997 11.2276 11 11.5027C11 11.7778 11.2251 12.0029 11.5002 12.0029C11.7754 12.0029 12.0004 11.7778 12.0004 11.5027C12.0004 11.2276 11.7754 11.0025 11.4972 11.0025" stroke="#323232" stroke-width="1.5" stroke-linecap="round" stroke-linejoin="round"/>
<path d="M11.4972 5C11.2221 5 10.997 5.22509 11 5.50021C11 5.77532 11.2251 6.00042 11.5002 6.00042C11.7754 6.00042 12.0004 5.77532 12.0004 5.50021C12.0004 5.22509 11.7754 5 11.4972 5" stroke="#323232" stroke-width="1.5" stroke-linecap="round" stroke-linejoin="round"/>
</svg>
