<svg width="29" height="24" viewBox="0 0 29 24" fill="none" xmlns="http://www.w3.org/2000/svg">
<path d="M9.05285 10.1141C10.0944 11.1556 10.0944 12.8443 9.05285 13.8858C8.01132 14.9273 6.32267 14.9273 5.28114 13.8858C4.23961 12.8443 4.23961 11.1556 5.28114 10.1141C6.32267 9.07256 8.01132 9.07256 9.05285 10.1141" stroke="#6D7686" stroke-width="1.5" stroke-linecap="round" stroke-linejoin="round"/>
<path d="M19.7189 4.78115C20.7604 5.82268 20.7604 7.51133 19.7189 8.55286C18.6774 9.59439 16.9887 9.59439 15.9472 8.55286C14.9057 7.51133 14.9057 5.82268 15.9472 4.78115C16.9887 3.73962 18.6774 3.73962 19.7189 4.78115" stroke="#6D7686" stroke-width="1.5" stroke-linecap="round" stroke-linejoin="round"/>
<path d="M19.7189 15.4471C20.7604 16.4886 20.7604 18.1773 19.7189 19.2188C18.6774 20.2603 16.9887 20.2603 15.9472 19.2188C14.9057 18.1773 14.9057 16.4886 15.9472 15.4471C16.9887 14.4056 18.6774 14.4056 19.7189 15.4471" stroke="#6D7686" stroke-width="1.5" stroke-linecap="round" stroke-linejoin="round"/>
<path d="M9.54 10.81L15.46 7.84998" stroke="#6D7686" stroke-width="1.5" stroke-linecap="round" stroke-linejoin="round"/>
<path d="M9.54 13.19L15.46 16.15" stroke="#6D7686" stroke-width="1.5" stroke-linecap="round" stroke-linejoin="round"/>
</svg>
