<svg width="24" height="25" viewBox="0 0 24 25" fill="none" xmlns="http://www.w3.org/2000/svg">
<path d="M9.70801 19.0635V19.4285C9.70801 20.6935 10.734 21.7195 12 21.7195V21.7195C13.266 21.7195 14.292 20.6935 14.292 19.4275V19.0625" stroke="#6D7686" stroke-width="1.5" stroke-linecap="round" stroke-linejoin="round"/>
<path d="M13.833 6.47073V5.55273C13.833 4.54073 13.013 3.71973 12 3.71973V3.71973C10.987 3.71973 10.167 4.54073 10.167 5.55273V6.47073" stroke="#6D7686" stroke-width="1.5" stroke-linecap="round" stroke-linejoin="round"/>
<path fill-rule="evenodd" clip-rule="evenodd" d="M6.563 10.908V10.908C6.563 8.40495 8.592 6.37695 11.094 6.37695H12.907C15.41 6.37695 17.438 8.40595 17.438 10.908V10.908V13.705C17.438 14.235 17.649 14.744 18.024 15.119L18.665 15.76C19.04 16.135 19.251 16.644 19.251 17.174V17.174C19.251 18.218 18.405 19.064 17.361 19.064H6.64C5.596 19.064 4.75 18.218 4.75 17.174V17.174C4.75 16.644 4.961 16.135 5.336 15.76L5.977 15.119C6.352 14.744 6.563 14.235 6.563 13.705V10.908Z" stroke="#6D7686" stroke-width="1.5" stroke-linecap="round" stroke-linejoin="round"/>
</svg>
