<svg width="24" height="25" viewBox="0 0 24 25" fill="none" xmlns="http://www.w3.org/2000/svg">
<path d="M12 13.7197V10.7197" stroke="#6D7686" stroke-width="1.5" stroke-linecap="round" stroke-linejoin="round"/>
<path d="M12 5.71973V3.71973" stroke="#6D7686" stroke-width="1.5" stroke-linecap="round" stroke-linejoin="round"/>
<path fill-rule="evenodd" clip-rule="evenodd" d="M6.5 5.71973H17.185C17.474 5.71973 17.748 5.84473 17.938 6.06173L19.255 7.57073C19.58 7.94273 19.58 8.49673 19.255 8.86873L17.938 10.3777C17.748 10.5947 17.474 10.7197 17.185 10.7197H6.5C5.948 10.7197 5.5 10.2717 5.5 9.71973V6.71973C5.5 6.16773 5.948 5.71973 6.5 5.71973Z" stroke="#6D7686" stroke-width="1.5" stroke-linecap="round" stroke-linejoin="round"/>
<path fill-rule="evenodd" clip-rule="evenodd" d="M17.4987 18.7197H6.81375C6.52475 18.7197 6.25075 18.5947 6.06075 18.3777L4.74375 16.8687C4.41875 16.4967 4.41875 15.9427 4.74375 15.5707L6.06075 14.0617C6.24975 13.8447 6.52475 13.7197 6.81375 13.7197H17.4987C18.0507 13.7197 18.4987 14.1677 18.4987 14.7197V17.7197C18.4987 18.2717 18.0507 18.7197 17.4987 18.7197Z" stroke="#6D7686" stroke-width="1.5" stroke-linecap="round" stroke-linejoin="round"/>
<path d="M12 21.7197V18.7197" stroke="#6D7686" stroke-width="1.5" stroke-linecap="round" stroke-linejoin="round"/>
</svg>
