<svg width="24" height="25" viewBox="0 0 24 25" fill="none" xmlns="http://www.w3.org/2000/svg">
<path d="M3 12.7195H7.172C8.734 12.7195 10 11.4535 10 9.89152V9.89152C10 9.14152 9.702 8.42152 9.172 7.89152L6.717 5.43652" stroke="#6D7686" stroke-width="1.5" stroke-linecap="round" stroke-linejoin="round"/>
<path d="M18.2921 19.1577L16.5151 16.4927C16.1931 16.0097 15.6521 15.7197 15.0721 15.7197V15.7197C14.4151 15.7197 13.8151 15.3487 13.5211 14.7607L13.3881 14.4947C13.1441 14.0067 13.1441 13.4317 13.3881 12.9437L14.5211 10.6777C14.8141 10.0907 15.4151 9.71973 16.0721 9.71973H20.4801" stroke="#6D7686" stroke-width="1.5" stroke-linecap="round" stroke-linejoin="round"/>
<path d="M12 3.71973C16.982 3.71973 21 7.73773 21 12.7197C21 17.7017 16.982 21.7197 12 21.7197" stroke="#6D7686" stroke-width="1.5" stroke-linecap="round" stroke-linejoin="round"/>
<path d="M12 21.7197C7.018 21.7197 3 17.7017 3 12.7197C3 7.73773 7.018 3.71973 12 3.71973" stroke="#6D7686" stroke-width="1.5" stroke-linecap="round" stroke-linejoin="round"/>
</svg>
