<svg width="24" height="25" viewBox="0 0 24 25" fill="none" xmlns="http://www.w3.org/2000/svg">
<path fill-rule="evenodd" clip-rule="evenodd" d="M8.368 4.93088L4.368 6.26388C3.551 6.53588 3 7.30088 3 8.16188V19.1019C3 19.8449 3.782 20.3289 4.447 19.9959L8.105 18.1669C8.668 17.8849 9.331 17.8849 9.894 18.1669L14.105 20.2729C14.668 20.5549 15.331 20.5549 15.894 20.2729L19.894 18.2729C20.572 17.9339 21 17.2409 21 16.4839V6.10688C21 5.42388 20.331 4.94187 19.684 5.15788L15.633 6.50787C15.222 6.64487 14.779 6.64487 14.368 6.50787L9.632 4.93088C9.222 4.79388 8.778 4.79388 8.368 4.93088V4.93088Z" stroke="#6D7686" stroke-width="1.5" stroke-linecap="round" stroke-linejoin="round"/>
<path d="M15 10.25V16.19" stroke="#6D7686" stroke-width="1.5" stroke-linecap="round" stroke-linejoin="round"/>
<path d="M9 8.25V14.19" stroke="#6D7686" stroke-width="1.5" stroke-linecap="round" stroke-linejoin="round"/>
</svg>
