<svg width="24" height="25" viewBox="0 0 24 25" fill="none" xmlns="http://www.w3.org/2000/svg">
<path d="M12 20.7197V15.7197" stroke="#6D7686" stroke-width="1.5" stroke-linecap="round" stroke-linejoin="round"/>
<path fill-rule="evenodd" clip-rule="evenodd" d="M6.99 15.7197H17.01C17.557 15.7197 18 15.2767 18 14.7297V14.7297C18 14.4097 17.846 14.1097 17.585 13.9237L14.5 11.7197V8.71973L17.055 7.01673C17.333 6.83073 17.5 6.51873 17.5 6.18473V5.71973C17.5 5.16773 17.052 4.71973 16.5 4.71973H7.5C6.948 4.71973 6.5 5.16773 6.5 5.71973V6.18473C6.5 6.51873 6.667 6.83173 6.945 7.01673L9.5 8.71973V11.7197L6.415 13.9237C6.154 14.1097 6 14.4097 6 14.7297V14.7297C6 15.2767 6.443 15.7197 6.99 15.7197V15.7197Z" stroke="#6D7686" stroke-width="1.5" stroke-linecap="round" stroke-linejoin="round"/>
</svg>
