<svg width="24" height="25" viewBox="0 0 24 25" fill="none" xmlns="http://www.w3.org/2000/svg">
<path d="M20.7923 10.2434C21.5824 11.0334 21.5824 12.3143 20.7923 13.1044C20.0023 13.8944 18.7214 13.8944 17.9314 13.1044C17.1414 12.3143 17.1414 11.0334 17.9314 10.2434C18.7214 9.45337 20.0023 9.45337 20.7923 10.2434" stroke="#6D7686" stroke-width="1.5" stroke-linecap="round" stroke-linejoin="round"/>
<path d="M14.2024 6.63209C15.4189 7.84857 15.4189 9.82088 14.2024 11.0374C12.9859 12.2538 11.0136 12.2538 9.79713 11.0374C8.58065 9.82089 8.58065 7.84858 9.79713 6.63209C11.0136 5.41561 12.9859 5.41561 14.2024 6.63209" stroke="#6D7686" stroke-width="1.5" stroke-linecap="round" stroke-linejoin="round"/>
<path d="M6.06871 10.2434C6.85874 11.0334 6.85874 12.3143 6.06871 13.1044C5.27868 13.8944 3.99779 13.8944 3.20776 13.1044C2.41773 12.3143 2.41773 11.0334 3.20776 10.2434C3.99779 9.45337 5.27868 9.45337 6.06871 10.2434" stroke="#6D7686" stroke-width="1.5" stroke-linecap="round" stroke-linejoin="round"/>
<path d="M23.0002 19.7195V18.6235C23.0002 17.2425 21.8812 16.1235 20.5002 16.1235H19.6992" stroke="#6D7686" stroke-width="1.5" stroke-linecap="round" stroke-linejoin="round"/>
<path d="M1 19.7195V18.6235C1 17.2425 2.119 16.1235 3.5 16.1235H4.301" stroke="#6D7686" stroke-width="1.5" stroke-linecap="round" stroke-linejoin="round"/>
<path d="M17.3392 19.7197V18.1187C17.3392 16.1857 15.7722 14.6187 13.8392 14.6187H10.1602C8.22716 14.6187 6.66016 16.1857 6.66016 18.1187V19.7197" stroke="#6D7686" stroke-width="1.5" stroke-linecap="round" stroke-linejoin="round"/>
</svg>
