<svg width="48" height="48" viewBox="0 0 48 48" fill="none" xmlns="http://www.w3.org/2000/svg">
<path d="M6 24H14.344C17.468 24 20 21.468 20 18.344V18.344C20 16.844 19.404 15.404 18.344 14.344L13.434 9.43396" stroke="#303F4E" stroke-width="3" stroke-linecap="round" stroke-linejoin="round"/>
<path d="M36.584 36.876L33.03 31.546C32.386 30.58 31.304 30 30.144 30V30C28.83 30 27.63 29.258 27.042 28.082L26.776 27.55C26.288 26.574 26.288 25.424 26.776 24.448L29.042 19.916C29.628 18.742 30.83 18 32.144 18H40.96" stroke="#303F4E" stroke-width="3" stroke-linecap="round" stroke-linejoin="round"/>
<path d="M24 6C33.964 6 42 14.036 42 24C42 33.964 33.964 42 24 42" stroke="#303F4E" stroke-width="3" stroke-linecap="round" stroke-linejoin="round"/>
<path d="M24 42C14.036 42 6 33.964 6 24C6 14.036 14.036 6 24 6" stroke="#303F4E" stroke-width="3" stroke-linecap="round" stroke-linejoin="round"/>
</svg>
