<svg width="24" height="25" viewBox="0 0 24 25" fill="none" xmlns="http://www.w3.org/2000/svg">
<path d="M8.35568 17.7217V9.65234" stroke="#6D7686" stroke-width="1.5" stroke-linecap="round" stroke-linejoin="round"/>
<path d="M3.9963 9.65234V17.7217" stroke="#6D7686" stroke-width="1.5" stroke-linecap="round" stroke-linejoin="round"/>
<path d="M8.99901 17.7222H2.99651L1.99609 19.723V20.7234H9.99943" stroke="#6D7686" stroke-width="1.5" stroke-linecap="round" stroke-linejoin="round"/>
<path fill-rule="evenodd" clip-rule="evenodd" d="M13.0839 20.4908L12.9398 19.4044L12.2746 18.534C11.9085 18.0547 11.9085 17.3897 12.2746 16.9104L12.9398 16.041L13.0849 14.9545C13.1649 14.3565 13.6353 13.886 14.2334 13.8061L15.3188 13.662L16.1892 12.9967C16.6685 12.6307 17.3335 12.6307 17.8129 12.9967L18.6832 13.662L19.7697 13.8071C20.3676 13.8874 20.8379 14.3577 20.9182 14.9555L21.0622 16.041L21.7275 16.9104C22.0936 17.3897 22.0936 18.0547 21.7275 18.534L21.0622 19.4044L20.9172 20.4908C20.8373 21.0891 20.3669 21.5599 19.7687 21.6403L18.6832 21.7834L17.8129 22.4497C17.3332 22.8147 16.6689 22.8147 16.1892 22.4497L15.3188 21.7834L14.2324 21.6383C13.6343 21.5591 13.1636 21.0888 13.0839 20.4908Z" stroke="#6D7686" stroke-width="1.5" stroke-linecap="round" stroke-linejoin="round"/>
<path d="M18.5586 16.9448L16.6128 18.8906L15.4453 17.7221" stroke="#6D7686" stroke-width="1.5" stroke-linecap="round" stroke-linejoin="round"/>
<path fill-rule="evenodd" clip-rule="evenodd" d="M20.0036 6.64546L10.9998 2.71582L1.99609 6.64546V9.65271H20.0036V6.64546Z" stroke="#6D7686" stroke-width="1.5" stroke-linecap="round" stroke-linejoin="round"/>
</svg>
