<svg width="49" height="48" viewBox="0 0 49 48" fill="none" xmlns="http://www.w3.org/2000/svg">
<path d="M17.0444 34.0042V17.8655" stroke="#303F4E" stroke-width="3" stroke-linecap="round" stroke-linejoin="round"/>
<path d="M8.32659 17.8655V34.0042" stroke="#303F4E" stroke-width="3" stroke-linecap="round" stroke-linejoin="round"/>
<path d="M18.331 34.0042H6.32603L4.3252 38.0058V40.0066H20.3319" stroke="#303F4E" stroke-width="3" stroke-linecap="round" stroke-linejoin="round"/>
<path fill-rule="evenodd" clip-rule="evenodd" d="M26.4998 39.5425L26.2117 37.3696L24.8811 35.6288C24.149 34.6702 24.149 33.3401 24.8811 32.3815L26.2117 30.6428L26.5018 28.4699C26.6618 27.2738 27.6027 26.3328 28.7988 26.1729L30.9697 25.8848L32.7104 24.5542C33.669 23.8221 34.9991 23.8221 35.9578 24.5542L37.6985 25.8848L39.8714 26.1749C41.0671 26.3355 42.0077 27.2761 42.1683 28.4719L42.4565 30.6428L43.787 32.3815C44.5192 33.3401 44.5192 34.6702 43.787 35.6288L42.4565 37.3696L42.1663 39.5425C42.0066 40.739 41.0658 41.6806 39.8694 41.8414L37.6985 42.1276L35.9578 43.4601C34.9984 44.1902 33.6697 44.1902 32.7104 43.4601L30.9697 42.1276L28.7968 41.8374C27.6007 41.679 26.6593 40.7384 26.4998 39.5425Z" stroke="#303F4E" stroke-width="3" stroke-linecap="round" stroke-linejoin="round"/>
<path d="M37.4502 32.4495L33.5586 36.3411L31.2236 34.0041" stroke="#303F4E" stroke-width="3" stroke-linecap="round" stroke-linejoin="round"/>
<path fill-rule="evenodd" clip-rule="evenodd" d="M40.3402 11.851L22.3327 3.9917L4.3252 11.851V17.8655H40.3402V11.851Z" stroke="#303F4E" stroke-width="3" stroke-linecap="round" stroke-linejoin="round"/>
</svg>
