<svg width="24" height="25" viewBox="0 0 24 25" fill="none" xmlns="http://www.w3.org/2000/svg">
<path d="M12 11.9697C9.9471 11.9697 8.267 10.2904 8.267 8.23673H6.767C6.767 11.119 9.1189 13.4697 12 13.4697V11.9697ZM8.267 8.23673C8.267 6.17567 9.95445 4.46973 12 4.46973V2.96973C9.11155 2.96973 6.767 5.36178 6.767 8.23673H8.267ZM12 4.46973C14.0529 4.46973 15.733 6.14905 15.733 8.20273H17.233C17.233 5.3204 14.8811 2.96973 12 2.96973V4.46973ZM15.733 8.20273C15.733 10.2638 14.0456 11.9697 12 11.9697V13.4697C14.8884 13.4697 17.233 11.0777 17.233 8.20273H15.733ZM19 20.9697H5V22.4697H19V20.9697ZM5 20.9697C4.86421 20.9697 4.75 20.8555 4.75 20.7197H3.25C3.25 21.6839 4.03579 22.4697 5 22.4697V20.9697ZM4.75 20.7197V19.7197H3.25V20.7197H4.75ZM4.75 19.7197C4.75 17.9339 6.21421 16.4697 8 16.4697V14.9697C5.38579 14.9697 3.25 17.1055 3.25 19.7197H4.75ZM8 16.4697H16V14.9697H8V16.4697ZM16 16.4697C17.7858 16.4697 19.25 17.9339 19.25 19.7197H20.75C20.75 17.1055 18.6142 14.9697 16 14.9697V16.4697ZM19.25 19.7197V20.7197H20.75V19.7197H19.25ZM19.25 20.7197C19.25 20.8555 19.1358 20.9697 19 20.9697V22.4697C19.9642 22.4697 20.75 21.6839 20.75 20.7197H19.25Z" fill="#6D7686"/>
</svg>
