<svg width="24" height="26" viewBox="0 0 24 26" fill="none" xmlns="http://www.w3.org/2000/svg">
<path fill-rule="evenodd" clip-rule="evenodd" d="M11.5013 6.93618C13.0985 6.93618 14.3932 5.64143 14.3932 4.04426C14.3932 2.4471 13.0985 1.15234 11.5013 1.15234C9.90413 1.15234 8.60938 2.4471 8.60938 4.04426C8.60938 5.64143 9.90413 6.93618 11.5013 6.93618Z" stroke="#6D7686" stroke-width="1.5" stroke-linecap="round" stroke-linejoin="round"/>
<path fill-rule="evenodd" clip-rule="evenodd" d="M8.93088 17.8612V23.0024C8.93088 23.7119 9.50669 24.2877 10.2162 24.2877H12.7868C13.4963 24.2877 14.0721 23.7119 14.0721 23.0024V17.8612L15.4281 16.9576C15.7854 16.7199 16 16.3176 16 15.8883V11.4347C16 10.7252 15.4242 10.1494 14.7147 10.1494H8.28823C7.57874 10.1494 7.00293 10.7252 7.00293 11.4347V15.8883C7.00293 16.3176 7.21757 16.7199 7.57489 16.9576L8.93088 17.8612Z" stroke="#6D7686" stroke-width="1.5" stroke-linecap="round" stroke-linejoin="round"/>
</svg>
