<svg width="24" height="25" viewBox="0 0 24 25" fill="none" xmlns="http://www.w3.org/2000/svg">
<path fill-rule="evenodd" clip-rule="evenodd" d="M10.8561 13.8636C9.68615 12.6936 8.80415 11.3836 8.21815 10.0546C8.09415 9.7736 8.16715 9.4446 8.38415 9.2276L9.20315 8.4096C9.87415 7.7386 9.87415 6.7896 9.28815 6.2036L8.11415 5.0296C7.33315 4.2486 6.06715 4.2486 5.28615 5.0296L4.63415 5.6816C3.89315 6.4226 3.58415 7.4916 3.78415 8.5516C4.27815 11.1646 5.79615 14.0256 8.24515 16.4746C10.6941 18.9236 13.5551 20.4416 16.1681 20.9356C17.2281 21.1356 18.2971 20.8266 19.0381 20.0856L19.6891 19.4346C20.4701 18.6536 20.4701 17.3876 19.6891 16.6066L18.5161 15.4336C17.9301 14.8476 16.9801 14.8476 16.3951 15.4336L15.4921 16.3376C15.2751 16.5546 14.9461 16.6276 14.6651 16.5036C13.3361 15.9166 12.0261 15.0336 10.8561 13.8636Z" stroke="#6D7686" stroke-width="1.5" stroke-linecap="round" stroke-linejoin="round"/>
</svg>
