<svg width="24" height="25" viewBox="0 0 24 25" fill="none" xmlns="http://www.w3.org/2000/svg">
<path fill-rule="evenodd" clip-rule="evenodd" d="M3 12.0106C3 14.6936 4.42 17.0556 6.599 18.5446C6.598 19.3996 6.6 20.5516 6.6 21.7606L10.131 20.0136C10.735 20.1296 11.359 20.1926 12 20.1926C16.952 20.1926 21 16.5496 21 12.0106C21 7.47161 16.952 3.82861 12 3.82861C7.048 3.82861 3 7.47161 3 12.0106Z" stroke="#6D7686" stroke-width="1.5" stroke-linecap="round" stroke-linejoin="round"/>
<path d="M11.8992 13.0477V12.8407C11.8992 12.1627 12.3182 11.7957 12.7382 11.5137C13.1482 11.2377 13.5592 10.8777 13.5592 10.2137C13.5592 9.29669 12.8162 8.55469 11.9002 8.55469C10.9842 8.55469 10.2402 9.29569 10.2402 10.2127" stroke="#6D7686" stroke-width="1.5" stroke-linecap="round" stroke-linejoin="round"/>
<path d="M11.8984 15.3866C11.8154 15.3866 11.7484 15.4536 11.7494 15.5366C11.7494 15.6196 11.8164 15.6866 11.8994 15.6866C11.9824 15.6866 12.0494 15.6196 12.0494 15.5366C12.0494 15.4536 11.9834 15.3866 11.8984 15.3866" stroke="#6D7686" stroke-width="1.5" stroke-linecap="round" stroke-linejoin="round"/>
</svg>
