<svg width="24" height="25" viewBox="0 0 24 25" fill="none" xmlns="http://www.w3.org/2000/svg">
<path d="M8.55286 10.8339C9.59439 11.8754 9.59439 13.5641 8.55286 14.6056C7.51133 15.6471 5.82268 15.6471 4.78115 14.6056C3.73962 13.5641 3.73962 11.8754 4.78115 10.8339C5.82268 9.79235 7.51133 9.79235 8.55286 10.8339" stroke="#6D7686" stroke-width="1.5" stroke-linecap="round" stroke-linejoin="round"/>
<path d="M19.2189 5.50087C20.2604 6.5424 20.2604 8.23105 19.2189 9.27258C18.1773 10.3141 16.4887 10.3141 15.4472 9.27258C14.4056 8.23105 14.4056 6.5424 15.4472 5.50087C16.4887 4.45934 18.1773 4.45934 19.2189 5.50087" stroke="#6D7686" stroke-width="1.5" stroke-linecap="round" stroke-linejoin="round"/>
<path d="M19.2189 16.1669C20.2604 17.2084 20.2604 18.8971 19.2189 19.9386C18.1773 20.9801 16.4887 20.9801 15.4472 19.9386C14.4056 18.8971 14.4056 17.2084 15.4472 16.1669C16.4887 15.1254 18.1773 15.1254 19.2189 16.1669" stroke="#6D7686" stroke-width="1.5" stroke-linecap="round" stroke-linejoin="round"/>
<path d="M9.04004 11.5298L14.96 8.56982" stroke="#6D7686" stroke-width="1.5" stroke-linecap="round" stroke-linejoin="round"/>
<path d="M9.04004 13.9097L14.96 16.8697" stroke="#6D7686" stroke-width="1.5" stroke-linecap="round" stroke-linejoin="round"/>
</svg>
