<svg width="24" height="25" viewBox="0 0 24 25" fill="none" xmlns="http://www.w3.org/2000/svg">
<path fill-rule="evenodd" clip-rule="evenodd" d="M19 17.7197H18C17.448 17.7197 17 17.2717 17 16.7197V11.7197C17 11.1677 17.448 10.7197 18 10.7197H19C20.105 10.7197 21 11.6147 21 12.7197V15.7197C21 16.8247 20.105 17.7197 19 17.7197Z" stroke="#6D7686" stroke-width="1.5" stroke-linecap="round" stroke-linejoin="round"/>
<path fill-rule="evenodd" clip-rule="evenodd" d="M6 17.7197H5C3.895 17.7197 3 16.8247 3 15.7197V12.7197C3 11.6147 3.895 10.7197 5 10.7197H6C6.552 10.7197 7 11.1677 7 11.7197V16.7197C7 17.2717 6.552 17.7197 6 17.7197Z" stroke="#6D7686" stroke-width="1.5" stroke-linecap="round" stroke-linejoin="round"/>
<path d="M18.5 10.7197V10.2197C18.5 6.62973 15.59 3.71973 12 3.71973V3.71973C8.41 3.71973 5.5 6.62973 5.5 10.2197V10.7197" stroke="#6D7686" stroke-width="1.5" stroke-linecap="round" stroke-linejoin="round"/>
<path fill-rule="evenodd" clip-rule="evenodd" d="M12.625 21.9697H11.375C10.685 21.9697 10.125 21.4097 10.125 20.7197V20.7197C10.125 20.0297 10.685 19.4697 11.375 19.4697H12.625C13.315 19.4697 13.875 20.0297 13.875 20.7197V20.7197C13.875 21.4097 13.315 21.9697 12.625 21.9697Z" stroke="#6D7686" stroke-width="1.5" stroke-linecap="round" stroke-linejoin="round"/>
<path d="M13.875 20.7197H16C17.105 20.7197 18 19.8247 18 18.7197V17.7197" stroke="#6D7686" stroke-width="1.5" stroke-linecap="round" stroke-linejoin="round"/>
</svg>
