<svg width="24" height="25" viewBox="0 0 24 25" fill="none" xmlns="http://www.w3.org/2000/svg">
<path d="M5 9.71973V4.21973C5 3.39173 5.672 2.71973 6.5 2.71973V2.71973C7.328 2.71973 8 3.39173 8 4.21973V10.7197C8 12.3767 6.657 13.7197 5 13.7197V13.7197C3.343 13.7197 2 12.3767 2 10.7197V5.71973" stroke="#6D7686" stroke-width="1.5" stroke-linecap="round" stroke-linejoin="round"/>
<path d="M11 8.71973H16" stroke="#6D7686" stroke-width="1.5" stroke-linecap="round" stroke-linejoin="round"/>
<path d="M11 12.7197H16" stroke="#6D7686" stroke-width="1.5" stroke-linecap="round" stroke-linejoin="round"/>
<path d="M9 16.7197H16" stroke="#6D7686" stroke-width="1.5" stroke-linecap="round" stroke-linejoin="round"/>
<path d="M5 13.7197V19.7197C5 20.8247 5.895 21.7197 7 21.7197H18C19.105 21.7197 20 20.8247 20 19.7197V5.71973C20 4.61473 19.105 3.71973 18 3.71973H8" stroke="#6D7686" stroke-width="1.5" stroke-linecap="round" stroke-linejoin="round"/>
</svg>
