<svg width="24" height="25" viewBox="0 0 24 25" fill="none" xmlns="http://www.w3.org/2000/svg">
<path fill-rule="evenodd" clip-rule="evenodd" d="M18 21.7197H6C4.343 21.7197 3 20.3767 3 18.7197V6.71973C3 5.06273 4.343 3.71973 6 3.71973H18C19.657 3.71973 21 5.06273 21 6.71973V18.7197C21 20.3767 19.657 21.7197 18 21.7197Z" stroke="#6D7686" stroke-width="1.5" stroke-linecap="round" stroke-linejoin="round"/>
<path d="M9.98743 8.23229C10.6709 8.91571 10.6709 10.0238 9.98743 10.7072C9.30402 11.3906 8.19597 11.3906 7.51256 10.7072C6.82915 10.0237 6.82915 8.9157 7.51256 8.23229C8.19598 7.54887 9.30402 7.54887 9.98743 8.23229" stroke="#6D7686" stroke-width="1.5" stroke-linecap="round" stroke-linejoin="round"/>
<path d="M21 10.8287C20.55 10.7647 20.093 10.7197 19.625 10.7197C14.309 10.7197 10 15.0287 10 20.3447C10 20.8127 10.045 21.2697 10.109 21.7197" stroke="#6D7686" stroke-width="1.5" stroke-linecap="round" stroke-linejoin="round"/>
</svg>
