<svg width="24" height="25" viewBox="0 0 24 25" fill="none" xmlns="http://www.w3.org/2000/svg">
<path fill-rule="evenodd" clip-rule="evenodd" d="M19 4.71973H5C3.895 4.71973 3 5.61473 3 6.71973V19.7197C3 20.8247 3.895 21.7197 5 21.7197H19C20.105 21.7197 21 20.8247 21 19.7197V6.71973C21 5.61473 20.105 4.71973 19 4.71973Z" stroke="#6D7686" stroke-width="1.5" stroke-linecap="round" stroke-linejoin="round"/>
<path d="M16 3.71973V6.71973" stroke="#6D7686" stroke-width="1.5" stroke-linecap="round" stroke-linejoin="round"/>
<path d="M12 3.71973V6.71973" stroke="#6D7686" stroke-width="1.5" stroke-linecap="round" stroke-linejoin="round"/>
<path d="M8 3.71973V6.71973" stroke="#6D7686" stroke-width="1.5" stroke-linecap="round" stroke-linejoin="round"/>
<path d="M12 16.7197H17" stroke="#6D7686" stroke-width="1.5" stroke-linecap="round" stroke-linejoin="round"/>
<path d="M8.63389 15.8358C9.12204 16.324 9.12204 17.1155 8.63389 17.6036C8.14573 18.0918 7.35428 18.0918 6.86612 17.6036C6.37796 17.1155 6.37796 16.324 6.86612 15.8358C7.35427 15.3477 8.14573 15.3477 8.63389 15.8358" stroke="#6D7686" stroke-width="1.5" stroke-linecap="round" stroke-linejoin="round"/>
<path d="M12 11.7197H17" stroke="#6D7686" stroke-width="1.5" stroke-linecap="round" stroke-linejoin="round"/>
<path d="M8.63389 10.8358C9.12204 11.324 9.12204 12.1155 8.63389 12.6036C8.14573 13.0918 7.35428 13.0918 6.86612 12.6036C6.37796 12.1155 6.37796 11.324 6.86612 10.8358C7.35427 10.3477 8.14573 10.3477 8.63389 10.8358" stroke="#6D7686" stroke-width="1.5" stroke-linecap="round" stroke-linejoin="round"/>
</svg>
