<svg width="24" height="25" viewBox="0 0 24 25" fill="none" xmlns="http://www.w3.org/2000/svg">
<path d="M19.0898 9.88949L20.4998 8.47949" stroke="#6D7686" stroke-width="1.4441" stroke-linecap="round" stroke-linejoin="round"/>
<path d="M20.4998 16.9598L19.0898 15.5498" stroke="#6D7686" stroke-width="1.4441" stroke-linecap="round" stroke-linejoin="round"/>
<path d="M20.5 12.7197H22.5" stroke="#6D7686" stroke-width="1.4441" stroke-linecap="round" stroke-linejoin="round"/>
<path d="M4.91 15.5498L3.5 16.9598" stroke="#6D7686" stroke-width="1.4441" stroke-linecap="round" stroke-linejoin="round"/>
<path d="M3.5 8.47949L4.91 9.88949" stroke="#6D7686" stroke-width="1.4441" stroke-linecap="round" stroke-linejoin="round"/>
<path d="M3.5 12.7197H1.5" stroke="#6D7686" stroke-width="1.4441" stroke-linecap="round" stroke-linejoin="round"/>
<path d="M12.444 10.9419C14.408 10.9419 16 12.5339 16 14.4979V16.7199C16 18.9289 14.209 20.7199 12 20.7199V20.7199C9.791 20.7199 8 18.9289 8 16.7199V16.2759" stroke="#6D7686" stroke-width="1.5" stroke-linecap="round" stroke-linejoin="round"/>
<path d="M12 14.7197C9.791 14.7197 8 12.9287 8 10.7197V8.71973C8 6.51073 9.791 4.71973 12 4.71973V4.71973C14.209 4.71973 16 6.51073 16 8.71973V9.16373" stroke="#6D7686" stroke-width="1.5" stroke-linecap="round" stroke-linejoin="round"/>
</svg>
