<svg width="24" height="25" viewBox="0 0 24 25" fill="none" xmlns="http://www.w3.org/2000/svg">
<path d="M14 14.2197H19C19.552 14.2197 20 14.6677 20 15.2197V19.2197C20 19.7717 19.552 20.2197 19 20.2197H15C14.448 20.2197 14 19.7717 14 19.2197V14.2197C14 8.21973 15 7.21973 18 5.21973" stroke="#6D7686" stroke-width="1.5" stroke-linecap="round" stroke-linejoin="round"/>
<path d="M4 14.2197H9C9.552 14.2197 10 14.6677 10 15.2197V19.2197C10 19.7717 9.552 20.2197 9 20.2197H5C4.448 20.2197 4 19.7717 4 19.2197V14.2197C4 8.21973 5 7.21973 8 5.21973" stroke="#6D7686" stroke-width="1.5" stroke-linecap="round" stroke-linejoin="round"/>
</svg>
