<svg width="24" height="25" viewBox="0 0 24 25" fill="none" xmlns="http://www.w3.org/2000/svg">
<path d="M8.79185 16.161C9.88805 17.2572 9.88805 19.0345 8.79185 20.1307C7.69565 21.2269 5.91835 21.2269 4.82215 20.1307C3.72595 19.0345 3.72595 17.2572 4.82215 16.161C5.91835 15.0648 7.69565 15.0648 8.79185 16.161" stroke="#6D7686" stroke-width="1.5" stroke-linecap="round" stroke-linejoin="round"/>
<path d="M8.79185 5.30897C9.88805 6.40517 9.88805 8.18247 8.79185 9.27867C7.69565 10.3749 5.91835 10.3749 4.82215 9.27867C3.72595 8.18247 3.72595 6.40517 4.82215 5.30897C5.91835 4.21277 7.69565 4.21277 8.79185 5.30897" stroke="#6D7686" stroke-width="1.5" stroke-linecap="round" stroke-linejoin="round"/>
<path d="M20.0004 17.58L5.40039 9.72998" stroke="#6D7686" stroke-width="1.5" stroke-linecap="round" stroke-linejoin="round"/>
<path d="M20.0004 7.85986L5.40039 15.7099" stroke="#6D7686" stroke-width="1.5" stroke-linecap="round" stroke-linejoin="round"/>
</svg>
