<svg width="268" height="244" viewBox="0 0 268 244" fill="none" xmlns="http://www.w3.org/2000/svg">
<path d="M52.5241 216.212C111.083 216.212 151.296 240.591 179.513 240.591C207.731 240.591 266.992 227.554 266.992 123.23C266.992 18.9061 187.268 3.59058 156.232 3.59058C10.897 3.59058 -51.1839 216.212 52.5241 216.212Z" fill="#F1F1F1"/>
<path d="M209.992 12.426L214.631 7.61524L223.908 17.2368L219.269 22.0476L209.992 12.426Z" fill="#A7A7A7"/>
<path d="M236.66 40.0959L241.299 35.2852L250.576 44.9067L245.937 49.7175L236.66 40.0959Z" fill="#A7A7A7"/>
<path d="M235.48 17.2122L244.758 7.59059L249.396 12.4014L240.119 22.0229L235.48 17.2122Z" fill="#A7A7A7"/>
<path d="M66.752 98.2746L71.836 57.4129C72.6822 50.6298 78.2517 45.5476 84.8511 45.5476H183.14C189.74 45.5476 195.309 50.6298 196.155 57.4129L201.233 98.2746H66.752Z" fill="#F6F6F6"/>
<path d="M181.553 185.019H86.4326C79.1837 185.019 73.3125 178.93 73.3125 171.412V99.9753H194.673V171.412C194.673 178.93 188.802 185.019 181.553 185.019Z" fill="#F6F6F6"/>
<path d="M115.952 157.805H99.5522C95.9311 157.805 92.9922 154.757 92.9922 151.001V133.993C92.9922 130.237 95.9311 127.189 99.5522 127.189H115.952C119.573 127.189 122.512 130.237 122.512 133.993V151.001C122.512 154.757 119.573 157.805 115.952 157.805Z" fill="#A7A7A7"/>
<path d="M202.544 147.6L194.672 178.215H145.472L138.912 147.6H202.544Z" fill="#A7A7A7"/>
<path d="M99.6112 45.5476H84.8511C78.2517 45.5476 72.6822 50.6298 71.836 57.4129L66.752 98.2746H81.512L86.5961 57.4129C87.4423 50.6298 93.0118 45.5476 99.6112 45.5476Z" fill="#E7E7E7"/>
<path d="M88.0726 171.412V99.9753H73.3125V171.412C73.3125 178.93 79.1837 185.019 86.4326 185.019H101.193C93.9438 185.019 88.0726 178.93 88.0726 171.412Z" fill="#E7E7E7"/>
<path d="M107.752 151.001V133.993C107.752 130.237 110.691 127.189 114.312 127.189H99.5522C95.9311 127.189 92.9922 130.237 92.9922 133.993V151.001C92.9922 154.757 95.9311 157.805 99.5522 157.805H114.312C110.691 157.805 107.752 154.757 107.752 151.001Z" fill="#7D7D7D"/>
<path d="M138.912 147.6L145.472 178.215H160.232L153.672 147.6H138.912Z" fill="#7D7D7D"/>
<path d="M194.673 183.318H145.473C143.164 183.318 141.17 181.658 140.671 179.324L134.111 148.709C133.79 147.191 134.137 145.613 135.075 144.402C136.007 143.205 137.417 142.497 138.913 142.497H198.767L204.31 120.944L213.816 123.577L199.429 179.535C198.852 181.76 196.904 183.318 194.673 183.318ZM149.422 173.113H190.895L196.143 152.702H145.047L149.422 173.113Z" fill="#272727"/>
<path d="M171.492 162.591C180.605 162.591 187.992 155.203 187.992 146.091C187.992 136.978 180.605 129.591 171.492 129.591C162.379 129.591 154.992 136.978 154.992 146.091C154.992 155.203 162.379 162.591 171.492 162.591Z" fill="#A7A7A7"/>
<path d="M161.21 146.091C161.21 138.084 166.704 131.413 173.992 129.912C172.986 129.705 171.947 129.591 170.883 129.591C162.106 129.591 154.992 136.977 154.992 146.091C154.992 155.204 162.106 162.591 170.883 162.591C171.947 162.591 172.986 162.479 173.992 162.269C166.704 160.768 161.21 154.097 161.21 146.091Z" fill="#7D7D7D"/>
<path d="M171.492 164.591C161.292 164.591 152.992 156.291 152.992 146.091C152.992 135.89 161.292 127.591 171.492 127.591C181.693 127.591 189.992 135.89 189.992 146.091C189.992 156.291 181.693 164.591 171.492 164.591ZM171.492 131.86C163.645 131.86 157.261 138.244 157.261 146.091C157.261 153.937 163.645 160.321 171.492 160.321C179.339 160.321 185.723 153.937 185.723 146.091C185.723 138.244 179.339 131.86 171.492 131.86Z" fill="#272727"/>
<path d="M162.885 151.346L176.511 137.72L179.52 140.729L165.894 154.355L162.885 151.346Z" fill="#272727"/>
<path d="M162.885 140.729L165.894 137.72L179.52 151.346L176.511 154.355L162.885 140.729Z" fill="#272727"/>
<path d="M160.232 203.728C163.855 203.728 166.792 200.682 166.792 196.925C166.792 193.167 163.855 190.121 160.232 190.121C156.609 190.121 153.672 193.167 153.672 196.925C153.672 200.682 156.609 203.728 160.232 203.728Z" fill="#272727"/>
<path d="M186.472 203.728C190.095 203.728 193.032 200.682 193.032 196.925C193.032 193.167 190.095 190.121 186.472 190.121C182.849 190.121 179.912 193.167 179.912 196.925C179.912 200.682 182.849 203.728 186.472 203.728Z" fill="#272727"/>
<path d="M55.2715 94.8728H212.712V105.078H55.2715V94.8728Z" fill="#272727"/>
<path d="M196.352 98.9278L191.268 58.0661C190.736 53.8411 187.247 50.6503 183.133 50.6503H84.8444C80.7378 50.6503 77.2413 53.8411 76.7099 58.0661L71.6259 98.9278L61.8711 97.6283L66.9551 56.7666C68.1163 47.4595 75.8046 40.4451 84.8444 40.4451H183.133C192.173 40.4451 199.862 47.4595 201.023 56.7598L206.107 97.6215L196.352 98.9278Z" fill="#272727"/>
<path d="M93.0762 97.6401L99.6375 44.9031L109.399 46.2093L102.838 98.9464L93.0762 97.6401Z" fill="#272727"/>
<path d="M129.072 45.5476H138.912V98.2746H129.072V45.5476Z" fill="#272727"/>
<path d="M158.664 46.2092L168.425 44.903L174.987 97.64L165.225 98.9463L158.664 46.2092Z" fill="#272727"/>
<path d="M122.513 190.121H86.4327C76.4811 190.121 68.3926 181.733 68.3926 171.412V99.9754C68.3926 97.1588 70.5968 94.8728 73.3126 94.8728H194.673V105.078H78.2326V171.412C78.2326 176.1 81.9128 179.916 86.4327 179.916H122.513V190.121Z" fill="#272727"/>
<path d="M115.952 162.908H99.5523C93.2219 162.908 88.0723 157.567 88.0723 151.001V133.993C88.0723 127.427 93.2219 122.087 99.5523 122.087H115.952V132.292H99.5523C98.647 132.292 97.9123 133.054 97.9123 133.993V151.001C97.9123 151.94 98.647 152.702 99.5523 152.702H115.952V162.908Z" fill="#272727"/>
</svg>
