<svg width="267" height="244" viewBox="0 0 267 244" fill="none" xmlns="http://www.w3.org/2000/svg">
<path d="M239.144 49.9793C239.144 102.803 266.507 139.078 266.507 164.532C266.507 189.986 251.875 243.444 134.779 243.444C17.6835 243.444 0.49292 171.527 0.49292 143.531C0.49292 12.4289 239.144 -43.5721 239.144 49.9793Z" fill="#F1F1F1"/>
<path d="M209.107 5.95654L214.507 0.556478L225.307 11.3566L219.907 16.7567L209.107 5.95654Z" fill="#A7A7A7"/>
<path d="M240.154 37.0005L245.554 31.6004L256.354 42.4006L250.954 47.8006L240.154 37.0005Z" fill="#A7A7A7"/>
<path d="M238.826 11.3896L249.626 0.589527L255.026 5.98959L244.226 16.7897L238.826 11.3896Z" fill="#A7A7A7"/>
<path d="M204.145 153.061H101.047L85.7736 80.5112H219.418L204.145 153.061Z" fill="#F6F6F6"/>
<path d="M198.768 34.7349C192.915 34.7349 186.377 36.3384 180.507 42.2349C179.184 43.5641 189.275 62.3396 188.007 64.2349C186.897 65.8939 177.407 71.6111 176.507 73.2349C178.007 99.2349 159.93 68.4952 159.007 65.2349C157.593 60.2398 171.325 56.5058 171.007 57.2349C167.367 48.8874 164.979 34.7349 155.246 34.7349C142.15 34.7349 131.507 45.3272 131.507 58.3543C131.507 83.942 177.007 117.735 177.007 117.735C177.007 117.735 222.507 83.942 222.507 58.3543C222.507 45.3272 211.864 34.7349 198.768 34.7349Z" fill="#79B696"/>
<path d="M85.7736 80.5112L101.047 153.061H118.23L102.956 80.5112H85.7736Z" fill="#E7E7E7"/>
<path d="M146.778 58.5088C146.778 48.9628 152.696 40.799 161.066 37.393C158.416 36.3238 155.545 35.6899 152.505 35.6899C139.866 35.6899 129.595 45.9233 129.595 58.5088C129.595 83.2293 173.506 115.877 173.506 115.877C173.506 115.877 177.065 113.212 182.098 108.912C169.321 97.999 146.778 76.2492 146.778 58.5088Z" fill="#538968"/>
<path d="M204.145 158.789H101.047C98.3438 158.789 95.9993 156.887 95.4418 154.237L80.1681 81.6874C79.8168 79.9997 80.2445 78.2432 81.3289 76.8991C82.4133 75.5627 84.0476 74.7837 85.7736 74.7837H110.593V86.239H92.8376L105.698 147.334H199.501L205.374 119.429L216.593 121.788L209.758 154.245C209.193 156.887 206.848 158.789 204.145 158.789Z" fill="#272727"/>
<path d="M95.4417 154.237L76.3038 63.3514C75.3874 58.9754 71.4773 55.7909 67.0098 55.7756L39.9371 55.6916L39.9677 44.2363L67.0479 44.3203C76.8918 44.3585 85.4986 51.3768 87.5223 60.9992L106.66 151.878L95.4417 154.237Z" fill="#272727"/>
<path d="M209.872 181.699H89.592C80.1223 181.699 72.4091 173.994 72.4091 164.516C72.4091 155.039 80.1223 147.333 89.592 147.333H106.775V158.789H89.592C86.4379 158.789 83.8643 161.355 83.8643 164.516C83.8643 167.678 86.4379 170.244 89.592 170.244H209.872V181.699Z" fill="#272727"/>
<path d="M122.049 212.247C128.375 212.247 133.504 207.118 133.504 200.792C133.504 194.465 128.375 189.336 122.049 189.336C115.722 189.336 110.593 194.465 110.593 200.792C110.593 207.118 115.722 212.247 122.049 212.247Z" fill="#272727"/>
<path d="M183.143 212.247C189.47 212.247 194.599 207.118 194.599 200.792C194.599 194.465 189.47 189.336 183.143 189.336C176.817 189.336 171.688 194.465 171.688 200.792C171.688 207.118 176.817 212.247 183.143 212.247Z" fill="#272727"/>
<path d="M214.282 61.3386C214.282 63.3207 213.96 65.2839 213.355 67.1591C213.092 67.9366 212.369 68.4349 211.58 68.4349C211.389 68.4349 211.195 68.415 211.002 68.3448C210.028 68.0343 209.496 66.9804 209.811 66.0004C210.305 64.4929 210.561 62.9265 210.561 61.345C210.561 55.8037 207.549 50.7126 202.717 48.0394C200.455 46.7673 197.982 46.1339 195.352 46.1339C194.32 46.1339 193.491 45.3122 193.491 44.2798C193.491 43.2393 194.32 42.4208 195.352 42.4208C198.62 42.4208 201.711 43.1983 204.525 44.7846C210.535 48.0869 214.282 54.4511 214.282 61.3386ZM225.507 61.3386C225.507 64.4653 225.007 67.5899 224.028 70.6508C219.287 91.9508 178.722 117.654 176.997 118.729C176.388 119.111 175.708 119.312 175.017 119.312C174.324 119.312 173.645 119.111 173.035 118.729C171.307 117.658 130.716 91.9513 125.898 70.3042C125.005 67.5905 124.507 64.4621 124.507 61.3386C124.507 50.3562 130.486 40.2297 140.104 34.9448C146.741 31.2889 153.912 30.0724 162.2 32.2138C163.237 32.4654 164.11 33.1722 164.601 34.1387L175.181 55.0834C175.674 56.0628 175.71 57.2075 175.283 58.2069C174.845 59.2312 173.994 59.9887 172.935 60.3181L162.819 63.4087L173.498 83.058L173.799 70.2059C173.835 68.9171 174.525 67.7519 175.632 67.0991L185.331 61.372L175.48 42.5423C174.66 40.9775 175.06 39.0343 176.431 37.9264C185.765 30.3613 199.307 29.127 209.897 34.9232C219.536 40.2297 225.507 50.3562 225.507 61.3386ZM218.053 61.3386C218.053 53.0667 213.565 45.4504 206.319 41.4511C199.149 37.5436 190.394 37.7784 183.578 41.9608L193.57 61.0497C194.484 62.8104 193.866 64.9756 192.163 65.975L181.198 72.465L180.62 97.1855C180.584 98.8755 179.419 100.319 177.776 100.71C176.148 101.13 174.429 100.355 173.63 98.8755L154.097 62.9578C153.561 61.9784 153.497 60.7932 153.924 59.7636C154.353 58.7296 155.218 57.9456 156.288 57.6184L166.539 54.4868L158.742 39.0511C157.299 38.7616 155.951 38.6337 154.662 38.6337C150.881 38.6337 147.091 39.6164 143.701 41.4759C136.465 45.4558 131.967 53.0673 131.967 61.3391C131.967 63.7029 132.342 66.0452 133.085 68.355C136.422 83.2783 162.823 103.166 175.024 111.164C187.211 103.166 213.598 83.2978 216.854 68.6817C217.679 66.0452 218.053 63.7024 218.053 61.3386Z" fill="black"/>
</svg>
