<svg width="24" height="24" viewBox="0 0 24 24" fill="none" xmlns="http://www.w3.org/2000/svg">
<path d="M11.4972 17.0049C11.2221 17.0049 10.997 17.23 11 17.5051C11 17.7802 11.2251 18.0053 11.5002 18.0053C11.7754 18.0053 12.0004 17.7802 12.0004 17.5051C12.0004 17.23 11.7754 17.0049 11.4972 17.0049" stroke="#323232" stroke-width="1.5" stroke-linecap="round" stroke-linejoin="round"/>
<path d="M11.4972 11.0024C11.2221 11.0024 10.997 11.2275 11 11.5026C11 11.7778 11.2251 12.0029 11.5002 12.0029C11.7754 12.0029 12.0004 11.7778 12.0004 11.5026C12.0004 11.2275 11.7754 11.0024 11.4972 11.0024" stroke="#323232" stroke-width="1.5" stroke-linecap="round" stroke-linejoin="round"/>
<path d="M11.4972 5C11.2221 5 10.997 5.22509 11 5.50021C11 5.77532 11.2251 6.00042 11.5002 6.00042C11.7754 6.00042 12.0004 5.77532 12.0004 5.50021C12.0004 5.22509 11.7754 5 11.4972 5" stroke="#323232" stroke-width="1.5" stroke-linecap="round" stroke-linejoin="round"/>
</svg>
