<svg width="20" height="20" viewBox="0 0 20 20" fill="none" xmlns="http://www.w3.org/2000/svg">
<path d="M5.00001 5.25C4.5858 5.25 4.25001 5.58579 4.25001 6C4.25001 6.41421 4.5858 6.75 5.00001 6.75V5.25ZM15 6.75C15.4142 6.75 15.75 6.41421 15.75 6C15.75 5.58579 15.4142 5.25 15 5.25V6.75ZM5.00001 9.25C4.5858 9.25 4.25001 9.58579 4.25001 10C4.25001 10.4142 4.5858 10.75 5.00001 10.75V9.25ZM13 10.75C13.4142 10.75 13.75 10.4142 13.75 10C13.75 9.58579 13.4142 9.25 13 9.25V10.75ZM5.00001 13.25C4.5858 13.25 4.25001 13.5858 4.25001 14C4.25001 14.4142 4.5858 14.75 5.00001 14.75V13.25ZM7.00001 14.75C7.41422 14.75 7.75001 14.4142 7.75001 14C7.75001 13.5858 7.41422 13.25 7.00001 13.25V14.75ZM12.4697 16.5303C12.7626 16.8232 13.2375 16.8232 13.5304 16.5303C13.8232 16.2374 13.8232 15.7626 13.5304 15.4697L12.4697 16.5303ZM11.5304 13.4697C11.2375 13.1768 10.7626 13.1768 10.4697 13.4697C10.1768 13.7626 10.1768 14.2374 10.4697 14.5303L11.5304 13.4697ZM16.5304 13.5303C16.8233 13.2374 16.8233 12.7626 16.5304 12.4697C16.2375 12.1768 15.7626 12.1768 15.4697 12.4697L16.5304 13.5303ZM12.4697 15.4697C12.1768 15.7626 12.1768 16.2374 12.4697 16.5303C12.7626 16.8232 13.2375 16.8232 13.5304 16.5303L12.4697 15.4697ZM5.00001 6.75H15V5.25H5.00001V6.75ZM5.00001 10.75H13V9.25H5.00001V10.75ZM5.00001 14.75H7.00001V13.25H5.00001V14.75ZM17 18.25H3V19.75H17V18.25ZM3 18.25C2.30921 18.25 1.75 17.6908 1.75 17H0.25C0.25 18.5192 1.48079 19.75 3 19.75V18.25ZM1.75 17V3H0.25V17H1.75ZM1.75 3C1.75 2.30921 2.30921 1.75 3 1.75V0.25C1.48079 0.25 0.25 1.48079 0.25 3H1.75ZM3 1.75H17V0.25H3V1.75ZM17 1.75C17.6908 1.75 18.25 2.30921 18.25 3H19.75C19.75 1.48079 18.5192 0.25 17 0.25V1.75ZM18.25 3V17H19.75V3H18.25ZM18.25 17C18.25 17.6908 17.6908 18.25 17 18.25V19.75C18.5192 19.75 19.75 18.5192 19.75 17H18.25ZM13.5304 15.4697L11.5304 13.4697L10.4697 14.5303L12.4697 16.5303L13.5304 15.4697ZM15.4697 12.4697L12.4697 15.4697L13.5304 16.5303L16.5304 13.5303L15.4697 12.4697Z" fill="#303F4E"/>
</svg>
