<svg width="109" height="109" viewBox="0 0 109 109" fill="none" xmlns="http://www.w3.org/2000/svg">
<g filter="url(#filter0_d_4800_108293)">
<rect x="21" y="17.0001" width="67" height="67" rx="14" fill="url(#paint0_linear_4800_108293)"/>
</g>
<g filter="url(#filter1_dd_4800_108293)">
<path fill-rule="evenodd" clip-rule="evenodd" d="M42.9918 36.9908C48.0488 37.0414 52.1353 41.7631 52.1353 49.1193C52.1353 55.2071 49.7261 60.2397 46.9821 64.0002C48.9421 65.4739 50.8628 66.6276 52.35 67.4363C53.1821 67.8888 53.8726 68.2301 54.3502 68.4562C54.5889 68.5692 54.7739 68.6532 54.8965 68.7078C54.9577 68.735 55.0033 68.7549 55.0321 68.7674L55.0626 68.7805L55.0679 68.7827C55.0675 68.7826 55.067 68.7824 54.303 70.5988C53.5389 72.4152 53.5383 72.415 53.5376 72.4147L53.5311 72.4119L53.5165 72.4057C53.5101 72.403 53.5025 72.3997 53.4936 72.3959C53.4858 72.3926 53.4771 72.3888 53.4675 72.3847C53.4262 72.3668 53.3678 72.3413 53.2934 72.3082C53.1446 72.2419 52.9317 72.1452 52.6638 72.0184C52.1284 71.7649 51.3717 71.3905 50.4673 70.8987C48.8247 70.0055 46.6749 68.7141 44.4714 67.0429C43.0456 68.5819 41.6682 69.7963 40.5931 70.6619C39.9568 71.1742 39.4228 71.5672 39.0423 71.8357C38.8519 71.97 38.6995 72.0734 38.5917 72.1452C38.5377 72.1811 38.4948 72.2091 38.4638 72.2292C38.4483 72.2393 38.4358 72.2473 38.4263 72.2534L38.4144 72.2609L38.4102 72.2636L38.4086 72.2647C38.4079 72.2651 38.4072 72.2655 37.3559 70.5988C36.3046 68.9321 36.304 68.9324 36.3035 68.9328L36.304 68.9324L36.3214 68.9212C36.3389 68.9099 36.368 68.8909 36.4078 68.8644C36.4876 68.8113 36.6104 68.728 36.7703 68.6153C37.0902 68.3896 37.5569 68.0467 38.1215 67.5921C39.047 66.8469 40.226 65.8094 41.4493 64.5049C37.4638 60.7803 33.8088 55.6101 33.8088 49.1193C33.8088 41.6382 37.8906 36.9397 42.9918 36.9908ZM43.9588 61.4557C46.2936 58.1903 48.1941 54.0235 48.1941 49.1193C48.1941 43.0754 45.088 40.9531 42.9524 40.9317C40.8609 40.9108 37.75 42.9124 37.75 49.1193C37.75 53.9971 40.4838 58.1577 43.9588 61.4557Z" fill="white"/>
<path fill-rule="evenodd" clip-rule="evenodd" d="M42.9918 36.9908C48.0488 37.0414 52.1353 41.7631 52.1353 49.1193C52.1353 56.4703 48.6226 62.2826 45.2495 66.1747C43.5545 68.1304 41.863 69.6395 40.5931 70.6619C39.9568 71.1742 39.4228 71.5672 39.0423 71.8357C38.8519 71.97 38.6995 72.0734 38.5917 72.1452C38.5377 72.1811 38.4948 72.2091 38.4638 72.2292C38.4483 72.2393 38.4358 72.2473 38.4263 72.2534L38.4144 72.2609L38.4102 72.2636L38.4086 72.2647C38.4079 72.2651 38.4072 72.2655 37.3559 70.5988C36.3046 68.9321 36.304 68.9324 36.3035 68.9328L36.304 68.9324L36.3214 68.9212C36.3389 68.9099 36.368 68.8909 36.4078 68.8644C36.4876 68.8113 36.6104 68.728 36.7703 68.6153C37.0902 68.3896 37.5569 68.0467 38.1215 67.5921C39.2532 66.6809 40.7639 65.3326 42.2712 63.5935C45.3025 60.0958 48.1941 55.1685 48.1941 49.1193C48.1941 43.0754 45.088 40.9531 42.9524 40.9317C40.8609 40.9108 37.75 42.9124 37.75 49.1193H33.8088C33.8088 41.6382 37.8906 36.9397 42.9918 36.9908Z" fill="url(#paint1_linear_4800_108293)"/>
<path fill-rule="evenodd" clip-rule="evenodd" d="M65.4173 36.9908C60.3602 37.0414 56.2738 41.7631 56.2738 49.1193C56.2738 55.2071 58.683 60.2397 61.4269 64.0002C59.4669 65.4739 57.5463 66.6276 56.059 67.4363C55.2269 67.8888 54.5365 68.2301 54.0589 68.4562C53.8202 68.5692 53.6351 68.6532 53.5126 68.7078C53.4513 68.735 53.4057 68.7549 53.3769 68.7674L53.3465 68.7805L53.3412 68.7827C53.3416 68.7826 53.3421 68.7824 54.1061 70.5988C54.8701 72.4152 54.8708 72.415 54.8715 72.4147L54.878 72.4119L54.8926 72.4057C54.899 72.403 54.9066 72.3997 54.9155 72.3959C54.9232 72.3926 54.9319 72.3888 54.9416 72.3847C54.9828 72.3668 55.0413 72.3413 55.1157 72.3082C55.2645 72.2419 55.4774 72.1452 55.7452 72.0184C56.2806 71.7649 57.0373 71.3905 57.9418 70.8987C59.5844 70.0055 61.7341 68.7141 63.9377 67.0429C65.3635 68.5819 66.7408 69.7963 67.816 70.6619C68.4522 71.1742 68.9862 71.5672 69.3668 71.8357C69.5572 71.97 69.7095 72.0734 69.8174 72.1452C69.8713 72.1811 69.9142 72.2091 69.9452 72.2292C69.9607 72.2393 69.9733 72.2473 69.9827 72.2534L69.9946 72.2609L69.9988 72.2636L70.0005 72.2647C70.0012 72.2651 70.0018 72.2655 71.0532 70.5988C72.1045 68.9321 72.105 68.9324 72.1055 68.9328L72.105 68.9324L72.0876 68.9212C72.0701 68.9099 72.0411 68.8909 72.0012 68.8644C71.9215 68.8113 71.7986 68.728 71.6388 68.6153C71.3189 68.3896 70.8522 68.0467 70.2876 67.5921C69.362 66.8469 68.1831 65.8094 66.9598 64.5049C70.9452 60.7803 74.6002 55.6101 74.6002 49.1193C74.6002 41.6382 70.5184 36.9397 65.4173 36.9908ZM64.4502 61.4557C62.1155 58.1903 60.2149 54.0235 60.2149 49.1193C60.2149 43.0754 63.3211 40.9531 65.4567 40.9317C67.5482 40.9108 70.659 42.9124 70.659 49.1193C70.659 53.9971 67.9253 58.1577 64.4502 61.4557Z" fill="url(#paint2_linear_4800_108293)"/>
<path fill-rule="evenodd" clip-rule="evenodd" d="M65.4173 36.9908C60.3602 37.0414 56.2738 41.7631 56.2738 49.1193H60.2149C60.2149 43.0754 63.3211 40.9531 65.4567 40.9317C67.5482 40.9108 70.659 42.9124 70.659 49.1193C70.659 55.0369 66.6355 59.8988 62.1462 63.4459C59.9426 65.187 57.7279 66.5288 56.059 67.4363C55.2269 67.8888 54.5365 68.2301 54.0589 68.4562C53.8202 68.5692 53.6351 68.6532 53.5126 68.7078C53.4513 68.735 53.4057 68.7549 53.3769 68.7674L53.3465 68.7805L53.3412 68.7827C53.3416 68.7826 53.3421 68.7824 54.1061 70.5988C54.8701 72.4152 54.8708 72.415 54.8715 72.4147L54.878 72.4119L54.8926 72.4057C54.899 72.403 54.9066 72.3997 54.9155 72.3959C54.9232 72.3926 54.9319 72.3888 54.9416 72.3847C54.9828 72.3668 55.0413 72.3413 55.1157 72.3082C55.2645 72.2419 55.4774 72.1452 55.7452 72.0184C56.2806 71.7649 57.0373 71.3905 57.9418 70.8987C59.746 69.9176 62.1623 68.4561 64.5895 66.5383C69.362 62.7676 74.6002 56.8898 74.6002 49.1193C74.6002 41.6382 70.5184 36.9397 65.4173 36.9908Z" fill="white"/>
</g>
<path d="M54.1059 72.7685L52.5294 71.9803L53.1206 70.0097L54.6971 69.8126L55.4853 72.1773L54.1059 72.7685Z" fill="#FCFDFF"/>
<path d="M50 33.9959C50 37.3466 52.7179 38.7282 54.0769 39.0001C55.3846 38.6738 58 37.216 58 33.9959C58 31.2518 56.1006 28.3391 54.7298 26.7189C54.3801 26.3056 53.7616 26.2932 53.3982 26.6944C51.9736 28.2671 50 31.1407 50 33.9959Z" fill="url(#paint3_linear_4800_108293)" stroke="url(#paint4_linear_4800_108293)" stroke-width="4"/>
<defs>
<filter id="filter0_d_4800_108293" x="0" y="0.00012207" width="109" height="109" filterUnits="userSpaceOnUse" color-interpolation-filters="sRGB">
<feFlood flood-opacity="0" result="BackgroundImageFix"/>
<feColorMatrix in="SourceAlpha" type="matrix" values="0 0 0 0 0 0 0 0 0 0 0 0 0 0 0 0 0 0 127 0" result="hardAlpha"/>
<feOffset dy="4"/>
<feGaussianBlur stdDeviation="10.5"/>
<feComposite in2="hardAlpha" operator="out"/>
<feColorMatrix type="matrix" values="0 0 0 0 0 0 0 0 0 0 0 0 0 0 0 0 0 0 0.25 0"/>
<feBlend mode="normal" in2="BackgroundImageFix" result="effect1_dropShadow_4800_108293"/>
<feBlend mode="normal" in="SourceGraphic" in2="effect1_dropShadow_4800_108293" result="shape"/>
</filter>
<filter id="filter1_dd_4800_108293" x="29.8088" y="36.9904" width="48.7914" height="43.4243" filterUnits="userSpaceOnUse" color-interpolation-filters="sRGB">
<feFlood flood-opacity="0" result="BackgroundImageFix"/>
<feColorMatrix in="SourceAlpha" type="matrix" values="0 0 0 0 0 0 0 0 0 0 0 0 0 0 0 0 0 0 127 0" result="hardAlpha"/>
<feOffset dy="1"/>
<feGaussianBlur stdDeviation="0.5"/>
<feComposite in2="hardAlpha" operator="out"/>
<feColorMatrix type="matrix" values="0 0 0 0 0 0 0 0 0 0 0 0 0 0 0 0 0 0 0.25 0"/>
<feBlend mode="normal" in2="BackgroundImageFix" result="effect1_dropShadow_4800_108293"/>
<feColorMatrix in="SourceAlpha" type="matrix" values="0 0 0 0 0 0 0 0 0 0 0 0 0 0 0 0 0 0 127 0" result="hardAlpha"/>
<feOffset dy="4"/>
<feGaussianBlur stdDeviation="2"/>
<feComposite in2="hardAlpha" operator="out"/>
<feColorMatrix type="matrix" values="0 0 0 0 0 0 0 0 0 0 0 0 0 0 0 0 0 0 0.25 0"/>
<feBlend mode="normal" in2="effect1_dropShadow_4800_108293" result="effect2_dropShadow_4800_108293"/>
<feBlend mode="normal" in="SourceGraphic" in2="effect2_dropShadow_4800_108293" result="shape"/>
</filter>
<linearGradient id="paint0_linear_4800_108293" x1="22.3794" y1="23.5031" x2="72.8265" y2="79.8619" gradientUnits="userSpaceOnUse">
<stop stop-color="#4CFFCF"/>
<stop offset="1" stop-color="#00AC7E"/>
</linearGradient>
<linearGradient id="paint1_linear_4800_108293" x1="39.1294" y1="70.5986" x2="49.3765" y2="56.2133" gradientUnits="userSpaceOnUse">
<stop stop-color="#14C293"/>
<stop offset="1" stop-color="white" stop-opacity="0"/>
</linearGradient>
<linearGradient id="paint2_linear_4800_108293" x1="58.8355" y1="52.2722" x2="64.1561" y2="70.5986" gradientUnits="userSpaceOnUse">
<stop stop-color="white"/>
<stop offset="1" stop-color="white" stop-opacity="0"/>
</linearGradient>
<linearGradient id="paint3_linear_4800_108293" x1="54" y1="26.0001" x2="54" y2="39.0001" gradientUnits="userSpaceOnUse">
<stop stop-color="white"/>
<stop offset="0.8125" stop-color="#F8BF1B"/>
</linearGradient>
<linearGradient id="paint4_linear_4800_108293" x1="54" y1="26.0001" x2="54" y2="39.0001" gradientUnits="userSpaceOnUse">
<stop stop-color="#FF5F55"/>
<stop offset="1" stop-color="#FF9900" stop-opacity="0"/>
</linearGradient>
</defs>
</svg>
