<svg width="270" height="109" viewBox="0 0 270 109" fill="none" xmlns="http://www.w3.org/2000/svg">
<g filter="url(#filter0_d_4800_108292)">
<rect x="21" y="17.0001" width="67" height="67" rx="14" fill="url(#paint0_linear_4800_108292)"/>
</g>
<g filter="url(#filter1_dd_4800_108292)">
<path fill-rule="evenodd" clip-rule="evenodd" d="M42.9918 36.9908C48.0488 37.0414 52.1353 41.7631 52.1353 49.1193C52.1353 55.2071 49.7261 60.2397 46.9821 64.0002C48.9421 65.4739 50.8628 66.6276 52.35 67.4363C53.1821 67.8888 53.8726 68.2301 54.3502 68.4562C54.5889 68.5692 54.7739 68.6532 54.8965 68.7077C54.9577 68.735 55.0033 68.7549 55.0321 68.7674L55.0626 68.7805L55.0679 68.7827C55.0675 68.7826 55.067 68.7824 54.303 70.5988C53.5389 72.4152 53.5383 72.415 53.5376 72.4147L53.5311 72.4119L53.5165 72.4057C53.5101 72.403 53.5025 72.3997 53.4936 72.3959C53.4858 72.3926 53.4771 72.3888 53.4675 72.3847C53.4262 72.3668 53.3678 72.3413 53.2934 72.3082C53.1446 72.2419 52.9317 72.1452 52.6638 72.0184C52.1284 71.7649 51.3717 71.3905 50.4673 70.8987C48.8247 70.0055 46.6749 68.7141 44.4714 67.0428C43.0456 68.5819 41.6682 69.7963 40.5931 70.6619C39.9568 71.1742 39.4228 71.5672 39.0423 71.8357C38.8519 71.97 38.6995 72.0734 38.5917 72.1452C38.5377 72.1811 38.4948 72.2091 38.4638 72.2292C38.4483 72.2393 38.4358 72.2473 38.4263 72.2534L38.4144 72.2609L38.4102 72.2636L38.4086 72.2647C38.4079 72.2651 38.4072 72.2655 37.3559 70.5988C36.3046 68.9321 36.304 68.9324 36.3035 68.9328L36.304 68.9324L36.3214 68.9212C36.3389 68.9099 36.368 68.8909 36.4078 68.8644C36.4876 68.8113 36.6104 68.728 36.7703 68.6153C37.0902 68.3896 37.5569 68.0467 38.1215 67.5921C39.047 66.8469 40.226 65.8094 41.4493 64.5049C37.4638 60.7803 33.8088 55.6101 33.8088 49.1193C33.8088 41.6382 37.8906 36.9397 42.9918 36.9908ZM43.9588 61.4557C46.2936 58.1903 48.1941 54.0235 48.1941 49.1193C48.1941 43.0754 45.088 40.9531 42.9524 40.9317C40.8609 40.9108 37.75 42.9124 37.75 49.1193C37.75 53.9971 40.4838 58.1577 43.9588 61.4557Z" fill="white"/>
<path fill-rule="evenodd" clip-rule="evenodd" d="M42.9918 36.9908C48.0488 37.0414 52.1353 41.7631 52.1353 49.1193C52.1353 56.4703 48.6226 62.2826 45.2495 66.1747C43.5545 68.1304 41.863 69.6395 40.5931 70.6619C39.9568 71.1742 39.4228 71.5672 39.0423 71.8357C38.8519 71.97 38.6995 72.0734 38.5917 72.1452C38.5377 72.1811 38.4948 72.2091 38.4638 72.2292C38.4483 72.2393 38.4358 72.2473 38.4263 72.2534L38.4144 72.2609L38.4102 72.2636L38.4086 72.2647C38.4079 72.2651 38.4072 72.2655 37.3559 70.5988C36.3046 68.9321 36.304 68.9324 36.3035 68.9328L36.304 68.9324L36.3214 68.9212C36.3389 68.9099 36.368 68.8909 36.4078 68.8644C36.4876 68.8113 36.6104 68.728 36.7703 68.6153C37.0902 68.3896 37.5569 68.0467 38.1215 67.5921C39.2532 66.6809 40.7639 65.3326 42.2712 63.5935C45.3025 60.0958 48.1941 55.1685 48.1941 49.1193C48.1941 43.0754 45.088 40.9531 42.9524 40.9317C40.8609 40.9108 37.75 42.9124 37.75 49.1193H33.8088C33.8088 41.6382 37.8906 36.9397 42.9918 36.9908Z" fill="url(#paint1_linear_4800_108292)"/>
<path fill-rule="evenodd" clip-rule="evenodd" d="M65.4173 36.9908C60.3602 37.0414 56.2738 41.7631 56.2738 49.1193C56.2738 55.2071 58.683 60.2397 61.4269 64.0002C59.4669 65.4739 57.5463 66.6276 56.059 67.4363C55.2269 67.8888 54.5365 68.2301 54.0589 68.4562C53.8202 68.5692 53.6351 68.6532 53.5126 68.7077C53.4513 68.735 53.4057 68.7549 53.3769 68.7674L53.3465 68.7805L53.3412 68.7827C53.3416 68.7826 53.3421 68.7824 54.1061 70.5988C54.8701 72.4152 54.8708 72.415 54.8715 72.4147L54.878 72.4119L54.8926 72.4057C54.899 72.403 54.9066 72.3997 54.9155 72.3959C54.9232 72.3926 54.9319 72.3888 54.9416 72.3847C54.9828 72.3668 55.0413 72.3413 55.1157 72.3082C55.2645 72.2419 55.4774 72.1452 55.7452 72.0184C56.2806 71.7649 57.0373 71.3905 57.9418 70.8987C59.5844 70.0055 61.7341 68.7141 63.9377 67.0428C65.3635 68.5819 66.7408 69.7963 67.816 70.6619C68.4522 71.1742 68.9862 71.5672 69.3668 71.8357C69.5572 71.97 69.7095 72.0734 69.8174 72.1452C69.8713 72.1811 69.9142 72.2091 69.9452 72.2292C69.9607 72.2393 69.9733 72.2473 69.9827 72.2534L69.9946 72.2609L69.9988 72.2636L70.0005 72.2647C70.0012 72.2651 70.0018 72.2655 71.0532 70.5988C72.1045 68.9321 72.105 68.9324 72.1055 68.9328L72.105 68.9324L72.0876 68.9212C72.0701 68.9099 72.0411 68.8909 72.0012 68.8644C71.9215 68.8113 71.7986 68.728 71.6388 68.6153C71.3189 68.3896 70.8522 68.0467 70.2876 67.5921C69.362 66.8469 68.1831 65.8094 66.9598 64.5049C70.9452 60.7803 74.6002 55.6101 74.6002 49.1193C74.6002 41.6382 70.5184 36.9397 65.4173 36.9908ZM64.4502 61.4557C62.1155 58.1903 60.2149 54.0235 60.2149 49.1193C60.2149 43.0754 63.3211 40.9531 65.4567 40.9317C67.5482 40.9108 70.659 42.9124 70.659 49.1193C70.659 53.9971 67.9253 58.1577 64.4502 61.4557Z" fill="url(#paint2_linear_4800_108292)"/>
<path fill-rule="evenodd" clip-rule="evenodd" d="M65.4173 36.9908C60.3602 37.0414 56.2738 41.7631 56.2738 49.1193H60.2149C60.2149 43.0754 63.3211 40.9531 65.4567 40.9317C67.5482 40.9108 70.659 42.9124 70.659 49.1193C70.659 55.0369 66.6355 59.8988 62.1462 63.4459C59.9426 65.187 57.7279 66.5288 56.059 67.4363C55.2269 67.8888 54.5365 68.2301 54.0589 68.4562C53.8202 68.5692 53.6351 68.6532 53.5126 68.7077C53.4513 68.735 53.4057 68.7549 53.3769 68.7674L53.3465 68.7805L53.3412 68.7827C53.3416 68.7826 53.3421 68.7824 54.1061 70.5988C54.8701 72.4152 54.8708 72.415 54.8715 72.4147L54.878 72.4119L54.8926 72.4057C54.899 72.403 54.9066 72.3997 54.9155 72.3959C54.9232 72.3926 54.9319 72.3888 54.9416 72.3847C54.9828 72.3668 55.0413 72.3413 55.1157 72.3082C55.2645 72.2419 55.4774 72.1452 55.7452 72.0184C56.2806 71.7649 57.0373 71.3905 57.9418 70.8987C59.746 69.9176 62.1623 68.4561 64.5895 66.5383C69.362 62.7676 74.6002 56.8898 74.6002 49.1193C74.6002 41.6382 70.5184 36.9397 65.4173 36.9908Z" fill="white"/>
</g>
<path d="M54.1059 72.7685L52.5294 71.9803L53.1206 70.0097L54.6971 69.8126L55.4853 72.1773L54.1059 72.7685Z" fill="#FCFDFF"/>
<path d="M50 33.9959C50 37.3466 52.7179 38.7282 54.0769 39.0001C55.3846 38.6738 58 37.216 58 33.9959C58 31.2518 56.1006 28.3391 54.7298 26.7189C54.3801 26.3056 53.7616 26.2932 53.3982 26.6944C51.9736 28.2671 50 31.1407 50 33.9959Z" fill="url(#paint3_linear_4800_108292)" stroke="url(#paint4_linear_4800_108292)" stroke-width="4"/>
<path d="M118.048 41.4761V42.7721C118.048 45.1721 117.28 47.1161 115.744 48.6041C114.208 50.0921 112.224 50.8361 109.792 50.8361C107.2 50.8361 105.048 49.9961 103.336 48.3161C101.64 46.6201 100.792 44.5561 100.792 42.1241C100.792 39.6761 101.632 37.6041 103.312 35.9081C105.008 34.2121 107.104 33.3641 109.6 33.3641C111.168 33.3641 112.6 33.7241 113.896 34.4441C115.192 35.1481 116.2 36.0921 116.92 37.2761L114.088 38.9081C113.688 38.2201 113.08 37.6601 112.264 37.2281C111.464 36.7961 110.568 36.5801 109.576 36.5801C107.976 36.5801 106.656 37.1081 105.616 38.1641C104.592 39.2041 104.08 40.5241 104.08 42.1241C104.08 43.7081 104.6 45.0201 105.64 46.0601C106.696 47.0841 108.088 47.5961 109.816 47.5961C111.096 47.5961 112.152 47.3161 112.984 46.7561C113.832 46.1801 114.408 45.3961 114.712 44.4041H109.624V41.4761H118.048ZM129.38 38.5001H132.476V50.5001H129.38V49.0841C128.452 50.2521 127.148 50.8361 125.468 50.8361C123.868 50.8361 122.492 50.2281 121.34 49.0121C120.204 47.7801 119.636 46.2761 119.636 44.5001C119.636 42.7241 120.204 41.2281 121.34 40.0121C122.492 38.7801 123.868 38.1641 125.468 38.1641C127.148 38.1641 128.452 38.7481 129.38 39.9161V38.5001ZM123.668 46.9481C124.292 47.5721 125.084 47.8841 126.044 47.8841C127.004 47.8841 127.796 47.5721 128.42 46.9481C129.06 46.3081 129.38 45.4921 129.38 44.5001C129.38 43.5081 129.06 42.7001 128.42 42.0761C127.796 41.4361 127.004 41.1161 126.044 41.1161C125.084 41.1161 124.292 41.4361 123.668 42.0761C123.044 42.7001 122.732 43.5081 122.732 44.5001C122.732 45.4921 123.044 46.3081 123.668 46.9481ZM138.379 40.5641C138.667 39.7961 139.139 39.2201 139.795 38.8361C140.467 38.4521 141.211 38.2601 142.027 38.2601V41.7161C141.083 41.6041 140.235 41.7961 139.483 42.2921C138.747 42.7881 138.379 43.6121 138.379 44.7641V50.5001H135.283V38.5001H138.379V40.5641ZM152.489 33.7001H155.585V50.5001H152.489V49.0841C151.577 50.2521 150.281 50.8361 148.601 50.8361C146.985 50.8361 145.601 50.2281 144.449 49.0121C143.313 47.7801 142.745 46.2761 142.745 44.5001C142.745 42.7241 143.313 41.2281 144.449 40.0121C145.601 38.7801 146.985 38.1641 148.601 38.1641C150.281 38.1641 151.577 38.7481 152.489 39.9161V33.7001ZM146.777 46.9481C147.417 47.5721 148.217 47.8841 149.177 47.8841C150.137 47.8841 150.929 47.5721 151.553 46.9481C152.177 46.3081 152.489 45.4921 152.489 44.5001C152.489 43.5081 152.177 42.7001 151.553 42.0761C150.929 41.4361 150.137 41.1161 149.177 41.1161C148.217 41.1161 147.417 41.4361 146.777 42.0761C146.153 42.7001 145.841 43.5081 145.841 44.5001C145.841 45.4921 146.153 46.3081 146.777 46.9481ZM161.032 45.7721C161.448 47.2761 162.576 48.0281 164.416 48.0281C165.6 48.0281 166.496 47.6281 167.104 46.8281L169.6 48.2681C168.416 49.9801 166.672 50.8361 164.368 50.8361C162.384 50.8361 160.792 50.2361 159.592 49.0361C158.392 47.8361 157.792 46.3241 157.792 44.5001C157.792 42.6921 158.384 41.1881 159.568 39.9881C160.752 38.7721 162.272 38.1641 164.128 38.1641C165.888 38.1641 167.336 38.7721 168.472 39.9881C169.624 41.2041 170.2 42.7081 170.2 44.5001C170.2 44.9001 170.16 45.3241 170.08 45.7721H161.032ZM160.984 43.3721H167.104C166.928 42.5561 166.56 41.9481 166 41.5481C165.456 41.1481 164.832 40.9481 164.128 40.9481C163.296 40.9481 162.608 41.1641 162.064 41.5961C161.52 42.0121 161.16 42.6041 160.984 43.3721ZM179.033 38.1641C180.345 38.1641 181.425 38.6041 182.273 39.4841C183.137 40.3641 183.569 41.5801 183.569 43.1321V50.5001H180.473V43.5161C180.473 42.7161 180.257 42.1081 179.825 41.6921C179.393 41.2601 178.817 41.0441 178.097 41.0441C177.297 41.0441 176.657 41.2921 176.177 41.7881C175.697 42.2841 175.457 43.0281 175.457 44.0201V50.5001H172.361V38.5001H175.457V39.8441C176.209 38.7241 177.401 38.1641 179.033 38.1641ZM202.437 49.0121C201.205 50.2281 199.701 50.8361 197.925 50.8361C196.149 50.8361 194.645 50.2281 193.413 49.0121C192.197 47.7801 191.589 46.2761 191.589 44.5001C191.589 42.7241 192.197 41.2281 193.413 40.0121C194.645 38.7801 196.149 38.1641 197.925 38.1641C199.701 38.1641 201.205 38.7801 202.437 40.0121C203.669 41.2281 204.285 42.7241 204.285 44.5001C204.285 46.2761 203.669 47.7801 202.437 49.0121ZM195.597 46.8761C196.221 47.5001 196.997 47.8121 197.925 47.8121C198.853 47.8121 199.629 47.5001 200.253 46.8761C200.877 46.2521 201.189 45.4601 201.189 44.5001C201.189 43.5401 200.877 42.7481 200.253 42.1241C199.629 41.5001 198.853 41.1881 197.925 41.1881C196.997 41.1881 196.221 41.5001 195.597 42.1241C194.989 42.7481 194.685 43.5401 194.685 44.5001C194.685 45.4601 194.989 46.2521 195.597 46.8761ZM212.544 36.3401C210.848 36.2121 210 36.8921 210 38.3801V38.5001H212.544V41.4761H210V50.5001H206.904V41.4761H205.176V38.5001H206.904V38.3801C206.904 36.6841 207.376 35.3961 208.32 34.5161C209.264 33.6361 210.672 33.2521 212.544 33.3641V36.3401ZM223.419 47.3321H229.827V50.5001H220.107V33.7001H223.419V47.3321ZM241.554 49.0121C240.322 50.2281 238.818 50.8361 237.042 50.8361C235.266 50.8361 233.762 50.2281 232.53 49.0121C231.314 47.7801 230.706 46.2761 230.706 44.5001C230.706 42.7241 231.314 41.2281 232.53 40.0121C233.762 38.7801 235.266 38.1641 237.042 38.1641C238.818 38.1641 240.322 38.7801 241.554 40.0121C242.786 41.2281 243.402 42.7241 243.402 44.5001C243.402 46.2761 242.786 47.7801 241.554 49.0121ZM234.714 46.8761C235.338 47.5001 236.114 47.8121 237.042 47.8121C237.97 47.8121 238.746 47.5001 239.37 46.8761C239.994 46.2521 240.306 45.4601 240.306 44.5001C240.306 43.5401 239.994 42.7481 239.37 42.1241C238.746 41.5001 237.97 41.1881 237.042 41.1881C236.114 41.1881 235.338 41.5001 234.714 42.1241C234.106 42.7481 233.802 43.5401 233.802 44.5001C233.802 45.4601 234.106 46.2521 234.714 46.8761ZM253.007 38.5001H256.415L251.855 50.5001H248.327L243.767 38.5001H247.175L250.079 46.9001L253.007 38.5001ZM260.055 45.7721C260.471 47.2761 261.599 48.0281 263.439 48.0281C264.623 48.0281 265.519 47.6281 266.127 46.8281L268.623 48.2681C267.439 49.9801 265.695 50.8361 263.391 50.8361C261.407 50.8361 259.815 50.2361 258.615 49.0361C257.415 47.8361 256.815 46.3241 256.815 44.5001C256.815 42.6921 257.407 41.1881 258.591 39.9881C259.775 38.7721 261.295 38.1641 263.151 38.1641C264.911 38.1641 266.359 38.7721 267.495 39.9881C268.647 41.2041 269.223 42.7081 269.223 44.5001C269.223 44.9001 269.183 45.3241 269.103 45.7721H260.055ZM260.007 43.3721H266.127C265.951 42.5561 265.583 41.9481 265.023 41.5481C264.479 41.1481 263.855 40.9481 263.151 40.9481C262.319 40.9481 261.631 41.1641 261.087 41.5961C260.543 42.0121 260.183 42.6041 260.007 43.3721Z" fill="#1A2042"/>
<path d="M103.913 66.6431C103.072 66.6431 102.357 66.4525 101.768 66.0711C101.187 65.6811 100.793 65.1568 100.585 64.4981L101.183 64.1471C101.348 64.7105 101.66 65.1568 102.119 65.4861C102.587 65.8155 103.185 65.9801 103.913 65.9801C104.65 65.9801 105.213 65.8111 105.603 65.4731C106.002 65.1351 106.201 64.6975 106.201 64.1601C106.201 63.6575 106.01 63.2718 105.629 63.0031C105.248 62.7345 104.654 62.4701 103.848 62.2101C103.553 62.1148 103.337 62.0455 103.198 62.0021C103.068 61.9501 102.877 61.8765 102.626 61.7811C102.375 61.6771 102.188 61.5861 102.067 61.5081C101.946 61.4301 101.798 61.3261 101.625 61.1961C101.46 61.0661 101.339 60.9361 101.261 60.8061C101.183 60.6675 101.114 60.5071 101.053 60.3251C100.992 60.1345 100.962 59.9265 100.962 59.7011C100.962 58.9645 101.222 58.3751 101.742 57.9331C102.271 57.4825 102.929 57.2571 103.718 57.2571C104.429 57.2571 105.035 57.4348 105.538 57.7901C106.041 58.1455 106.409 58.6048 106.643 59.1681L106.058 59.4931C105.625 58.4445 104.845 57.9201 103.718 57.9201C103.094 57.9201 102.596 58.0848 102.223 58.4141C101.85 58.7435 101.664 59.1638 101.664 59.6751C101.664 60.1691 101.837 60.5375 102.184 60.7801C102.531 61.0228 103.098 61.2741 103.887 61.5341C104.39 61.6988 104.78 61.8418 105.057 61.9631C105.343 62.0758 105.646 62.2361 105.967 62.4441C106.296 62.6435 106.535 62.8861 106.682 63.1721C106.829 63.4495 106.903 63.7745 106.903 64.1471C106.903 64.9011 106.63 65.5078 106.084 65.9671C105.538 66.4178 104.814 66.6431 103.913 66.6431ZM111.911 59.8571C112.847 59.8571 113.64 60.1865 114.29 60.8451C114.949 61.4951 115.278 62.2968 115.278 63.2501C115.278 64.2035 114.949 65.0095 114.29 65.6681C113.64 66.3181 112.847 66.6431 111.911 66.6431C111.296 66.6431 110.741 66.4958 110.247 66.2011C109.762 65.9065 109.385 65.5035 109.116 64.9921V69.1001H108.466V60.0001H109.116V61.5081C109.385 60.9968 109.762 60.5938 110.247 60.2991C110.741 60.0045 111.296 59.8571 111.911 59.8571ZM109.909 65.2131C110.446 65.7505 111.101 66.0191 111.872 66.0191C112.643 66.0191 113.293 65.7505 113.822 65.2131C114.359 64.6758 114.628 64.0215 114.628 63.2501C114.628 62.4788 114.359 61.8245 113.822 61.2871C113.293 60.7498 112.643 60.4811 111.872 60.4811C111.101 60.4811 110.446 60.7498 109.909 61.2871C109.38 61.8245 109.116 62.4788 109.116 63.2501C109.116 64.0215 109.38 64.6758 109.909 65.2131ZM117.495 61.2741C117.885 60.3641 118.608 59.9091 119.666 59.9091V60.5331C119.05 60.5331 118.535 60.7325 118.119 61.1311C117.703 61.5211 117.495 62.1061 117.495 62.8861V66.5001H116.845V60.0001H117.495V61.2741ZM123.515 59.8571C124.468 59.8571 125.24 60.1951 125.829 60.8711C126.427 61.5471 126.726 62.3488 126.726 63.2761C126.726 63.3108 126.722 63.3628 126.713 63.4321C126.713 63.5015 126.713 63.5535 126.713 63.5881H120.824C120.902 64.3161 121.192 64.9055 121.695 65.3561C122.206 65.7981 122.835 66.0191 123.58 66.0191C124.1 66.0191 124.555 65.9108 124.945 65.6941C125.335 65.4775 125.63 65.1915 125.829 64.8361L126.401 65.1741C126.132 65.6248 125.751 65.9845 125.257 66.2531C124.763 66.5131 124.2 66.6431 123.567 66.6431C122.57 66.6431 121.751 66.3268 121.11 65.6941C120.469 65.0528 120.148 64.2381 120.148 63.2501C120.148 62.2795 120.46 61.4735 121.084 60.8321C121.717 60.1821 122.527 59.8571 123.515 59.8571ZM123.515 60.4811C122.778 60.4811 122.163 60.7108 121.669 61.1701C121.175 61.6295 120.893 62.2231 120.824 62.9511H126.05C125.981 62.1798 125.703 61.5775 125.218 61.1441C124.741 60.7021 124.174 60.4811 123.515 60.4811ZM133.965 60.0001H134.628V66.5001H133.965V65.0311C133.688 65.5338 133.306 65.9281 132.821 66.2141C132.336 66.5001 131.785 66.6431 131.17 66.6431C130.243 66.6431 129.45 66.3181 128.791 65.6681C128.132 65.0095 127.803 64.2035 127.803 63.2501C127.803 62.2968 128.132 61.4951 128.791 60.8451C129.45 60.1865 130.243 59.8571 131.17 59.8571C131.785 59.8571 132.336 60.0001 132.821 60.2861C133.306 60.5721 133.688 60.9665 133.965 61.4691V60.0001ZM129.259 65.2131C129.796 65.7505 130.451 66.0191 131.222 66.0191C131.993 66.0191 132.643 65.7505 133.172 65.2131C133.701 64.6758 133.965 64.0215 133.965 63.2501C133.965 62.4788 133.701 61.8245 133.172 61.2871C132.643 60.7498 131.993 60.4811 131.222 60.4811C130.451 60.4811 129.796 60.7498 129.259 61.2871C128.73 61.8245 128.466 62.4788 128.466 63.2501C128.466 64.0215 128.73 64.6758 129.259 65.2131ZM142.357 57.4001H143.007V66.5001H142.357V64.9921C142.088 65.5035 141.707 65.9065 141.213 66.2011C140.728 66.4958 140.177 66.6431 139.562 66.6431C138.626 66.6431 137.829 66.3181 137.17 65.6681C136.52 65.0095 136.195 64.2035 136.195 63.2501C136.195 62.2968 136.52 61.4951 137.17 60.8451C137.829 60.1865 138.626 59.8571 139.562 59.8571C140.177 59.8571 140.728 60.0045 141.213 60.2991C141.707 60.5938 142.088 60.9968 142.357 61.5081V57.4001ZM137.638 65.2131C138.175 65.7505 138.83 66.0191 139.601 66.0191C140.372 66.0191 141.022 65.7505 141.551 65.2131C142.088 64.6758 142.357 64.0215 142.357 63.2501C142.357 62.4788 142.088 61.8245 141.551 61.2871C141.022 60.7498 140.372 60.4811 139.601 60.4811C138.83 60.4811 138.175 60.7498 137.638 61.2871C137.109 61.8245 136.845 62.4788 136.845 63.2501C136.845 64.0215 137.109 64.6758 137.638 65.2131ZM151.446 59.8571C152.217 59.8571 152.828 60.0955 153.279 60.5721C153.738 61.0401 153.968 61.6685 153.968 62.4571V66.5001H153.305V62.4571C153.305 61.8505 153.136 61.3695 152.798 61.0141C152.468 60.6588 152 60.4811 151.394 60.4811C150.726 60.4811 150.18 60.7021 149.756 61.1441C149.331 61.5861 149.119 62.2275 149.119 63.0681V66.5001H148.469V57.4001H149.119V61.2351C149.587 60.3165 150.362 59.8571 151.446 59.8571ZM161.527 60.0001H162.19V66.5001H161.527V65.0311C161.249 65.5338 160.868 65.9281 160.383 66.2141C159.897 66.5001 159.347 66.6431 158.732 66.6431C157.804 66.6431 157.011 66.3181 156.353 65.6681C155.694 65.0095 155.365 64.2035 155.365 63.2501C155.365 62.2968 155.694 61.4951 156.353 60.8451C157.011 60.1865 157.804 59.8571 158.732 59.8571C159.347 59.8571 159.897 60.0001 160.383 60.2861C160.868 60.5721 161.249 60.9665 161.527 61.4691V60.0001ZM156.821 65.2131C157.358 65.7505 158.012 66.0191 158.784 66.0191C159.555 66.0191 160.205 65.7505 160.734 65.2131C161.262 64.6758 161.527 64.0215 161.527 63.2501C161.527 62.4788 161.262 61.8245 160.734 61.2871C160.205 60.7498 159.555 60.4811 158.784 60.4811C158.012 60.4811 157.358 60.7498 156.821 61.2871C156.292 61.8245 156.028 62.4788 156.028 63.2501C156.028 64.0215 156.292 64.6758 156.821 65.2131ZM167.631 59.8571C168.567 59.8571 169.36 60.1865 170.01 60.8451C170.668 61.4951 170.998 62.2968 170.998 63.2501C170.998 64.2035 170.668 65.0095 170.01 65.6681C169.36 66.3181 168.567 66.6431 167.631 66.6431C167.015 66.6431 166.461 66.4958 165.967 66.2011C165.481 65.9065 165.104 65.5035 164.836 64.9921V69.1001H164.186V60.0001H164.836V61.5081C165.104 60.9968 165.481 60.5938 165.967 60.2991C166.461 60.0045 167.015 59.8571 167.631 59.8571ZM165.629 65.2131C166.166 65.7505 166.82 66.0191 167.592 66.0191C168.363 66.0191 169.013 65.7505 169.542 65.2131C170.079 64.6758 170.348 64.0215 170.348 63.2501C170.348 62.4788 170.079 61.8245 169.542 61.2871C169.013 60.7498 168.363 60.4811 167.592 60.4811C166.82 60.4811 166.166 60.7498 165.629 61.2871C165.1 61.8245 164.836 62.4788 164.836 63.2501C164.836 64.0215 165.1 64.6758 165.629 65.2131ZM176.009 59.8571C176.945 59.8571 177.738 60.1865 178.388 60.8451C179.047 61.4951 179.376 62.2968 179.376 63.2501C179.376 64.2035 179.047 65.0095 178.388 65.6681C177.738 66.3181 176.945 66.6431 176.009 66.6431C175.394 66.6431 174.839 66.4958 174.345 66.2011C173.86 65.9065 173.483 65.5035 173.214 64.9921V69.1001H172.564V60.0001H173.214V61.5081C173.483 60.9968 173.86 60.5938 174.345 60.2991C174.839 60.0045 175.394 59.8571 176.009 59.8571ZM174.007 65.2131C174.545 65.7505 175.199 66.0191 175.97 66.0191C176.742 66.0191 177.392 65.7505 177.92 65.2131C178.458 64.6758 178.726 64.0215 178.726 63.2501C178.726 62.4788 178.458 61.8245 177.92 61.2871C177.392 60.7498 176.742 60.4811 175.97 60.4811C175.199 60.4811 174.545 60.7498 174.007 61.2871C173.479 61.8245 173.214 62.4788 173.214 63.2501C173.214 64.0215 173.479 64.6758 174.007 65.2131ZM181.632 58.2841C181.528 58.3795 181.407 58.4271 181.268 58.4271C181.13 58.4271 181.008 58.3795 180.904 58.2841C180.8 58.1801 180.748 58.0545 180.748 57.9071C180.748 57.7685 180.8 57.6515 180.904 57.5561C181.008 57.4521 181.13 57.4001 181.268 57.4001C181.407 57.4001 181.528 57.4521 181.632 57.5561C181.736 57.6515 181.788 57.7685 181.788 57.9071C181.788 58.0545 181.736 58.1801 181.632 58.2841ZM180.943 66.5001V60.0001H181.593V66.5001H180.943ZM186.574 59.8571C187.345 59.8571 187.956 60.0955 188.407 60.5721C188.866 61.0401 189.096 61.6685 189.096 62.4571V66.5001H188.433V62.4571C188.433 61.8505 188.264 61.3695 187.926 61.0141C187.596 60.6588 187.128 60.4811 186.522 60.4811C185.854 60.4811 185.308 60.7021 184.884 61.1441C184.459 61.5861 184.247 62.2275 184.247 63.0681V66.5001H183.597V60.0001H184.247V61.2351C184.715 60.3165 185.49 59.8571 186.574 59.8571ZM193.86 59.8571C194.813 59.8571 195.584 60.1951 196.174 60.8711C196.772 61.5471 197.071 62.3488 197.071 63.2761C197.071 63.3108 197.066 63.3628 197.058 63.4321C197.058 63.5015 197.058 63.5535 197.058 63.5881H191.169C191.247 64.3161 191.537 64.9055 192.04 65.3561C192.551 65.7981 193.179 66.0191 193.925 66.0191C194.445 66.0191 194.9 65.9108 195.29 65.6941C195.68 65.4775 195.974 65.1915 196.174 64.8361L196.746 65.1741C196.477 65.6248 196.096 65.9845 195.602 66.2531C195.108 66.5131 194.544 66.6431 193.912 66.6431C192.915 66.6431 192.096 66.3268 191.455 65.6941C190.813 65.0528 190.493 64.2381 190.493 63.2501C190.493 62.2795 190.805 61.4735 191.429 60.8321C192.061 60.1821 192.872 59.8571 193.86 59.8571ZM193.86 60.4811C193.123 60.4811 192.508 60.7108 192.014 61.1701C191.52 61.6295 191.238 62.2231 191.169 62.9511H196.395C196.325 62.1798 196.048 61.5775 195.563 61.1441C195.086 60.7021 194.518 60.4811 193.86 60.4811ZM198.778 61.7031C198.778 62.0238 198.912 62.2751 199.181 62.4571C199.45 62.6391 199.779 62.7778 200.169 62.8731C200.559 62.9598 200.945 63.0595 201.326 63.1721C201.716 63.2848 202.045 63.4755 202.314 63.7441C202.583 64.0041 202.717 64.3551 202.717 64.7971C202.717 65.3345 202.5 65.7765 202.067 66.1231C201.642 66.4698 201.083 66.6431 200.39 66.6431C199.766 66.6431 199.237 66.5131 198.804 66.2531C198.379 65.9845 198.085 65.6335 197.92 65.2001L198.479 64.8751C198.6 65.2305 198.826 65.5121 199.155 65.7201C199.493 65.9195 199.905 66.0191 200.39 66.0191C200.875 66.0191 201.274 65.9151 201.586 65.7071C201.907 65.4905 202.067 65.1871 202.067 64.7971C202.067 64.4765 201.933 64.2208 201.664 64.0301C201.395 63.8395 201.066 63.7008 200.676 63.6141C200.286 63.5188 199.896 63.4148 199.506 63.3021C199.125 63.1895 198.8 63.0031 198.531 62.7431C198.262 62.4831 198.128 62.1365 198.128 61.7031C198.128 61.1831 198.332 60.7455 198.739 60.3901C199.155 60.0348 199.688 59.8571 200.338 59.8571C200.858 59.8571 201.309 59.9741 201.69 60.2081C202.08 60.4421 202.366 60.7585 202.548 61.1571L202.002 61.4691C201.872 61.1485 201.655 60.9058 201.352 60.7411C201.049 60.5678 200.711 60.4811 200.338 60.4811C199.896 60.4811 199.523 60.5938 199.22 60.8191C198.925 61.0358 198.778 61.3305 198.778 61.7031ZM204.339 61.7031C204.339 62.0238 204.473 62.2751 204.742 62.4571C205.01 62.6391 205.34 62.7778 205.73 62.8731C206.12 62.9598 206.505 63.0595 206.887 63.1721C207.277 63.2848 207.606 63.4755 207.875 63.7441C208.143 64.0041 208.278 64.3551 208.278 64.7971C208.278 65.3345 208.061 65.7765 207.628 66.1231C207.203 66.4698 206.644 66.6431 205.951 66.6431C205.327 66.6431 204.798 66.5131 204.365 66.2531C203.94 65.9845 203.645 65.6335 203.481 65.2001L204.04 64.8751C204.161 65.2305 204.386 65.5121 204.716 65.7201C205.054 65.9195 205.465 66.0191 205.951 66.0191C206.436 66.0191 206.835 65.9151 207.147 65.7071C207.467 65.4905 207.628 65.1871 207.628 64.7971C207.628 64.4765 207.493 64.2208 207.225 64.0301C206.956 63.8395 206.627 63.7008 206.237 63.6141C205.847 63.5188 205.457 63.4148 205.067 63.3021C204.685 63.1895 204.36 63.0031 204.092 62.7431C203.823 62.4831 203.689 62.1365 203.689 61.7031C203.689 61.1831 203.892 60.7455 204.3 60.3901C204.716 60.0348 205.249 59.8571 205.899 59.8571C206.419 59.8571 206.869 59.9741 207.251 60.2081C207.641 60.4421 207.927 60.7585 208.109 61.1571L207.563 61.4691C207.433 61.1485 207.216 60.9058 206.913 60.7411C206.609 60.5678 206.271 60.4811 205.899 60.4811C205.457 60.4811 205.084 60.5938 204.781 60.8191C204.486 61.0358 204.339 61.3305 204.339 61.7031Z" fill="#1A2042"/>
<defs>
<filter id="filter0_d_4800_108292" x="0" y="0.00012207" width="109" height="109" filterUnits="userSpaceOnUse" color-interpolation-filters="sRGB">
<feFlood flood-opacity="0" result="BackgroundImageFix"/>
<feColorMatrix in="SourceAlpha" type="matrix" values="0 0 0 0 0 0 0 0 0 0 0 0 0 0 0 0 0 0 127 0" result="hardAlpha"/>
<feOffset dy="4"/>
<feGaussianBlur stdDeviation="10.5"/>
<feComposite in2="hardAlpha" operator="out"/>
<feColorMatrix type="matrix" values="0 0 0 0 0 0 0 0 0 0 0 0 0 0 0 0 0 0 0.25 0"/>
<feBlend mode="normal" in2="BackgroundImageFix" result="effect1_dropShadow_4800_108292"/>
<feBlend mode="normal" in="SourceGraphic" in2="effect1_dropShadow_4800_108292" result="shape"/>
</filter>
<filter id="filter1_dd_4800_108292" x="29.8088" y="36.9904" width="48.7914" height="43.4243" filterUnits="userSpaceOnUse" color-interpolation-filters="sRGB">
<feFlood flood-opacity="0" result="BackgroundImageFix"/>
<feColorMatrix in="SourceAlpha" type="matrix" values="0 0 0 0 0 0 0 0 0 0 0 0 0 0 0 0 0 0 127 0" result="hardAlpha"/>
<feOffset dy="1"/>
<feGaussianBlur stdDeviation="0.5"/>
<feComposite in2="hardAlpha" operator="out"/>
<feColorMatrix type="matrix" values="0 0 0 0 0 0 0 0 0 0 0 0 0 0 0 0 0 0 0.25 0"/>
<feBlend mode="normal" in2="BackgroundImageFix" result="effect1_dropShadow_4800_108292"/>
<feColorMatrix in="SourceAlpha" type="matrix" values="0 0 0 0 0 0 0 0 0 0 0 0 0 0 0 0 0 0 127 0" result="hardAlpha"/>
<feOffset dy="4"/>
<feGaussianBlur stdDeviation="2"/>
<feComposite in2="hardAlpha" operator="out"/>
<feColorMatrix type="matrix" values="0 0 0 0 0 0 0 0 0 0 0 0 0 0 0 0 0 0 0.25 0"/>
<feBlend mode="normal" in2="effect1_dropShadow_4800_108292" result="effect2_dropShadow_4800_108292"/>
<feBlend mode="normal" in="SourceGraphic" in2="effect2_dropShadow_4800_108292" result="shape"/>
</filter>
<linearGradient id="paint0_linear_4800_108292" x1="22.3794" y1="23.5031" x2="72.8265" y2="79.8619" gradientUnits="userSpaceOnUse">
<stop stop-color="#4CFFCF"/>
<stop offset="1" stop-color="#00AC7E"/>
</linearGradient>
<linearGradient id="paint1_linear_4800_108292" x1="39.1294" y1="70.5986" x2="49.3765" y2="56.2133" gradientUnits="userSpaceOnUse">
<stop stop-color="#14C293"/>
<stop offset="1" stop-color="white" stop-opacity="0"/>
</linearGradient>
<linearGradient id="paint2_linear_4800_108292" x1="58.8355" y1="52.2722" x2="64.1561" y2="70.5986" gradientUnits="userSpaceOnUse">
<stop stop-color="white"/>
<stop offset="1" stop-color="white" stop-opacity="0"/>
</linearGradient>
<linearGradient id="paint3_linear_4800_108292" x1="54" y1="26.0001" x2="54" y2="39.0001" gradientUnits="userSpaceOnUse">
<stop stop-color="white"/>
<stop offset="0.8125" stop-color="#F8BF1B"/>
</linearGradient>
<linearGradient id="paint4_linear_4800_108292" x1="54" y1="26.0001" x2="54" y2="39.0001" gradientUnits="userSpaceOnUse">
<stop stop-color="#FF5F55"/>
<stop offset="1" stop-color="#FF9900" stop-opacity="0"/>
</linearGradient>
</defs>
</svg>
