<svg width="24" height="24" viewBox="0 0 24 24" fill="none" xmlns="http://www.w3.org/2000/svg">
<path d="M19.7827 4.21727C24.0724 8.50696 24.0724 15.493 19.7827 19.7827C15.493 24.0724 8.50696 24.0724 4.21727 19.7827C-0.0724234 15.493 -0.0724234 8.50696 4.21727 4.21727C8.50696 -0.0724234 15.3705 -0.0724234 19.7827 4.21727" stroke="#6D7686" stroke-width="1.5" stroke-linecap="round" stroke-linejoin="round"/>
<path fill-rule="evenodd" clip-rule="evenodd" d="M12.3002 12.6001C10.1002 12.6001 8.2002 13.4001 7.2002 15.7001V15.0001C7.2002 11.6001 9.5002 9.50006 12.3002 9.50006V8.00006C12.3002 7.50006 12.9002 7.20006 13.3002 7.50006L17.0002 10.6001C17.3002 10.8001 17.3002 11.3001 17.0002 11.5001L13.3002 14.9001C12.9002 15.3001 12.3002 15.0001 12.3002 14.4001V12.6001Z" stroke="#6D7686" stroke-width="1.5" stroke-linecap="round" stroke-linejoin="round"/>
</svg>
