<svg width="24" height="24" viewBox="0 0 24 24" fill="none" xmlns="http://www.w3.org/2000/svg">
<path d="M11.998 14.8412L14.0819 15.9356C14.488 16.1497 14.9612 15.8036 14.8842 15.3524L14.486 13.0324L16.1717 11.3907C16.5009 11.0716 16.3188 10.5134 15.8656 10.4483L13.5356 10.1102L12.4942 7.99832C12.2911 7.58715 11.7049 7.58715 11.5028 7.99832L10.4613 10.1102L8.13137 10.4483C7.67818 10.5144 7.49611 11.0716 7.82524 11.3907L9.51095 13.0324L9.11178 15.3534C9.03475 15.8046 9.50795 16.1487 9.91411 15.9366L11.998 14.8422" stroke="#303F4E" stroke-width="1.5" stroke-linecap="round" stroke-linejoin="round"/>
<path d="M18.3668 5.65139C21.9433 9.22788 21.8822 15.0633 18.1837 18.5628C14.7693 21.7931 9.23096 21.7931 5.81654 18.5628C2.118 15.0633 2.05697 9.22788 5.63346 5.65139C9.14992 2.13492 14.8503 2.13492 18.3668 5.65139" stroke="#303F4E" stroke-width="1.5" stroke-linecap="round" stroke-linejoin="round"/>
</svg>
