<svg width="24" height="24" viewBox="0 0 24 24" fill="none" xmlns="http://www.w3.org/2000/svg">
<path fill-rule="evenodd" clip-rule="evenodd" d="M3.495 13.4652L4.69 15.0292L4.948 16.9762C5.091 18.0562 5.94 18.9062 7.02 19.0502L8.972 19.3112L10.535 20.5052C11.4 21.1662 12.599 21.1662 13.464 20.5052L15.028 19.3102H15.026L16.974 19.0522C18.054 18.9092 18.904 18.0602 19.048 16.9802L19.308 15.0282C19.308 15.0292 19.912 14.2382 20.503 13.4652C21.164 12.6002 21.163 11.4012 20.503 10.5362L19.31 8.97124L19.052 7.02424C18.909 5.94424 18.06 5.09424 16.98 4.95024L15.027 4.69024L13.464 3.49624C12.599 2.83524 11.4 2.83524 10.535 3.49624L8.971 4.69024H8.973L7.025 4.94924C5.945 5.09224 5.095 5.94124 4.951 7.02124L4.69 8.97324C4.69 8.97224 4.086 9.76324 3.495 10.5362C2.835 11.4002 2.835 12.6002 3.495 13.4652V13.4652Z" stroke="#6D7686" stroke-width="1.5" stroke-linecap="round" stroke-linejoin="round"/>
<path fill-rule="evenodd" clip-rule="evenodd" d="M10.8011 15.409L11.6311 14.973C11.8621 14.852 12.1381 14.852 12.3691 14.973L13.1991 15.409C13.4671 15.55 13.7901 15.526 14.0341 15.348L14.3441 15.123C14.5881 14.946 14.7101 14.645 14.6601 14.348L14.5011 13.424C14.4571 13.167 14.5421 12.904 14.7291 12.722L15.4001 12.068C15.6161 11.857 15.6941 11.542 15.6011 11.255L15.4831 10.891C15.3901 10.604 15.1421 10.395 14.8431 10.351L13.9151 10.216C13.6571 10.179 13.4341 10.016 13.3181 9.782L12.9031 8.941C12.7691 8.671 12.4931 8.5 12.1911 8.5H11.8081C11.5061 8.5 11.2301 8.671 11.0971 8.942L10.6821 9.783C10.5661 10.017 10.3431 10.18 10.0851 10.217L9.15715 10.352C8.85815 10.396 8.61015 10.605 8.51715 10.892L8.39915 11.256C8.30615 11.543 8.38315 11.858 8.60015 12.069L9.27115 12.723C9.45815 12.905 9.54315 13.168 9.49915 13.425L9.34015 14.349C9.28915 14.647 9.41215 14.947 9.65615 15.124L9.96615 15.349C10.2101 15.525 10.5341 15.549 10.8011 15.409V15.409Z" stroke="#6D7686" stroke-width="1.5" stroke-linecap="round" stroke-linejoin="round"/>
</svg>
