<svg width="25" height="24" viewBox="0 0 25 24" fill="none" xmlns="http://www.w3.org/2000/svg">
<path d="M12.4201 17.005C12.145 17.005 11.9199 17.2301 11.9229 17.5052C11.9229 17.7803 12.148 18.0054 12.4231 18.0054C12.6982 18.0054 12.9233 17.7803 12.9233 17.5052C12.9233 17.2301 12.6982 17.005 12.4201 17.005" stroke="#323232" stroke-width="1.5" stroke-linecap="round" stroke-linejoin="round"/>
<path d="M12.4201 11.0024C12.145 11.0024 11.9199 11.2275 11.9229 11.5026C11.9229 11.7778 12.148 12.0029 12.4231 12.0029C12.6982 12.0029 12.9233 11.7778 12.9233 11.5026C12.9233 11.2275 12.6982 11.0024 12.4201 11.0024" stroke="#323232" stroke-width="1.5" stroke-linecap="round" stroke-linejoin="round"/>
<path d="M12.4201 5C12.145 5 11.9199 5.22509 11.9229 5.50021C11.9229 5.77532 12.148 6.00042 12.4231 6.00042C12.6982 6.00042 12.9233 5.77532 12.9233 5.50021C12.9233 5.22509 12.6982 5 12.4201 5" stroke="#323232" stroke-width="1.5" stroke-linecap="round" stroke-linejoin="round"/>
</svg>
