<svg width="26" height="25" viewBox="0 0 26 25" fill="none" xmlns="http://www.w3.org/2000/svg">
<path d="M4 10.8174V20.3174L12.9 24.4174H13H13.1L22 20.3174V10.8174" fill="white"/>
<path d="M4 10.8174V20.3174L12.9 24.4174H13H13.1L22 20.3174V10.8174" stroke="#242FB8" stroke-width="0.8" stroke-miterlimit="10" stroke-linecap="round" stroke-linejoin="round"/>
<path d="M13.1016 12.2168V24.4168" stroke="#242FB8" stroke-width="0.8" stroke-miterlimit="10"/>
<path d="M2.20985 11.2473L3.44643 8.94582L11.3647 12.8002L10.1161 15.279L2.20985 11.2473Z" fill="white" stroke="#242FB8" stroke-width="0.8" stroke-linejoin="round"/>
<path d="M10.4818 16.5174L1 11.6174L3.08599 7.81738L12.6626 12.4174L10.4818 16.5174Z" fill="white" stroke="#242FB8" stroke-width="0.8" stroke-miterlimit="10" stroke-linejoin="round"/>
<path d="M15.5771 15.2817L14.2522 12.7975L22.2551 8.94437L23.4916 11.2457L19.4965 13.2608L19.4965 13.2608L19.4933 13.2624L15.5771 15.2817Z" fill="white" stroke="#242FB8" stroke-width="0.8" stroke-linejoin="round"/>
<path d="M15.2188 16.5174L13.1328 12.4174L22.7094 7.81738L24.7954 11.6174L15.2188 16.5174Z" fill="white" stroke="#242FB8" stroke-width="0.8" stroke-miterlimit="10" stroke-linejoin="round"/>
<path d="M22.5 7.81738L17 4.81738" stroke="#242FB8" stroke-width="0.8" stroke-linecap="round"/>
<path d="M8.5 4.81738L3 7.81738" stroke="#242FB8" stroke-width="0.8" stroke-linecap="round"/>
<path d="M17.9442 2.81738C18.2785 4.51738 17.1641 7.21738 13.1521 8.81738C11.5919 8.41738 10.2546 7.51738 9.25159 6.51738C8.13715 5.31738 7.91426 3.91738 8.02571 2.81738C8.36004 1.51738 9.36303 0.817383 10.4775 0.817383C11.1461 0.817383 11.8148 0.917383 12.5949 1.51738L13.0407 1.81738L13.4864 1.51738C14.2665 1.11738 14.9352 0.917383 15.6039 0.917383C16.7183 0.817383 17.6099 1.51738 17.9442 2.81738Z" fill="white" stroke="#1DE9B6" stroke-miterlimit="10"/>
</svg>
