<svg width="24" height="25" viewBox="0 0 24 25" fill="none" xmlns="http://www.w3.org/2000/svg">
<path d="M2.13208 22.4812V7.70215H1V22.4812C1.00057 23.0517 1.19755 23.5986 1.54773 24.002C1.89791 24.4053 2.37269 24.6322 2.86792 24.6329H4C3.50477 24.6322 3.02999 24.4053 2.67981 24.002C2.32963 23.5986 2.13264 23.0517 2.13208 22.4812Z" fill="#D4E1F4"/>
<path d="M4 2.81738H2.86792C2.37269 2.81814 1.8979 3.08582 1.54771 3.56171C1.19753 4.0376 1.00055 4.68283 1 5.35584V7.81738H2.13208V5.35584C2.13263 4.68283 2.32961 4.0376 2.67979 3.56171C3.02997 3.08582 3.50477 2.81814 4 2.81738Z" fill="#D4E1F4"/>
<path d="M3.01604 24.8174H20.984C21.7836 24.8165 22.5502 24.5174 23.1156 23.9855C23.681 23.4537 23.9991 22.7326 24 21.9805V5.52244C23.9991 4.77031 23.681 4.04923 23.1156 3.5174C22.5502 2.98556 21.7836 2.68641 20.984 2.68556H17.7803V1.2399C17.7803 1.12784 17.733 1.02037 17.6488 0.941134C17.5645 0.861898 17.4503 0.817383 17.3311 0.817383C17.212 0.817383 17.0978 0.861898 17.0135 0.941134C16.9293 1.02037 16.8819 1.12784 16.8819 1.2399V2.68556H7.11805V1.2399C7.11805 1.12784 7.07073 1.02037 6.98649 0.941134C6.90225 0.861898 6.78799 0.817383 6.66886 0.817383C6.54972 0.817383 6.43547 0.861898 6.35122 0.941134C6.26698 1.02037 6.21966 1.12784 6.21966 1.2399V2.68556H3.01604C2.21641 2.68641 1.4498 2.98556 0.884372 3.5174C0.31895 4.04923 0.000900186 4.77031 0 5.52244V21.9805C0.000900186 22.7326 0.31895 23.4537 0.884372 23.9855C1.4498 24.5174 2.21641 24.8165 3.01604 24.8174ZM20.984 23.9724H3.01604C2.45461 23.9717 1.91635 23.7617 1.51935 23.3883C1.12236 23.0149 0.899041 22.5086 0.898396 21.9805V8.2992H23.1016V21.9805C23.101 22.5086 22.8776 23.0149 22.4806 23.3883C22.0837 23.7617 21.5454 23.9717 20.984 23.9724ZM3.01604 3.53059H6.21966V4.97619C6.21966 5.08825 6.26698 5.19571 6.35122 5.27495C6.43547 5.35419 6.54972 5.3987 6.66886 5.3987C6.78799 5.3987 6.90225 5.35419 6.98649 5.27495C7.07073 5.19571 7.11805 5.08825 7.11805 4.97619V3.53059H16.8819V4.97619C16.8819 5.08825 16.9293 5.19571 17.0135 5.27495C17.0978 5.35419 17.212 5.3987 17.3311 5.3987C17.4503 5.3987 17.5645 5.35419 17.6488 5.27495C17.733 5.19571 17.7803 5.08825 17.7803 4.97619V3.53059H20.984C21.5454 3.53118 22.0837 3.74122 22.4807 4.11464C22.8777 4.48806 23.101 4.99435 23.1016 5.52244V7.45393H0.898396V5.52244C0.899024 4.99435 1.12233 4.48806 1.51933 4.11464C1.91633 3.74122 2.4546 3.53118 3.01604 3.53059Z" fill="#0635C9"/>
<path d="M16.9644 14.0097C16.6467 13.0026 15.9914 12.1191 15.0963 11.4908C14.2011 10.8626 13.1141 10.5233 11.9973 10.5234C10.8804 10.5236 9.79356 10.8633 8.89867 11.4918C8.00378 12.1204 7.34881 13.0041 7.0314 14.0113C6.72922 14.1142 6.4681 14.3022 6.28355 14.5497C6.09901 14.7972 6 15.0922 6 15.3945C6 15.6968 6.09901 15.9918 6.28355 16.2393C6.4681 16.4868 6.72922 16.6748 7.0314 16.7778C7.34881 17.7849 8.00377 18.6687 8.89866 19.2972C9.79354 19.9258 10.8804 20.2654 11.9973 20.2656C13.1141 20.2658 14.2011 19.9265 15.0962 19.2982C15.9914 18.67 16.6467 17.7865 16.9644 16.7794C17.2676 16.677 17.5298 16.489 17.7152 16.2411C17.9005 15.9932 18 15.6976 18 15.3945C18 15.0915 17.9005 14.7959 17.7152 14.548C17.5298 14.3001 17.2676 14.1121 16.9644 14.0097ZM16.6021 16.1749C16.5354 16.1873 16.4739 16.2172 16.4246 16.2613C16.3753 16.3053 16.3403 16.3616 16.3237 16.4237C16.08 17.329 15.5222 18.132 14.7387 18.7056C13.9551 19.2791 12.9906 19.5905 11.9977 19.5904C11.0048 19.5903 10.0404 19.2788 9.25693 18.705C8.47351 18.1313 7.9159 17.3282 7.67238 16.4228C7.65583 16.361 7.62101 16.3048 7.57194 16.2608C7.52286 16.2168 7.46155 16.1868 7.39509 16.1742C7.20414 16.1374 7.03256 16.0397 6.90934 15.8977C6.78612 15.7556 6.71882 15.5779 6.71882 15.3945C6.71882 15.2112 6.78612 15.0335 6.90934 14.8914C7.03256 14.7494 7.20414 14.6517 7.39509 14.6148C7.46155 14.6023 7.52286 14.5722 7.57192 14.5282C7.62098 14.4842 7.65579 14.428 7.67232 14.3662C7.91586 13.4608 8.47347 12.6577 9.25689 12.084C10.0403 11.5103 11.0048 11.1987 11.9977 11.1986C12.9906 11.1985 13.9551 11.5099 14.7386 12.0835C15.5222 12.6571 16.08 13.4601 16.3237 14.3654C16.3403 14.4274 16.3752 14.4837 16.4245 14.5277C16.4738 14.5718 16.5354 14.6018 16.602 14.6142C16.7937 14.6504 16.9662 14.7479 17.0901 14.8901C17.214 15.0324 17.2817 15.2106 17.2817 15.3945C17.2817 15.5784 17.214 15.7566 17.0901 15.8989C16.9662 16.0412 16.7937 16.1387 16.602 16.1749H16.6021Z" fill="#1AE5BE"/>
<path d="M13.9792 16.937C13.8967 16.8921 13.7988 16.8799 13.7068 16.903C13.6148 16.9262 13.5364 16.9827 13.4887 17.0602C13.3379 17.3058 13.121 17.5097 12.8599 17.6515C12.5988 17.7932 12.3026 17.8679 12.0011 17.8679C11.6996 17.8679 11.4034 17.7932 11.1422 17.6515C10.8811 17.5097 10.6643 17.3058 10.5134 17.0602C10.4658 16.9827 10.3873 16.9262 10.2953 16.9031C10.2033 16.88 10.1054 16.8922 10.023 16.937C9.94055 16.9819 9.88046 17.0557 9.8559 17.1422C9.83134 17.2287 9.84433 17.3209 9.89201 17.3984C10.1059 17.7465 10.4133 18.0355 10.7835 18.2365C11.1537 18.4374 11.5736 18.5432 12.0011 18.5432C12.4285 18.5432 12.8484 18.4374 13.2186 18.2365C13.5888 18.0355 13.8963 17.7465 14.1101 17.3984C14.1338 17.36 14.1491 17.3176 14.1553 17.2737C14.1615 17.2297 14.1584 17.185 14.1463 17.1422C14.1341 17.0993 14.1131 17.0591 14.0844 17.0239C14.0557 16.9887 14.02 16.9592 13.9792 16.937Z" fill="#1AE5BE"/>
<path d="M10.1364 13.2099C10.1835 13.2099 10.2302 13.2012 10.2738 13.1843C10.3174 13.1673 10.3569 13.1424 10.3902 13.111L11.3124 12.2434C11.3457 12.2121 11.3722 12.1748 11.3902 12.1339C11.4083 12.0929 11.4176 12.049 11.4176 12.0047C11.4176 11.9603 11.4083 11.9164 11.3902 11.8754C11.3722 11.8345 11.3457 11.7972 11.3124 11.7659C11.2791 11.7345 11.2395 11.7097 11.1959 11.6927C11.1524 11.6757 11.1057 11.667 11.0586 11.667C11.0114 11.667 10.9647 11.6757 10.9212 11.6927C10.8776 11.7097 10.838 11.7345 10.8047 11.7659L9.8825 12.6333C9.83229 12.6805 9.7981 12.7407 9.78424 12.8062C9.77039 12.8717 9.7775 12.9396 9.80467 13.0013C9.83184 13.063 9.87786 13.1157 9.9369 13.1528C9.99593 13.1899 10.0653 13.2097 10.1363 13.2097L10.1364 13.2099Z" fill="#1AE5BE"/>
<path d="M11.2106 13.111C11.244 13.1423 11.2835 13.1672 11.3271 13.1842C11.3706 13.2012 11.4173 13.2099 11.4645 13.2099C11.5116 13.2099 11.5583 13.2012 11.6019 13.1842C11.6454 13.1672 11.685 13.1423 11.7183 13.111L12.6405 12.2434C12.7078 12.1801 12.7456 12.0942 12.7456 12.0047C12.7456 11.9151 12.7078 11.8292 12.6405 11.7659C12.5732 11.7026 12.4818 11.667 12.3866 11.667C12.2914 11.667 12.2001 11.7026 12.1328 11.7659L11.2106 12.6335C11.1773 12.6648 11.1508 12.702 11.1328 12.743C11.1148 12.784 11.1055 12.8279 11.1055 12.8722C11.1055 12.9166 11.1148 12.9605 11.1328 13.0014C11.1508 13.0424 11.1773 13.0796 11.2106 13.111Z" fill="#1AE5BE"/>
<path d="M12.5428 13.111C12.5761 13.1423 12.6157 13.1672 12.6592 13.1842C12.7028 13.2012 12.7495 13.2099 12.7966 13.2099C12.8438 13.2099 12.8904 13.2012 12.934 13.1842C12.9775 13.1672 13.0171 13.1423 13.0505 13.111L13.9726 12.2434C14.006 12.2121 14.0324 12.1748 14.0504 12.1339C14.0685 12.0929 14.0778 12.049 14.0778 12.0047C14.0778 11.9603 14.0685 11.9164 14.0504 11.8754C14.0324 11.8345 14.006 11.7972 13.9726 11.7659C13.9393 11.7345 13.8997 11.7097 13.8561 11.6927C13.8126 11.6757 13.7659 11.667 13.7188 11.667C13.6716 11.667 13.6249 11.6757 13.5814 11.6927C13.5378 11.7097 13.4983 11.7345 13.4649 11.7659L12.5427 12.6333C12.5093 12.6647 12.4829 12.7019 12.4648 12.7429C12.4468 12.7839 12.4375 12.8278 12.4375 12.8722C12.4375 12.9165 12.4468 12.9604 12.4649 13.0014C12.4829 13.0424 12.5094 13.0796 12.5428 13.111Z" fill="#1AE5BE"/>
<path d="M10.3744 15.1847C10.3744 15.2743 10.4123 15.3602 10.4796 15.4235C10.5469 15.4868 10.6382 15.5224 10.7334 15.5224C10.8286 15.5224 10.9199 15.4868 10.9872 15.4235C11.0546 15.3602 11.0924 15.2743 11.0924 15.1847C11.0924 14.8931 10.9692 14.6133 10.7499 14.4071C10.5306 14.2008 10.2332 14.085 9.92315 14.085C9.61305 14.085 9.31564 14.2008 9.09637 14.4071C8.87709 14.6133 8.75391 14.8931 8.75391 15.1847C8.75391 15.2743 8.79173 15.3602 8.85905 15.4235C8.92637 15.4868 9.01768 15.5224 9.11288 15.5224C9.20809 15.5224 9.2994 15.4868 9.36672 15.4235C9.43404 15.3602 9.47186 15.2743 9.47186 15.1847C9.47186 15.0722 9.51941 14.9642 9.60404 14.8846C9.68867 14.805 9.80346 14.7603 9.92315 14.7603C10.0428 14.7603 10.1576 14.805 10.2423 14.8846C10.3269 14.9642 10.3744 15.0722 10.3744 15.1847Z" fill="#1AE5BE"/>
<path d="M14.0755 14.085C13.7655 14.0853 13.4683 14.2013 13.2491 14.4074C13.0299 14.6136 12.9066 14.8932 12.9062 15.1847C12.9063 15.2743 12.9441 15.3602 13.0114 15.4235C13.0787 15.4868 13.17 15.5224 13.2652 15.5224C13.3604 15.5224 13.4517 15.4868 13.5191 15.4235C13.5864 15.3602 13.6242 15.2743 13.6242 15.1847C13.6242 15.0722 13.6718 14.9642 13.7564 14.8846C13.841 14.805 13.9558 14.7603 14.0755 14.7603C14.1952 14.7603 14.31 14.805 14.3946 14.8846C14.4792 14.9642 14.5268 15.0722 14.5268 15.1847C14.5268 15.2743 14.5646 15.3602 14.6319 15.4235C14.6992 15.4868 14.7905 15.5224 14.8858 15.5224C14.981 15.5224 15.0723 15.4868 15.1396 15.4235C15.2069 15.3602 15.2447 15.2743 15.2447 15.1847C15.2444 14.8932 15.1211 14.6136 14.9019 14.4074C14.6827 14.2013 14.3855 14.0853 14.0755 14.085Z" fill="#1AE5BE"/>
</svg>
