<svg width="24" height="23" viewBox="0 0 24 23" fill="none" xmlns="http://www.w3.org/2000/svg">
<path fill-rule="evenodd" clip-rule="evenodd" d="M8.63219 16C3.64416 16.4219 0 17.7573 0 19.3394C0 21.2604 5.37258 22.8177 12 22.8177C18.6274 22.8177 24 21.2604 24 19.3394C24 17.7999 20.5492 16.4939 15.7673 16.036C15.4576 16.3612 15.1449 16.6704 14.8353 16.9613C16.9237 17.112 18.7707 17.4241 20.2069 17.8404C21.2426 18.1406 22.008 18.479 22.4917 18.8104C22.7314 18.9747 22.8682 19.1146 22.9393 19.2152C22.9732 19.2632 22.988 19.2964 22.9943 19.3145C23 19.3308 23 19.3379 23 19.3394V19.3394C23 19.3407 23.0001 19.3478 22.9943 19.3644C22.988 19.3825 22.9732 19.4157 22.9393 19.4637C22.8682 19.5643 22.7314 19.7042 22.4917 19.8685C22.008 20.1999 21.2426 20.5383 20.2069 20.8385C18.1488 21.435 15.2469 21.8177 12 21.8177C8.75308 21.8177 5.8512 21.435 3.79312 20.8385C2.75739 20.5383 1.99199 20.1999 1.50831 19.8685C1.26859 19.7042 1.13176 19.5643 1.06073 19.4637C1.02685 19.4157 1.01203 19.3825 1.00571 19.3644C0.999985 19.3481 0.999997 19.341 1 19.3395L1 19.3394L1 19.3394C0.999997 19.3379 0.999985 19.3308 1.00571 19.3145C1.01203 19.2964 1.02685 19.2632 1.06073 19.2152C1.13176 19.1146 1.26859 18.9747 1.50831 18.8104C1.99199 18.479 2.75739 18.1406 3.79312 17.8404C5.33154 17.3945 7.34144 17.068 9.6145 16.9316C9.2848 16.638 8.95521 16.3273 8.63219 16Z" fill="#1DE9B6"/>
<path fill-rule="evenodd" clip-rule="evenodd" d="M13.4228 18.1895C10.6437 16.164 6.76947 12.5904 6.76953 7.95503C6.76959 3.55666 9.24322 1.70041 11.6552 1.02148C8.87111 1.21502 4.92195 2.71398 4.92188 8.27147C4.9218 13.3308 9.53726 17.1253 12.3065 19.0225C12.6396 18.7943 13.0178 18.5143 13.4228 18.1895Z" fill="#E2F4FF"/>
<path d="M19.695 8.27278C19.695 12.8262 14.7719 17.3374 12.3104 19.0238C9.54117 17.1266 4.92578 13.3321 4.92578 8.27278C4.92578 2.58104 9.54117 1 12.3104 1C15.0796 1 19.695 2.58104 19.695 8.27278Z" stroke="#242FB8"/>
<path d="M15.5 7.9564C15.5 9.96349 13.9202 11.5671 12 11.5671C10.0798 11.5671 8.5 9.96349 8.5 7.9564C8.5 5.94931 10.0798 4.3457 12 4.3457C13.9202 4.3457 15.5 5.94931 15.5 7.9564Z" stroke="#242FB8"/>
</svg>
