<svg width="24" height="24" viewBox="0 0 24 24" fill="none" xmlns="http://www.w3.org/2000/svg">
<path d="M11.997 14.8407L14.0809 15.9351C14.487 16.1492 14.9602 15.8031 14.8832 15.3519L14.485 13.0319L16.1707 11.3902C16.4999 11.0711 16.3178 10.5129 15.8646 10.4479L13.5346 10.1097L12.4932 7.99783C12.2901 7.58666 11.7039 7.58666 11.5018 7.99783L10.4604 10.1097L8.1304 10.4479C7.67721 10.5139 7.49513 11.0711 7.82427 11.3902L9.50997 13.0319L9.1108 15.3529C9.03377 15.8041 9.50697 16.1482 9.91314 15.9361L11.997 14.8417" stroke="#303F4E" stroke-width="1.5" stroke-linecap="round" stroke-linejoin="round"/>
<path d="M18.3668 5.65102C21.9433 9.22751 21.8822 15.0629 18.1837 18.5624C14.7693 21.7927 9.23096 21.7927 5.81654 18.5624C2.118 15.0629 2.05697 9.22751 5.63346 5.65102C9.14992 2.13456 14.8503 2.13456 18.3668 5.65102" stroke="#303F4E" stroke-width="1.5" stroke-linecap="round" stroke-linejoin="round"/>
</svg>
