<svg width="16" height="18" viewBox="0 0 16 18" fill="none" xmlns="http://www.w3.org/2000/svg">
<path d="M7.49148 17.772C6.75875 17.1971 5.3853 16.029 5.04605 15.7406L5.02174 15.72C4.99914 15.7146 4.97832 15.7034 4.96128 15.6876C4.94425 15.6717 4.93157 15.6518 4.92449 15.6296C4.73622 15.4441 4.54921 15.254 4.36344 15.0592C4.16096 14.8474 3.96372 14.6349 3.77172 14.4217L3.76573 14.4146C3.54331 14.1676 3.33347 13.9258 3.13623 13.6893C2.93525 13.4483 2.74387 13.209 2.56209 12.9715C2.35563 12.7018 2.16499 12.4393 1.99019 12.184C1.81814 11.9318 1.66142 11.6851 1.52003 11.4441C1.3607 11.1741 1.22305 10.9146 1.1086 10.6679L1.10448 10.6581C0.997462 10.4304 0.905135 10.1961 0.828073 9.95649L0.825455 9.94636C0.601971 9.22499 0.492303 8.47303 0.50042 7.7177C0.506973 6.93051 0.627549 6.14846 0.85837 5.39603L0.86024 5.39041C1.09204 4.62772 1.43419 3.90324 1.87574 3.24012C2.75494 1.9038 4.05737 0.90327 5.57306 0.399822C7.15295 -0.133274 8.86346 -0.133274 10.4433 0.399822C11.2166 0.659776 11.9406 1.04847 12.5851 1.54959C13.8471 2.57207 14.7551 3.96793 15.1794 5.53816C15.64 7.11287 15.6035 8.79187 15.075 10.345C14.8063 11.0863 14.4477 11.7916 14.0071 12.445C13.5036 13.1899 12.9318 13.8861 12.2993 14.5244C12.2215 14.6051 11.9208 14.8886 11.6432 15.1503L11.148 15.6168C11.1407 15.6424 11.1254 15.6649 11.1043 15.681L11.1009 15.6855C11.0907 15.6991 11.0778 15.7105 11.063 15.7189C11.0482 15.7273 11.0318 15.7325 11.0149 15.7342C10.7156 15.9828 10.1127 16.4842 9.5625 16.9365C9.18585 17.2451 8.81069 17.5492 8.52643 17.7731H8.52419C8.47668 17.8106 8.43292 17.8425 8.3929 17.8684C8.35292 17.8944 8.31118 17.9176 8.26797 17.9377C8.22678 17.9574 8.18366 17.9728 8.1393 17.9835C8.09634 17.9941 8.05227 17.9997 8.00802 18C7.92072 17.9989 7.8347 17.9788 7.75592 17.9411C7.66131 17.8955 7.57253 17.8386 7.49148 17.7716V17.772ZM4.10797 2.35248C3.58672 2.76361 3.1343 3.25556 2.76781 3.80976C2.00056 4.96932 1.58424 6.32664 1.56903 7.71807C1.56061 8.37365 1.65605 9.02641 1.8518 9.65198C1.90641 9.82598 1.96888 10.0004 2.03882 10.174C2.10876 10.3476 2.18843 10.5261 2.27259 10.699C2.35675 10.8719 2.44726 11.041 2.54526 11.2131C2.64326 11.3853 2.74125 11.5454 2.84449 11.7044C2.94423 11.8596 3.05357 12.0186 3.17251 12.1814C3.29146 12.3442 3.41514 12.5067 3.54356 12.6689C3.66474 12.8212 3.79117 12.9734 3.92283 13.1257C4.05449 13.2779 4.19437 13.4335 4.34249 13.5925C4.6017 13.8701 4.8796 14.1502 5.17958 14.4367C5.47955 14.7232 5.80421 15.0187 6.15431 15.3232C6.5044 15.6277 6.85151 15.9168 7.17991 16.1857C7.46904 16.4212 7.75368 16.6474 8.00652 16.8472C8.31398 16.6057 8.60498 16.3766 8.87578 16.1595C9.17089 15.9232 9.46413 15.6836 9.76897 15.4275L9.77645 15.4218C10.1131 15.138 10.4254 14.8631 10.7186 14.5938C11.0119 14.3246 11.2797 14.0666 11.5251 13.8131C11.6661 13.6687 11.8041 13.5217 11.9365 13.3743C12.0689 13.2269 12.1942 13.0844 12.3131 12.9415L12.3199 12.934C12.4441 12.784 12.566 12.634 12.6842 12.478C12.8024 12.322 12.9112 12.1724 13.0148 12.0205L13.0186 12.0153C13.1248 11.8604 13.2265 11.7021 13.3234 11.5413C13.4232 11.374 13.5167 11.2084 13.6039 11.0444L13.6073 11.038C13.6941 10.872 13.7757 10.7017 13.8523 10.5272C13.9271 10.3555 13.997 10.1815 14.0591 10.0079C14.2865 9.35994 14.409 8.6797 14.4219 7.99295C14.4372 7.273 14.3477 6.55467 14.156 5.86067C13.966 5.15876 13.6708 4.48987 13.2804 3.87688C12.5383 2.6959 11.4091 1.81094 10.0869 1.37409C8.73655 0.920126 7.27537 0.920126 5.92503 1.37409C5.26867 1.59504 4.65432 1.92571 4.10797 2.35211V2.35248ZM2.86132 7.11206C2.86386 6.45642 3.00005 5.80822 3.26151 5.20726C3.52297 4.60631 3.90419 4.06527 4.38176 3.61738C5.37326 2.68758 6.68014 2.1703 8.03775 2.1703C9.39537 2.1703 10.7022 2.68758 11.6937 3.61738C12.1713 4.0653 12.5525 4.60634 12.8139 5.20729C13.0754 5.80824 13.2116 6.45643 13.2142 7.11206C13.2154 7.77938 13.0751 8.43934 12.8028 9.04822C12.7624 9.14505 12.6925 9.22655 12.603 9.281C12.5136 9.33545 12.4092 9.36004 12.3049 9.35123C12.2315 9.34719 12.1594 9.32992 12.0921 9.30023C12.0259 9.2718 11.9656 9.23137 11.9141 9.18097C11.842 9.11327 11.7935 9.02415 11.7757 8.92673C11.7579 8.82931 11.7718 8.72875 11.8153 8.63984C12.0314 8.15974 12.1425 7.6388 12.1411 7.11206C12.139 6.5943 12.0314 6.08242 11.8249 5.60786C11.6183 5.1333 11.3172 4.70607 10.9401 4.35239C10.1522 3.61473 9.11442 3.20444 8.03645 3.20444C6.95847 3.20444 5.92068 3.61473 5.13282 4.35239C4.75388 4.70469 4.45158 5.13165 4.24485 5.60651C4.03812 6.08138 3.93141 6.59393 3.93141 7.11206C3.93141 7.63019 4.03812 8.14274 4.24485 8.61761C4.45158 9.09248 4.75388 9.51943 5.13282 9.87174C5.91808 10.6137 6.95778 11.0247 8.03682 11.0196C8.34306 11.0183 8.64828 10.9839 8.94722 10.9173C9.25443 10.8499 9.55397 10.7513 9.84116 10.6229C9.9355 10.5763 10.0419 10.5602 10.1458 10.5769C10.2496 10.5935 10.3458 10.6421 10.4209 10.7159C10.4725 10.7656 10.5142 10.8246 10.544 10.8899C10.5738 10.9547 10.5907 11.0248 10.5937 11.0961C10.5985 11.195 10.5722 11.2929 10.5185 11.376C10.4648 11.4591 10.3865 11.5232 10.2945 11.5593C9.9371 11.7194 9.56422 11.8422 9.18174 11.9256C8.80611 12.009 8.42266 12.0519 8.03794 12.0535C6.67909 12.0595 5.36993 11.5415 4.38139 10.6067C3.90383 10.1589 3.52261 9.61796 3.26115 9.01706C2.99969 8.41616 2.8635 7.76802 2.86094 7.11244L2.86132 7.11206ZM10.8858 10.135C10.8864 10.0663 10.9009 9.99855 10.9284 9.93569C10.956 9.87284 10.9959 9.81625 11.0459 9.76936C11.1468 9.67313 11.2807 9.61943 11.42 9.61936H11.4484C11.5827 9.62639 11.7098 9.68287 11.8052 9.77798C11.8523 9.8245 11.8897 9.87989 11.9154 9.94096C11.9411 10.002 11.9545 10.0676 11.9548 10.1339V10.1627C11.9468 10.296 11.8866 10.4207 11.7873 10.5096C11.6855 10.603 11.5521 10.654 11.4142 10.6523C11.2762 10.6506 11.1442 10.5962 11.0448 10.5002C10.9948 10.4534 10.9547 10.3968 10.9272 10.3339C10.8996 10.2711 10.885 10.2033 10.8843 10.1346L10.8858 10.135Z" fill="#A7A7A7"/>
</svg>
