<svg width="6" height="10" viewBox="0 0 6 10" fill="none" xmlns="http://www.w3.org/2000/svg">
<path d="M6 4.99989C6.00001 5.08263 5.98095 5.16455 5.94393 5.241C5.90691 5.31744 5.85264 5.38689 5.78422 5.4454L1.25807 9.31553C1.11982 9.43369 0.932327 9.50004 0.736852 9.5C0.541378 9.49996 0.353929 9.43352 0.215742 9.3153C0.0775554 9.19709 -4.93466e-05 9.03677 -4.03214e-09 8.86963C4.93385e-05 8.70249 0.0777487 8.54221 0.216005 8.42405L4.22112 4.99989L0.216005 1.57573C0.0778182 1.45751 0.000213474 1.2972 0.000262819 1.13005C0.000312164 0.962911 0.0780115 0.80263 0.216268 0.684472C0.354524 0.566315 0.542012 0.499958 0.737487 0.5C0.932962 0.500042 1.12041 0.56648 1.2586 0.684697L5.78475 4.55482C5.9226 4.67295 6.00001 4.83301 6 4.99989Z" fill="#A7A7A7"/>
</svg>
