<svg width="6" height="10" viewBox="0 0 6 10" fill="none" xmlns="http://www.w3.org/2000/svg">
<path d="M-2.80131e-07 4.99989C-6.95947e-06 5.08263 0.0190451 5.16455 0.0560686 5.241C0.0930926 5.31744 0.147363 5.38689 0.215781 5.4454L4.74193 9.31553C4.88018 9.43369 5.06767 9.50004 5.26315 9.5C5.45862 9.49996 5.64607 9.43352 5.78426 9.3153C5.92244 9.19709 6.00005 9.03677 6 8.86963C5.99995 8.70249 5.92225 8.54221 5.78399 8.42405L1.77888 4.99989L5.784 1.57573C5.92218 1.45751 5.99979 1.2972 5.99974 1.13005C5.99969 0.962911 5.92199 0.80263 5.78373 0.684472C5.64548 0.566315 5.45799 0.499958 5.26251 0.5C5.06704 0.500042 4.87959 0.56648 4.7414 0.684697L0.215255 4.55482C0.0774004 4.67295 -1.4578e-05 4.83301 -2.80131e-07 4.99989Z" fill="#A7A7A7"/>
</svg>
