<svg width="24" height="24" viewBox="0 0 24 24" fill="none" xmlns="http://www.w3.org/2000/svg">
<path d="M12 24C18.6274 24 24 18.6274 24 12C24 5.37258 18.6274 0 12 0C5.37258 0 0 5.37258 0 12C0 18.6274 5.37258 24 12 24Z" fill="#E7E7E7"/>
<path d="M9.90934 19.8765C9.58452 19.8762 9.27335 19.7468 9.04366 19.5171C8.81398 19.2874 8.68455 18.9763 8.68425 18.6514V17.6008C8.68425 17.4615 8.73976 17.3278 8.83829 17.2293C8.93681 17.1307 9.07051 17.0752 9.20984 17.0752C9.34917 17.0752 9.48288 17.1307 9.5814 17.2293C9.67992 17.3278 9.73488 17.4615 9.73488 17.6008V18.6514C9.73503 18.6977 9.75357 18.7418 9.78622 18.7746C9.81888 18.8073 9.86308 18.8262 9.90934 18.8265H14.463C14.5094 18.8265 14.5538 18.8079 14.5867 18.7751C14.6195 18.7423 14.638 18.6978 14.638 18.6514V17.6008C14.638 17.4614 14.6935 17.3273 14.792 17.2287C14.8906 17.1301 15.0242 17.0752 15.1636 17.0752C15.303 17.0752 15.4366 17.1301 15.5351 17.2287C15.6337 17.3273 15.6892 17.4614 15.6892 17.6008V18.6514C15.6891 18.8124 15.6575 18.9715 15.5959 19.1202C15.5342 19.2689 15.4436 19.4039 15.3298 19.5177C15.2159 19.6314 15.081 19.7217 14.9323 19.7832C14.7835 19.8447 14.624 19.8766 14.463 19.8765H9.90934ZM11.6622 17.2508V13.2652L10.9815 13.9432C10.8823 14.0386 10.7497 14.0916 10.6122 14.0901C10.4746 14.0885 10.3431 14.0325 10.2461 13.9349C10.1491 13.8374 10.0944 13.7059 10.0937 13.5683C10.093 13.4308 10.1463 13.2981 10.2423 13.1995L11.8179 11.6233C11.8663 11.5743 11.9239 11.5356 11.9874 11.509C12.051 11.4825 12.1189 11.4687 12.1878 11.4687C12.2567 11.4687 12.3252 11.4825 12.3888 11.509C12.4523 11.5356 12.5099 11.5743 12.5583 11.6233L14.135 13.1995C14.1842 13.2482 14.2232 13.3063 14.2499 13.3701C14.2766 13.434 14.2905 13.5025 14.2907 13.5717C14.2909 13.6408 14.2773 13.7092 14.251 13.7732C14.2246 13.8371 14.1856 13.8954 14.1367 13.9443C14.0878 13.9933 14.03 14.0321 13.9661 14.0586C13.9022 14.0851 13.8338 14.0984 13.7646 14.0983C13.6954 14.0983 13.6269 14.0847 13.5631 14.058C13.4992 14.0314 13.4412 13.9923 13.3925 13.9432L12.7112 13.2625V17.2486C12.7112 17.3877 12.6555 17.5207 12.5572 17.619C12.4588 17.7174 12.3258 17.7731 12.1867 17.7731C12.0476 17.7731 11.9141 17.7174 11.8157 17.619C11.7173 17.5207 11.6622 17.3877 11.6622 17.2486V17.2508ZM15.5015 15.6746C15.3618 15.6746 15.2275 15.6193 15.1288 15.5205C15.0301 15.4218 14.9748 15.2875 14.9748 15.1479C14.9748 15.0082 15.0301 14.8745 15.1288 14.7758C15.2275 14.677 15.3618 14.6217 15.5015 14.6217H16.3003C17.1471 14.6477 17.9694 14.3359 18.5866 13.7555C19.2037 13.1751 19.5648 12.3735 19.5908 11.5267C19.6168 10.6799 19.3055 9.85763 18.7251 9.2405C18.1447 8.62338 17.3426 8.26223 16.4958 8.23625C16.4013 8.23172 16.3101 8.20144 16.2313 8.14902C16.1526 8.0966 16.0892 8.02354 16.0486 7.93812C15.6528 7.11629 15.0048 6.44281 14.1991 6.01519C13.3934 5.58757 12.4725 5.42854 11.57 5.56137C10.6676 5.69421 9.8311 6.11169 9.18279 6.75333C8.53448 7.39498 8.10813 8.22687 7.96598 9.12788C7.94691 9.25296 7.88382 9.36742 7.78821 9.4503C7.69259 9.53317 7.57078 9.57948 7.44426 9.58059C7.10834 9.56903 6.7734 9.62484 6.45933 9.74456C6.14525 9.86429 5.85816 10.0451 5.61518 10.2773C5.3722 10.5096 5.17812 10.7883 5.04432 11.0966C4.91052 11.405 4.83982 11.7372 4.83618 12.0733C4.83254 12.4094 4.89624 12.7426 5.02334 13.0538C5.15043 13.365 5.33863 13.6472 5.57653 13.8847C5.81444 14.1221 6.09713 14.3097 6.40853 14.4362C6.71994 14.5627 7.05351 14.626 7.3896 14.6217H8.85982C8.99945 14.6217 9.13319 14.677 9.23193 14.7758C9.33066 14.8745 9.38596 15.0082 9.38596 15.1479C9.38596 15.2875 9.33066 15.4218 9.23193 15.5205C9.13319 15.6193 8.99945 15.6746 8.85982 15.6746H7.3896C6.46847 15.685 5.57903 15.3389 4.90685 14.709C4.23467 14.0791 3.83163 13.214 3.78224 12.2941C3.73284 11.3743 4.04098 10.471 4.64184 9.77272C5.24271 9.07447 6.09005 8.63538 7.007 8.54708C7.25955 7.50253 7.82169 6.55832 8.61966 5.83852C9.41763 5.11872 10.414 4.65686 11.4789 4.51295C12.5439 4.36904 13.6279 4.54972 14.5883 5.03192C15.5487 5.51411 16.3411 6.27538 16.8618 7.21543C17.94 7.34599 18.9271 7.88471 19.6201 8.72099C20.3131 9.55726 20.6593 10.6274 20.5873 11.7111C20.5153 12.7948 20.0306 13.8099 19.233 14.5472C18.4355 15.2845 17.3858 15.6878 16.2998 15.6746H15.5015Z" fill="#A7A7A7"/>
</svg>
