<svg width="32" height="24" viewBox="0 0 32 24" fill="none" xmlns="http://www.w3.org/2000/svg">
<path d="M11.959 3.88918C11.959 3.9865 11.9403 4.08291 11.904 4.17318H20.043C20.043 4.15252 20.043 4.13152 20.043 4.11018V1.67318H11.959V3.88918ZM10.153 4.17318C10.1167 4.08291 10.098 3.9865 10.098 3.88918V0.837184C10.1109 0.6029 10.2161 0.383279 10.3906 0.226406C10.5651 0.0695325 10.7947 -0.011811 11.029 0.000184397H20.972C21.2062 -0.0115381 21.4354 0.0699283 21.6097 0.226773C21.784 0.383618 21.8891 0.603082 21.902 0.837184C21.902 0.882452 21.898 0.927632 21.89 0.972184C21.898 1.01641 21.902 1.06125 21.902 1.10618V4.10618C21.902 4.12752 21.902 4.14852 21.902 4.16918H29C29.7793 4.16319 30.5334 4.44483 31.118 4.96018C31.3903 5.19701 31.6094 5.4887 31.7611 5.81614C31.9127 6.14357 31.9935 6.49936 31.998 6.86018V21.3002C31.9935 21.661 31.9127 22.0168 31.7611 22.3442C31.6094 22.6717 31.3903 22.9634 31.118 23.2002C30.5347 23.7188 29.7805 24.0037 29 24.0002H3C2.22002 24.0067 1.4651 23.725 0.88 23.2092C0.606613 22.9714 0.386809 22.6782 0.235112 22.3491C0.0834153 22.0201 0.00327952 21.6625 0 21.3002L0 6.86918C0.00454604 6.50836 0.0852924 6.15257 0.236947 5.82514C0.388601 5.4977 0.60774 5.20601 0.88 4.96918C1.46436 4.45156 2.21936 4.16808 3 4.17318H10.155H10.153ZM29 5.84718H3C2.70556 5.84565 2.42083 5.95242 2.2 6.14718C2.09632 6.23703 2.01287 6.34783 1.95512 6.47228C1.89738 6.59673 1.86666 6.732 1.865 6.86918V13.2912H30.139V6.86918C30.1373 6.732 30.1066 6.59673 30.0489 6.47228C29.9911 6.34783 29.9077 6.23703 29.804 6.14718C29.5832 5.95242 29.2984 5.84565 29.004 5.84718H29ZM1.861 14.9652V21.3002C1.86266 21.4374 1.89338 21.5726 1.95112 21.6971C2.00887 21.8215 2.09232 21.9323 2.196 22.0222C2.41683 22.2169 2.70156 22.3237 2.996 22.3222H29C29.2944 22.3237 29.5792 22.2169 29.8 22.0222C29.9037 21.9323 29.9871 21.8215 30.0449 21.6971C30.1026 21.5726 30.1333 21.4374 30.135 21.3002V14.9652H1.861ZM15.927 9.65518C16.3244 9.63528 16.7135 9.77344 17.0094 10.0395C17.3052 10.3056 17.4838 10.6779 17.506 11.0752C17.4643 11.4649 17.28 11.8254 16.9885 12.0874C16.697 12.3494 16.3189 12.4944 15.927 12.4944C15.5351 12.4944 15.157 12.3494 14.8655 12.0874C14.574 11.8254 14.3897 11.4649 14.348 11.0752C14.37 10.6777 14.5484 10.3051 14.8443 10.0389C15.1402 9.77259 15.5294 9.63428 15.927 9.65418V9.65518Z" fill="#A7A7A7"/>
</svg>
