<svg width="14" height="16" viewBox="0 0 14 16" fill="none" xmlns="http://www.w3.org/2000/svg">
<path d="M2.35954 15.4997C2.05504 15.5001 1.75278 15.4484 1.46629 15.3469C1.18526 15.2481 0.925108 15.0993 0.698841 14.9078C0.48253 14.7236 0.306766 14.4979 0.182334 14.2444C0.0626171 13.9995 0.000307994 13.7312 0 13.4595L0 5.25635C0.000387882 4.98468 0.0626942 4.71655 0.182334 4.47169C0.306865 4.21876 0.482631 3.99354 0.698841 3.80984C0.923583 3.61932 1.182 3.47103 1.46121 3.37236C1.70244 3.28664 1.9551 3.23601 2.21119 3.22206V1.43807C2.21175 1.31241 2.24084 1.18846 2.29633 1.07527C2.35286 0.959172 2.43297 0.855696 2.53171 0.771218L2.53647 0.767155C2.63912 0.68091 2.75688 0.613775 2.88399 0.569038C3.14342 0.477212 3.42727 0.477212 3.6867 0.569038C3.81439 0.613754 3.93278 0.680879 4.03612 0.767155L4.08695 0.809654V0.815903C4.16345 0.890848 4.2263 0.978154 4.27277 1.07402C4.32795 1.18761 4.3567 1.31186 4.35695 1.43775V3.21581H9.61891V1.43807C9.61945 1.3126 9.64888 1.18888 9.70499 1.07621C9.75278 0.979949 9.81667 0.892274 9.89399 0.816841V0.809654L9.94482 0.767155C10.0475 0.681168 10.1651 0.61406 10.292 0.569038C10.5517 0.476987 10.836 0.476987 11.0957 0.569038C11.2204 0.612711 11.336 0.678362 11.4368 0.762781L11.4476 0.770593C11.5463 0.855108 11.6264 0.958575 11.683 1.07464C11.7381 1.18803 11.7669 1.31207 11.7672 1.43775V3.21893C12.0296 3.23077 12.2886 3.28144 12.5356 3.36924C12.8151 3.46843 13.0736 3.6176 13.298 3.80922C13.5158 3.99216 13.6928 4.21738 13.818 4.47076C13.9376 4.71616 13.9998 4.98482 14 5.25697V13.4598C13.9998 13.7319 13.9376 14.0006 13.818 14.246C13.6937 14.499 13.5179 14.7243 13.3015 14.9078C13.0765 15.0995 12.8174 15.2484 12.5372 15.3472C12.2503 15.4488 11.9476 15.5005 11.6427 15.5H2.35954V15.4997ZM0.981236 13.4595C0.981227 13.6109 1.01575 13.7604 1.08225 13.8969C1.15321 14.041 1.25355 14.1692 1.37703 14.2735C1.50945 14.3865 1.66194 14.4744 1.82683 14.5328C1.99765 14.5935 2.17794 14.6243 2.35954 14.6238H11.6427C11.8242 14.6244 12.0044 14.5938 12.1751 14.5332C12.3389 14.4749 12.4903 14.387 12.6214 14.2741L12.623 14.2725C12.7475 14.1691 12.8489 14.0414 12.9209 13.8976C12.9881 13.7612 13.0228 13.6116 13.0226 13.4601V7.80406H9.77551C9.65133 7.80465 9.53109 7.76116 9.43689 7.68156C9.38974 7.64291 9.35181 7.59453 9.32578 7.53986C9.29974 7.48518 9.28625 7.42555 9.28625 7.36517C9.28625 7.30479 9.29974 7.24516 9.32578 7.19048C9.35181 7.13581 9.38974 7.08743 9.43689 7.04878C9.53161 6.96931 9.6523 6.92615 9.77678 6.92722H13.0238V5.25635C13.0241 5.10483 12.9893 4.95524 12.9222 4.81887C12.8501 4.67506 12.7487 4.54741 12.6242 4.44388L12.6226 4.44232C12.4921 4.32967 12.3412 4.24202 12.1779 4.18389C12.0471 4.13733 11.9104 4.10852 11.7717 4.09827V4.43232C11.7715 4.55805 11.743 4.68218 11.6881 4.79574C11.6313 4.91206 11.5514 5.01599 11.453 5.10136L11.4114 5.13792H11.4032C11.311 5.20837 11.2082 5.26425 11.0985 5.30353C10.8401 5.3968 10.5565 5.3968 10.298 5.30353C10.1704 5.25756 10.0521 5.18963 9.94863 5.10292L9.94259 5.10011C9.84344 5.01411 9.76248 4.90973 9.70435 4.79293C9.64854 4.68029 9.61933 4.55669 9.61891 4.43138V4.09358H4.35695V4.43232C4.3569 4.55826 4.32836 4.68262 4.27341 4.79637C4.21659 4.91274 4.13642 5.01659 4.03771 5.10167L4.03612 5.10323C3.93269 5.19 3.81437 5.25794 3.6867 5.30385C3.42837 5.39693 3.14486 5.39693 2.88653 5.30385C2.77668 5.26415 2.67364 5.20819 2.58095 5.13792H2.573L2.53076 5.10011C2.43241 5.01473 2.35248 4.9108 2.29569 4.79449C2.2408 4.68094 2.21227 4.55681 2.21215 4.43107V4.10015C2.08141 4.11168 1.95275 4.13983 1.82937 4.18389C1.66381 4.24291 1.51046 4.33089 1.37672 4.44357C1.25356 4.54814 1.15346 4.67639 1.08257 4.82043C1.016 4.95697 0.98148 5.10648 0.981553 5.25791V6.92784H5.97413C6.09861 6.92711 6.21922 6.97036 6.31402 7.04971C6.36152 7.08812 6.39977 7.13639 6.42603 7.19107C6.45229 7.24575 6.46591 7.30548 6.46591 7.36595C6.46591 7.42643 6.45229 7.48615 6.42603 7.54083C6.39977 7.59551 6.36152 7.64379 6.31402 7.68219C6.21959 7.76157 6.0993 7.80493 5.97509 7.80437H0.981553V13.4604L0.981236 13.4595ZM10.6383 1.38776L10.6138 1.4065C10.6085 1.4105 10.6041 1.41563 10.6011 1.4215C10.5987 1.42669 10.5975 1.43236 10.5976 1.43807V4.43232C10.5975 4.43826 10.5988 4.44413 10.6014 4.44951C10.6059 4.45772 10.6121 4.46494 10.6195 4.47076C10.6301 4.47888 10.6419 4.48532 10.6545 4.48982C10.6673 4.49428 10.6809 4.4965 10.6945 4.49638C10.7089 4.49651 10.7232 4.49419 10.7367 4.48951C10.7484 4.48541 10.7591 4.47927 10.7685 4.47138C10.7756 4.46536 10.7814 4.45804 10.7857 4.44982C10.7884 4.44416 10.7898 4.43796 10.7898 4.43169V1.43807C10.7898 1.43203 10.7885 1.42605 10.786 1.42057C10.7829 1.41463 10.7786 1.40941 10.7733 1.40525L10.7501 1.38682L10.7405 1.38307C10.7257 1.37845 10.7101 1.37623 10.6945 1.37651C10.6795 1.37625 10.6646 1.37847 10.6503 1.38307L10.6383 1.38776ZM3.21085 1.39838L3.20768 1.4015C3.20205 1.40637 3.19751 1.41233 3.19434 1.419C3.19168 1.42512 3.19038 1.43173 3.19052 1.43838V4.43263C3.19046 4.43928 3.19175 4.44587 3.19434 4.45201C3.19706 4.45744 3.20036 4.46257 3.20418 4.46732H3.20609C3.21756 4.47669 3.23055 4.48408 3.24453 4.48919C3.25737 4.49367 3.27092 4.49589 3.28455 4.49575C3.2983 4.49578 3.31195 4.49346 3.32489 4.48888C3.33648 4.4853 3.34726 4.47957 3.35666 4.47201L3.37159 4.45888C3.37428 4.45536 3.37662 4.45159 3.37858 4.44763C3.38112 4.44279 3.38253 4.43745 3.38271 4.43201V1.43838C3.38273 1.43308 3.38154 1.42784 3.37921 1.42307C3.37515 1.41536 3.36966 1.40847 3.36301 1.40275L3.35698 1.39744C3.34923 1.39099 3.34027 1.38611 3.33061 1.38307C3.30179 1.37398 3.2708 1.37398 3.24198 1.38307C3.23141 1.38668 3.22145 1.39185 3.21244 1.39838H3.21085ZM8.63449 10.973C8.63528 10.8881 8.65477 10.8044 8.69162 10.7276C8.72848 10.6508 8.78181 10.5829 8.84796 10.5283C8.98513 10.4154 9.15829 10.3536 9.33714 10.3536C9.516 10.3536 9.68916 10.4154 9.82633 10.5283C9.89287 10.5825 9.94643 10.6505 9.98319 10.7274C10.02 10.8043 10.039 10.8882 10.039 10.9731C10.039 11.0581 10.02 11.142 9.98319 11.2189C9.94643 11.2958 9.89287 11.3638 9.82633 11.418C9.68913 11.531 9.51591 11.5929 9.33699 11.5929C9.15806 11.5929 8.98484 11.531 8.84764 11.418C8.7815 11.3634 8.72818 11.2953 8.69133 11.2185C8.65448 11.1417 8.63498 11.0579 8.63417 10.973H8.63449ZM6.53956 10.973C6.54025 10.8882 6.5596 10.8045 6.59629 10.7278C6.63297 10.651 6.68612 10.583 6.75207 10.5283C6.88922 10.4155 7.06232 10.3537 7.2411 10.3537C7.41988 10.3537 7.59298 10.4155 7.73013 10.5283C7.79671 10.5824 7.85031 10.6504 7.88711 10.7272C7.9239 10.8041 7.94298 10.888 7.94298 10.973C7.94298 11.058 7.9239 11.1419 7.88711 11.2187C7.85031 11.2956 7.79671 11.3635 7.73013 11.4177C7.59298 11.5305 7.41988 11.5923 7.2411 11.5923C7.06232 11.5923 6.88922 11.5305 6.75207 11.4177C6.68607 11.3629 6.6329 11.2948 6.59621 11.2179C6.55953 11.1411 6.5402 11.0573 6.53956 10.9724V10.973ZM4.44081 10.973C4.44172 10.8881 4.4614 10.8044 4.49848 10.7277C4.53556 10.651 4.58916 10.5832 4.65555 10.5289C4.793 10.416 4.96642 10.3541 5.14553 10.3541C5.32464 10.3541 5.49806 10.416 5.63551 10.5289C5.7021 10.5831 5.7557 10.6511 5.7925 10.7279C5.8293 10.8048 5.84838 10.8888 5.84838 10.9738C5.84838 11.0588 5.8293 11.1427 5.7925 11.2196C5.7557 11.2965 5.7021 11.3644 5.63551 11.4186C5.49822 11.5319 5.32474 11.594 5.14553 11.594C4.96632 11.594 4.79284 11.5319 4.65555 11.4186C4.58912 11.3642 4.53551 11.2963 4.49843 11.2195C4.46135 11.1427 4.44169 11.0589 4.44081 10.9739V10.973ZM4.34742 6.27474C4.22321 6.27528 4.10294 6.23192 4.00849 6.15256C3.96099 6.11416 3.92274 6.06588 3.89648 6.01121C3.87022 5.95653 3.8566 5.8968 3.8566 5.83633C3.8566 5.77585 3.87022 5.71612 3.89648 5.66145C3.92274 5.60677 3.96099 5.55849 4.00849 5.52009C4.10316 5.44073 4.22368 5.39748 4.34806 5.39822H9.65671C9.7811 5.39742 9.90163 5.44068 9.99628 5.52009C10.0436 5.55859 10.0816 5.60688 10.1078 5.66151C10.1339 5.71615 10.1474 5.77579 10.1474 5.83617C10.1474 5.89655 10.1339 5.95619 10.1078 6.01082C10.0816 6.06546 10.0436 6.11375 9.99628 6.15225C9.90201 6.23175 9.78182 6.27523 9.65766 6.27474H4.34742Z" fill="#A7A7A7"/>
</svg>
