<svg width="100" height="100" viewBox="0 0 100 100" fill="none" xmlns="http://www.w3.org/2000/svg">
<path d="M49.9999 85.8105C49.8054 85.8105 49.6132 85.7684 49.4364 85.6873C49.2596 85.6061 49.1024 85.4877 48.9756 85.3402C48.9378 85.297 45.1296 80.8619 40.3864 74.4227C31.2161 61.9902 20.2837 44.6092 20.2837 32.4186C20.2803 26.1161 22.2818 19.9759 25.9987 14.8861C29.7156 9.79627 34.9553 6.02075 40.9598 4.10562C46.9643 2.19049 53.4223 2.23504 59.3998 4.23281C65.3773 6.23059 70.5644 10.078 74.2107 15.2186C74.4179 15.5112 74.5003 15.8742 74.4399 16.2276C74.3794 16.581 74.1811 16.8959 73.8884 17.1031C73.5958 17.3102 73.2328 17.3927 72.8794 17.3322C72.526 17.2718 72.2111 17.0734 72.004 16.7808C68.6889 12.1087 63.9737 8.61226 58.5403 6.79698C53.1069 4.9817 47.2369 4.94173 41.7793 6.68285C36.3216 8.42398 31.5593 11.8559 28.1809 16.4824C24.8026 21.1089 22.9834 26.69 22.9864 32.4186C22.9864 41.3565 29.9378 55.7051 42.5607 72.824C44.9519 76.07 47.4303 79.2509 49.9932 82.3632C52.5606 79.2533 55.0413 76.0728 57.4323 72.8254C64.5688 63.1483 73.6242 49.2808 76.2675 38.1348C76.3034 37.9572 76.3746 37.7885 76.4771 37.639C76.5795 37.4894 76.7109 37.362 76.8636 37.2643C77.0162 37.1666 77.187 37.1006 77.3657 37.0702C77.5444 37.0398 77.7274 37.0457 77.9037 37.0875C78.0801 37.1293 78.2463 37.2062 78.3923 37.3135C78.5384 37.4209 78.6613 37.5565 78.7539 37.7123C78.8465 37.8682 78.9067 38.041 78.9311 38.2206C78.9555 38.4002 78.9435 38.5829 78.8959 38.7578C76.1499 50.3483 66.8918 64.5511 59.6134 74.4227C54.8702 80.8619 51.0621 85.297 51.0242 85.3402C50.8974 85.4877 50.7402 85.6061 50.5634 85.6873C50.3867 85.7684 50.1944 85.8105 49.9999 85.8105Z" fill="#A7A7A7"/>
<path d="M78.1217 30.0742C77.7806 30.0752 77.4517 29.9472 77.2011 29.7159C76.9505 29.4845 76.7966 29.167 76.7703 28.8269C76.6177 27.605 76.3683 26.3971 76.0244 25.2147C75.9882 25.0923 75.97 24.9653 75.9703 24.8377C75.9668 24.5021 76.0884 24.1771 76.3113 23.9262C76.5342 23.6752 76.8426 23.5162 77.1763 23.4801C77.51 23.444 77.8452 23.5335 78.1167 23.7309C78.3881 23.9284 78.5763 24.2199 78.6446 24.5485C79.0196 25.8598 79.2907 27.1987 79.4554 28.5526C79.4613 28.6069 79.4645 28.6615 79.4649 28.7161C79.4667 29.0743 79.3262 29.4185 79.0744 29.6731C78.8225 29.9278 78.4798 30.072 78.1217 30.0742V30.0742ZM50 53.6661C45.8191 53.6661 41.7321 52.4263 38.2557 50.1035C34.7794 47.7807 32.0699 44.4792 30.47 40.6165C28.87 36.7538 28.4514 32.5034 29.267 28.4028C30.0827 24.3022 32.096 20.5356 35.0524 17.5792C38.0087 14.6229 41.7754 12.6095 45.876 11.7939C49.9766 10.9782 54.227 11.3969 58.0897 12.9968C61.9523 14.5968 65.2538 17.3063 67.5766 20.7826C69.8994 24.2589 71.1392 28.346 71.1392 32.5269C71.1328 38.1314 68.9036 43.5045 64.9406 47.4675C60.9776 51.4304 55.6045 53.6596 50 53.6661ZM50 14.0918C46.3536 14.0918 42.789 15.1731 39.7571 17.199C36.7252 19.2248 34.3622 22.1043 32.9668 25.4732C31.5714 28.8421 31.2064 32.5492 31.9179 36.1255C32.6294 39.7019 34.3854 42.987 36.964 45.5653C39.5425 48.1436 42.8277 49.8994 46.4041 50.6106C49.9805 51.3219 53.6875 50.9566 57.0563 49.561C60.4251 48.1653 63.3044 45.8021 65.3301 42.77C67.3557 39.738 68.4368 36.1733 68.4365 32.5269C68.4304 27.6392 66.486 22.9535 63.0298 19.4975C59.5736 16.0415 54.8877 14.0975 50 14.0918V14.0918Z" fill="#A7A7A7"/>
<path d="M66.081 45.4051C65.8659 45.4052 65.6539 45.3541 65.4626 45.2558C65.2713 45.1576 65.1062 45.0151 64.981 44.8402C63.3078 42.4699 61.093 40.5331 58.5208 39.1908C55.9486 37.8485 53.0932 37.1395 50.1918 37.1226C50.1774 37.124 50.163 37.124 50.1486 37.1226H49.8026C46.9013 37.1395 44.0459 37.8485 41.4736 39.1908C38.9014 40.5331 36.6867 42.4699 35.0134 44.8402C34.8037 45.1283 34.4886 45.3219 34.1368 45.3788C33.785 45.4358 33.425 45.3514 33.1351 45.1442C32.8452 44.937 32.6489 44.6236 32.5889 44.2723C32.5289 43.921 32.6101 43.5603 32.8148 43.2686C34.7497 40.5667 37.2931 38.358 40.2395 36.8208C43.1859 35.2836 46.4526 34.4612 49.7756 34.4199H50.2229C53.5459 34.4612 56.8126 35.2836 59.759 36.8208C62.7053 38.358 65.2488 40.5667 67.1837 43.2686C67.2868 43.413 67.3605 43.5764 67.4005 43.7493C67.4404 43.9222 67.446 44.1013 67.4167 44.2764C67.3875 44.4514 67.3241 44.619 67.2301 44.7695C67.136 44.9201 67.0133 45.0506 66.8688 45.1537C66.6394 45.3188 66.3636 45.4068 66.081 45.4051Z" fill="#A7A7A7"/>
<path d="M49.9999 37.1383C48.3516 37.1385 46.7402 36.65 45.3695 35.7344C43.9989 34.8189 42.9305 33.5174 42.2995 31.9946C41.6686 30.4719 41.5033 28.7962 41.8247 27.1795C42.1461 25.5628 42.9398 24.0777 44.1052 22.9121C45.2706 21.7465 46.7556 20.9526 48.3722 20.6309C49.9888 20.3093 51.6646 20.4742 53.1874 21.1049C54.7103 21.7357 56.012 22.8038 56.9277 24.1743C57.8435 25.5449 58.3323 27.1562 58.3323 28.8045C58.3302 31.0139 57.4517 33.1321 55.8895 34.6945C54.3274 36.2569 52.2093 37.1358 49.9999 37.1383ZM49.9999 23.1748C48.8861 23.1745 47.7972 23.5046 46.8709 24.1232C45.9447 24.7419 45.2227 25.6213 44.7964 26.6503C44.37 27.6793 44.2584 28.8116 44.4756 29.9041C44.6928 30.9965 45.2292 32 46.0168 32.7876C46.8044 33.5752 47.8079 34.1116 48.9003 34.3288C49.9928 34.546 51.1251 34.4344 52.1541 34.008C53.1831 33.5817 54.0625 32.8597 54.6812 31.9335C55.2998 31.0072 55.6299 29.9183 55.6296 28.8045C55.6278 27.3119 55.0341 25.881 53.9787 24.8256C52.9234 23.7703 51.4925 23.1765 49.9999 23.1748ZM49.9999 97.2977C34.7499 97.2977 22.804 91.6586 22.804 84.4599C22.804 78.8045 30.0499 74.0248 41.2634 72.2842C41.4402 72.2536 41.6213 72.2586 41.7962 72.2987C41.971 72.3389 42.1361 72.4135 42.2819 72.5181C42.4276 72.6227 42.5511 72.7553 42.645 72.9082C42.739 73.061 42.8015 73.2311 42.8291 73.4083C42.8566 73.5856 42.8486 73.7666 42.8054 73.9408C42.7623 74.1149 42.6849 74.2787 42.5778 74.4226C42.4707 74.5666 42.336 74.6877 42.1815 74.779C42.0271 74.8703 41.856 74.93 41.6783 74.9545C32.1621 76.4342 25.5067 80.3423 25.5067 84.4599C25.5067 89.3545 35.3485 94.595 49.9999 94.595C64.6513 94.595 74.4931 89.3545 74.4931 84.4599C74.4931 80.3423 67.8431 76.4342 58.3215 74.9545C58.1438 74.93 57.9727 74.8703 57.8183 74.779C57.6638 74.6877 57.5291 74.5666 57.422 74.4226C57.3149 74.2787 57.2375 74.1149 57.1944 73.9408C57.1512 73.7666 57.1432 73.5856 57.1707 73.4083C57.1983 73.2311 57.2609 73.061 57.3548 72.9082C57.4487 72.7553 57.5722 72.6227 57.7179 72.5181C57.8637 72.4135 58.0288 72.3389 58.2036 72.2987C58.3785 72.2586 58.5596 72.2536 58.7364 72.2842C69.9526 74.0248 77.1958 78.8045 77.1958 84.4599C77.1958 91.6586 65.2499 97.2977 49.9999 97.2977Z" fill="#A7A7A7"/>
</svg>
