<svg width="98" height="68" viewBox="0 0 98 68" fill="none" xmlns="http://www.w3.org/2000/svg">
<path d="M14.1181 4.2793H81.5306C82.558 4.28128 83.5744 4.49003 84.5193 4.8931C85.4642 5.29616 86.3181 5.88528 87.0301 6.6253C88.4959 8.13447 89.3145 10.1555 89.312 12.2584V55.0148C89.3168 57.1204 88.4979 59.1445 87.0301 60.6554C86.319 61.3947 85.4662 61.9834 84.5225 62.3864C83.5788 62.7895 82.5636 62.9986 81.5374 63.0014H14.1181C13.0921 62.999 12.077 62.7904 11.1333 62.3881C10.1895 61.9858 9.33643 61.3979 8.62469 60.6595C7.1566 59.1472 6.33799 57.1216 6.34347 55.0148V12.2584C6.34076 10.1553 7.15917 8.13415 8.62469 6.62462C9.33603 5.8854 10.189 5.2968 11.1328 4.89387C12.0765 4.49094 13.0918 4.28193 14.1181 4.2793ZM11.1829 23.8477H58.683C59.3235 23.8736 59.9291 24.1461 60.373 24.6081C60.817 25.0701 61.065 25.6858 61.065 26.3263C61.065 26.9667 60.817 27.5824 60.373 28.0444C59.9291 28.5064 59.3235 28.7789 58.683 28.8049H11.1829V55.0148C11.1829 55.8131 11.4939 56.5808 12.0506 57.1527C12.3192 57.4323 12.6411 57.6551 12.9974 57.8082C13.3537 57.9612 13.7371 58.0412 14.1249 58.0435H81.5374C81.9252 58.0413 82.3086 57.9613 82.665 57.8083C83.0213 57.6552 83.3432 57.4323 83.6117 57.1527C84.1686 56.5802 84.4799 55.8131 84.4794 55.0148V28.8042H67.8786C67.2368 28.7804 66.6292 28.5088 66.1837 28.0465C65.7381 27.5843 65.4894 26.9673 65.4899 26.3256C65.4898 25.684 65.7386 25.0673 66.1841 24.6052C66.6296 24.1431 67.237 23.8716 67.8786 23.8477H84.4726V12.2584C84.473 11.4601 84.1617 10.693 83.6049 10.1205C83.3363 9.84106 83.0143 9.61826 82.658 9.46526C82.3017 9.31225 81.9184 9.23216 81.5306 9.2297H14.1181C13.7304 9.23216 13.347 9.31225 12.9907 9.46526C12.6344 9.61826 12.3125 9.84106 12.0438 10.1205C11.4893 10.6941 11.1805 11.461 11.1829 12.2584V23.8477Z" fill="#A7A7A7"/>
<path d="M94.979 62.3686L5.07219 1.4005C4.80072 1.21641 4.49562 1.08755 4.17432 1.02128C3.85301 0.955 3.52178 0.952608 3.19955 1.01424C2.54877 1.1387 1.97413 1.51638 1.60204 2.06418C1.22995 2.61199 1.09089 3.28505 1.21545 3.93529C1.34002 4.58554 1.71801 5.15972 2.26626 5.5315L92.1745 66.4983C92.4457 66.688 92.7519 66.822 93.0754 66.8924C93.3989 66.9628 93.7332 66.9683 94.0588 66.9085C94.3844 66.8486 94.6949 66.7247 94.9722 66.5439C95.2494 66.3631 95.4879 66.1291 95.6738 65.8553C95.8597 65.5816 95.9893 65.2736 96.055 64.9494C96.1208 64.6252 96.1213 64.2911 96.0567 63.9667C95.992 63.6422 95.8634 63.3339 95.6784 63.0595C95.4934 62.7852 95.2557 62.5503 94.979 62.3686Z" fill="#A7A7A7"/>
</svg>
