<svg width="76" height="76" viewBox="0 0 76 76" fill="none" xmlns="http://www.w3.org/2000/svg">
<g clip-path="url(#clip0_301_7138)">
<path d="M72.4379 52.7454V10.4641C72.4364 9.26373 71.9589 8.11297 71.1101 7.2642C70.2613 6.41543 69.1106 5.93793 67.9102 5.93644H57.1478V4.45374C57.1467 3.27312 56.6773 2.14116 55.8426 1.3062C55.0079 0.471246 53.8761 0.00149039 52.6954 0C51.5148 0.00130383 50.3829 0.47088 49.5481 1.3057C48.7133 2.14053 48.2437 3.27242 48.2424 4.45304V5.93785H24.1954V4.45304C24.1941 3.27242 23.7246 2.14053 22.8897 1.3057C22.0549 0.47088 20.923 0.00130383 19.7424 0C18.5618 0.00130383 17.4299 0.47088 16.5951 1.3057C15.7603 2.14053 15.2907 3.27242 15.2894 4.45304V5.93785H4.52763C3.32741 5.93897 2.17666 6.41615 1.32784 7.2647C0.479031 8.11325 0.00149043 9.26386 0 10.4641L0 65.5359C0.00130419 66.7363 0.478762 67.8871 1.3276 68.7358C2.17643 69.5845 3.32729 70.0617 4.52763 70.0629H24.7591C25.1448 70.051 25.5107 69.8894 25.7794 69.6124C26.048 69.3354 26.1982 68.9646 26.1982 68.5787C26.1982 68.1929 26.048 67.8221 25.7794 67.5451C25.5107 67.2681 25.1448 67.1065 24.7591 67.0946H4.52833C4.11505 67.0943 3.71881 66.9299 3.42657 66.6377C3.13434 66.3455 2.97 65.9492 2.96963 65.5359V10.4641C2.96963 9.60485 3.66841 8.90537 4.52833 8.90537H15.2901V10.3902C15.2914 11.5708 15.761 12.7027 16.5958 13.5375C17.4306 14.3723 18.5625 14.8419 19.7431 14.8432C20.9237 14.8419 22.0556 14.3723 22.8904 13.5375C23.7253 12.7027 24.1948 11.5708 24.1961 10.3902V8.90537H48.2431V10.3902C48.2444 11.5708 48.714 12.7027 49.5488 13.5375C50.3836 14.3723 51.5155 14.8419 52.6962 14.8432C53.8768 14.8419 55.0087 14.3723 55.8435 13.5375C56.6783 12.7027 57.1479 11.5708 57.1492 10.3902V8.90537H67.9109C68.7701 8.90537 69.4696 9.60485 69.4696 10.4641V17.8114H13.3591C12.9653 17.8114 12.5876 17.9679 12.3092 18.2463C12.0307 18.5248 11.8743 18.9025 11.8743 19.2963C11.8743 19.6901 12.0307 20.0677 12.3092 20.3462C12.5876 20.6246 12.9653 20.7811 13.3591 20.7811H69.4696V50.236C68.1893 49.4279 66.7854 48.8348 65.3136 48.4803V26.422C65.3136 26.0282 65.1571 25.6505 64.8787 25.372C64.6002 25.0936 64.2225 24.9371 63.8287 24.9371H8.60911C8.21544 24.9373 7.83795 25.0939 7.55964 25.3723C7.28134 25.6507 7.125 26.0283 7.125 26.422V61.453C7.125 61.8468 7.28144 62.2245 7.55989 62.503C7.83835 62.7814 8.21602 62.9379 8.60981 62.9379H48.1228C48.2122 64.3621 48.5213 65.7641 49.039 67.0939H36.6341C36.246 67.1024 35.8766 67.2625 35.6051 67.54C35.3337 67.8174 35.1816 68.1902 35.1816 68.5784C35.1816 68.9666 35.3337 69.3394 35.6051 69.6168C35.8766 69.8943 36.246 70.0544 36.6341 70.0629H50.6322C53.1599 73.651 57.3343 76 62.0463 76C69.7413 76 76 69.7406 76 62.047C76 58.4764 74.651 55.2154 72.4379 52.7454ZM21.2265 10.3909C21.2265 11.2093 20.5608 11.875 19.7417 11.875C19.3481 11.8744 18.9709 11.7178 18.6926 11.4394C18.4144 11.1611 18.258 10.7837 18.2576 10.3902V4.45374C18.2576 3.63533 18.924 2.96893 19.7424 2.96893C20.5608 2.96893 21.2272 3.63533 21.2272 4.45374V10.3916L21.2265 10.3909ZM54.1796 10.3909C54.1796 11.2093 53.5139 11.875 52.6947 11.875C52.3012 11.8744 51.9239 11.7178 51.6457 11.4394C51.3675 11.1611 51.211 10.7837 51.2106 10.3902V4.45374C51.2106 3.63533 51.877 2.96893 52.6954 2.96893C53.5139 2.96893 54.1803 3.63533 54.1803 4.45374V10.3916L54.1796 10.3909ZM62.047 48.0939C61.3573 48.0939 60.6783 48.1453 60.0147 48.2417H54.2696V39.6326H62.3446V48.0981C62.2461 48.096 62.1469 48.0946 62.0477 48.0946L62.047 48.0939ZM48.2487 59.9689H43.225V51.2106H51.3V53.1578C49.681 55.1076 48.6259 57.4628 48.2487 59.9689ZM10.0939 39.6326H18.1689V48.2424H10.0939V39.6326ZM21.1379 39.6326H29.2129V48.2424H21.1379V39.6326ZM43.225 39.6326H51.3V48.2424H43.225V39.6326ZM40.2561 48.2424H32.1811V39.6326H40.2561V48.2424ZM43.225 36.6644V27.9061H51.3V36.6644H43.225ZM40.2561 36.6644H32.1811V27.9061H40.2561V36.6644ZM29.2121 36.6644H21.1386V27.9061H29.2136V36.6644H29.2121ZM29.2121 51.2106V59.9696H21.1386V51.2106H29.2136H29.2121ZM32.1818 51.2106H40.2561V59.9696H32.1811V51.2106H32.1818ZM62.3439 36.6644H54.2689V27.9061H62.3439V36.6644ZM18.1689 27.9061V36.6644H10.0939V27.9061H18.1689ZM10.0939 51.2106H18.1689V59.9696H10.0939V51.2106ZM62.047 73.0311C55.9902 73.0311 51.0621 68.1037 51.0621 62.0463C51.0621 55.9902 55.9902 51.0621 62.047 51.0621C68.1037 51.0621 73.0311 55.9902 73.0311 62.047C73.0311 68.1037 68.1037 73.0311 62.0463 73.0311H62.047Z" fill="#A7A7A7"/>
<path d="M30.697 67.0936C30.3064 67.0936 29.9229 67.2526 29.6471 67.5285C29.3701 67.8076 29.2141 68.1845 29.2129 68.5777C29.2129 68.9682 29.3712 69.3518 29.6471 69.6276C29.9236 69.9035 30.3064 70.0625 30.697 70.0625C31.0875 70.0625 31.4703 69.9035 31.7462 69.6276C32.0221 69.3511 32.1811 68.9682 32.1811 68.5777C32.1811 68.1871 32.0221 67.8043 31.7462 67.5285C31.4672 67.2512 31.0903 67.095 30.697 67.0936ZM8.4712 20.3458C8.74776 20.07 8.90609 19.6872 8.90609 19.2966C8.90609 18.9061 8.74705 18.5225 8.4712 18.2467C8.19215 17.9696 7.8152 17.8136 7.42198 17.8125C7.03001 17.8125 6.6479 17.9708 6.37276 18.2467C6.09534 18.5258 5.93909 18.9031 5.93787 19.2966C5.93787 19.6872 6.0962 20.07 6.37276 20.3458C6.64861 20.6217 7.03001 20.7807 7.42127 20.7807C7.81253 20.7807 8.19535 20.6217 8.4712 20.3458ZM58.1977 66.8409C58.0837 66.9423 57.9353 66.9962 57.7828 66.9917C57.6303 66.9872 57.4853 66.9247 57.3774 66.8168C57.2696 66.7089 57.207 66.5639 57.2025 66.4114C57.198 66.259 57.2519 66.1105 57.3533 65.9965L61.0829 62.2669L57.3533 58.5372C57.2519 58.4232 57.198 58.2748 57.2025 58.1223C57.207 57.9698 57.2696 57.8248 57.3774 57.7169C57.4853 57.6091 57.6303 57.5465 57.7828 57.542C57.9353 57.5375 58.0837 57.5915 58.1977 57.6928L61.9273 61.4224L65.657 57.6928C65.7111 57.6319 65.7772 57.5826 65.851 57.5482C65.9249 57.5137 66.005 57.4947 66.0865 57.4923C66.168 57.4899 66.2491 57.5041 66.3248 57.5342C66.4006 57.5643 66.4694 57.6095 66.527 57.6672C66.5847 57.7248 66.6299 57.7936 66.66 57.8694C66.6901 57.9452 66.7044 58.0263 66.702 58.1077C66.6996 58.1892 66.6805 58.2693 66.6461 58.3432C66.6116 58.4171 66.5624 58.4831 66.5014 58.5372L62.7718 62.2669L66.5014 65.9965C66.5624 66.0507 66.6116 66.1167 66.6461 66.1905C66.6805 66.2644 66.6996 66.3445 66.702 66.426C66.7044 66.5075 66.6901 66.5886 66.66 66.6644C66.6299 66.7401 66.5847 66.8089 66.527 66.8666C66.4694 66.9242 66.4006 66.9694 66.3248 66.9995C66.2491 67.0296 66.168 67.0439 66.0865 67.0415C66.005 67.0391 65.9249 67.0201 65.851 66.9856C65.7772 66.9511 65.7111 66.9019 65.657 66.8409L61.9273 63.1113L58.1977 66.8409Z" fill="#A7A7A7"/>
</g>
<defs>
<clipPath id="clip0_301_7138">
<rect width="76" height="76" fill="white"/>
</clipPath>
</defs>
</svg>
