<svg width="18" height="12" viewBox="0 0 18 12" fill="none" xmlns="http://www.w3.org/2000/svg">
<path fill-rule="evenodd" clip-rule="evenodd" d="M17.1357 7.68853e-07C17.3357 9.33041e-05 17.5294 0.059945 17.6839 0.169359C17.8384 0.278774 17.9442 0.430982 17.9831 0.600055C18.022 0.769128 17.9917 0.944605 17.8974 1.09659C17.8031 1.24858 17.6505 1.36768 17.4658 1.43359C17.281 1.49951 17.0754 1.50816 16.8841 1.45808C16.6928 1.40801 16.5275 1.30229 16.4164 1.15896C16.3054 1.01562 16.2554 0.843519 16.275 0.671981C16.2946 0.500443 16.3826 0.340076 16.524 0.2182C16.6043 0.148903 16.6997 0.0939535 16.8046 0.0565085C16.9096 0.0190634 17.0221 -0.000140047 17.1357 7.68853e-07ZM0.834396 8.47131C0.613101 8.47131 0.400869 8.39553 0.244389 8.26065C0.0879094 8.12576 7.03344e-08 7.94282 7.03344e-08 7.75206C7.03344e-08 7.5613 0.0879094 7.37836 0.244389 7.24347C0.400869 7.10859 0.613101 7.03281 0.834396 7.03281H13.6597C13.7693 7.03281 13.8778 7.05141 13.979 7.08756C14.0803 7.12371 14.1723 7.17669 14.2497 7.24347C14.3272 7.31026 14.3887 7.38955 14.4306 7.47682C14.4725 7.56408 14.4941 7.65761 14.4941 7.75206C14.4941 7.84651 14.4725 7.94004 14.4306 8.02731C14.3887 8.11457 14.3272 8.19386 14.2497 8.26065C14.1723 8.32744 14.0803 8.38042 13.979 8.41656C13.8778 8.45271 13.7693 8.47131 13.6597 8.47131H0.834396ZM0.834396 11.9745C0.724822 11.9745 0.61632 11.9559 0.515087 11.9197C0.413853 11.8836 0.32187 11.8306 0.244389 11.7638C0.166908 11.697 0.105447 11.6177 0.0635146 11.5305C0.0215823 11.4432 0 11.3497 0 11.2552C0 11.1608 0.0215823 11.0672 0.0635146 10.98C0.105447 10.8927 0.166908 10.8134 0.244389 10.7466C0.32187 10.6798 0.413853 10.6269 0.515087 10.5907C0.61632 10.5546 0.724822 10.536 0.834396 10.536H13.6597C13.7693 10.536 13.8778 10.5546 13.979 10.5907C14.0803 10.6269 14.1723 10.6798 14.2497 10.7466C14.3272 10.8134 14.3887 10.8927 14.4306 10.98C14.4725 11.0672 14.4941 11.1608 14.4941 11.2552C14.4941 11.3497 14.4725 11.4432 14.4306 11.5305C14.3887 11.6177 14.3272 11.697 14.2497 11.7638C14.1723 11.8306 14.0803 11.8836 13.979 11.9197C13.8778 11.9559 13.7693 11.9745 13.6597 11.9745H0.834396ZM17.1357 10.5098C17.3357 10.5098 17.5295 10.5696 17.684 10.679C17.8386 10.7883 17.9444 10.9405 17.9834 11.1096C18.0224 11.2787 17.9922 11.4542 17.8979 11.6062C17.8036 11.7582 17.6511 11.8774 17.4663 11.9433C17.2816 12.0093 17.076 12.018 16.8846 11.9679C16.6932 11.9178 16.5279 11.8121 16.4168 11.6688C16.3058 11.5255 16.2558 11.3534 16.2754 11.1818C16.295 11.0102 16.383 10.8499 16.5244 10.728C16.6046 10.6587 16.6999 10.6038 16.8048 10.5663C16.9097 10.5289 17.0222 10.5097 17.1357 10.5098ZM17.1357 7.00663C17.3352 7.00687 17.5284 7.06671 17.6824 7.17594C17.8364 7.28517 17.9418 7.43704 17.9805 7.60571C18.0193 7.77437 17.989 7.9494 17.8949 8.10099C17.8008 8.25258 17.6486 8.37136 17.4643 8.43711C17.28 8.50286 17.0749 8.51151 16.8841 8.4616C16.6932 8.41168 16.5283 8.30628 16.4174 8.16335C16.3066 8.02041 16.2566 7.84877 16.276 7.67765C16.2955 7.50653 16.3831 7.34651 16.524 7.22483C16.6043 7.15553 16.6997 7.10058 16.8046 7.06313C16.9096 7.02569 17.0221 7.00649 17.1357 7.00663ZM0.834396 4.96784C0.613101 4.96784 0.400869 4.89206 0.244389 4.75717C0.0879094 4.62229 3.51672e-08 4.43934 3.51672e-08 4.24859C3.51672e-08 4.05783 0.0879094 3.87489 0.244389 3.74C0.400869 3.60511 0.613101 3.52934 0.834396 3.52934H13.6597C13.881 3.52934 14.0933 3.60511 14.2497 3.74C14.4062 3.87489 14.4941 4.05783 14.4941 4.24859C14.4941 4.43934 14.4062 4.62229 14.2497 4.75717C14.0933 4.89206 13.881 4.96784 13.6597 4.96784H0.834396ZM17.1357 3.50315C17.3357 3.50324 17.5294 3.5631 17.6839 3.67251C17.8384 3.78193 17.9442 3.93413 17.9831 4.10321C18.022 4.27228 17.9917 4.44776 17.8974 4.59974C17.8031 4.75173 17.6505 4.87083 17.4658 4.93674C17.281 5.00266 17.0754 5.01131 16.8841 4.96124C16.6928 4.91116 16.5275 4.80545 16.4164 4.66211C16.3054 4.51877 16.2554 4.34667 16.275 4.17513C16.2946 4.00359 16.3826 3.84323 16.524 3.72135C16.6043 3.65205 16.6997 3.59711 16.8046 3.55966C16.9096 3.52221 17.0221 3.50301 17.1357 3.50315ZM0.834396 1.46468C0.613101 1.46468 0.400869 1.38891 0.244389 1.25402C0.0879094 1.11914 4.76007e-08 0.936192 4.76007e-08 0.745435C4.76007e-08 0.554678 0.0879094 0.371734 0.244389 0.236848C0.400869 0.101963 0.613101 0.0261847 0.834396 0.0261847H13.6597C13.7693 0.0261847 13.8778 0.0447887 13.979 0.0809343C14.0803 0.11708 14.1723 0.17006 14.2497 0.236848C14.3272 0.303637 14.3887 0.382926 14.4306 0.47019C14.4725 0.557453 14.4941 0.650981 14.4941 0.745435C14.4941 0.839888 14.4725 0.933416 14.4306 1.02068C14.3887 1.10794 14.3272 1.18723 14.2497 1.25402C14.1723 1.32081 14.0803 1.37379 13.979 1.40993C13.8778 1.44608 13.7693 1.46468 13.6597 1.46468H0.834396Z" fill="#A7A7A7"/>
</svg>
