<svg width="14" height="16" viewBox="0 0 14 16" fill="none" xmlns="http://www.w3.org/2000/svg">
<path d="M2.05942 15.998C1.5117 15.9961 0.987688 15.7975 0.601567 15.446C0.215446 15.0946 -0.00117062 14.6194 4.75844e-06 14.1239V7.74937C-0.00117062 7.25385 0.215446 6.778 0.601567 6.42656C0.987688 6.07512 1.5117 5.87711 2.05942 5.87517H3.29277V3.30572C3.3065 2.42471 3.70308 1.58404 4.39659 0.965416C5.0901 0.346793 6.02464 0 6.99856 0C7.97248 0 8.90703 0.346793 9.60053 0.965416C10.294 1.58404 10.6906 2.42471 10.7044 3.30572V5.87517H11.9406C12.4884 5.87729 13.0138 6.07566 13.3999 6.42721C13.786 6.77876 14.0012 7.25444 14 7.75002V14.1252C14.0012 14.6207 13.786 15.0964 13.3999 15.448C13.0138 15.7995 12.4884 15.9979 11.9406 16L2.05942 15.998ZM1.37151 7.74872V14.1239C1.37131 14.2893 1.44397 14.448 1.57299 14.5652C1.70201 14.6824 1.87656 14.7483 2.05942 14.7488H11.9406C12.1232 14.7483 12.2982 14.6823 12.427 14.5652C12.5558 14.4481 12.6274 14.2897 12.6271 14.1245V7.75002C12.6272 7.58488 12.5557 7.42638 12.427 7.3093C12.2983 7.19222 12.1231 7.12643 11.9406 7.12572H2.05942C1.87726 7.12642 1.7033 7.19218 1.57443 7.30865C1.44555 7.42512 1.37248 7.58262 1.37151 7.74742V7.74872ZM4.66427 3.30442V5.87322H9.33285V3.30442C9.31755 2.75351 9.06521 2.22965 8.62911 1.8449C8.19301 1.46016 7.6077 1.24469 6.99856 1.24469C6.38942 1.24469 5.80411 1.46016 5.36801 1.8449C4.93191 2.22965 4.67957 2.75351 4.66427 3.30442ZM6.31209 12.4371V11.0649C6.08132 10.9307 5.90425 10.733 5.80839 10.5004C5.71252 10.2679 5.70233 10.0134 5.77961 9.77525C5.85689 9.53713 6.01766 9.32831 6.23725 9.17959C6.45685 9.03087 6.72425 8.95044 6.99856 8.95044C7.27287 8.95044 7.53883 9.03087 7.75843 9.17959C7.97802 9.32831 8.1388 9.53713 8.21608 9.77525C8.29336 10.0134 8.28316 10.2679 8.18729 10.5004C8.09143 10.733 7.9158 10.9307 7.68503 11.0649V12.4358C7.68805 12.5191 7.67212 12.6016 7.63898 12.6793C7.60584 12.757 7.55622 12.8284 7.49219 12.8883C7.42815 12.9481 7.35102 12.9957 7.26624 13.0282C7.18147 13.0607 7.09064 13.0771 6.99856 13.0771C6.90648 13.0771 6.81422 13.0607 6.72944 13.0282C6.64466 12.9957 6.56897 12.9481 6.50493 12.8883C6.4409 12.8284 6.38984 12.757 6.3567 12.6793C6.32357 12.6016 6.30907 12.5191 6.31209 12.4358V12.4371Z" fill="#A7A7A7"/>
</svg>
