<svg width="18" height="12" viewBox="0 0 18 12" fill="none" xmlns="http://www.w3.org/2000/svg">
<path d="M1.68751 0H16.3125C16.5353 0.00043688 16.7556 0.0430841 16.9605 0.125399C17.1654 0.207714 17.3506 0.328012 17.505 0.479121C17.8234 0.787962 18.001 1.20162 18 1.63192V10.3673C18.001 10.7977 17.8234 11.2114 17.505 11.5203C17.3506 11.6716 17.1655 11.792 16.9606 11.8744C16.7557 11.9568 16.5353 11.9995 16.3125 12H1.68751C1.46476 11.9996 1.24439 11.957 1.03951 11.8747C0.834634 11.7925 0.649453 11.6722 0.495006 11.5211C0.176575 11.2122 -0.00104792 10.7985 6.04855e-06 10.3681V1.63272C-0.00119475 1.20214 0.176439 0.788159 0.495006 0.479121C0.649429 0.328012 0.834599 0.207714 1.03948 0.125399C1.24435 0.0430841 1.46474 0.00043688 1.68751 0ZM1.04682 3.99974H11.3546C11.4943 4.00399 11.6268 4.0592 11.724 4.1537C11.8212 4.2482 11.8755 4.37459 11.8755 4.50612C11.8755 4.63766 11.8212 4.76404 11.724 4.85854C11.6268 4.95304 11.4943 5.00826 11.3546 5.01251H1.04682V10.3681C1.04674 10.5312 1.11435 10.6879 1.23526 10.8048C1.29368 10.8624 1.36385 10.9083 1.44155 10.9398C1.51926 10.9713 1.60291 10.9877 1.68751 10.988H16.3125C16.3969 10.9877 16.4803 10.9714 16.5579 10.9401C16.6354 10.9088 16.7055 10.8632 16.7639 10.8059C16.8848 10.689 16.9524 10.5323 16.9523 10.3691V5.01198H13.349C13.2093 5.00773 13.0768 4.95251 12.9796 4.85801C12.8824 4.76351 12.8281 4.63713 12.8281 4.50559C12.8281 4.37406 12.8824 4.24767 12.9796 4.15317C13.0768 4.05867 13.2093 4.00346 13.349 3.99921H16.9532V1.63192C16.9533 1.46878 16.8856 1.31206 16.7647 1.19516C16.7062 1.13772 16.6361 1.09197 16.5583 1.06063C16.4806 1.02929 16.397 1.01302 16.3125 1.01277H1.68751C1.60302 1.01281 1.51942 1.02886 1.44167 1.05997C1.36392 1.09108 1.29362 1.1366 1.23497 1.19383C1.11407 1.31074 1.04646 1.46746 1.04654 1.6306V3.99974H1.04682Z" fill="#A7A7A7"/>
</svg>
