<svg width="18" height="18" viewBox="0 0 18 18" fill="none" xmlns="http://www.w3.org/2000/svg">
<path d="M16.8933 11.5682C16.9151 11.503 16.9502 11.4426 16.9967 11.3906C17.0431 11.3385 17.0999 11.2959 17.1637 11.2651C17.2275 11.2343 17.2971 11.216 17.3683 11.2113C17.4396 11.2065 17.5111 11.2154 17.5788 11.2375C17.7156 11.2843 17.8278 11.3808 17.8911 11.5061C17.9544 11.6315 17.9638 11.7756 17.9172 11.9076C17.3032 13.6769 16.1296 15.219 14.5594 16.32C12.7945 17.5593 10.6215 18.1452 8.44119 17.9694C6.26092 17.7937 4.22052 16.8682 2.69636 15.3638C0.96735 13.6599 0 11.3769 0 9.00013C0 6.62337 0.96735 4.34034 2.69636 2.63649C4.23143 1.12092 6.29003 0.193232 8.48708 0.0269702C10.6841 -0.139292 12.8691 0.467256 14.6334 1.73315C16.2168 2.86611 17.3859 4.44991 17.9736 6.25807C18.0179 6.39046 18.0061 6.53425 17.9409 6.65841C17.8756 6.78258 17.762 6.87717 17.6246 6.92179C17.5566 6.94269 17.485 6.95042 17.4139 6.94453C17.3429 6.93865 17.2737 6.91926 17.2105 6.8875C17.1473 6.85574 17.0914 6.81224 17.0459 6.75954C17.0005 6.70684 16.9664 6.646 16.9457 6.58056C16.4272 4.984 15.3952 3.58551 13.9972 2.58511C12.439 1.47011 10.5109 0.936446 8.57237 1.08369C6.63389 1.23093 4.81749 2.04902 3.46206 3.38533C1.93651 4.88876 1.08301 6.90319 1.08301 9.00032C1.08301 11.0975 1.93651 13.1119 3.46206 14.6153C4.80778 15.9425 6.60861 16.7589 8.53277 16.9141C10.4569 17.0692 12.3748 16.5528 13.933 15.4598C15.3175 14.4887 16.3521 13.1285 16.8933 11.5682ZM12.7796 7.1809C12.7825 6.21737 12.3901 5.29135 11.6872 4.60252C11.3444 4.26455 10.9344 3.9959 10.4814 3.81245C10.0284 3.629 9.54164 3.53448 9.04986 3.53448C8.55809 3.53448 8.07131 3.629 7.61832 3.81245C7.16533 3.9959 6.75533 4.26455 6.41257 4.60252C5.77218 5.23442 5.38776 6.06439 5.32831 6.94345C5.26886 7.82251 5.53828 8.69309 6.08821 9.39893C6.58393 10.034 7.2859 10.493 8.08364 10.7039L8.0496 11.7336C7.43256 11.8535 6.84473 12.0842 6.3171 12.4134C5.92934 12.6558 5.57766 12.9474 5.27165 13.2804C5.72556 13.6123 6.2261 13.8812 6.75844 14.0791C8.18328 14.6045 9.76276 14.5938 11.1797 14.0491C11.7376 13.8321 12.2588 13.5368 12.726 13.1728C12.4271 12.8669 12.0886 12.5988 11.7189 12.3752C11.2077 12.0665 10.6423 11.8493 10.0501 11.7343L10.0165 10.7046C10.8142 10.4938 11.5162 10.0348 12.0119 9.39968C12.5128 8.7599 12.7824 7.9811 12.78 7.18128L12.7796 7.1809ZM12.4529 3.85405C13.2798 4.66877 13.7762 5.73959 13.8528 6.87384C13.9293 8.00809 13.5809 9.13127 12.8703 10.0413C12.5319 10.4729 12.1181 10.8451 11.6473 11.1415C11.8666 11.2418 12.0795 11.3545 12.285 11.479C12.9108 11.8577 13.4613 12.3402 13.9107 12.9039L14.2139 13.2834L13.8559 13.613C13.1974 14.2202 12.424 14.7013 11.5772 15.0304C9.91231 15.6765 8.053 15.6899 6.37814 15.0679C5.55985 14.7632 4.80695 14.3169 4.15694 13.7514L3.78798 13.4289L4.07869 13.0419C4.52938 12.4417 5.09211 11.9267 5.73842 11.5228C5.96739 11.3807 6.20593 11.2533 6.45247 11.1415C5.98159 10.8451 5.56779 10.4729 5.22939 10.0413C4.51881 9.13127 4.17044 8.00809 4.24697 6.87384C4.3235 5.73959 4.81991 4.66877 5.64687 3.85405C6.08914 3.41796 6.61818 3.0713 7.20269 2.83459C7.7872 2.59787 8.41531 2.4759 9.04986 2.4759C9.68442 2.4759 10.3125 2.59787 10.897 2.83459C11.4815 3.0713 12.0106 3.41796 12.4529 3.85405Z" fill="#A7A7A7"/>
</svg>
