<svg width="18" height="20" viewBox="0 0 18 20" fill="none" xmlns="http://www.w3.org/2000/svg">
<path d="M14.8663 6.00327C14.8871 5.87544 14.948 5.75741 15.0402 5.66602C15.1268 5.5799 15.2372 5.52126 15.3573 5.4975C15.4775 5.47373 15.602 5.48591 15.7152 5.5325C15.8284 5.57908 15.9251 5.65798 15.9933 5.75924C16.0614 5.8605 16.0979 5.97958 16.0981 6.10144V17.201C16.0982 17.5021 16.0385 17.8002 15.9222 18.0782C15.6864 18.642 15.2361 19.0903 14.6694 19.325C14.39 19.4407 14.0904 19.5002 13.7878 19.5H4.21145C3.90885 19.5002 3.6092 19.4407 3.32981 19.325C3.04949 19.2088 2.79483 19.0389 2.58026 18.8251C2.36509 18.6115 2.1941 18.358 2.07698 18.079C1.96038 17.8008 1.90034 17.5024 1.90033 17.201V6.10223C1.90052 5.98037 1.93699 5.86129 2.00513 5.76003C2.07328 5.65877 2.17005 5.57987 2.28323 5.53329C2.39642 5.4867 2.52093 5.47452 2.64106 5.49829C2.7612 5.52205 2.87156 5.5807 2.95822 5.66681C3.01582 5.72393 3.06153 5.79179 3.09273 5.8665C3.12393 5.94122 3.14 6.02132 3.14004 6.10223V17.201C3.13937 17.34 3.16641 17.4778 3.21961 17.6063C3.32949 17.868 3.53862 18.0761 3.80167 18.1854C3.93089 18.2383 4.06935 18.2652 4.20907 18.2646H13.7881C13.9279 18.2652 14.0663 18.2383 14.1955 18.1854C14.4584 18.076 14.6674 17.8679 14.7772 17.6063C14.8304 17.4778 14.8574 17.34 14.8568 17.201V6.00842L14.8647 6.00288L14.8663 6.00327ZM12.8373 3.84004C12.8186 3.86948 12.7974 3.89728 12.774 3.92317H12.9208L12.8373 3.84004ZM11.8506 3.92317C11.7482 3.81026 11.6915 3.66358 11.6915 3.5115V2.11698C11.6916 2.06712 11.6817 2.01774 11.6624 1.97171C11.6429 1.92508 11.6144 1.88272 11.5785 1.84702C11.5426 1.81105 11.5001 1.7824 11.4532 1.76271C11.4069 1.74354 11.3573 1.73372 11.3071 1.73381H6.69405C6.64394 1.73373 6.59431 1.74355 6.54804 1.76271C6.45314 1.80221 6.37768 1.87729 6.33797 1.97171C6.31871 2.01774 6.30884 2.06712 6.30893 2.11698V3.51229C6.30897 3.66439 6.25226 3.81109 6.14979 3.92396L11.8506 3.92317ZM5.22956 3.92317C5.12712 3.81028 5.07042 3.66359 5.07042 3.5115V2.11698C5.07031 1.90517 5.11236 1.69543 5.19415 1.49988C5.27623 1.30347 5.39627 1.12501 5.54744 0.974605C5.69813 0.824249 5.87694 0.704702 6.0738 0.62271C6.2704 0.541526 6.48119 0.499824 6.69405 0.500001H11.306C11.5188 0.49973 11.7296 0.541436 11.9262 0.62271C12.1233 0.704466 12.3024 0.823886 12.4534 0.97421C12.6045 1.12461 12.7246 1.30308 12.8066 1.49948C12.8884 1.69505 12.9305 1.90478 12.9304 2.11658V3.92277H17.3811C17.4625 3.92281 17.543 3.9388 17.6181 3.96984C17.6932 4.00089 17.7614 4.04636 17.8188 4.10367C17.9348 4.21917 18 4.37578 18 4.53908C18 4.70239 17.9348 4.859 17.8188 4.9745C17.7614 5.03182 17.6932 5.07731 17.6181 5.10835C17.543 5.1394 17.4625 5.15538 17.3811 5.1554H0.618852C0.537526 5.1554 0.456999 5.13943 0.381896 5.10838C0.306793 5.07734 0.238594 5.03184 0.181215 4.9745C0.0651821 4.859 0 4.70239 0 4.53908C0 4.37578 0.0651821 4.21917 0.181215 4.10367C0.23862 4.04636 0.306825 4.00089 0.381921 3.96984C0.457018 3.9388 0.537532 3.92281 0.618852 3.92277H5.22797L5.22956 3.92317ZM12.8592 16.7763C12.8592 16.8983 12.8229 17.0176 12.7548 17.1191C12.6867 17.2205 12.5898 17.2996 12.4764 17.3462C12.3631 17.3929 12.2384 17.405 12.1181 17.381C11.9979 17.3571 11.8874 17.2981 11.8009 17.2117C11.7433 17.1546 11.6976 17.0867 11.6664 17.012C11.6352 16.9373 11.6191 16.8572 11.6191 16.7763V6.62156C11.6191 6.49962 11.6554 6.38041 11.7235 6.27903C11.7916 6.17765 11.8885 6.09865 12.0017 6.05203C12.115 6.00541 12.2396 5.99327 12.3598 6.01715C12.48 6.04102 12.5904 6.09984 12.6769 6.18615C12.7345 6.24326 12.7803 6.31112 12.8115 6.38583C12.8427 6.46055 12.8587 6.54066 12.8588 6.62156V16.7763H12.8592ZM9.61985 16.7763C9.61986 16.8572 9.6038 16.9373 9.5726 17.012C9.5414 17.0867 9.49567 17.1546 9.43804 17.2117C9.35137 17.2978 9.24101 17.3564 9.12088 17.3802C9.00075 17.404 8.87623 17.3918 8.76305 17.3452C8.64987 17.2986 8.55309 17.2197 8.48495 17.1185C8.4168 17.0172 8.38033 16.8981 8.38015 16.7763V6.62156C8.38021 6.54066 8.39629 6.46056 8.42749 6.38585C8.45869 6.31113 8.50439 6.24327 8.56197 6.18615C8.64863 6.10003 8.75899 6.04139 8.87912 6.01762C8.99926 5.99386 9.12377 6.00604 9.23695 6.05262C9.35013 6.09921 9.44691 6.17811 9.51505 6.27937C9.5832 6.38062 9.61967 6.4997 9.61985 6.62156V16.7763ZM6.38054 16.7763C6.38055 16.8982 6.34419 17.0174 6.27608 17.1188C6.20796 17.2202 6.11115 17.2992 5.99789 17.3458C5.88463 17.3924 5.76001 17.4046 5.63982 17.3807C5.51962 17.3568 5.40924 17.298 5.32266 17.2117C5.26506 17.1546 5.21935 17.0867 5.18815 17.012C5.15695 16.9373 5.14087 16.8572 5.14084 16.7763V6.62156C5.14089 6.54066 5.15698 6.46056 5.18818 6.38585C5.21938 6.31113 5.26507 6.24327 5.32266 6.18615C5.38008 6.12889 5.4483 6.08346 5.52339 6.05247C5.59849 6.02148 5.67899 6.00552 5.76029 6.00552C5.84159 6.00552 5.9221 6.02148 5.99719 6.05247C6.07229 6.08346 6.1405 6.12889 6.19793 6.18615C6.25553 6.24326 6.30124 6.31112 6.33243 6.38583C6.36363 6.46055 6.37971 6.54066 6.37975 6.62156V16.7763H6.38054Z" fill="#686868"/>
</svg>
