<svg width="18" height="16" viewBox="0 0 18 16" fill="none" xmlns="http://www.w3.org/2000/svg">
<path d="M6.90934 15.8765C6.58452 15.8762 6.27335 15.7468 6.04366 15.5171C5.81398 15.2874 5.68455 14.9763 5.68425 14.6514V13.6008C5.68425 13.4615 5.73976 13.3278 5.83829 13.2293C5.93681 13.1307 6.07051 13.0752 6.20984 13.0752C6.34917 13.0752 6.48288 13.1307 6.5814 13.2293C6.67992 13.3278 6.73488 13.4615 6.73488 13.6008V14.6514C6.73503 14.6977 6.75357 14.7418 6.78622 14.7746C6.81888 14.8073 6.86308 14.8262 6.90934 14.8265H11.463C11.5094 14.8265 11.5538 14.8079 11.5867 14.7751C11.6195 14.7423 11.638 14.6978 11.638 14.6514V13.6008C11.638 13.4614 11.6935 13.3273 11.792 13.2287C11.8906 13.1301 12.0242 13.0752 12.1636 13.0752C12.303 13.0752 12.4366 13.1301 12.5351 13.2287C12.6337 13.3273 12.6892 13.4614 12.6892 13.6008V14.6514C12.6891 14.8124 12.6575 14.9715 12.5959 15.1202C12.5342 15.2689 12.4436 15.4039 12.3298 15.5177C12.2159 15.6314 12.081 15.7217 11.9323 15.7832C11.7835 15.8447 11.624 15.8766 11.463 15.8765H6.90934ZM8.66223 13.2508V9.26524L7.9815 9.94321C7.88234 10.0386 7.74972 10.0916 7.61215 10.0901C7.47459 10.0885 7.3431 10.0325 7.24612 9.93493C7.14913 9.83735 7.09445 9.70592 7.09374 9.56834C7.09303 9.43077 7.14628 9.29812 7.24225 9.19955L8.81792 7.62333C8.86628 7.57428 8.92387 7.53563 8.98741 7.50904C9.05096 7.48246 9.11894 7.46874 9.18782 7.46874C9.2567 7.46874 9.32524 7.48246 9.38878 7.50904C9.45233 7.53563 9.50991 7.57428 9.55827 7.62333L11.135 9.19955C11.1842 9.24823 11.2232 9.30632 11.2499 9.37014C11.2766 9.43396 11.2905 9.50247 11.2907 9.57165C11.2909 9.64084 11.2773 9.7092 11.251 9.77317C11.2246 9.83714 11.1856 9.89535 11.1367 9.94432C11.0878 9.99328 11.03 10.0321 10.9661 10.0586C10.9022 10.0851 10.8338 10.0984 10.7646 10.0983C10.6954 10.0983 10.6269 10.0847 10.5631 10.058C10.4992 10.0314 10.4412 9.9923 10.3925 9.94321L9.7112 9.26248V13.2486C9.7112 13.3877 9.65553 13.5207 9.55717 13.619C9.45881 13.7174 9.32582 13.7731 9.18672 13.7731C9.04761 13.7731 8.91407 13.7174 8.81571 13.619C8.71735 13.5207 8.66223 13.3877 8.66223 13.2486V13.2508ZM12.5015 11.6746C12.3618 11.6746 12.2275 11.6193 12.1288 11.5205C12.0301 11.4218 11.9748 11.2875 11.9748 11.1479C11.9748 11.0082 12.0301 10.8745 12.1288 10.7758C12.2275 10.677 12.3618 10.6217 12.5015 10.6217H13.3003C14.1471 10.6477 14.9694 10.3359 15.5866 9.7555C16.2037 9.17511 16.5648 8.37348 16.5908 7.52671C16.6168 6.67994 16.3055 5.85763 15.7251 5.2405C15.1447 4.62338 14.3426 4.26223 13.4958 4.23625C13.4013 4.23172 13.3101 4.20144 13.2313 4.14902C13.1526 4.0966 13.0892 4.02354 13.0486 3.93812C12.6528 3.11629 12.0048 2.44281 11.1991 2.01519C10.3934 1.58757 9.47245 1.42854 8.57003 1.56137C7.66761 1.69421 6.8311 2.11169 6.18279 2.75333C5.53448 3.39498 5.10813 4.22687 4.96598 5.12788C4.94691 5.25296 4.88382 5.36742 4.78821 5.4503C4.69259 5.53317 4.57078 5.57948 4.44426 5.58059C4.10834 5.56903 3.7734 5.62484 3.45933 5.74456C3.14525 5.86429 2.85816 6.04509 2.61518 6.27733C2.3722 6.50957 2.17812 6.78829 2.04432 7.09663C1.91052 7.40497 1.83982 7.73718 1.83618 8.07328C1.83254 8.40938 1.89624 8.74263 2.02334 9.05379C2.15043 9.36496 2.33863 9.64725 2.57653 9.88469C2.81444 10.1221 3.09713 10.3097 3.40853 10.4362C3.71994 10.5627 4.05351 10.626 4.3896 10.6217H5.85982C5.99945 10.6217 6.13319 10.677 6.23193 10.7758C6.33066 10.8745 6.38596 11.0082 6.38596 11.1479C6.38596 11.2875 6.33066 11.4218 6.23193 11.5205C6.13319 11.6193 5.99945 11.6746 5.85982 11.6746H4.3896C3.46847 11.685 2.57903 11.3389 1.90685 10.709C1.23467 10.0791 0.831635 9.21398 0.782239 8.29412C0.732844 7.37425 1.04098 6.47097 1.64184 5.77272C2.24271 5.07447 3.09005 4.63538 4.007 4.54708C4.25955 3.50253 4.82169 2.55832 5.61966 1.83852C6.41763 1.11872 7.41396 0.656859 8.47893 0.51295C9.54391 0.369042 10.6279 0.549719 11.5883 1.03192C12.5487 1.51411 13.3411 2.27538 13.8618 3.21543C14.94 3.34599 15.9271 3.88471 16.6201 4.72099C17.3131 5.55726 17.6593 6.6274 17.5873 7.71111C17.5153 8.79482 17.0306 9.80994 16.233 10.5472C15.4355 11.2845 14.3858 11.6878 13.2998 11.6746H12.5015Z" fill="#A7A7A7"/>
</svg>
