<svg width="12" height="14" viewBox="0 0 12 14" fill="none" xmlns="http://www.w3.org/2000/svg">
<path d="M2.71733 3.28358C2.71606 3.0545 2.75587 2.82666 2.83533 2.60837C2.93603 2.31973 3.12908 2.06235 3.39167 1.86667C3.66975 1.66511 4.02059 1.55648 4.38167 1.56012C4.59475 1.56196 4.80616 1.59337 5.008 1.65317C5.29588 1.73897 5.55714 1.88192 5.77133 2.07083C5.865 2.14521 5.94533 2.20879 5.99833 2.20879C6.05133 2.20879 6.17233 2.11371 6.27933 2.03233C6.334 1.99062 6.386 1.95096 6.44933 1.90925C6.71726 1.72916 7.03277 1.61109 7.36667 1.56596C7.69117 1.5237 8.02264 1.57165 8.31433 1.70304C8.46878 1.77237 8.60965 1.86275 8.73167 1.97079C9.02524 2.23858 9.21168 2.58244 9.263 2.95079C9.32126 3.32781 9.24782 3.71143 9.05233 4.05125C8.95622 4.21705 8.83066 4.36845 8.68033 4.49983C8.46233 4.69 8.26533 4.86412 8.087 5.02192C7.08033 5.91237 6.6 6.33733 5.992 6.33908C5.42033 6.34054 5.01333 5.97858 4.23467 5.28587C3.99033 5.06858 3.704 4.81396 3.35833 4.52171C3.16186 4.36399 3.00392 4.1731 2.894 3.96054C2.78082 3.74847 2.72092 3.51763 2.71833 3.28358H2.71733ZM4.57033 8.35712C4.44723 8.35712 4.32917 8.31433 4.24212 8.23817C4.15507 8.162 4.10617 8.0587 4.10617 7.95098C4.10617 7.84326 4.15507 7.73996 4.24212 7.66379C4.32917 7.58762 4.44723 7.54483 4.57033 7.54483H9.27033C9.39344 7.54483 9.5115 7.58762 9.59855 7.66379C9.6856 7.73996 9.7345 7.84326 9.7345 7.95098C9.7345 8.0587 9.6856 8.162 9.59855 8.23817C9.5115 8.31433 9.39344 8.35712 9.27033 8.35712H4.57033ZM2.728 7.53812C2.81932 7.53807 2.90861 7.56171 2.98458 7.60606C3.06054 7.65041 3.11977 7.71348 3.15476 7.78729C3.18976 7.8611 3.19895 7.94233 3.18117 8.02071C3.16339 8.09909 3.11945 8.1711 3.0549 8.22762C2.99035 8.28415 2.90809 8.32265 2.81852 8.33826C2.72896 8.35387 2.63612 8.34589 2.55174 8.31532C2.46736 8.28475 2.39524 8.23298 2.34449 8.16654C2.29375 8.1001 2.26667 8.02199 2.26667 7.94208C2.26658 7.88911 2.27842 7.83664 2.3015 7.78767C2.32459 7.7387 2.35847 7.69419 2.40122 7.65668C2.44396 7.61917 2.49474 7.5894 2.55063 7.56905C2.60653 7.54871 2.66646 7.5382 2.727 7.53812H2.728ZM4.57033 9.99425C4.44723 9.99425 4.32917 9.95146 4.24212 9.87529C4.15507 9.79913 4.10617 9.69582 4.10617 9.5881C4.10617 9.48039 4.15507 9.37708 4.24212 9.30091C4.32917 9.22475 4.44723 9.18196 4.57033 9.18196H9.27033C9.39344 9.18196 9.5115 9.22475 9.59855 9.30091C9.6856 9.37708 9.7345 9.48039 9.7345 9.5881C9.7345 9.69582 9.6856 9.79913 9.59855 9.87529C9.5115 9.95146 9.39344 9.99425 9.27033 9.99425H4.57033ZM2.728 9.17554C2.81932 9.17548 2.90861 9.19913 2.98458 9.24348C3.06054 9.28783 3.11977 9.3509 3.15476 9.42471C3.18976 9.49852 3.19895 9.57975 3.18117 9.65813C3.16339 9.73651 3.11945 9.80851 3.0549 9.86504C2.99035 9.92156 2.90809 9.96006 2.81852 9.97567C2.72896 9.99128 2.63612 9.9833 2.55174 9.95274C2.46736 9.92217 2.39524 9.87039 2.34449 9.80396C2.29375 9.73752 2.26667 9.65941 2.26667 9.5795C2.26658 9.52653 2.27842 9.47406 2.3015 9.42509C2.32459 9.37612 2.35847 9.33161 2.40122 9.2941C2.44396 9.25659 2.49474 9.22681 2.55063 9.20647C2.60653 9.18613 2.66646 9.17562 2.727 9.17554H2.728ZM4.57033 11.6317C4.44723 11.6317 4.32917 11.5889 4.24212 11.5127C4.15507 11.4365 4.10617 11.3332 4.10617 11.2255C4.10617 11.1178 4.15507 11.0145 4.24212 10.9383C4.32917 10.8622 4.44723 10.8194 4.57033 10.8194H9.27033C9.39344 10.8194 9.5115 10.8622 9.59855 10.9383C9.6856 11.0145 9.7345 11.1178 9.7345 11.2255C9.7345 11.3332 9.6856 11.4365 9.59855 11.5127C9.5115 11.5889 9.39344 11.6317 9.27033 11.6317H4.57033ZM2.728 10.813C2.81932 10.8129 2.90861 10.8365 2.98458 10.8809C3.06054 10.9252 3.11977 10.9883 3.15476 11.0621C3.18976 11.1359 3.19895 11.2172 3.18117 11.2955C3.16339 11.3739 3.11945 11.4459 3.0549 11.5025C2.99035 11.559 2.90809 11.5975 2.81852 11.6131C2.72896 11.6287 2.63612 11.6207 2.55174 11.5902C2.46736 11.5596 2.39524 11.5078 2.34449 11.4414C2.29375 11.3749 2.26667 11.2968 2.26667 11.2169C2.26658 11.1639 2.27842 11.1115 2.3015 11.0625C2.32459 11.0135 2.35847 10.969 2.40122 10.9315C2.44396 10.894 2.49474 10.8642 2.55063 10.8439C2.60653 10.8235 2.66646 10.813 2.727 10.813H2.728ZM8.305 0H2.22433C1.63358 0.00208309 1.06783 0.208887 0.650943 0.575139C0.234056 0.941391 -4.79683e-06 1.43725 0 1.95417L0 12.0458C-4.79683e-06 12.5627 0.234056 13.0586 0.650943 13.4249C1.06783 13.7911 1.63358 13.9979 2.22433 14H9.77567C10.3664 13.9979 10.9322 13.7911 11.3491 13.4249C11.7659 13.0586 12 12.5627 12 12.0458V1.95417C12 1.43725 11.7659 0.941391 11.3491 0.575139C10.9322 0.208887 10.3664 0.00208309 9.77567 0L8.305 0ZM8.305 13.1877H2.22433C1.87952 13.1862 1.54937 13.0654 1.30586 12.8518C1.06235 12.6382 0.925209 12.349 0.924333 12.0473V1.95417C0.925209 1.65245 1.06235 1.36327 1.30586 1.14965C1.54937 0.936025 1.87952 0.815288 2.22433 0.81375H9.77567C10.1205 0.815288 10.4506 0.936025 10.6941 1.14965C10.9377 1.36327 11.0748 1.65245 11.0757 1.95417V12.0458C11.0748 12.3476 10.9377 12.6367 10.6941 12.8504C10.4506 13.064 10.1205 13.1847 9.77567 13.1862H8.305V13.1877ZM3.71333 2.85833C3.66448 2.99578 3.64053 3.13907 3.64233 3.283C3.64387 3.40081 3.67422 3.51697 3.73133 3.62367C3.78797 3.73563 3.87048 3.83613 3.97367 3.91883L3.99167 3.93312C4.34433 4.23092 4.63933 4.49342 4.89167 4.71742C5.49167 5.25087 5.805 5.53 5.99167 5.52942C6.21333 5.52942 6.60733 5.17942 7.43267 4.45025C7.612 4.29158 7.80967 4.11658 8.02967 3.92525C8.11131 3.85431 8.1796 3.77251 8.232 3.68287C8.3419 3.48976 8.38256 3.2721 8.34867 3.05842C8.32405 2.86519 8.2289 2.68405 8.07733 2.54187C8.0241 2.49421 7.96255 2.45424 7.895 2.42346C7.77091 2.369 7.63045 2.34993 7.49333 2.36892C7.31456 2.39486 7.14608 2.45965 7.00333 2.55733C6.97533 2.57571 6.93067 2.60983 6.88367 2.64483C6.65427 2.86426 6.3379 2.99892 5.999 3.02137C5.83805 3.01899 5.6795 2.98681 5.5338 2.92693C5.3881 2.86706 5.25854 2.78085 5.15367 2.674C5.03235 2.56467 4.88543 2.4796 4.723 2.42462C4.61326 2.39181 4.49829 2.37439 4.38233 2.373C4.23567 2.36968 4.09242 2.41194 3.978 2.49229C3.85201 2.58996 3.76024 2.71688 3.71333 2.85833Z" fill="#A7A7A7"/>
</svg>
