<svg width="24" height="24" viewBox="0 0 24 24" fill="none" xmlns="http://www.w3.org/2000/svg">
<path d="M20.7188 21.1887V18.3319L23.2657 13.9657C23.7461 13.1421 24 12.2029 24 11.2495V3.72744C24 2.75637 23.2126 1.9692 22.2416 1.96948C21.2708 1.96972 20.484 2.75679 20.484 3.72753L20.4842 6.78828L20.953 7.69705L20.4843 8.60581C20.3961 8.47747 20.2897 8.35855 20.1645 8.25359C19.4208 7.62997 18.3124 7.72714 17.6886 8.47062L14.1838 12.6474C13.2998 13.7009 12.813 15.0385 12.813 16.4138V21.1887H20.7188V21.1887ZM11.187 21.1887V16.4138C11.187 15.0386 10.7002 13.701 9.81619 12.6475L6.31144 8.47067C5.68758 7.72719 4.57917 7.63001 3.8355 8.25364C3.71034 8.35859 3.60394 8.47751 3.51572 8.60586L3.04702 7.69709L3.51581 6.78833L3.51595 3.72758C3.516 2.75679 2.72916 1.96972 1.75842 1.96948C0.787359 1.96925 0 2.75637 0 3.72744V11.2495C0 12.2029 0.253922 13.1421 0.734297 13.9657L3.28125 18.3319V21.1887H11.187Z" fill="url(#paint0_linear_13520_371268)"/>
<path d="M20.4839 10.6074V10.5943C20.9007 9.98849 20.889 9.19485 20.4838 8.60516L20.4837 6.78758C20.6909 6.89427 20.887 7.02388 21.0676 7.17533C21.7154 7.71857 22.1128 8.48146 22.1866 9.32361C22.2603 10.1657 22.0017 10.9861 21.4583 11.6337L18.5457 15.1035C18.3225 15.3696 17.9372 15.4303 17.643 15.2457C17.6389 15.2431 17.6348 15.2406 17.6306 15.2379C17.2758 15.0154 17.1975 14.5329 17.461 14.2094L20.4839 10.6074ZM12.4967 9.98268L16.9017 5.57774C18.1759 4.30349 18.1759 2.23007 16.9017 0.955769C15.6274 -0.318527 13.554 -0.318527 12.2797 0.955769L11.9995 1.23589L11.7194 0.955723C10.4451 -0.318574 8.37169 -0.318574 7.09739 0.955723C5.82314 2.22997 5.82314 4.30339 7.09739 5.57769L11.5023 9.98263C11.777 10.2573 12.2221 10.2573 12.4967 9.98268ZM1.82766 21.1875V23.2969C1.82766 23.6852 2.14247 24 2.53079 24H21.4683C21.8566 24 22.1714 23.6852 22.1714 23.2969V21.1875C22.1714 20.7992 21.8566 20.4844 21.4683 20.4844H2.53079C2.14247 20.4844 1.82766 20.7992 1.82766 21.1875ZM3.51516 10.6074V10.5943C3.09839 9.98849 3.11007 9.19485 3.51525 8.60516L3.51535 6.78758C3.30816 6.89427 3.11208 7.02388 2.93147 7.17533C2.28371 7.71857 1.8863 8.48146 1.81252 9.32361C1.73874 10.1657 1.99735 10.9861 2.54077 11.6337L5.45335 15.1035C5.67661 15.3696 6.06183 15.4303 6.35607 15.2457C6.36019 15.2431 6.36432 15.2406 6.36844 15.2379C6.72328 15.0154 6.80157 14.5329 6.53808 14.2094L3.51516 10.6074Z" fill="url(#paint1_linear_13520_371268)"/>
<defs>
<linearGradient id="paint0_linear_13520_371268" x1="12" y1="21.1887" x2="12" y2="1.96948" gradientUnits="userSpaceOnUse">
<stop stop-color="#FFCBD3"/>
<stop offset="1" stop-color="#FFE5E9"/>
</linearGradient>
<linearGradient id="paint1_linear_13520_371268" x1="1.80484" y1="11.991" x2="22.2005" y2="11.991" gradientUnits="userSpaceOnUse">
<stop stop-color="#FD3A84"/>
<stop offset="1" stop-color="#FFA68D"/>
</linearGradient>
</defs>
</svg>
