<svg width="40" height="40" viewBox="0 0 40 40" fill="none" xmlns="http://www.w3.org/2000/svg">
<rect width="40" height="40" rx="20" fill="white"/>
<path d="M28.7188 29.1887V26.3319L31.2657 21.9657C31.7461 21.1421 32 20.2029 32 19.2495V11.7274C32 10.7564 31.2126 9.9692 30.2416 9.96948C29.2708 9.96972 28.484 10.7568 28.484 11.7275L28.4842 14.7883L28.953 15.697L28.4843 16.6058C28.3961 16.4775 28.2897 16.3585 28.1645 16.2536C27.4208 15.63 26.3124 15.7271 25.6886 16.4706L22.1838 20.6474C21.2998 21.7009 20.813 23.0385 20.813 24.4138V29.1887H28.7188V29.1887ZM19.187 29.1887V24.4138C19.187 23.0386 18.7002 21.701 17.8162 20.6475L14.3114 16.4707C13.6876 15.7272 12.5792 15.63 11.8355 16.2536C11.7103 16.3586 11.6039 16.4775 11.5157 16.6059L11.047 15.6971L11.5158 14.7883L11.516 11.7276C11.516 10.7568 10.7292 9.96972 9.75842 9.96948C8.78736 9.96925 8 10.7564 8 11.7274V19.2495C8 20.2029 8.25392 21.1421 8.7343 21.9657L11.2812 26.3319V29.1887H19.187Z" fill="url(#paint0_linear_13520_371267)"/>
<path d="M28.4839 18.6074V18.5943C28.9007 17.9885 28.889 17.1948 28.4838 16.6052L28.4837 14.7876C28.6909 14.8943 28.887 15.0239 29.0676 15.1753C29.7154 15.7186 30.1128 16.4815 30.1866 17.3236C30.2603 18.1657 30.0017 18.9861 29.4583 19.6337L26.5457 23.1035C26.3225 23.3696 25.9372 23.4303 25.643 23.2457C25.6389 23.2431 25.6348 23.2406 25.6306 23.2379C25.2758 23.0154 25.1975 22.5329 25.461 22.2094L28.4839 18.6074ZM20.4967 17.9827L24.9017 13.5777C26.1759 12.3035 26.1759 10.2301 24.9017 8.95577C23.6274 7.68147 21.554 7.68147 20.2797 8.95577L19.9995 9.23589L19.7194 8.95572C18.4451 7.68143 16.3717 7.68143 15.0974 8.95572C13.8231 10.23 13.8231 12.3034 15.0974 13.5777L19.5023 17.9826C19.777 18.2573 20.2221 18.2573 20.4967 17.9827ZM9.82766 29.1875V31.2969C9.82766 31.6852 10.1425 32 10.5308 32H29.4683C29.8566 32 30.1714 31.6852 30.1714 31.2969V29.1875C30.1714 28.7992 29.8566 28.4844 29.4683 28.4844H10.5308C10.1425 28.4844 9.82766 28.7992 9.82766 29.1875ZM11.5152 18.6074V18.5943C11.0984 17.9885 11.1101 17.1948 11.5153 16.6052L11.5153 14.7876C11.3082 14.8943 11.1121 15.0239 10.9315 15.1753C10.2837 15.7186 9.8863 16.4815 9.81252 17.3236C9.73874 18.1657 9.99735 18.9861 10.5408 19.6337L13.4533 23.1035C13.6766 23.3696 14.0618 23.4303 14.3561 23.2457C14.3602 23.2431 14.3643 23.2406 14.3684 23.2379C14.7233 23.0154 14.8016 22.5329 14.5381 22.2094L11.5152 18.6074Z" fill="url(#paint1_linear_13520_371267)"/>
<defs>
<linearGradient id="paint0_linear_13520_371267" x1="20" y1="29.1887" x2="20" y2="9.96948" gradientUnits="userSpaceOnUse">
<stop stop-color="#FFCBD3"/>
<stop offset="1" stop-color="#FFE5E9"/>
</linearGradient>
<linearGradient id="paint1_linear_13520_371267" x1="9.80484" y1="19.991" x2="30.2005" y2="19.991" gradientUnits="userSpaceOnUse">
<stop stop-color="#FD3A84"/>
<stop offset="1" stop-color="#FFA68D"/>
</linearGradient>
</defs>
</svg>
