<svg width="40" height="40" viewBox="0 0 40 40" fill="none" xmlns="http://www.w3.org/2000/svg">
<rect width="40" height="40" rx="20" fill="white"/>
<g clip-path="url(#clip0_13520_371288)">
<path d="M20 32.0002C19.8922 32.0002 19.7844 31.9755 19.6855 31.9261L8.38864 26.2542C8.15038 26.1347 8 25.8917 8 25.6252C8 25.3588 8.15038 25.1157 8.38864 24.9963L14.0605 22.1838C14.2583 22.0849 14.4917 22.0849 14.6895 22.1838L20 24.839L25.3105 22.1838C25.5083 22.0849 25.7417 22.0849 25.9395 22.1838L31.6114 24.9963C31.8496 25.1157 32 25.3588 32 25.6252C32 25.8917 31.8496 26.1347 31.6114 26.2542L20.3145 31.9261C20.2156 31.9755 20.1078 32.0002 20 32.0002Z" fill="url(#paint0_linear_13520_371288)"/>
<path d="M20 26.3284C19.8922 26.3284 19.7844 26.3037 19.6855 26.2542L8.38864 20.6292C8.15038 20.5097 8 20.2667 8 20.0002C8 19.7338 8.15038 19.4907 8.38864 19.3713L14.0605 16.5588C14.2583 16.4599 14.4917 16.4599 14.6895 16.5588L20 19.214L25.3105 16.5588C25.5083 16.4599 25.7417 16.4599 25.9395 16.5588L31.6114 19.3713C31.8496 19.4907 32 19.7338 32 20.0002C32 20.2667 31.8496 20.5097 31.6114 20.6292L20.3145 26.2542C20.2156 26.3037 20.1078 26.3284 20 26.3284Z" fill="url(#paint1_linear_13520_371288)"/>
<path d="M20 20.7034C19.8922 20.7034 19.7844 20.6787 19.6855 20.6292L8.38864 15.0042C8.15038 14.8847 8 14.6417 8 14.3752C8 14.1088 8.15038 13.8657 8.38864 13.7463L19.6855 8.07439C19.8833 7.97553 20.1167 7.97553 20.3145 8.07439L31.6114 13.7463C31.8496 13.8657 32 14.1088 32 14.3752C32 14.6417 31.8496 14.8847 31.6114 15.0042L20.3145 20.6292C20.2156 20.6787 20.1078 20.7034 20 20.7034Z" fill="url(#paint2_linear_13520_371288)"/>
</g>
<defs>
<linearGradient id="paint0_linear_13520_371288" x1="44.0759" y1="19.9176" x2="37.2836" y2="41.1637" gradientUnits="userSpaceOnUse">
<stop stop-color="#1DE9B6"/>
<stop offset="1" stop-color="#A7FBB0"/>
</linearGradient>
<linearGradient id="paint1_linear_13520_371288" x1="20" y1="26.3284" x2="20" y2="16.4846" gradientUnits="userSpaceOnUse">
<stop stop-color="#FFC8D1"/>
<stop offset="1" stop-color="#FFF6F7"/>
</linearGradient>
<linearGradient id="paint2_linear_13520_371288" x1="20" y1="20.7034" x2="20" y2="8.00023" gradientUnits="userSpaceOnUse">
<stop stop-color="#FD3A84"/>
<stop offset="1" stop-color="#FFA68D"/>
</linearGradient>
<clipPath id="clip0_13520_371288">
<rect width="24" height="24" fill="white" transform="translate(8 8)"/>
</clipPath>
</defs>
</svg>
