<svg width="24" height="24" viewBox="0 0 24 24" fill="none" xmlns="http://www.w3.org/2000/svg">
<g clip-path="url(#clip0_13520_371289)">
<path d="M12 24.0002C11.8922 24.0002 11.7844 23.9755 11.6855 23.9261L0.388641 18.2542C0.150375 18.1347 0 17.8917 0 17.6252C0 17.3588 0.150375 17.1157 0.388641 16.9963L6.06052 14.1838C6.25828 14.0849 6.49172 14.0849 6.68948 14.1838L12 16.839L17.3105 14.1838C17.5083 14.0849 17.7417 14.0849 17.9395 14.1838L23.6114 16.9963C23.8496 17.1157 24 17.3588 24 17.6252C24 17.8917 23.8496 18.1347 23.6114 18.2542L12.3145 23.9261C12.2156 23.9755 12.1078 24.0002 12 24.0002Z" fill="url(#paint0_linear_13520_371289)"/>
<path d="M12 18.3284C11.8922 18.3284 11.7844 18.3037 11.6855 18.2542L0.388641 12.6292C0.150375 12.5097 0 12.2667 0 12.0002C0 11.7338 0.150375 11.4907 0.388641 11.3713L6.06052 8.55876C6.25828 8.4599 6.49172 8.4599 6.68948 8.55876L12 11.214L17.3105 8.55876C17.5083 8.4599 17.7417 8.4599 17.9395 8.55876L23.6114 11.3713C23.8496 11.4907 24 11.7338 24 12.0002C24 12.2667 23.8496 12.5097 23.6114 12.6292L12.3145 18.2542C12.2156 18.3037 12.1078 18.3284 12 18.3284Z" fill="url(#paint1_linear_13520_371289)"/>
<path d="M12 12.7034C11.8922 12.7034 11.7844 12.6787 11.6855 12.6292L0.388641 7.0042C0.150375 6.88472 0 6.64167 0 6.37523C0 6.1088 0.150375 5.86575 0.388641 5.74626L11.6855 0.0743887C11.8833 -0.0244707 12.1167 -0.0244707 12.3145 0.0743887L23.6114 5.74626C23.8496 5.86575 24 6.1088 24 6.37523C24 6.64167 23.8496 6.88472 23.6114 7.0042L12.3145 12.6292C12.2156 12.6787 12.1078 12.7034 12 12.7034Z" fill="url(#paint2_linear_13520_371289)"/>
</g>
<defs>
<linearGradient id="paint0_linear_13520_371289" x1="36.0759" y1="11.9176" x2="29.2836" y2="33.1637" gradientUnits="userSpaceOnUse">
<stop stop-color="#1DE9B6"/>
<stop offset="1" stop-color="#A7FBB0"/>
</linearGradient>
<linearGradient id="paint1_linear_13520_371289" x1="12" y1="18.3284" x2="12" y2="8.48462" gradientUnits="userSpaceOnUse">
<stop stop-color="#FFC8D1"/>
<stop offset="1" stop-color="#FFF6F7"/>
</linearGradient>
<linearGradient id="paint2_linear_13520_371289" x1="12" y1="12.7034" x2="12" y2="0.000232783" gradientUnits="userSpaceOnUse">
<stop stop-color="#FD3A84"/>
<stop offset="1" stop-color="#FFA68D"/>
</linearGradient>
<clipPath id="clip0_13520_371289">
<rect width="24" height="24" fill="white"/>
</clipPath>
</defs>
</svg>
