<svg width="40" height="40" viewBox="0 0 40 40" fill="none" xmlns="http://www.w3.org/2000/svg">
<rect width="40" height="40" rx="20" fill="white"/>
<g clip-path="url(#clip0_13520_371273)">
<path d="M30.5469 12.9219V31.2969C30.5469 31.6906 30.2375 32 29.8438 32H10.1562C9.76245 32 9.45312 31.6906 9.45312 31.2969V8.70312C9.45312 8.30933 9.76245 8 10.1562 8H25.625L27.0312 11.5156L30.5469 12.9219Z" fill="url(#paint0_linear_13520_371273)"/>
<path d="M27.0312 15.0781H12.875C12.4867 15.0781 12.1719 15.3929 12.1719 15.7812V25.8125C12.1719 25.626 12.2459 25.4472 12.3778 25.3153L15.2841 22.409C15.5586 22.1345 16.0039 22.1345 16.2785 22.409L18.5938 24.7244L22.3153 21.0028C22.5899 20.7282 23.0351 20.7282 23.3097 21.0028L27.5285 25.2215C27.6603 25.3535 27.7344 25.5323 27.7344 25.7188V15.7812C27.7344 15.3929 27.4196 15.0781 27.0312 15.0781ZM30.3359 12.4296L26.1171 8.21089C25.9906 8.07031 25.8078 8 25.625 8V12.9219H30.5469C30.5469 12.7391 30.4766 12.5563 30.3359 12.4296Z" fill="url(#paint1_linear_13520_371273)"/>
<path d="M18.5938 22.1094C19.7587 22.1094 20.7031 21.165 20.7031 20C20.7031 18.835 19.7587 17.8906 18.5938 17.8906C17.4288 17.8906 16.4844 18.835 16.4844 20C16.4844 21.165 17.4288 22.1094 18.5938 22.1094Z" fill="url(#paint2_linear_13520_371273)"/>
<rect x="12" y="15" width="16" height="14" rx="1" fill="url(#paint3_linear_13520_371273)"/>
<path d="M20.764 26.0542L24.7592 22.059C25.915 20.9032 25.915 19.0227 24.7592 17.8669C23.6035 16.7111 21.7229 16.7111 20.5671 17.8669L20.313 18.1209L20.0589 17.8668C18.9031 16.7111 17.0226 16.7111 15.8668 17.8668C14.7111 19.0226 14.7111 20.9032 15.8668 22.0589L19.8621 26.0542C20.1112 26.3033 20.5149 26.3033 20.764 26.0542Z" fill="white"/>
</g>
<defs>
<linearGradient id="paint0_linear_13520_371273" x1="20" y1="32" x2="20" y2="8" gradientUnits="userSpaceOnUse">
<stop stop-color="#FFC8D1"/>
<stop offset="1" stop-color="#FFF6F7"/>
</linearGradient>
<linearGradient id="paint1_linear_13520_371273" x1="12.1761" y1="16.8996" x2="30.5483" y2="16.8996" gradientUnits="userSpaceOnUse">
<stop stop-color="#FD3A84"/>
<stop offset="1" stop-color="#FFA68D"/>
</linearGradient>
<linearGradient id="paint2_linear_13520_371273" x1="18.5938" y1="22.1094" x2="18.5938" y2="17.8906" gradientUnits="userSpaceOnUse">
<stop stop-color="#FFC8D1"/>
<stop offset="1" stop-color="#FFF6F7"/>
</linearGradient>
<linearGradient id="paint3_linear_13520_371273" x1="12.0037" y1="21.9947" x2="28.0012" y2="21.9947" gradientUnits="userSpaceOnUse">
<stop stop-color="#FD3A84"/>
<stop offset="1" stop-color="#FFA68D"/>
</linearGradient>
<clipPath id="clip0_13520_371273">
<rect width="24" height="24" fill="white" transform="translate(8 8)"/>
</clipPath>
</defs>
</svg>
