<svg width="24" height="25" viewBox="0 0 24 25" fill="none" xmlns="http://www.w3.org/2000/svg">
<path d="M7 3.71973V19.7197" stroke="#6D7686" stroke-width="1.5" stroke-linecap="round" stroke-linejoin="round"/>
<path d="M16 15.2777V3.71973" stroke="#6D7686" stroke-width="1.5" stroke-linecap="round" stroke-linejoin="round"/>
<path d="M14.126 19.7197H5C3.895 19.7197 3 18.8247 3 17.7197V5.71973C3 4.61473 3.895 3.71973 5 3.71973H18C19.105 3.71973 20 4.61473 20 5.71973V15.2547" stroke="#6D7686" stroke-width="1.5" stroke-linecap="round" stroke-linejoin="round"/>
<path d="M7 7.71973H3" stroke="#6D7686" stroke-width="1.5" stroke-linecap="round" stroke-linejoin="round"/>
<path d="M7 15.7197H3" stroke="#6D7686" stroke-width="1.5" stroke-linecap="round" stroke-linejoin="round"/>
<path d="M16 7.71973H20" stroke="#6D7686" stroke-width="1.5" stroke-linecap="round" stroke-linejoin="round"/>
<path d="M20 11.7197H3" stroke="#6D7686" stroke-width="1.5" stroke-linecap="round" stroke-linejoin="round"/>
<path d="M18 22.7197C15.791 22.7197 14 20.9287 14 18.7197C14 16.5557 15.84 14.7177 18.004 14.7197C20.212 14.7217 22 16.5117 22 18.7197C22 20.9287 20.21 22.7197 18 22.7197" stroke="#6D7686" stroke-width="1.5"/>
<path d="M18 17.1196V20.3196" stroke="#6D7686" stroke-width="1.5" stroke-linecap="round" stroke-linejoin="round"/>
<path d="M19.6004 18.7197H16.4004" stroke="#6D7686" stroke-width="1.5" stroke-linecap="round" stroke-linejoin="round"/>
</svg>
