<svg width="24" height="25" viewBox="0 0 24 25" fill="none" xmlns="http://www.w3.org/2000/svg">
<path fill-rule="evenodd" clip-rule="evenodd" d="M12 16.7197V16.7197C9.791 16.7197 8 14.9287 8 12.7197V6.71973C8 4.51073 9.791 2.71973 12 2.71973V2.71973C14.209 2.71973 16 4.51073 16 6.71973V12.7197C16 14.9287 14.209 16.7197 12 16.7197Z" stroke="#6D7686" stroke-width="1.5" stroke-linecap="round" stroke-linejoin="round"/>
<path d="M19 11.7197V12.6197C19 16.5407 15.866 19.7197 12 19.7197V19.7197C8.134 19.7197 5 16.5407 5 12.6197V11.7197" stroke="#6D7686" stroke-width="1.5" stroke-linecap="round" stroke-linejoin="round"/>
<path d="M11.5 6.71973H12.5" stroke="#6D7686" stroke-width="1.5" stroke-linecap="round" stroke-linejoin="round"/>
<path d="M11 9.71973H13" stroke="#6D7686" stroke-width="1.5" stroke-linecap="round" stroke-linejoin="round"/>
<path d="M11.5 12.7495H12.5" stroke="#6D7686" stroke-width="1.5" stroke-linecap="round" stroke-linejoin="round"/>
<path d="M12 19.7197V22.7197" stroke="#6D7686" stroke-width="1.5" stroke-linecap="round" stroke-linejoin="round"/>
<path d="M9 22.7197H15" stroke="#6D7686" stroke-width="1.5" stroke-linecap="round" stroke-linejoin="round"/>
</svg>
