<svg width="24" height="25" viewBox="0 0 24 25" fill="none" xmlns="http://www.w3.org/2000/svg">
<path d="M2 9.71973C2 8.61516 2.89543 7.71973 4 7.71973H6V16.7197H4C2.89543 16.7197 2 15.8243 2 14.7197V9.71973Z" stroke="#6D7686" stroke-width="1.5"/>
<path d="M10 19.2197L10.9402 19.8073C12.2723 20.6399 14.0002 19.6822 14.0002 18.1113V15.2197" stroke="#6D7686" stroke-width="1.5" stroke-linecap="round" stroke-linejoin="round"/>
<path d="M6 16.7197V7.71973L10.94 4.63223C12.2721 3.79967 14 4.75735 14 6.32822V9.21973" stroke="#6D7686" stroke-width="1.5" stroke-linecap="round" stroke-linejoin="round"/>
<path d="M17.5 16.7525C18.9817 16.0162 20 14.4871 20 12.7203C20 11.6486 19.6254 10.6645 19 9.8916" stroke="#6D7686" stroke-width="1.5" stroke-linecap="round"/>
<path d="M20 18.7209C21.8217 17.3526 23 15.1741 23 12.7204C23 10.92 22.3656 9.26781 21.3083 7.9751" stroke="#6D7686" stroke-width="1.5" stroke-linecap="round"/>
<path d="M5.5 18.2197L19.5 4.21973" stroke="#6D7686" stroke-width="1.5" stroke-linecap="round" stroke-linejoin="round"/>
</svg>
