<svg width="24" height="25" viewBox="0 0 24 25" fill="none" xmlns="http://www.w3.org/2000/svg">
<path d="M2 9.71973C2 8.61516 2.89543 7.71973 4 7.71973H6V16.7197H4C2.89543 16.7197 2 15.8243 2 14.7197V9.71973Z" stroke="#6D7686" stroke-width="1.5"/>
<path d="M10.94 4.63223L6 7.71973V16.7197L10.94 19.8072C12.2721 20.6398 14 19.6821 14 18.1112V6.32822C14 4.75735 12.2721 3.79967 10.94 4.63223Z" stroke="#6D7686" stroke-width="1.5" stroke-linecap="round" stroke-linejoin="round"/>
<path d="M17.5 16.7527C18.9817 16.0164 20 14.4874 20 12.7205C20 10.7612 18.7478 9.09432 17 8.47656" stroke="#6D7686" stroke-width="1.5"/>
<path d="M20 6.71973C21.8217 8.08804 23 10.2665 23 12.7203C23 15.174 21.8217 17.3525 20 18.7208" stroke="#6D7686" stroke-width="1.5"/>
</svg>
