<svg width="24" height="25" viewBox="0 0 24 25" fill="none" xmlns="http://www.w3.org/2000/svg">
<path fill-rule="evenodd" clip-rule="evenodd" d="M18.99 21.7197H5.01C3.9 21.7197 3 20.8247 3 19.7197V11.7197C3 10.6147 3.9 9.71973 5.01 9.71973H18.99C20.1 9.71973 21 10.6147 21 11.7197V19.7197C21 20.8247 20.099 21.7197 18.99 21.7197V21.7197Z" stroke="#6D7686" stroke-width="1.5" stroke-linecap="round" stroke-linejoin="round"/>
<path fill-rule="evenodd" clip-rule="evenodd" d="M11.2855 13.8595L13.9055 15.4095C14.2365 15.6055 14.2365 16.0855 13.9055 16.2805L11.2855 17.8305C10.9485 18.0305 10.5215 17.7865 10.5215 17.3945V14.2955C10.5215 13.9035 10.9485 13.6595 11.2855 13.8595Z" stroke="#6D7686" stroke-width="1.5" stroke-linecap="round" stroke-linejoin="round"/>
<path d="M4.78223 9.71973V8.71973C4.78223 7.61473 5.67723 6.71973 6.78223 6.71973H17.2172C18.3222 6.71973 19.2172 7.61473 19.2172 8.71973V9.71973" stroke="#6D7686" stroke-width="1.5" stroke-linecap="round" stroke-linejoin="round"/>
<path d="M6.51562 6.71973V5.71973C6.51562 4.61473 7.41062 3.71973 8.51562 3.71973H15.4846C16.5896 3.71973 17.4846 4.61473 17.4846 5.71973V6.71973" stroke="#6D7686" stroke-width="1.5" stroke-linecap="round" stroke-linejoin="round"/>
</svg>
