<svg width="20" height="20" viewBox="0 0 20 20" fill="none" xmlns="http://www.w3.org/2000/svg">
<g clip-path="url(#clip0_4800_108350)">
<path fill-rule="evenodd" clip-rule="evenodd" d="M0 10.0561C0 15.0277 3.61083 19.1619 8.33333 20.0002V12.7777H5.83333V10.0002H8.33333V7.77774C8.33333 5.27774 9.94417 3.88941 12.2225 3.88941C12.9442 3.88941 13.7225 4.00024 14.4442 4.11108V6.66691H13.1667C11.9442 6.66691 11.6667 7.27774 11.6667 8.05608V10.0002H14.3333L13.8892 12.7777H11.6667V20.0002C16.3892 19.1619 20 15.0286 20 10.0561C20 4.52524 15.5 0.000244141 10 0.000244141C4.5 0.000244141 0 4.52524 0 10.0561Z" fill="#303F4E"/>
</g>
<defs>
<clipPath id="clip0_4800_108350">
<rect width="20" height="20" fill="white" transform="translate(0 0.000244141)"/>
</clipPath>
</defs>
</svg>
