<svg width="20" height="20" viewBox="0 0 20 20" fill="none" xmlns="http://www.w3.org/2000/svg">
<g clip-path="url(#clip0_4800_108360)">
<path fill-rule="evenodd" clip-rule="evenodd" d="M6.22081 0.888618C7.19831 0.843618 7.50998 0.833618 9.99998 0.833618C12.49 0.833618 12.8016 0.844451 13.7783 0.888618C14.755 0.932785 15.4216 1.08862 16.005 1.31445C16.6158 1.54528 17.17 1.90612 17.6283 2.37278C18.095 2.83028 18.455 3.38362 18.685 3.99528C18.9116 4.57862 19.0666 5.24528 19.1116 6.22028C19.1566 7.19945 19.1666 7.51112 19.1666 10.0003C19.1666 12.4903 19.1558 12.802 19.1116 13.7795C19.0675 14.7544 18.9116 15.4211 18.685 16.0044C18.455 16.6162 18.0944 17.1705 17.6283 17.6286C17.17 18.0953 16.6158 18.4553 16.005 18.6853C15.4216 18.912 14.755 19.0669 13.78 19.1119C12.8016 19.1569 12.49 19.167 9.99998 19.167C7.50998 19.167 7.19831 19.1561 6.22081 19.1119C5.24581 19.0678 4.57915 18.912 3.99581 18.6853C3.38408 18.4553 2.82983 18.0947 2.37165 17.6286C1.9053 17.1708 1.54441 16.6169 1.31415 16.0053C1.08831 15.4219 0.933313 14.7553 0.888313 13.7803C0.843313 12.8011 0.833313 12.4895 0.833313 10.0003C0.833313 7.51028 0.844146 7.19862 0.888313 6.22195C0.93248 5.24528 1.08831 4.57862 1.31415 3.99528C1.54475 3.38369 1.90591 2.82971 2.37248 2.37195C2.83001 1.9057 3.38371 1.54482 3.99498 1.31445C4.57831 1.08862 5.24498 0.933618 6.21998 0.888618H6.22081ZM13.7041 2.53862C12.7375 2.49445 12.4475 2.48528 9.99998 2.48528C7.55248 2.48528 7.26248 2.49445 6.29581 2.53862C5.40165 2.57945 4.91665 2.72862 4.59331 2.85445C4.16581 3.02112 3.85998 3.21862 3.53915 3.53945C3.23502 3.83533 3.00096 4.19552 2.85415 4.59362C2.72831 4.91695 2.57915 5.40195 2.53831 6.29612C2.49415 7.26278 2.48498 7.55278 2.48498 10.0003C2.48498 12.4478 2.49415 12.7378 2.53831 13.7044C2.57915 14.5986 2.72831 15.0836 2.85415 15.407C3.00081 15.8045 3.23498 16.1653 3.53915 16.4611C3.83498 16.7653 4.19581 16.9995 4.59331 17.1461C4.91665 17.2719 5.40165 17.4211 6.29581 17.462C7.26248 17.5061 7.55165 17.5153 9.99998 17.5153C12.4483 17.5153 12.7375 17.5061 13.7041 17.462C14.5983 17.4211 15.0833 17.2719 15.4066 17.1461C15.8341 16.9795 16.14 16.7819 16.4608 16.4611C16.765 16.1653 16.9991 15.8045 17.1458 15.407C17.2716 15.0836 17.4208 14.5986 17.4616 13.7044C17.5058 12.7378 17.515 12.4478 17.515 10.0003C17.515 7.55278 17.5058 7.26278 17.4616 6.29612C17.4208 5.40195 17.2716 4.91695 17.1458 4.59362C16.9791 4.16612 16.7816 3.86028 16.4608 3.53945C16.1649 3.23534 15.8047 3.00129 15.4066 2.85445C15.0833 2.72862 14.5983 2.57945 13.7041 2.53862ZM8.82915 12.8261C9.48303 13.0983 10.2111 13.135 10.8891 12.9301C11.567 12.7251 12.1528 12.291 12.5463 11.7022C12.9398 11.1133 13.1167 10.406 13.0467 9.7012C12.9767 8.9964 12.6641 8.33776 12.1625 7.83778C11.8427 7.51818 11.456 7.27346 11.0303 7.12124C10.6045 6.96902 10.1503 6.91308 9.70039 6.95746C9.25045 7.00184 8.81594 7.14543 8.42815 7.37789C8.04036 7.61035 7.70893 7.9259 7.45773 8.30183C7.20653 8.67775 7.0418 9.10469 6.97541 9.55192C6.90901 9.99914 6.94261 10.4555 7.07376 10.8882C7.20492 11.3209 7.43038 11.7191 7.73391 12.0542C8.03745 12.3893 8.4115 12.6529 8.82915 12.8261ZM6.66831 6.66862C7.10583 6.2311 7.62525 5.88404 8.19689 5.64725C8.76854 5.41047 9.38123 5.2886 9.99998 5.2886C10.6187 5.2886 11.2314 5.41047 11.8031 5.64725C12.3747 5.88404 12.8941 6.2311 13.3316 6.66862C13.7692 7.10614 14.1162 7.62555 14.353 8.1972C14.5898 8.76885 14.7117 9.38154 14.7117 10.0003C14.7117 10.619 14.5898 11.2317 14.353 11.8034C14.1162 12.375 13.7692 12.8944 13.3316 13.332C12.448 14.2156 11.2496 14.712 9.99998 14.712C8.75036 14.712 7.55193 14.2156 6.66831 13.332C5.7847 12.4483 5.28829 11.2499 5.28829 10.0003C5.28829 8.75067 5.7847 7.55223 6.66831 6.66862ZM15.7566 5.99028C15.8651 5.88801 15.9519 5.76502 16.0119 5.6286C16.0719 5.49217 16.104 5.34509 16.1062 5.19606C16.1083 5.04703 16.0806 4.89907 16.0245 4.76096C15.9685 4.62284 15.8853 4.49738 15.7799 4.39198C15.6746 4.28659 15.5491 4.20342 15.411 4.14738C15.2729 4.09135 15.1249 4.0636 14.9759 4.06577C14.8268 4.06794 14.6798 4.1 14.5433 4.16003C14.4069 4.22007 14.2839 4.30686 14.1816 4.41528C13.9827 4.62614 13.8738 4.90622 13.8781 5.19606C13.8823 5.4859 13.9993 5.76268 14.2043 5.96765C14.4092 6.17262 14.686 6.28964 14.9759 6.29387C15.2657 6.29809 15.5458 6.18919 15.7566 5.99028Z" fill="#303F4E"/>
</g>
<defs>
<clipPath id="clip0_4800_108360">
<rect width="20" height="20" fill="white" transform="translate(0 0.000244141)"/>
</clipPath>
</defs>
</svg>
