<svg width="20" height="20" viewBox="0 0 20 20" fill="none" xmlns="http://www.w3.org/2000/svg">
<path d="M19.7024 4.11439C19.0066 4.42273 18.2591 4.63106 17.4733 4.72523C18.2841 4.24005 18.8907 3.47645 19.1799 2.57689C18.4181 3.02938 17.5844 3.34789 16.7149 3.51856C16.1302 2.89428 15.3558 2.4805 14.5119 2.34146C13.6679 2.20241 12.8017 2.34589 12.0476 2.7496C11.2936 3.15332 10.6939 3.7947 10.3417 4.57415C9.98954 5.3536 9.90454 6.22752 10.0999 7.06023C8.55633 6.98272 7.04629 6.58152 5.66778 5.88265C4.28928 5.18378 3.07313 4.20286 2.09826 3.00356C1.76493 3.57856 1.57326 4.24523 1.57326 4.95523C1.57289 5.59439 1.73029 6.22376 2.03149 6.7875C2.3327 7.35124 2.7684 7.83192 3.29993 8.18689C2.68349 8.16728 2.08066 8.00071 1.5416 7.70106V7.75106C1.54153 8.64751 1.85162 9.51637 2.41925 10.2102C2.98687 10.9041 3.77707 11.3802 4.65576 11.5577C4.08391 11.7125 3.48438 11.7353 2.90243 11.6244C3.15034 12.3957 3.63326 13.0702 4.28357 13.5535C4.93388 14.0367 5.71903 14.3045 6.5291 14.3194C5.15396 15.3989 3.45567 15.9845 1.70743 15.9819C1.39775 15.982 1.08833 15.9639 0.780762 15.9277C2.55533 17.0687 4.62105 17.6742 6.73076 17.6719C13.8724 17.6719 17.7766 11.7569 17.7766 6.62689C17.7766 6.46023 17.7724 6.29189 17.7649 6.12523C18.5243 5.57604 19.1799 4.89597 19.7008 4.11689L19.7024 4.11439Z" fill="#303F4E"/>
</svg>
