<svg width="20" height="20" viewBox="0 0 20 20" fill="none" xmlns="http://www.w3.org/2000/svg">
<g clip-path="url(#clip0_4800_108353)">
<path d="M19.5832 5.42277C19.47 5.01879 19.2494 4.65305 18.9449 4.36443C18.6318 4.06694 18.2481 3.85413 17.8299 3.7461C16.2649 3.3336 9.9949 3.3336 9.9949 3.3336C7.38101 3.30386 4.76776 3.43466 2.1699 3.72527C1.75173 3.84128 1.36871 4.05884 1.0549 4.3586C0.746571 4.65527 0.523237 5.0211 0.406571 5.42193C0.126315 6.93172 -0.00985268 8.46472 -9.60323e-05 10.0003C-0.010096 11.5344 0.125737 13.0669 0.406571 14.5786C0.520737 14.9778 0.743237 15.3419 1.0524 15.6361C1.36157 15.9303 1.74657 16.1428 2.1699 16.2553C3.75574 16.6669 9.9949 16.6669 9.9949 16.6669C12.6121 16.6967 15.2287 16.5659 17.8299 16.2753C18.2481 16.1672 18.6318 15.9544 18.9449 15.6569C19.2532 15.3628 19.4724 14.9969 19.5824 14.5986C19.87 13.0894 20.0098 11.5558 19.9999 10.0194C20.0215 8.4766 19.8819 6.93574 19.5832 5.42193V5.42277ZM8.00157 12.8536V7.14777L13.2182 10.0011L8.00157 12.8536Z" fill="#303F4E"/>
</g>
<defs>
<clipPath id="clip0_4800_108353">
<rect width="20" height="20" fill="white" transform="translate(0 0.000244141)"/>
</clipPath>
</defs>
</svg>
