<svg width="24" height="24" viewBox="0 0 24 24" fill="none" xmlns="http://www.w3.org/2000/svg">
<path d="M9.70703 18.3448V18.7097C9.70703 19.9747 10.733 21.0008 11.999 21.0008V21.0008C13.265 21.0008 14.291 19.9748 14.291 18.7088V18.3438" stroke="#303F4E" stroke-width="1.5" stroke-linecap="round" stroke-linejoin="round"/>
<path d="M13.834 5.751V4.833C13.834 3.821 13.014 3 12.001 3V3C10.988 3 10.168 3.821 10.168 4.833V5.751" stroke="#303F4E" stroke-width="1.5" stroke-linecap="round" stroke-linejoin="round"/>
<path fill-rule="evenodd" clip-rule="evenodd" d="M6.563 10.1873V10.1873C6.563 7.68425 8.592 5.65625 11.094 5.65625H12.907C15.41 5.65625 17.438 7.68525 17.438 10.1873V10.1873V12.9843C17.438 13.5143 17.649 14.0232 18.024 14.3982L18.665 15.0393C19.04 15.4143 19.251 15.9232 19.251 16.4532V16.4532C19.251 17.4972 18.405 18.3433 17.361 18.3433H6.64C5.596 18.3433 4.75 17.4972 4.75 16.4532V16.4532C4.75 15.9232 4.961 15.4143 5.336 15.0393L5.977 14.3982C6.352 14.0232 6.563 13.5143 6.563 12.9843V10.1873Z" stroke="#303F4E" stroke-width="1.5" stroke-linecap="round" stroke-linejoin="round"/>
</svg>
