<svg width="24" height="24" viewBox="0 0 24 24" fill="none" xmlns="http://www.w3.org/2000/svg">
<path fill-rule="evenodd" clip-rule="evenodd" d="M17.7143 22H6.28571C5.02286 22 4 21.0304 4 19.8333V11.1667C4 9.96958 5.02286 9 6.28571 9H17.7143C18.9771 9 20 9.96958 20 11.1667V19.8333C20 21.0304 18.9771 22 17.7143 22Z" stroke="#6D7686" stroke-width="1.5" stroke-linecap="round" stroke-linejoin="round"/>
<path d="M17 9V6.66667C17 4.0895 14.9508 2 12.4233 2C10.2838 2 8.50114 3.50383 8 5.52683" stroke="#6D7686" stroke-width="1.5" stroke-linecap="round" stroke-linejoin="round"/>
<path d="M11.994 15C11.444 15 10.9941 15.225 11.0001 15.5C11.0001 15.775 11.45 16 12 16C12.55 16 13 15.775 13 15.5C13 15.225 12.55 15 11.994 15" stroke="#6D7686" stroke-width="1.5" stroke-linecap="round" stroke-linejoin="round"/>
</svg>
