<svg width="62" height="62" viewBox="0 0 62 62" fill="none" xmlns="http://www.w3.org/2000/svg">
<path d="M7.447 59.8921C7.09643 60.243 6.68019 60.5214 6.22203 60.7114C5.76387 60.9014 5.27277 60.9993 4.77676 60.9996C4.28076 60.9998 3.78957 60.9023 3.33123 60.7127C2.87289 60.5231 2.45639 60.2451 2.1055 59.8946C1.75461 59.544 1.4762 59.1278 1.28617 58.6696C1.09614 58.2114 0.998218 57.7203 0.997986 57.2243C0.997517 56.2226 1.395 55.2617 2.103 54.5531L25.66 30.9991L2.103 7.44606C1.40087 6.73669 1.00816 5.77817 1.01072 4.78008C1.01328 3.78198 1.41091 2.8255 2.11667 2.11974C2.82244 1.41398 3.77892 1.01635 4.77701 1.01379C5.77511 1.01122 6.73362 1.40393 7.443 2.10606L31.003 25.6591L54.554 2.10506C54.904 1.75147 55.3204 1.47053 55.7793 1.27837C56.2382 1.08622 56.7305 0.986641 57.228 0.985364C57.7255 0.984087 58.2184 1.08113 58.6782 1.27093C59.1381 1.46073 59.556 1.73953 59.9077 2.09132C60.2595 2.4431 60.5383 2.86094 60.7281 3.32082C60.9179 3.7807 61.015 4.27355 61.0137 4.77105C61.0124 5.26855 60.9128 5.76089 60.7207 6.21979C60.5285 6.67869 60.2476 7.09509 59.894 7.44506L36.341 30.9991L59.894 54.5531C60.2604 54.9001 60.5536 55.317 60.7561 55.7793C60.9587 56.2415 61.0666 56.7396 61.0734 57.2442C61.0803 57.7489 60.9859 58.2497 60.7959 58.7173C60.6059 59.1848 60.3242 59.6095 59.9673 59.9664C59.6104 60.3232 59.1856 60.6049 58.718 60.7948C58.2505 60.9847 57.7496 61.0789 57.245 61.072C56.7403 61.0651 56.2422 60.9571 55.78 60.7544C55.3178 60.5518 54.901 60.2585 54.554 59.8921L31.003 36.3401L7.447 59.8921Z" fill="#A7A7A7"/>
</svg>
