<svg width="59" height="65" viewBox="0 0 59 65" fill="none" xmlns="http://www.w3.org/2000/svg">
<path d="M9.89902 64.0011C8.62066 64.003 7.35173 63.7824 6.14902 63.3491C4.97159 62.9267 3.88182 62.2915 2.93402 61.4751C2.02533 60.6892 1.28688 59.7258 0.764023 58.6441C0.26182 57.5994 0.000400322 56.4553 -0.000976562 55.2961L-0.000976562 20.2961C0.000536204 19.137 0.261949 17.9929 0.764023 16.9481C1.28756 15.8675 2.02673 14.9054 2.93602 14.1211C3.87926 13.3077 4.96394 12.6745 6.13602 12.2531C7.1483 11.8877 8.20845 11.6717 9.28302 11.6121V4.00314C9.28418 3.46689 9.40513 2.93767 9.63702 2.45414C9.87403 1.95783 10.2103 1.51539 10.625 1.15414L10.646 1.13714C11.0771 0.77082 11.5711 0.485859 12.104 0.296145C13.1932 -0.0958229 14.3849 -0.0958229 15.474 0.296145C16.0094 0.487013 16.5057 0.773303 16.939 1.14114L17.152 1.32314V1.35014C17.473 1.66952 17.7368 2.04158 17.932 2.45014C18.1638 2.93476 18.2848 3.46494 18.286 4.00214V11.5891H40.374V4.00214C40.3765 3.46674 40.5003 2.93886 40.736 2.45814C40.9365 2.04734 41.2046 1.67313 41.529 1.35114V1.32114L41.742 1.13914C42.1749 0.771782 42.6705 0.48553 43.205 0.294145C44.2954 -0.0986993 45.4887 -0.0986993 46.579 0.294145C47.1025 0.480278 47.5878 0.760176 48.011 1.12014L48.056 1.15314C48.4706 1.51454 48.8068 1.95695 49.044 2.45314C49.2759 2.9367 49.3972 3.46585 49.399 4.00214V11.6021C50.5001 11.6526 51.5873 11.8687 52.624 12.2431C53.7991 12.666 54.8857 13.3028 55.829 14.1211C56.7384 14.9025 57.4771 15.8628 57.999 16.9421C58.501 17.9891 58.762 19.1351 58.763 20.2961V55.2961C58.7621 56.4572 58.5011 57.6033 57.999 58.6501C57.4773 59.7303 56.7394 60.6918 55.831 61.4751C54.887 62.2928 53.7996 62.9285 52.624 63.3501C51.4196 63.7836 50.149 64.0042 48.869 64.0021H9.89902V64.0011ZM4.11402 55.3011C4.11457 55.946 4.25945 56.5826 4.53802 57.1641C4.83747 57.7776 5.25989 58.3229 5.77902 58.7661C6.33517 59.248 6.97559 59.623 7.66802 59.8721C8.38505 60.1308 9.14177 60.2621 9.90402 60.2601H48.868C49.6295 60.2631 50.3857 60.1324 51.102 59.8741C51.7897 59.6272 52.4252 59.2541 52.976 58.7741L52.983 58.7671C53.5055 58.3256 53.9311 57.7809 54.233 57.1671C54.5144 56.5864 54.6604 55.9494 54.66 55.3041V31.1621H41.03C40.5086 31.1651 40.0037 30.9797 39.608 30.6401C39.4101 30.4753 39.2508 30.2689 39.1415 30.0356C39.0322 29.8023 38.9755 29.5478 38.9755 29.2901C38.9755 29.0325 39.0322 28.778 39.1415 28.5447C39.2508 28.3114 39.4101 28.105 39.608 27.9401C40.0055 27.6015 40.5118 27.4176 41.034 27.4221H54.66V20.2971C54.66 19.6525 54.514 19.0163 54.233 18.4361C53.9314 17.8204 53.5058 17.2737 52.983 16.8301L52.976 16.8231C52.4248 16.3416 51.7881 15.9678 51.099 15.7211C50.5496 15.5225 49.9756 15.3997 49.393 15.3561V16.7811C49.3922 17.3174 49.2723 17.8468 49.042 18.3311C48.8032 18.826 48.4675 19.2681 48.055 19.6311L47.881 19.7871H47.846C47.459 20.0876 47.0275 20.3258 46.567 20.4931C45.4824 20.891 44.2917 20.891 43.207 20.4931C42.6701 20.2973 42.1723 20.0075 41.737 19.6371L41.728 19.6281C41.3118 19.2611 40.972 18.8156 40.728 18.3171C40.4936 17.8364 40.3709 17.309 40.369 16.7741V15.3331H18.288V16.7791C18.2878 17.3168 18.1679 17.8476 17.937 18.3331C17.6983 18.8287 17.3619 19.2709 16.948 19.6331L16.941 19.6401C16.5057 20.0109 16.0075 20.3008 15.47 20.4961C14.3856 20.8934 13.1955 20.8934 12.111 20.4961C11.6498 20.3268 11.2172 20.088 10.828 19.7881H10.799L10.624 19.6321C10.2115 19.269 9.87594 18.827 9.63702 18.3321C9.40662 17.8479 9.28673 17.3184 9.28602 16.7821V15.3611C8.73714 15.4105 8.19697 15.5309 7.67902 15.7191C6.98409 15.9709 6.3404 16.3463 5.77902 16.8271C5.26196 17.2733 4.84167 17.8205 4.54402 18.4351C4.26579 19.0161 4.12125 19.652 4.12102 20.2961V27.4211H25.075C25.5976 27.4179 26.104 27.6024 26.502 27.9411C26.7015 28.105 26.8623 28.3111 26.9726 28.5445C27.083 28.778 27.1402 29.0329 27.1402 29.2911C27.1402 29.5493 27.083 29.8043 26.9726 30.0378C26.8623 30.2712 26.7015 30.4773 26.502 30.6411C26.1059 30.98 25.6013 31.1652 25.08 31.1631H4.12002V55.2961L4.11402 55.3011ZM44.652 3.78814L44.552 3.86814C44.5298 3.88521 44.5116 3.90709 44.499 3.93214C44.4887 3.95437 44.4836 3.97865 44.484 4.00314V16.7791C44.4837 16.8047 44.4892 16.83 44.5 16.8531C44.5192 16.8879 44.545 16.9185 44.576 16.9431C44.6204 16.978 44.67 17.0057 44.723 17.0251C44.777 17.0442 44.8338 17.0537 44.891 17.0531C44.9513 17.0534 45.0112 17.0433 45.068 17.0231C45.1177 17.0061 45.1638 16.98 45.204 16.9461C45.2338 16.9205 45.2583 16.8892 45.276 16.8541C45.2873 16.8301 45.2931 16.8038 45.293 16.7771V4.00314C45.2932 3.9776 45.2878 3.95233 45.277 3.92914C45.264 3.90352 45.2456 3.88101 45.223 3.86314L45.123 3.78514L45.082 3.76914C45.0193 3.74935 44.9538 3.73989 44.888 3.74114C44.8252 3.74009 44.7627 3.74956 44.703 3.76914L44.653 3.79014L44.652 3.78814ZM13.476 3.83314L13.463 3.84714C13.4395 3.86771 13.4204 3.8929 13.407 3.92114C13.396 3.94705 13.3905 3.97499 13.391 4.00314V16.7801C13.3907 16.8086 13.3961 16.8368 13.407 16.8631C13.4183 16.8865 13.432 16.9087 13.448 16.9291L13.456 16.9351C13.5044 16.9751 13.5592 17.0065 13.618 17.0281C13.672 17.0472 13.7288 17.0567 13.786 17.0561C13.8439 17.0564 13.9015 17.0466 13.956 17.0271C14.0025 17.0108 14.0455 16.9861 14.083 16.9541L14.146 16.8981C14.1572 16.8831 14.1669 16.867 14.175 16.8501C14.1856 16.8294 14.1914 16.8065 14.192 16.7831V4.00314C14.192 3.98063 14.1868 3.95841 14.177 3.93814C14.1596 3.9051 14.1362 3.8756 14.108 3.85114L14.082 3.82914C14.0497 3.80182 14.0123 3.7811 13.972 3.76814C13.851 3.72941 13.721 3.72941 13.6 3.76814C13.5556 3.78378 13.5138 3.80603 13.476 3.83414V3.83314ZM36.242 44.6871C36.2451 44.3241 36.3272 43.9661 36.4826 43.6379C36.638 43.3098 36.863 43.0195 37.142 42.7871C37.7178 42.3053 38.4447 42.0414 39.1955 42.0414C39.9463 42.0414 40.6732 42.3053 41.249 42.7871C41.529 43.0183 41.7544 43.3085 41.9092 43.637C42.0639 43.9655 42.1442 44.3241 42.1442 44.6871C42.1442 45.0502 42.0639 45.4088 41.9092 45.7373C41.7544 46.0658 41.529 46.356 41.249 46.5871C40.6731 47.0692 39.946 47.3334 39.195 47.3334C38.444 47.3334 37.7169 47.0692 37.141 46.5871C36.8625 46.3544 36.6378 46.064 36.4824 45.736C36.327 45.4079 36.2447 45.0501 36.241 44.6871H36.242ZM27.449 44.6871C27.4516 44.3247 27.5328 43.9671 27.687 43.6391C27.8411 43.3111 28.0646 43.0204 28.342 42.7871C28.9178 42.3056 29.6445 42.0418 30.395 42.0418C31.1456 42.0418 31.8723 42.3056 32.448 42.7871C32.7274 43.0181 32.9524 43.3078 33.1068 43.6358C33.2612 43.9637 33.3413 44.3217 33.3413 44.6841C33.3413 45.0466 33.2612 45.4046 33.1068 45.7325C32.9524 46.0605 32.7274 46.3502 32.448 46.5811C31.8723 47.0627 31.1456 47.3265 30.395 47.3265C29.6445 47.3265 28.9178 47.0627 28.342 46.5811C28.065 46.3476 27.8418 46.0569 27.6878 45.7289C27.5338 45.4009 27.4527 45.0435 27.45 44.6811L27.449 44.6871ZM18.639 44.6871C18.6428 44.3249 18.7252 43.9679 18.8806 43.6407C19.036 43.3135 19.2607 43.024 19.539 42.7921C20.116 42.3103 20.8438 42.0463 21.5955 42.0463C22.3472 42.0463 23.0751 42.3103 23.652 42.7921C23.9322 43.0232 24.1577 43.3134 24.3126 43.6419C24.4674 43.9703 24.5477 44.329 24.5477 44.6921C24.5477 45.0553 24.4674 45.4139 24.3126 45.7424C24.1577 46.0709 23.9322 46.3611 23.652 46.5921C23.0758 47.0755 22.3477 47.3405 21.5955 47.3405C20.8434 47.3405 20.1153 47.0755 19.539 46.5921C19.26 46.3598 19.035 46.0695 18.8796 45.7413C18.7242 45.4132 18.6421 45.0552 18.639 44.6921V44.6871ZM18.246 24.6401C17.7248 24.6421 17.2202 24.4568 16.824 24.1181C16.6243 23.9544 16.4635 23.7483 16.353 23.5149C16.2426 23.2814 16.1853 23.0264 16.1853 22.7681C16.1853 22.5099 16.2426 22.2548 16.353 22.0214C16.4635 21.788 16.6243 21.5819 16.824 21.4181C17.2216 21.0794 17.7277 20.8948 18.25 20.8981H40.528C41.05 20.8948 41.5559 21.0793 41.953 21.4181C42.1519 21.5824 42.312 21.7886 42.422 22.022C42.5319 22.2554 42.5889 22.5102 42.5889 22.7681C42.5889 23.0261 42.5319 23.2809 42.422 23.5143C42.312 23.7477 42.1519 23.9539 41.953 24.1181C41.5573 24.457 41.053 24.6423 40.532 24.6401H18.246Z" fill="#A7A7A7"/>
</svg>
