<svg width="18" height="18" viewBox="0 0 18 18" fill="none" xmlns="http://www.w3.org/2000/svg">
<path d="M9.64433 2.40977C9.65924 2.44633 9.6728 2.48265 9.68501 2.51874C9.75122 2.73326 9.76315 2.95759 9.71999 3.17646V3.18032C9.71348 3.21372 9.70535 3.24852 9.69518 3.28578C9.68501 3.32305 9.67402 3.35609 9.66263 3.38702L9.64189 3.4394L9.83674 3.58353C9.84612 3.59115 9.85482 3.59938 9.86277 3.60814C9.88074 3.42694 9.93584 3.24995 10.0255 3.08541L10.0296 3.07662C10.1302 2.89336 10.2716 2.72901 10.4457 2.59292C10.4933 2.55543 10.5433 2.52022 10.5954 2.48746L10.2919 2.37004C10.2149 2.3402 10.1321 2.32303 10.0479 2.31942C10.0052 2.31757 9.96245 2.3191 9.92013 2.32399C9.85067 2.33202 9.78296 2.34884 9.71918 2.37391C9.70494 2.37954 9.69111 2.38551 9.6785 2.39149L9.64514 2.40906L9.64433 2.40977ZM9.86074 3.86651L9.84243 3.88444L9.82697 3.89639L9.64433 4.02998L9.66386 4.07989C9.67728 4.11505 9.68908 4.1502 9.69843 4.18535C9.70779 4.22051 9.71714 4.25566 9.72406 4.29081C9.76917 4.51399 9.75667 4.74302 9.68745 4.96153C9.67647 4.9988 9.66263 5.03535 9.64677 5.07262C9.66223 5.0807 9.67809 5.08808 9.69477 5.09511C9.71606 5.10435 9.73793 5.11256 9.76026 5.11972C9.79907 5.13112 9.83895 5.13959 9.87945 5.14503C9.99885 5.16453 10.1221 5.15628 10.2366 5.12113L10.575 5.01778C10.5894 5.01341 10.6043 5.01023 10.6194 5.00829L10.5759 4.98122C10.3872 4.85992 10.2282 4.70765 10.1078 4.53314C9.98736 4.35863 9.90798 4.1653 9.87416 3.96424C9.86887 3.9319 9.8644 3.89921 9.86155 3.86651H9.86074ZM10.8777 5.13941L10.8801 5.14538C10.8834 5.15382 10.8858 5.1612 10.8879 5.16823L10.9538 5.48461C10.961 5.51862 10.9716 5.55203 10.9855 5.58445C10.9994 5.61719 11.0165 5.64882 11.0367 5.67901C11.0569 5.70894 11.08 5.73729 11.1059 5.76373C11.1317 5.79051 11.1603 5.81522 11.1913 5.83755C11.2224 5.85988 11.2556 5.87987 11.2906 5.89731C11.3252 5.9146 11.3615 5.92919 11.3992 5.9409C11.4753 5.96398 11.5553 5.97587 11.6359 5.97605C11.6768 5.97611 11.7176 5.97317 11.758 5.96726C11.7974 5.96148 11.8362 5.95278 11.8739 5.94125C11.9879 5.9053 12.0894 5.84481 12.1688 5.76548C12.2211 5.71249 12.2624 5.65207 12.2908 5.58691C12.3048 5.55499 12.3154 5.52204 12.3226 5.48848L12.3885 5.18265C12.3913 5.16919 12.3957 5.156 12.4015 5.14327C12.3491 5.16437 12.2957 5.18335 12.2412 5.20022C12.131 5.23396 12.0173 5.25822 11.9016 5.27264C11.669 5.30136 11.4322 5.29085 11.2043 5.2417C11.0923 5.21722 10.9833 5.18331 10.8789 5.14046L10.8777 5.13941ZM12.6602 5.01321L12.6927 5.01918L13.0426 5.12746C13.0805 5.13915 13.1196 5.14797 13.1593 5.15382C13.1996 5.15992 13.2404 5.16298 13.2813 5.16296C13.3213 5.16278 13.3612 5.1596 13.4005 5.15347C13.4404 5.14713 13.4796 5.13783 13.5177 5.1257L13.5254 5.12359C13.5613 5.11187 13.596 5.09753 13.6291 5.0807C13.7335 5.02869 13.8201 4.95373 13.8801 4.86346C13.9004 4.83314 13.9177 4.80139 13.9318 4.76854C13.9457 4.73625 13.9564 4.70296 13.9635 4.66906C13.9707 4.63484 13.9744 4.60014 13.9745 4.56536C13.9746 4.53002 13.9712 4.49473 13.9643 4.4599C13.9504 4.39119 13.9229 4.32507 13.883 4.26445C13.8632 4.23403 13.8404 4.2052 13.8146 4.17832C13.789 4.15154 13.7607 4.12672 13.73 4.10415L13.4591 3.90378C13.4471 3.89485 13.436 3.88497 13.4262 3.87425C13.4179 3.95724 13.402 4.03952 13.3786 4.12032C13.35 4.21836 13.3104 4.31374 13.2602 4.40506C13.1253 4.64938 12.9187 4.85892 12.661 5.01286L12.6602 5.01321ZM13.4278 3.61587L13.4461 3.59794C13.5425 3.52764 13.6381 3.45733 13.7341 3.38702C13.7646 3.36472 13.7928 3.34013 13.8183 3.31355C13.8696 3.25994 13.9098 3.19904 13.9371 3.13357C13.9508 3.10043 13.9611 3.06632 13.968 3.03163C13.975 2.9968 13.9784 2.96151 13.9782 2.92617C13.9782 2.89081 13.9747 2.85552 13.9676 2.82071C13.9607 2.78671 13.9503 2.75331 13.9367 2.72087C13.9227 2.68804 13.9056 2.65628 13.8854 2.62596C13.8666 2.59742 13.8451 2.57026 13.8211 2.54476C13.7729 2.49413 13.7155 2.45057 13.6511 2.41574C13.6192 2.39854 13.5858 2.38361 13.551 2.3711C13.4438 2.33291 13.3273 2.31807 13.2118 2.32786C13.1828 2.33044 13.1539 2.33466 13.1256 2.34052C13.0328 2.36231 12.8709 2.41082 12.7867 2.42031C12.725 2.43394 12.6596 2.42621 12.6045 2.39876C12.5493 2.37131 12.5087 2.32631 12.4914 2.27337C12.4776 2.18162 12.4446 2.07652 12.4226 1.98441C12.415 1.95252 12.4042 1.92125 12.3905 1.89091C12.3766 1.86025 12.3599 1.83062 12.3405 1.80232C12.321 1.77383 12.2988 1.74679 12.2742 1.72147C12.2493 1.69616 12.2221 1.67265 12.1928 1.65116C12.1352 1.60865 12.0699 1.57456 11.9996 1.55027C11.9643 1.5379 11.9278 1.52825 11.8906 1.52145C11.8529 1.51433 11.8147 1.50986 11.7763 1.50809C11.7336 1.50614 11.6909 1.50755 11.6485 1.51231C11.6071 1.51718 11.5662 1.5253 11.5265 1.53656C11.4867 1.5477 11.4481 1.56206 11.4114 1.57945C11.374 1.59714 11.3386 1.61774 11.3056 1.64097L11.2991 1.64484C11.2674 1.66773 11.238 1.69289 11.2112 1.72006C11.1295 1.80338 11.0757 1.90438 11.0554 2.01219L11.0022 2.29763L11.0465 2.28357C11.1561 2.24978 11.2694 2.22541 11.3845 2.2108C11.6172 2.18201 11.8541 2.19251 12.0822 2.24174C12.1954 2.26635 12.3055 2.30062 12.4108 2.34403C12.6232 2.43166 12.8136 2.55457 12.971 2.70576C13.1284 2.85685 13.25 3.03312 13.3289 3.22462C13.368 3.31984 13.3961 3.41816 13.4127 3.51815C13.4182 3.55049 13.4224 3.58306 13.4253 3.61587H13.4278ZM10.5165 16.3104L10.239 16.0643L10.2297 16.0604C10.133 16.0191 10.0398 15.9722 9.95063 15.9198C9.85181 15.8621 9.75675 15.7996 9.66589 15.7328C9.57667 15.6677 9.48718 15.5973 9.39741 15.5219C9.31958 15.4553 9.23999 15.3829 9.15863 15.3046H8.39104C8.30968 15.3827 8.23077 15.4547 8.15429 15.5208C8.06372 15.5986 7.9749 15.6689 7.88785 15.7317C7.79623 15.799 7.70035 15.8618 7.60067 15.9198C7.51375 15.9704 7.42297 16.0159 7.32894 16.0559L7.02955 16.3065C7.10819 16.3231 7.18751 16.3388 7.26751 16.3536C7.40907 16.3799 7.55199 16.4025 7.69626 16.4215C7.87551 16.4449 8.05368 16.4627 8.23077 16.4749C8.40785 16.4871 8.58413 16.4934 8.75958 16.4939C8.93477 16.4939 9.11294 16.4884 9.29409 16.4773C9.47524 16.4663 9.65436 16.4493 9.83145 16.4264C9.97843 16.4076 10.1235 16.3854 10.2667 16.3596C10.3481 16.3448 10.4312 16.3285 10.5161 16.3107L10.5165 16.3104ZM8.76406 13.5733V14.3573H8.85843V13.5733H8.76406ZM7.6686 13.5505L6.92134 12.8826C6.89856 12.8625 6.8766 12.8443 6.85463 12.8281C6.83436 12.813 6.81317 12.7988 6.79117 12.7856C6.77421 12.7755 6.75655 12.7663 6.73829 12.7581C6.72527 12.7519 6.71166 12.7466 6.69761 12.7423L6.68989 12.7406C6.6803 12.7379 6.67052 12.7358 6.6606 12.7342C6.65315 12.7337 6.64567 12.7337 6.63822 12.7342C6.63336 12.7338 6.62845 12.7338 6.62358 12.7342C6.61913 12.7351 6.61477 12.7362 6.61056 12.7378L6.60527 12.7395C6.59758 12.7428 6.59024 12.7467 6.58331 12.7511C6.57416 12.7568 6.56559 12.7632 6.55768 12.7701C6.54632 12.7799 6.53572 12.7904 6.52595 12.8014C6.51444 12.8142 6.50372 12.8276 6.49382 12.8415C6.47523 12.8685 6.45891 12.8967 6.445 12.9258C6.42901 12.9593 6.41543 12.9936 6.40433 13.0285C6.39173 13.0687 6.38168 13.1096 6.37422 13.1508C6.36649 13.193 6.36039 13.239 6.35633 13.2886C6.33924 13.5054 6.33056 13.7046 6.33029 13.8862C6.33002 14.0678 6.33788 14.2374 6.35388 14.3949C6.3666 14.5295 6.38929 14.6632 6.42182 14.7953C6.4462 14.8967 6.48259 14.9956 6.53043 15.0906C6.54354 15.116 6.55834 15.1408 6.57477 15.1647C6.58675 15.1828 6.60035 15.2001 6.61544 15.2164C6.62387 15.2255 6.63342 15.2337 6.64392 15.241C6.64859 15.2444 6.6538 15.2473 6.65938 15.2494C6.66391 15.2504 6.66854 15.251 6.67321 15.2512C6.68429 15.2522 6.69548 15.2522 6.70656 15.2512C6.72798 15.2485 6.74908 15.2441 6.76961 15.2382C6.79656 15.2302 6.82292 15.2208 6.84853 15.2101C6.91285 15.1827 6.97448 15.1508 7.0328 15.1148C7.10556 15.0701 7.17536 15.0218 7.24189 14.9703C7.31321 14.9155 7.38629 14.8542 7.46114 14.7865C7.52812 14.726 7.59728 14.6595 7.6686 14.5868V13.5505ZM9.95389 14.6592C10.0184 14.7223 10.0799 14.7793 10.1382 14.8304C10.2065 14.8904 10.2728 14.9443 10.3371 14.9921C10.3985 15.0384 10.4629 15.0817 10.5299 15.1218C10.5842 15.1546 10.6413 15.1838 10.7007 15.209C10.7262 15.2198 10.7524 15.2292 10.7792 15.2371C10.7998 15.2432 10.8209 15.2477 10.8423 15.2505C10.8534 15.2514 10.8646 15.2514 10.8757 15.2505C10.8804 15.2504 10.885 15.2497 10.8895 15.2484C10.8951 15.2463 10.9004 15.2435 10.9049 15.24C10.9154 15.2329 10.925 15.2249 10.9334 15.2161C10.9486 15.1998 10.9622 15.1825 10.9741 15.1644C10.9904 15.1403 11.0052 15.1154 11.0184 15.0899C11.0663 14.995 11.1027 14.8962 11.127 14.7949C11.1595 14.6628 11.1822 14.5291 11.195 14.3945C11.211 14.2384 11.2188 14.0688 11.2186 13.8855C11.2183 13.7022 11.2096 13.503 11.1925 13.2879C11.1887 13.2385 11.1828 13.1925 11.1746 13.1501C11.1672 13.1089 11.1571 13.068 11.1445 13.0278C11.1334 12.993 11.1198 12.9588 11.1039 12.9255C11.0901 12.8963 11.0738 12.8681 11.055 12.8411C11.0455 12.8271 11.0349 12.8136 11.0233 12.8007C11.0135 12.7895 11.0027 12.7789 10.9912 12.769C10.9831 12.7622 10.9744 12.7558 10.9651 12.7501C10.9585 12.7455 10.9512 12.7416 10.9436 12.7385C10.9376 12.7364 10.9315 12.7346 10.9253 12.7332H10.911C10.9033 12.7326 10.8956 12.7326 10.8879 12.7332C10.8781 12.7347 10.8684 12.7368 10.859 12.7395L10.8492 12.742C10.8353 12.7465 10.8217 12.7518 10.8085 12.7578C10.7907 12.7661 10.7735 12.7752 10.7569 12.7852C10.7348 12.7984 10.7137 12.8126 10.6934 12.8277C10.6714 12.8439 10.6491 12.8629 10.6267 12.8822L9.95308 13.4826V14.6571L9.95389 14.6592ZM5.30521 11.2054C5.19696 11.2053 5.09117 11.1776 5.00118 11.1256C4.9112 11.0736 4.84104 10.9997 4.79958 10.9133C4.77201 10.856 4.75781 10.7946 4.75781 10.7326C4.75781 10.6706 4.77201 10.6092 4.79958 10.5519C4.82712 10.4945 4.86748 10.4423 4.91836 10.3983L4.93097 10.3881C4.98096 10.3475 5.03932 10.3153 5.10304 10.2932C5.16758 10.2703 5.23664 10.2584 5.30643 10.2581H12.2847C12.3748 10.258 12.4635 10.2772 12.5429 10.3139C12.6223 10.3505 12.6901 10.4036 12.7401 10.4683C12.7901 10.533 12.821 10.6073 12.8298 10.6848C12.8386 10.7622 12.8252 10.8404 12.7908 10.9123C12.7631 10.9697 12.7228 11.0218 12.672 11.0659C12.6212 11.1099 12.5608 11.1447 12.4943 11.1685C12.4279 11.1923 12.3567 11.2045 12.2847 11.2044H5.30521V11.2054ZM11.88 12.1598L15.0297 9.35884C14.8106 9.29861 14.5904 9.24131 14.3691 9.18694C14.0879 9.1171 13.8117 9.05418 13.5405 8.99817C13.5201 8.99465 13.4998 8.99043 13.4799 8.98551C13.2518 8.93864 13.0222 8.8947 12.7912 8.85369C12.5601 8.81267 12.3296 8.77565 12.0997 8.7426H12.0952C10.5154 8.51153 8.90893 8.44837 7.31145 8.55453C5.71367 8.6646 4.13607 8.93451 2.61029 9.35884L2.51429 9.3859L5.77097 12.1159C5.79538 12.0941 5.81815 12.075 5.83931 12.0586C5.93174 11.9873 6.03576 11.9281 6.14805 11.8828L6.17775 11.8712C6.24339 11.8468 6.31147 11.8276 6.38114 11.8139C6.45063 11.8002 6.52144 11.7921 6.59266 11.7897C6.66498 11.7872 6.73741 11.7904 6.80907 11.7992C6.88197 11.8082 6.95382 11.8227 7.02385 11.8424L7.03809 11.847C7.09692 11.8644 7.1544 11.885 7.21016 11.9088C7.26879 11.9341 7.32557 11.9623 7.38019 11.9936C7.43777 12.026 7.49318 12.0612 7.54616 12.099C7.60089 12.1387 7.65316 12.1808 7.70277 12.2252L8.1787 12.6495H8.18114C8.21209 12.6419 8.24363 12.6361 8.27551 12.6323C8.30705 12.6284 8.33885 12.6264 8.3707 12.6263H9.24853C9.27477 12.6264 9.30099 12.6278 9.32704 12.6305C9.34453 12.6305 9.36243 12.6348 9.38074 12.6379L9.84284 12.2263C9.89247 12.1819 9.94475 12.1398 9.99945 12.1001C10.0524 12.0622 10.1078 12.027 10.1654 11.9946C10.2208 11.9629 10.2784 11.9343 10.3379 11.9088C10.3956 11.8843 10.4551 11.8632 10.5161 11.8456H10.5218C10.5918 11.8257 10.6636 11.8111 10.7365 11.802C10.8081 11.7932 10.8804 11.79 10.9525 11.7925C11.0247 11.7949 11.0965 11.8032 11.1669 11.8171C11.2376 11.8313 11.3066 11.8511 11.3731 11.8762H11.3764L11.4049 11.8878C11.4637 11.9118 11.5203 11.9397 11.5741 11.9714C11.6285 12.0032 11.68 12.0384 11.7283 12.0769C11.7455 12.0913 11.7618 12.1066 11.7771 12.1226C11.7983 12.1462 11.8223 12.1679 11.8487 12.1873C11.8568 12.1819 11.8639 12.1755 11.8698 12.1683L11.8784 12.1602L11.88 12.1598ZM5.90277 15.937L5.89951 15.9346C5.86527 15.9075 5.83269 15.8788 5.80188 15.8488C5.74775 15.7957 5.69865 15.7389 5.65504 15.679C5.60915 15.6154 5.56838 15.5492 5.533 15.4808C5.46305 15.3432 5.40857 15.2002 5.37029 15.0536C5.32434 14.8809 5.29173 14.7057 5.27266 14.5292C5.25124 14.344 5.23998 14.1415 5.2389 13.9217C5.23782 13.7019 5.2469 13.4709 5.26615 13.2288C5.26615 13.2049 5.27063 13.1779 5.27429 13.1487C5.27795 13.1195 5.28121 13.0939 5.28527 13.0685L5.29219 13.0278L1.17435 9.57644C0.981928 9.51486 0.803085 9.42534 0.645539 9.31173C0.566335 9.25434 0.493105 9.19105 0.426691 9.12261C0.360241 9.05384 0.300639 8.98035 0.248521 8.9029C0.0392483 8.5911 -0.0374385 8.22592 0.0317074 7.87045C0.0559595 7.74628 0.0977639 7.62515 0.156182 7.50978C0.179369 7.46408 0.203369 7.4212 0.228996 7.38112C0.243097 7.35886 0.258284 7.33648 0.274555 7.31398C0.258555 7.29172 0.243097 7.26922 0.228182 7.24649C0.200521 7.2036 0.175708 7.16071 0.153741 7.11818C0.124626 7.06094 0.0994965 7.00224 0.0784871 6.94241C0.00686243 6.74098 -0.0160869 6.52898 0.0110639 6.31957C0.0382146 6.11015 0.114886 5.90779 0.236318 5.72506C0.284971 5.65084 0.34076 5.58028 0.403098 5.51414C0.526769 5.38253 0.674972 5.26966 0.841607 5.18019C1.04405 5.07129 1.26961 4.99838 1.50507 4.96575C1.55917 4.95837 1.61205 4.95274 1.66412 4.94958C1.693 4.94958 1.72229 4.94677 1.75239 4.94607C1.76622 4.92392 1.78086 4.90177 1.79591 4.87998C1.82439 4.8392 1.85368 4.80053 1.88418 4.76432C1.92537 4.71539 1.96964 4.66844 2.01679 4.62371C2.06389 4.57967 2.11387 4.538 2.16649 4.49892C2.30257 4.39756 2.45563 4.31459 2.62046 4.25285C2.6867 4.2279 2.75462 4.20642 2.82385 4.18852C2.86886 4.17703 2.91456 4.16707 2.96093 4.15864C2.96907 4.13157 2.97842 4.1052 2.98819 4.07884C3.00486 4.0349 3.02439 3.9899 3.04717 3.94455V3.94033C3.06873 3.8971 3.09313 3.85421 3.11998 3.81167C3.13463 3.78918 3.14968 3.76668 3.16554 3.74453C3.14927 3.72239 3.13422 3.69989 3.11958 3.67704C3.09246 3.63415 3.06764 3.59126 3.04513 3.54838C2.86035 3.18577 2.84447 2.77556 3.0008 2.40309C3.0698 2.23873 3.17047 2.08565 3.29856 1.95032C3.42215 1.81854 3.57036 1.70555 3.73707 1.61601C3.82072 1.57112 3.90847 1.53221 3.99944 1.49965C4.06367 1.47666 4.12941 1.45694 4.19632 1.4406C4.2632 1.42432 4.33111 1.41141 4.39971 1.40193C4.45341 1.39455 4.50629 1.38892 4.55836 1.38576C4.58737 1.38388 4.61693 1.38271 4.64704 1.38224C4.66087 1.35881 4.67537 1.33678 4.69056 1.31615C4.71768 1.27561 4.7471 1.23706 4.77883 1.2005C4.82001 1.15156 4.86428 1.10461 4.91144 1.05989C5.0926 0.890951 5.3149 0.758879 5.56229 0.673204C5.65317 0.641717 5.74692 0.616791 5.84256 0.598679C6.04528 0.560794 6.25403 0.553421 6.45965 0.576884C6.56767 0.589133 6.67415 0.609962 6.77775 0.639105C6.986 0.697906 7.18009 0.789038 7.3505 0.908026L7.35863 0.914354C7.41602 0.954549 7.47036 0.997876 7.52134 1.04407C7.57205 1.09016 7.61945 1.13888 7.66331 1.18995C7.69829 1.23073 7.73002 1.27163 7.7585 1.31264C7.77355 1.33443 7.7886 1.35693 7.80284 1.38084C7.83294 1.37873 7.86345 1.37697 7.89355 1.37591C7.95131 1.37591 8.00826 1.37591 8.06399 1.37591C8.13935 1.37974 8.21435 1.38772 8.28853 1.39982C8.36271 1.41187 8.43594 1.42796 8.50779 1.44798C8.62495 1.48043 8.73784 1.52344 8.8446 1.57629C8.8804 1.59386 8.91619 1.61144 8.95118 1.63359L8.98413 1.65292L9.01667 1.63359C9.05165 1.61355 9.08704 1.59422 9.12284 1.57664C9.17558 1.5507 9.22989 1.52723 9.28555 1.50633C9.34216 1.48483 9.4 1.46582 9.45884 1.44938C9.53068 1.42937 9.60391 1.41328 9.67809 1.40122C9.75227 1.38913 9.82727 1.38115 9.90263 1.37732C9.9585 1.37451 10.0153 1.37451 10.0731 1.37732C10.1032 1.37732 10.1337 1.37978 10.1638 1.38224C10.1784 1.35881 10.1932 1.33607 10.2081 1.31404C10.2366 1.27303 10.2683 1.23214 10.3033 1.19136C10.3484 1.13894 10.3973 1.08904 10.4498 1.04196C10.5017 0.994696 10.5571 0.950426 10.6157 0.909433C10.7863 0.790208 10.9805 0.698733 11.1889 0.639457C11.2923 0.610326 11.3987 0.589498 11.5066 0.577236C11.7906 0.545007 12.0793 0.572149 12.3487 0.65638C12.618 0.74061 12.86 0.879471 13.0544 1.06129C13.1016 1.10587 13.1458 1.15282 13.1866 1.20191C13.2187 1.23987 13.2484 1.27854 13.2752 1.31756C13.2904 1.33936 13.3049 1.36138 13.3188 1.38365C13.3489 1.38365 13.3786 1.38365 13.4075 1.38716C13.4595 1.39033 13.5128 1.39595 13.5661 1.40333C13.6347 1.41284 13.7026 1.42575 13.7695 1.442C13.8364 1.45836 13.9021 1.47808 13.9664 1.50106C14.0575 1.53358 14.1454 1.5725 14.2291 1.61742C14.3958 1.70672 14.544 1.81947 14.6677 1.95102C14.7298 2.01728 14.7856 2.08782 14.8344 2.16194C14.9902 2.39525 15.072 2.65996 15.0716 2.92933C15.072 3.01806 15.0633 3.10664 15.0456 3.19403C15.0329 3.2558 15.0159 3.31685 14.9947 3.37683C14.9739 3.43673 14.9488 3.49544 14.9195 3.5526C14.8975 3.59513 14.8727 3.63802 14.845 3.6809C14.8304 3.70434 14.8149 3.72684 14.7986 3.7484C14.8145 3.77055 14.8296 3.79269 14.8438 3.81554C14.8698 3.85667 14.8942 3.89956 14.9166 3.9442L14.9199 3.95123C14.941 3.99412 14.9605 4.03736 14.9768 4.08165C14.9854 4.10485 14.9935 4.12805 15.0012 4.15196C15.05 4.16004 15.0988 4.16988 15.1468 4.18148C15.467 4.25861 15.756 4.41139 15.9811 4.62266C16.0283 4.66728 16.0725 4.71423 16.1134 4.76327C16.1451 4.80159 16.1748 4.8399 16.2016 4.87857C16.2171 4.90037 16.2313 4.92251 16.2452 4.94501C16.2753 4.94501 16.3049 4.94501 16.3338 4.94853C16.3859 4.95169 16.4392 4.95731 16.4925 4.9647C16.7277 4.99743 16.9531 5.0702 17.1555 5.17878C17.3223 5.26809 17.4706 5.38084 17.5944 5.51238C17.7226 5.64713 17.8236 5.79961 17.893 5.9634C17.9639 6.13147 18.0001 6.30899 18 6.48788C17.9999 6.70327 17.9483 6.91631 17.8483 7.11361C17.8267 7.15614 17.8019 7.19903 17.7738 7.24192C17.7592 7.26535 17.7437 7.28785 17.7275 7.30941C17.7437 7.33285 17.7589 7.35523 17.773 7.37655C17.7986 7.41663 17.8226 7.45987 17.8458 7.50556C17.8748 7.56282 17.8998 7.62151 17.9207 7.68133C17.9415 7.74144 17.9579 7.8026 17.9699 7.86448C18.0131 8.0854 18.0001 8.3118 17.9319 8.52796C17.8637 8.74412 17.7419 8.94487 17.5749 9.11628C17.5086 9.1848 17.4354 9.24809 17.3561 9.3054C17.2768 9.36268 17.1918 9.41385 17.1022 9.45832C16.886 9.5664 16.646 9.63417 16.3977 9.65729C16.359 9.6608 16.3192 9.66326 16.2781 9.66502H16.2098L16.0064 9.84747L16.0031 9.85098C15.96 9.90141 15.9134 9.94955 15.8636 9.99511C15.8139 10.0406 15.7611 10.0835 15.7054 10.1234L15.6814 10.1403C15.0065 10.7463 14.3178 11.3534 13.6304 11.9602C13.1797 12.3616 12.7294 12.7615 12.2795 13.1599L12.286 13.2274C12.3052 13.4723 12.3143 13.7033 12.3132 13.9203C12.3121 14.1373 12.3009 14.34 12.2795 14.5285C12.2604 14.705 12.2278 14.8802 12.1818 15.0529C12.1435 15.1995 12.089 15.3425 12.0191 15.4801C11.9829 15.5496 11.941 15.617 11.8938 15.6815C11.8492 15.742 11.799 15.7994 11.7437 15.853C11.7116 15.8842 11.6775 15.9139 11.6416 15.942L11.6335 15.9483C11.7327 16.0365 11.8422 16.1272 11.9365 16.2186C11.9484 16.2298 11.9595 16.2415 11.9699 16.2538C11.9788 16.2636 11.9882 16.2759 11.9984 16.2889L12.0163 16.3149H12.0232L12.05 16.3796C12.0741 16.4377 12.0846 16.4994 12.0809 16.561C12.0758 16.6543 12.0388 16.7442 11.9745 16.8193C11.9102 16.8944 11.8215 16.9513 11.7197 16.9828C11.4691 17.059 11.2218 17.1258 10.9778 17.1832C10.7337 17.2406 10.4876 17.2882 10.2394 17.3259C9.99348 17.3637 9.74724 17.3919 9.50074 17.4107C9.25423 17.4294 9.00704 17.4383 8.75918 17.4374C8.51158 17.4374 8.26426 17.4272 8.01721 17.4068C7.77016 17.3864 7.52311 17.3569 7.27606 17.3182C7.03199 17.2793 6.78629 17.2307 6.53897 17.1723C6.29165 17.114 6.0469 17.0464 5.80473 16.9695C5.78546 16.9637 5.76658 16.9571 5.74819 16.9495C5.72875 16.9415 5.70987 16.9326 5.69165 16.9227C5.67388 16.9129 5.65677 16.9022 5.64039 16.8907C5.62374 16.879 5.60785 16.8664 5.5928 16.8531C5.54267 16.8087 5.50316 16.7562 5.47656 16.6986C5.44995 16.6409 5.43676 16.5793 5.43774 16.5173C5.43873 16.4552 5.45386 16.394 5.48228 16.337C5.5107 16.28 5.55185 16.2284 5.60337 16.1852L5.90073 15.936L5.90277 15.937ZM1.52012 8.68003C1.66005 8.63714 1.80839 8.59308 1.96513 8.54785C2.05924 8.52067 2.15293 8.49419 2.24622 8.46841L2.22873 8.45505C2.05389 8.31896 1.91191 8.15433 1.81096 7.97064C1.76046 7.87952 1.72066 7.78424 1.69218 7.68625C1.66874 7.60546 1.65282 7.52317 1.64459 7.44018C1.5499 7.52381 1.4479 7.60102 1.33951 7.67114C1.27817 7.71642 1.22654 7.77068 1.18696 7.83143C1.16723 7.86163 1.15063 7.89327 1.13734 7.926C1.12381 7.9588 1.1136 7.99256 1.10683 8.02689C1.09994 8.06172 1.09654 8.097 1.09666 8.13234C1.09687 8.20175 1.11148 8.27057 1.13978 8.33553C1.15382 8.36827 1.1711 8.39991 1.19144 8.43009C1.23154 8.49042 1.28374 8.54411 1.34561 8.58863C1.37645 8.61103 1.40953 8.63103 1.44445 8.64839C1.46915 8.66073 1.49469 8.67177 1.52093 8.68144L1.52012 8.68003ZM1.64215 7.1811C1.64513 7.14829 1.64934 7.11572 1.65476 7.08337C1.67143 6.9835 1.6995 6.8853 1.73856 6.7902C1.81736 6.59875 1.93903 6.4226 2.09663 6.27181C2.25423 6.12102 2.44467 5.99854 2.65707 5.91137L2.66602 5.90786C2.77049 5.86564 2.87948 5.83232 2.99144 5.80837C3.17898 5.76818 3.37275 5.75418 3.56541 5.76689L3.53856 5.74756C3.45936 5.69016 3.38613 5.62688 3.31971 5.55843C3.25309 5.48991 3.19348 5.41651 3.14154 5.33908C3.10964 5.29159 3.08071 5.24266 3.0549 5.19249C3.04513 5.17351 3.03578 5.15417 3.02683 5.13519C2.97293 5.15776 2.92262 5.18623 2.87713 5.21991C2.78978 5.2849 2.72206 5.36731 2.67985 5.46C2.66613 5.49034 2.65538 5.52162 2.64771 5.55351L2.58181 5.82911C2.57274 5.86782 2.55108 5.9035 2.51938 5.93195C2.48768 5.9604 2.44725 5.98046 2.40283 5.98976L2.39632 6.01542L1.97042 5.91524C1.93369 5.90632 1.89612 5.90021 1.85815 5.89696C1.81998 5.89423 1.78161 5.89423 1.74344 5.89696C1.70508 5.89909 1.66699 5.90391 1.62954 5.91137C1.59207 5.91895 1.55535 5.92906 1.51971 5.9416C1.48498 5.95406 1.45151 5.969 1.41964 5.98625C1.38747 6.00364 1.357 6.02327 1.32852 6.04495C1.30007 6.0664 1.2738 6.08992 1.25001 6.11526C1.14851 6.22232 1.09316 6.35651 1.0934 6.49491C1.09323 6.53025 1.09664 6.56554 1.10357 6.60037C1.11715 6.66971 1.14469 6.73646 1.18493 6.79758C1.2244 6.85768 1.27591 6.91125 1.33706 6.95577L1.61042 7.15579C1.62249 7.16456 1.63352 7.17433 1.64337 7.18497L1.64215 7.1811ZM4.55063 6.10225C4.57775 6.1203 4.60324 6.13905 4.6271 6.1585C4.71441 6.22654 4.79383 6.30177 4.86426 6.38312C4.93427 6.46427 4.9949 6.55117 5.04527 6.64256C5.13728 6.80949 5.19352 6.98945 5.21124 7.17372C5.22112 7.163 5.23215 7.15311 5.24419 7.14419L5.51632 6.94276C5.52975 6.93292 5.54276 6.92237 5.55497 6.91218C5.56717 6.90199 5.57937 6.89038 5.59036 6.87949L5.61721 6.85066L5.62982 6.8359L5.63958 6.80074C5.40895 6.71772 5.20108 6.59377 5.02941 6.43691C4.97962 6.39131 4.93302 6.34318 4.88988 6.29278C4.85761 6.25505 4.82683 6.21533 4.79754 6.17361C4.78168 6.15182 4.76704 6.12897 4.75239 6.10577C4.7227 6.10577 4.69259 6.10577 4.66168 6.10577C4.62344 6.10577 4.58588 6.10424 4.549 6.1012L4.55063 6.10225ZM5.21205 7.43209C5.20907 7.4649 5.20487 7.49748 5.19944 7.52982C5.18275 7.62981 5.15469 7.72813 5.11565 7.82335L5.10426 7.85077C5.20921 7.83436 5.31253 7.8189 5.41422 7.80437L5.63714 7.77343C5.62656 7.76007 5.61517 7.74742 5.60297 7.73511C5.57742 7.70856 5.54924 7.68398 5.51876 7.66164C5.40981 7.59237 5.30739 7.51573 5.21246 7.43245L5.21205 7.43209ZM6.92053 7.63668C7.13748 7.61934 7.35321 7.60505 7.56772 7.5938C7.67782 7.58794 7.78873 7.5829 7.90046 7.57868C7.63836 7.39816 7.43984 7.15794 7.32731 6.88511C7.30415 6.82873 7.28486 6.77121 7.26955 6.71286L7.26426 6.69247C7.23945 6.70583 7.21382 6.71849 7.1886 6.73044C7.10939 6.76792 7.02698 6.80012 6.94209 6.82676C6.90833 6.8373 6.87375 6.84715 6.83917 6.85629L6.7985 6.86648L6.78629 6.9055C6.77694 6.93433 6.76595 6.96385 6.75375 6.99409C6.74155 7.02432 6.72894 7.05314 6.71592 7.08021C6.7029 7.10728 6.69355 7.12591 6.68216 7.147C6.68059 7.17042 6.68059 7.19389 6.68216 7.21731C6.6859 7.27754 6.70073 7.33688 6.72609 7.39307C6.73931 7.42305 6.75522 7.45208 6.77368 7.4799C6.79348 7.51019 6.81634 7.53889 6.84202 7.56568C6.86676 7.59108 6.89397 7.61461 6.92338 7.63598L6.92053 7.63668ZM10.1036 7.5952C10.2121 7.60106 10.3205 7.60763 10.429 7.61489C10.6416 7.62919 10.8559 7.64653 11.0717 7.66692L11.0965 7.64934C11.1581 7.60458 11.2103 7.55094 11.2507 7.4908C11.2865 7.43767 11.3128 7.3802 11.3288 7.32031C11.3355 7.29365 11.3401 7.26664 11.3426 7.23946C11.3426 7.21801 11.3455 7.19657 11.3447 7.17583C11.3308 7.15228 11.3178 7.12767 11.304 7.10271C11.2902 7.07775 11.2747 7.04225 11.2609 7.00991L11.2568 7.00182C11.2446 6.97229 11.2332 6.94136 11.2226 6.90937L11.2117 6.87421L11.1551 6.86121C11.1131 6.85113 11.0715 6.83941 11.0302 6.82605C10.9559 6.80261 10.8835 6.77489 10.8134 6.74309L10.7565 6.71602C10.7483 6.74649 10.7392 6.77649 10.7292 6.80602C10.7029 6.8834 10.6696 6.95887 10.6296 7.0317C10.5791 7.1231 10.5183 7.21 10.4481 7.29113C10.3777 7.37248 10.2983 7.44771 10.211 7.51576C10.176 7.54294 10.1397 7.56907 10.102 7.59415L10.1036 7.5952ZM12.3315 7.81913L12.48 7.84128C12.5885 7.85792 12.7024 7.87631 12.8217 7.89647L12.9331 7.91545C12.9171 7.88334 12.9024 7.85088 12.8888 7.81808C12.8498 7.72296 12.8218 7.62476 12.805 7.5249C12.7996 7.49256 12.7954 7.45998 12.7924 7.42717C12.7825 7.43778 12.7715 7.44755 12.7595 7.45635L12.4861 7.65637C12.4249 7.70086 12.3734 7.75443 12.334 7.81456L12.3311 7.81878L12.3315 7.81913ZM12.794 7.1688C12.8323 6.77842 13.0412 6.4153 13.3782 6.15322C13.4018 6.13494 13.4258 6.11807 13.4502 6.09979C13.4042 6.10366 13.3566 6.10577 13.3082 6.10647C13.2773 6.10647 13.2472 6.10647 13.2179 6.10647C13.2037 6.12967 13.1886 6.15217 13.1736 6.17396C13.1459 6.21369 13.1146 6.25376 13.0808 6.29313C12.8983 6.50702 12.6549 6.67655 12.3742 6.78528L12.3933 6.85207L12.423 6.883C12.4316 6.89179 12.4418 6.90093 12.4536 6.91077C12.4654 6.92062 12.4759 6.92905 12.4881 6.93819L12.7729 7.14911C12.7791 7.15417 12.7849 7.15957 12.7904 7.16528L12.7952 7.17055L12.794 7.1688ZM14.4089 5.76267C14.6124 5.74665 14.8176 5.76031 15.0159 5.8031C15.2435 5.85248 15.4575 5.94042 15.6456 6.06183C15.9295 6.24522 16.1445 6.49702 16.2635 6.78563C16.3025 6.88085 16.3306 6.97917 16.3473 7.07916C16.3525 7.11115 16.357 7.14384 16.3599 7.17688C16.3677 7.16845 16.3762 7.16057 16.3855 7.15333C16.4762 7.08302 16.573 7.01588 16.6662 6.94768C16.6968 6.92539 16.7251 6.9008 16.7508 6.87421C16.7763 6.84777 16.799 6.81942 16.8187 6.78949C16.8591 6.72844 16.8867 6.66167 16.9001 6.59229C16.9071 6.55746 16.9105 6.52217 16.9102 6.48683C16.9105 6.45146 16.907 6.41616 16.8997 6.38137C16.8929 6.34727 16.8827 6.31375 16.8692 6.28118C16.8552 6.24833 16.8381 6.21658 16.8179 6.18627C16.7991 6.15772 16.7776 6.13056 16.7536 6.10506C16.6814 6.02882 16.5887 5.96907 16.4835 5.93106C16.4479 5.91847 16.4112 5.90836 16.3737 5.90082C16.2999 5.88606 16.2238 5.88155 16.1483 5.88747C16.1139 5.89028 16.0798 5.89533 16.0462 5.90258C15.9075 5.94195 15.7497 5.97289 15.6065 6.00804L15.6 5.98238C15.5556 5.97311 15.5151 5.95307 15.4834 5.92461C15.4517 5.89615 15.43 5.86046 15.421 5.82173L15.3551 5.54613C15.3474 5.51436 15.3367 5.4832 15.323 5.45297C15.309 5.42218 15.2922 5.39243 15.2725 5.36404C15.253 5.33547 15.2308 5.30832 15.2062 5.28283C15.1814 5.25752 15.1542 5.23401 15.1249 5.21253C15.0993 5.19349 15.0721 5.1761 15.0435 5.1605C15.0152 5.14502 14.9855 5.13139 14.9548 5.11972L14.9491 5.11761C14.9394 5.13976 14.9284 5.16191 14.9174 5.18405C14.8486 5.31824 14.7584 5.44343 14.6494 5.55597C14.5829 5.62442 14.5097 5.6877 14.4305 5.7451L14.4077 5.76127L14.4089 5.76267ZM16.359 7.43526C16.3509 7.51825 16.335 7.60055 16.3115 7.68133C16.283 7.77939 16.2433 7.87476 16.1931 7.96607C16.0904 8.14959 15.947 8.31384 15.7708 8.44943C15.7307 8.48059 15.6885 8.51059 15.6443 8.53942C15.8217 8.59027 15.9999 8.64347 16.1788 8.69901C16.1967 8.70358 16.2134 8.7085 16.2293 8.71413L16.2496 8.72186C16.2787 8.7202 16.3076 8.71703 16.3363 8.71237C16.3741 8.70621 16.4112 8.69739 16.4473 8.68601C16.5603 8.65015 16.6607 8.58959 16.7386 8.51024C16.7646 8.48358 16.7879 8.45499 16.8081 8.42482C16.849 8.36476 16.8774 8.29896 16.8919 8.23042C16.899 8.19619 16.9027 8.1615 16.9029 8.12672C16.903 8.09138 16.8996 8.0561 16.8927 8.02126C16.886 7.98693 16.8758 7.95318 16.8622 7.92037C16.8488 7.88769 16.8322 7.85605 16.8126 7.82581C16.7926 7.79552 16.7698 7.76671 16.7443 7.73968C16.7187 7.71284 16.6903 7.68802 16.6597 7.66551L16.3908 7.4669C16.3776 7.45701 16.3653 7.4462 16.3542 7.43456L16.359 7.43526ZM8.98453 5.82314L8.96826 5.83263C8.94019 5.8488 8.9109 5.86497 8.87999 5.88079C8.83416 5.90422 8.78629 5.92637 8.7364 5.94723C8.68392 5.96902 8.63348 5.9873 8.58548 6.00277C8.55212 6.01296 8.51877 6.02281 8.48419 6.03195L8.4244 6.04671C8.41504 6.05936 8.4065 6.07167 8.39918 6.08397C8.38518 6.10673 8.37281 6.13021 8.36216 6.15428C8.34931 6.18343 8.33911 6.2134 8.33165 6.24392C8.31462 6.31327 8.312 6.38469 8.32392 6.45484C8.33715 6.53257 8.36783 6.60733 8.41423 6.6749C8.43774 6.70872 8.46499 6.74051 8.49558 6.76981C8.52599 6.79896 8.55964 6.82545 8.59606 6.8489C8.63265 6.87233 8.67174 6.8927 8.7128 6.90972C8.7538 6.92649 8.79657 6.9398 8.84053 6.94944C8.88477 6.95912 8.93001 6.96501 8.97558 6.96702C9.02125 6.96897 9.06702 6.96708 9.11226 6.96139C9.15716 6.95563 9.2013 6.9461 9.24406 6.93292C9.28651 6.91987 9.32738 6.90327 9.36609 6.88335C9.44377 6.84306 9.51184 6.79033 9.56663 6.72798C9.59332 6.69731 9.61648 6.66446 9.63579 6.6299L9.63823 6.62498C9.65773 6.58971 9.67313 6.55285 9.68419 6.51495C9.69537 6.47683 9.70218 6.43786 9.70453 6.39859C9.70657 6.36339 9.70507 6.32811 9.70006 6.29313C9.69482 6.25796 9.68598 6.22325 9.67362 6.18943C9.66345 6.1611 9.65081 6.13349 9.63579 6.10682C9.62711 6.09159 9.61775 6.07671 9.60772 6.06218C9.57735 6.05608 9.54697 6.04929 9.5166 6.04179C9.47348 6.03124 9.42833 6.01824 9.38155 6.00312C9.33477 5.988 9.28067 5.96797 9.23104 5.94793C9.18141 5.92789 9.13301 5.90504 9.08704 5.88149C9.05857 5.86673 9.02887 5.85055 8.99918 5.83298L8.98291 5.82349L8.98453 5.82314ZM11.4114 3.17646C11.3689 3.18945 11.328 3.20605 11.2893 3.22602C11.2104 3.26651 11.1413 3.31988 11.086 3.38316C11.0588 3.41478 11.0353 3.44856 11.0156 3.48405C10.9962 3.51947 10.9808 3.55644 10.9696 3.59443C10.9584 3.63253 10.9516 3.67151 10.9493 3.71078C10.947 3.75025 10.9492 3.7898 10.9558 3.8289C10.969 3.90653 10.9997 3.98118 11.0461 4.04861C11.0696 4.08257 11.0968 4.11448 11.1274 4.14387C11.1579 4.17302 11.1915 4.19952 11.2279 4.22297C11.2647 4.2464 11.3039 4.26676 11.3451 4.28378C11.4273 4.31775 11.5165 4.33734 11.6075 4.34143C11.6531 4.34338 11.6989 4.3415 11.7441 4.33581C11.8341 4.32452 11.9207 4.298 11.9988 4.25777C12.0381 4.23746 12.075 4.21391 12.109 4.18746C12.1422 4.16171 12.1725 4.13322 12.1993 4.10239C12.2251 4.07261 12.2478 4.04084 12.2668 4.00748L12.2709 3.99974C12.2904 3.96421 12.3058 3.92713 12.3169 3.88901C12.3281 3.8509 12.3349 3.81192 12.3372 3.77265C12.3395 3.73319 12.3373 3.69364 12.3307 3.65454C12.3242 3.61575 12.3133 3.5776 12.2982 3.54064C12.2829 3.50395 12.2636 3.46862 12.2404 3.43518C12.1934 3.36681 12.1314 3.30709 12.0578 3.25942C12.0217 3.23598 11.983 3.21572 11.9422 3.19896C11.7757 3.1311 11.5848 3.12302 11.4114 3.17646ZM6.23063 2.19709C6.34761 2.19184 6.46491 2.19643 6.58087 2.2108C6.69657 2.22522 6.81034 2.24948 6.92053 2.28322L6.96446 2.29728L6.91239 2.01394C6.8922 1.90488 6.83743 1.8028 6.75416 1.71901C6.73138 1.69599 6.70663 1.67449 6.68012 1.65468L6.66182 1.64202C6.62891 1.61893 6.59365 1.59845 6.55646 1.58086C6.5197 1.56353 6.48116 1.54917 6.44134 1.53797C6.4016 1.52671 6.36075 1.51859 6.31931 1.51371C6.23796 1.50449 6.15536 1.50758 6.07524 1.52285C6.0382 1.52976 6.00187 1.53928 5.96663 1.55133C5.93174 1.56357 5.89801 1.57814 5.86575 1.59492C5.83308 1.61177 5.80218 1.63106 5.77341 1.65257C5.74412 1.67405 5.71691 1.69756 5.69205 1.72288C5.66736 1.74829 5.64518 1.77545 5.62575 1.80408C5.60632 1.83239 5.58959 1.86201 5.57571 1.89267C5.56205 1.92314 5.5513 1.95453 5.54358 1.98652L5.47768 2.26177C5.46811 2.30239 5.44473 2.33962 5.41052 2.36868C5.37631 2.39774 5.33284 2.41731 5.28568 2.42488L5.27714 2.44457C5.13721 2.41153 4.98914 2.38165 4.85246 2.34438C4.81893 2.33705 4.7848 2.332 4.75036 2.32927C4.71326 2.32679 4.676 2.32679 4.6389 2.32927C4.60041 2.33139 4.56218 2.33621 4.52459 2.34368C4.45036 2.35854 4.37945 2.38384 4.3147 2.41856C4.28253 2.43596 4.25206 2.45559 4.22358 2.47726C4.16632 2.52044 4.11791 2.57167 4.08039 2.62877C4.0602 2.65909 4.04305 2.69084 4.02914 2.72369C4.0156 2.75613 4.0054 2.78953 3.99863 2.82352C3.99163 2.85776 3.98809 2.89245 3.98805 2.92722C3.98788 2.96256 3.99128 2.99785 3.99822 3.03268C4.00515 3.06748 4.01549 3.1017 4.02914 3.13498C4.04286 3.16772 4.05988 3.19936 4.07998 3.22954C4.09956 3.25964 4.1223 3.28811 4.14792 3.31461C4.17373 3.34085 4.20203 3.36519 4.23253 3.38738L4.50629 3.5874C4.51836 3.59616 4.52939 3.60593 4.53924 3.61657C4.54222 3.58377 4.54642 3.55119 4.55185 3.51885C4.56849 3.41897 4.59656 3.32076 4.63565 3.22567C4.73344 2.98537 4.89855 2.76973 5.11624 2.59798C5.33393 2.42623 5.59744 2.30372 5.88324 2.24138C5.99708 2.21679 6.11343 2.20184 6.23063 2.19674V2.19709ZM7.36961 2.48816C7.51708 2.5803 7.64751 2.69124 7.75646 2.81719C7.82646 2.89835 7.88709 2.98524 7.93748 3.07662C7.9879 3.16778 8.02769 3.26304 8.05626 3.36101C8.07976 3.4418 8.09567 3.52409 8.10385 3.60708L8.10874 3.60216C8.11377 3.59682 8.11921 3.59177 8.12501 3.58705L8.40975 3.37613C8.44107 3.354 8.47006 3.32954 8.4964 3.30301C8.57336 3.22203 8.62454 3.12509 8.64487 3.02178C8.65176 2.98695 8.65516 2.95166 8.65504 2.91632C8.65489 2.88166 8.65122 2.84708 8.64406 2.81297C8.6369 2.77907 8.62628 2.74578 8.61233 2.71349C8.59826 2.68064 8.58098 2.64889 8.56067 2.61858C8.53931 2.58684 8.51467 2.55683 8.48704 2.52894C8.45973 2.50126 8.4295 2.47584 8.39674 2.45301C8.3306 2.40645 8.2552 2.37071 8.17423 2.34755C8.13341 2.33609 8.09147 2.32785 8.04894 2.32294C7.96453 2.31329 7.8788 2.31698 7.79592 2.33384C7.75502 2.34236 7.71513 2.35413 7.67673 2.36899L7.37328 2.4864L7.36961 2.48816ZM8.10589 3.86651C8.1029 3.89932 8.0987 3.9319 8.09328 3.96424C8.05972 4.16509 7.98036 4.35818 7.85978 4.53231C7.7392 4.70698 7.58013 4.85949 7.39158 4.98122L7.34765 5.00864L7.37409 5.01321L7.3924 5.01848L7.73084 5.12113C7.76879 5.13274 7.80786 5.14145 7.84758 5.14714C7.88669 5.15282 7.9263 5.15553 7.96595 5.15523H7.98873C8.02564 5.15383 8.06236 5.14995 8.09857 5.14363C8.13498 5.1373 8.17075 5.12849 8.20555 5.11726C8.2432 5.10517 8.27955 5.09023 8.31416 5.07262C8.34895 5.05498 8.38189 5.03475 8.4126 5.01215C8.44293 4.99005 8.47097 4.96571 8.4964 4.93939C8.5218 4.91243 8.54466 4.88374 8.56474 4.85361C8.60498 4.79337 8.63252 4.72743 8.64609 4.65886C8.65296 4.62462 8.65637 4.58992 8.65626 4.55516C8.65665 4.44952 8.62495 4.34564 8.56433 4.2539C8.52496 4.19374 8.47344 4.14016 8.41219 4.09571C8.31863 4.02716 8.22426 3.95932 8.13192 3.89007C8.12274 3.88263 8.11418 3.87464 8.10629 3.86616L8.10589 3.86651ZM7.08894 5.13906C6.98453 5.18186 6.87554 5.21577 6.76351 5.2403C6.5356 5.28943 6.29883 5.29994 6.06629 5.27123C5.95059 5.25681 5.83682 5.23255 5.72663 5.19882C5.67239 5.18218 5.61883 5.16319 5.56595 5.14187L5.57531 5.16507L5.57938 5.18124L5.64527 5.48707C5.65252 5.52062 5.66314 5.55355 5.677 5.5855C5.70546 5.65066 5.74675 5.71108 5.79904 5.76408C5.85205 5.81744 5.91519 5.86261 5.98575 5.89766C6.02026 5.91492 6.05647 5.92951 6.09395 5.94125C6.11598 5.94796 6.13838 5.95371 6.16107 5.95848C6.18182 5.96305 6.20175 5.96656 6.22575 5.96937C6.23958 5.96937 6.25463 5.97219 6.26846 5.97394H6.29612H6.32988C6.3708 5.97383 6.41163 5.97066 6.45192 5.96445C6.49151 5.95845 6.53044 5.94951 6.56826 5.93774C6.60586 5.92596 6.6422 5.91138 6.67687 5.89415C6.74654 5.85902 6.80884 5.81398 6.86114 5.76091C6.88696 5.73432 6.91009 5.70585 6.93029 5.67584C6.97001 5.61552 6.99753 5.54977 7.01165 5.48145L7.07551 5.17632C7.07792 5.16285 7.08202 5.14965 7.08772 5.13695L7.08894 5.13906ZM5.30602 5.01286C5.14581 4.91723 5.00471 4.79969 4.88826 4.66484C4.81821 4.58371 4.75758 4.49681 4.70724 4.40541C4.6568 4.31414 4.61701 4.21876 4.58846 4.12067C4.56495 4.03989 4.54904 3.9576 4.54086 3.8746C4.44618 3.95823 4.34418 4.03544 4.23578 4.10555C4.20515 4.12812 4.17684 4.15294 4.15117 4.17973C4.09996 4.23355 4.06004 4.2947 4.0332 4.36041C4.01968 4.39322 4.00947 4.42698 4.0027 4.4613C3.99581 4.49614 3.99241 4.53142 3.99253 4.56676C3.99361 4.67145 4.02628 4.77407 4.08731 4.86451C4.10743 4.89467 4.13057 4.92325 4.15646 4.94993C4.18244 4.97627 4.21087 5.00073 4.24148 5.02305C4.27237 5.04539 4.30544 5.06539 4.34032 5.08281C4.37512 5.10017 4.41159 5.11487 4.44934 5.12675C4.48739 5.13891 4.52659 5.1482 4.56649 5.15452C4.60596 5.16068 4.64598 5.16385 4.68609 5.16401C4.76714 5.16401 4.8476 5.15212 4.92405 5.12886L5.26046 5.0234C5.2751 5.01884 5.29022 5.01555 5.30561 5.01356L5.30602 5.01286ZM6.78792 3.29527C6.75392 3.26879 6.71699 3.24524 6.67768 3.22497C6.63897 3.20505 6.5981 3.18845 6.55565 3.1754C6.42584 3.13552 6.28524 3.12989 6.15171 3.15923C6.10772 3.16879 6.06494 3.1821 6.02399 3.19896C5.98319 3.216 5.94437 3.23636 5.90805 3.25977C5.83478 3.30678 5.77296 3.36581 5.72613 3.43349C5.67929 3.50117 5.64836 3.57617 5.6351 3.65419C5.62167 3.73248 5.62638 3.8123 5.64893 3.88901C5.67166 3.96513 5.71116 4.03674 5.76527 4.09993C5.79265 4.13133 5.82344 4.16041 5.85721 4.18676C5.8911 4.21321 5.92788 4.23675 5.96704 4.25706C6.04519 4.29724 6.13171 4.32375 6.22168 4.3351C6.26692 4.34079 6.3127 4.34268 6.35836 4.34073C6.44949 4.33679 6.53883 4.31731 6.62121 4.28341C6.70359 4.2495 6.77739 4.20184 6.83836 4.14317C6.86895 4.11387 6.8962 4.08208 6.91972 4.04825C6.98993 3.94625 7.02355 3.82854 7.01631 3.71002C7.00907 3.5915 6.96129 3.4775 6.87904 3.38245C6.85199 3.35082 6.82133 3.32161 6.78751 3.29527H6.78792ZM14.3402 6.73571C14.2977 6.74887 14.2569 6.76559 14.2182 6.78563C14.1391 6.82611 14.07 6.87961 14.0148 6.94311C13.9605 7.00622 13.921 7.07786 13.8984 7.15403C13.8873 7.19215 13.8804 7.23112 13.8781 7.27039C13.8758 7.30985 13.878 7.34941 13.8846 7.3885C13.8913 7.42731 13.9023 7.46545 13.9176 7.5024C13.9327 7.53908 13.9519 7.57441 13.9749 7.60786C13.9984 7.64181 14.0257 7.67371 14.0563 7.70312C14.0867 7.73228 14.1203 7.75877 14.1567 7.78222C14.1935 7.80565 14.2327 7.82601 14.2739 7.84303C14.3147 7.85989 14.3574 7.8732 14.4012 7.88276C14.4455 7.89243 14.4907 7.89832 14.5363 7.90033C14.5819 7.90228 14.6277 7.9004 14.6729 7.89471C14.7629 7.88334 14.8494 7.85682 14.9276 7.81667C14.9668 7.79637 15.0035 7.77283 15.0374 7.74636C15.1056 7.69349 15.1609 7.62944 15.2001 7.55794C15.2394 7.4869 15.2621 7.40984 15.2668 7.3312C15.2691 7.29174 15.2669 7.25219 15.2603 7.21309C15.2537 7.17428 15.2427 7.13613 15.2274 7.09919C15.2124 7.06249 15.1931 7.02716 15.17 6.99373C15.1465 6.9598 15.1193 6.9279 15.0887 6.89847C15.0278 6.83978 14.9541 6.792 14.8719 6.75786C14.8309 6.74093 14.7881 6.72762 14.7441 6.71813C14.6106 6.6889 14.47 6.69453 14.3402 6.7343V6.73571ZM3.89286 6.86086C3.85883 6.8344 3.82191 6.81086 3.78263 6.79055C3.70446 6.75041 3.61795 6.7239 3.52798 6.71251C3.43738 6.7009 3.34502 6.70497 3.25625 6.72446C3.21215 6.73407 3.16923 6.74738 3.12812 6.76418C3.04603 6.79837 2.97251 6.84614 2.91171 6.9048C2.88106 6.93418 2.85381 6.96609 2.83035 7.00006C2.76016 7.10206 2.72648 7.21972 2.73354 7.33824C2.73594 7.3775 2.74275 7.41647 2.75388 7.45459C2.76499 7.4926 2.78039 7.52957 2.79985 7.56497C2.81967 7.60047 2.84337 7.63426 2.87063 7.66586C2.89766 7.69751 2.92832 7.72672 2.96215 7.75304C2.99602 7.77951 3.03281 7.80306 3.07198 7.82335C3.11068 7.84339 3.15155 7.86011 3.19402 7.87327C3.32366 7.91324 3.46417 7.91887 3.59754 7.88944C3.64138 7.87983 3.68403 7.86652 3.72486 7.84971C3.80723 7.81542 3.88113 7.76767 3.94249 7.7091C3.97303 7.67964 4.00027 7.64774 4.02385 7.61384C4.0469 7.58038 4.06611 7.54506 4.0812 7.50838C4.09645 7.47143 4.10748 7.43328 4.11415 7.39448C4.12074 7.35538 4.12292 7.31583 4.12066 7.27637C4.11833 7.2371 4.11152 7.19812 4.10032 7.16001C4.0892 7.1219 4.0738 7.08481 4.05436 7.04928L4.05232 7.0433C4.01352 6.97384 3.95935 6.91162 3.89286 6.86015V6.86086Z" fill="#A7A7A7"/>
</svg>
