<svg width="18" height="18" viewBox="0 0 18 18" fill="none" xmlns="http://www.w3.org/2000/svg">
<path d="M0.0112306 7.79861V6.49708C0.00826657 6.48521 0.00591092 6.47319 0.00421148 6.46107C0.00152961 6.44252 0.000148234 6.42378 0 6.40504C0.000139018 6.38646 0.0015205 6.36794 0.00421148 6.34956C0.00596151 6.33781 0.00823058 6.32455 0.0112306 6.3133V4.27678C0.0112055 4.14288 0.0380498 4.01038 0.0902112 3.88706C0.142927 3.76282 0.21939 3.65002 0.315251 3.55502C0.315251 3.55502 0.322241 3.54803 0.323491 3.54703C0.418887 3.45486 0.530874 3.38157 0.653512 3.33102C0.778803 3.27941 0.912971 3.2529 1.04848 3.25302H3.86376C3.86459 3.10302 3.86794 2.94912 3.87377 2.79128C3.88077 2.58928 3.89156 2.38399 3.90606 2.17549C3.92208 1.92355 3.96498 1.67409 4.03405 1.43128C4.0967 1.21077 4.18838 0.999524 4.30676 0.803217C4.39978 0.649485 4.51421 0.509775 4.64655 0.388233C4.77107 0.273529 4.91395 0.180542 5.06928 0.113205C5.2281 0.0447478 5.39824 0.0063019 5.57106 -0.000261067C5.74744 -0.00567966 5.92343 0.0197131 6.09109 0.0747522C6.25299 0.127721 6.40699 0.202219 6.54904 0.296252C6.70437 0.39903 6.84814 0.518272 6.97782 0.65197L7.94035 1.63148C8.04898 1.55663 8.17765 1.51639 8.30956 1.516H9.70088C9.83284 1.51657 9.96159 1.55679 10.0704 1.63148L11.0326 0.65197C11.1624 0.518262 11.3062 0.399021 11.4616 0.296252C11.6036 0.202239 11.7576 0.127741 11.9194 0.0747522L11.9251 0.0729821C12.0911 0.0194311 12.2651 -0.00502843 12.4394 0.000715509C12.6124 0.00727445 12.7826 0.0457803 12.9416 0.114242C13.0969 0.181668 13.2399 0.274585 13.3644 0.38921C13.4966 0.510861 13.6109 0.650617 13.7039 0.804254C13.8222 1.0006 13.914 1.21177 13.9767 1.43225C14.0457 1.67516 14.0885 1.92475 14.1044 2.17677C14.1189 2.38527 14.1297 2.59065 14.1369 2.79299C14.1427 2.95049 14.1457 3.1043 14.1469 3.2543H16.9622C17.0977 3.25423 17.2318 3.28081 17.357 3.33255C17.4825 3.38428 17.5969 3.45981 17.6937 3.55502L17.696 3.55728C17.7918 3.65194 17.8682 3.76436 17.921 3.88828C17.9731 4.0116 18 4.14416 18 4.27806V7.80008C18.0001 7.9339 17.9732 8.06639 17.921 8.18961C17.8683 8.31359 17.7919 8.42604 17.696 8.52061L17.6924 8.52433C17.4977 8.71613 17.2355 8.82384 16.9622 8.82432H16.8247V16.1362C16.8248 16.3807 16.7759 16.6227 16.681 16.8479C16.5852 17.0749 16.4455 17.2808 16.2699 17.4537C15.9142 17.8049 15.4343 18.0017 14.9344 18.0015H3.07475C2.57485 18.0017 2.09506 17.8049 1.73928 17.4537C1.56381 17.2808 1.42414 17.0749 1.32827 16.8479C1.23325 16.6227 1.18424 16.3807 1.18422 16.1362V8.82432H1.04726C0.911754 8.8244 0.777533 8.7979 0.652231 8.74632C0.526723 8.69474 0.412449 8.61927 0.315739 8.52409C0.314489 8.52409 0.308993 8.51709 0.307743 8.51634C0.214692 8.42295 0.140362 8.31262 0.0887463 8.19132C0.0365786 8.06809 0.00967233 7.93567 0.00970472 7.80185L0.0112306 7.79861ZM9.29609 17.2025V10.4386C9.29603 10.3862 9.30648 10.3343 9.32679 10.286C9.34709 10.2376 9.37689 10.1938 9.41437 10.1571C9.4905 10.0822 9.59295 10.0403 9.69972 10.0403C9.80648 10.0403 9.909 10.0822 9.98512 10.1571C10.0226 10.1938 10.0523 10.2376 10.0726 10.286C10.093 10.3343 10.1034 10.3862 10.1033 10.4386V17.2025H14.9354C15.1486 17.2022 15.3569 17.1394 15.5347 17.0218C15.7125 16.9042 15.8518 16.737 15.9355 16.541C15.9897 16.4121 16.0175 16.2737 16.0174 16.1339V8.82213H1.99228V16.1339C1.99217 16.2737 2.02011 16.4122 2.07449 16.541C2.12971 16.6711 2.21 16.7891 2.31076 16.8882C2.41189 16.988 2.53143 17.0672 2.66276 17.1214C2.79367 17.175 2.93384 17.2025 3.0753 17.2022H7.90733V10.4384C7.90729 10.3859 7.91771 10.334 7.93797 10.2857C7.95824 10.2374 7.98791 10.1936 8.02532 10.1569C8.10148 10.082 8.20404 10.04 8.31084 10.04C8.41765 10.04 8.5202 10.082 8.59637 10.1569C8.63376 10.1936 8.66345 10.2374 8.68371 10.2857C8.70397 10.334 8.71438 10.386 8.71435 10.4384V17.2022L9.29609 17.2025ZM8.46661 2.31252V4.64653H9.54438V2.31252H8.46661ZM7.65934 2.48574L6.40109 1.20526C6.31488 1.11612 6.21971 1.0361 6.11709 0.966488C6.03217 0.908562 5.93959 0.862726 5.84206 0.830256C5.76571 0.805168 5.68566 0.793143 5.6053 0.794733C5.53132 0.796782 5.45836 0.812723 5.39027 0.841731C5.31293 0.876077 5.24203 0.923356 5.18055 0.981503C5.1082 1.05023 5.04537 1.12833 4.99378 1.21374C4.91029 1.3535 4.84643 1.50409 4.80402 1.66126C4.75327 1.84655 4.72162 2.03656 4.70954 2.22829L4.70478 2.29774C4.70478 2.30299 4.70478 2.308 4.70478 2.31325C4.69453 2.472 4.68656 2.63029 4.67981 2.78829C4.67356 2.96329 4.66952 3.1348 4.66852 3.30905V3.32052V3.37051C4.66852 3.46651 4.66981 3.56102 4.67206 3.65403C4.67431 3.74703 4.67757 3.83355 4.68207 3.92405C4.70521 4.35646 4.76327 4.78625 4.85578 5.20928C4.89636 5.37953 4.95349 5.54539 5.02631 5.70453C5.08206 5.8316 5.15656 5.94961 5.24732 6.05457C5.31321 6.13167 5.39672 6.19169 5.4908 6.22956C5.58313 6.26238 5.68212 6.27208 5.77907 6.25782C5.90951 6.23862 6.03608 6.19889 6.15408 6.14008C6.20133 6.11683 6.24582 6.09181 6.29232 6.06806C6.49049 5.95 6.67788 5.81474 6.85233 5.66382L6.88834 5.6333C7.13834 5.4138 7.32933 5.19431 7.55558 4.95556L7.66105 4.83355V4.80004L7.65934 2.48574ZM8.22081 5.43579V7.40536C8.22086 7.45783 8.21042 7.50975 8.19011 7.55813C8.16981 7.60651 8.14007 7.65038 8.10259 7.6871C8.02643 7.7619 7.92393 7.8038 7.81718 7.8038C7.71044 7.8038 7.608 7.7619 7.53184 7.6871C7.4944 7.65035 7.46462 7.60651 7.44431 7.55813C7.42401 7.50975 7.41355 7.45782 7.41355 7.40536V6.23029C7.28805 6.3403 7.16509 6.43914 7.04459 6.52681C6.87383 6.65301 6.6917 6.76305 6.50058 6.85555C6.28875 6.95998 6.06033 7.02667 5.82558 7.05257C5.61456 7.0744 5.4013 7.04722 5.20252 6.9731C5.00452 6.89712 4.8262 6.77745 4.68079 6.62306C4.51853 6.44859 4.38655 6.24828 4.29028 6.03034C4.16164 5.73849 4.0677 5.43256 4.01031 5.11883C3.94333 4.7654 3.90051 4.40781 3.88225 4.04856H1.04774C1.01762 4.04812 0.987705 4.0537 0.959791 4.06504C0.931877 4.07638 0.906554 4.09322 0.885266 4.11454C0.863788 4.13523 0.846759 4.16008 0.835277 4.1876C0.823796 4.21512 0.818084 4.2447 0.818493 4.27452V6.00483H3.1215C3.22826 6.0046 3.33082 6.04657 3.40678 6.12159C3.44419 6.15831 3.47391 6.2021 3.49419 6.25044C3.51447 6.29877 3.52489 6.35067 3.52489 6.40309C3.52489 6.4555 3.51447 6.50734 3.49419 6.55568C3.47391 6.60401 3.44419 6.64786 3.40678 6.68458C3.33086 6.75969 3.2283 6.80175 3.1215 6.80159H0.818493V7.79636C0.818039 7.82618 0.823732 7.85574 0.835216 7.88327C0.8467 7.9108 0.863752 7.93567 0.885266 7.95633C0.906802 7.97769 0.932223 7.99465 0.960218 8.00632C0.988341 8.01763 1.01841 8.02336 1.04872 8.0231H16.9629C16.993 8.02343 17.0229 8.01771 17.0507 8.00638C17.0786 7.99505 17.1039 7.97828 17.1252 7.95706V7.95584C17.1465 7.93506 17.1634 7.91035 17.1752 7.88309C17.1866 7.85549 17.1923 7.82595 17.1922 7.79611V6.8011H14.6422C14.5354 6.80123 14.4329 6.75918 14.3569 6.6841C14.3195 6.64739 14.2898 6.60359 14.2695 6.55525C14.2492 6.50691 14.2387 6.45496 14.2387 6.40254C14.2387 6.35011 14.2492 6.29822 14.2695 6.24989C14.2898 6.20155 14.3195 6.15774 14.3569 6.12104C14.4329 6.04605 14.5354 6.00414 14.6422 6.00434H17.1922V4.27427C17.1925 4.24441 17.1867 4.21479 17.1752 4.18724C17.1637 4.15968 17.1467 4.13481 17.1252 4.11405C17.1039 4.0925 17.0783 4.07544 17.0502 4.064C17.0221 4.05271 16.992 4.04705 16.9617 4.04728H14.1277C14.1092 4.40652 14.0663 4.7641 13.9994 5.11755C13.9422 5.43137 13.8483 5.73738 13.7197 6.0293C13.6235 6.24716 13.4916 6.44745 13.3294 6.62184C13.184 6.77628 13.0057 6.89589 12.8077 6.97182C12.6088 7.04574 12.3955 7.07297 12.1844 7.05135C11.9496 7.02538 11.7212 6.95869 11.5094 6.85433C11.2962 6.7506 11.094 6.62565 10.9058 6.48133C10.7655 6.37583 10.6216 6.25517 10.4741 6.11933V7.40383C10.4742 7.45626 10.4637 7.50814 10.4434 7.55648C10.4231 7.60482 10.3933 7.64865 10.3559 7.68533L10.3481 7.69235C10.2715 7.76402 10.1701 7.80328 10.0652 7.80197C9.96028 7.80067 9.85993 7.75889 9.78511 7.68533C9.74768 7.64862 9.71795 7.60482 9.69764 7.55648C9.67734 7.50815 9.6669 7.45626 9.66688 7.40383V5.4403H8.30883C8.27906 5.44039 8.24933 5.43841 8.21984 5.43432L8.22081 5.43579ZM10.3506 4.8333C10.3854 4.8743 10.4216 4.9163 10.4591 4.9583C10.5083 5.0143 10.5542 5.06555 10.5969 5.11205L10.6051 5.12103C10.6755 5.19753 10.7465 5.27188 10.8181 5.34405C10.8896 5.4158 10.9606 5.48433 11.0309 5.54883C11.0631 5.57858 11.0954 5.60753 11.1284 5.63654C11.1591 5.66304 11.1894 5.69006 11.2204 5.71607C11.3121 5.79282 11.4064 5.86604 11.5049 5.93354C11.5769 5.98354 11.6494 6.02933 11.7256 6.07258C11.7276 6.07383 11.7826 6.10458 11.7831 6.10383C11.8096 6.11833 11.8379 6.13059 11.8649 6.14484C11.9805 6.20138 12.1041 6.23963 12.2314 6.25831C12.3283 6.27257 12.4273 6.26286 12.5196 6.23005C12.6137 6.19207 12.6972 6.13206 12.7632 6.05506C12.8539 5.95008 12.9283 5.83213 12.9841 5.70508C12.9956 5.68008 13.0056 5.65507 13.0176 5.63007C13.0575 5.53192 13.0923 5.4318 13.1219 5.33007C13.1389 5.27132 13.1549 5.21257 13.1694 5.15307L13.1852 5.08654C13.1914 5.05829 13.1979 5.02977 13.2037 5.00127L13.2259 4.88854L13.2479 4.75829C13.2692 4.61529 13.2872 4.47431 13.3009 4.3303C13.3039 4.3013 13.3177 4.27449 13.3397 4.25529V3.63779V3.62503L13.3417 3.504C13.3417 3.43925 13.3417 3.37478 13.3417 3.31003C13.3417 3.13502 13.3369 2.96327 13.3309 2.78927C13.3229 2.60176 13.3129 2.41553 13.3004 2.22853C13.2885 2.0368 13.2569 1.84679 13.2062 1.66151C13.1638 1.50435 13.0999 1.35382 13.0162 1.21423C12.9647 1.12873 12.9019 1.05061 12.8294 0.981991C12.7679 0.923817 12.697 0.876535 12.6197 0.842219L12.6144 0.840266C12.5479 0.81256 12.4769 0.797263 12.4049 0.795221C12.3245 0.793702 12.2445 0.805806 12.1681 0.830988L12.1629 0.832514C12.0673 0.865052 11.9766 0.910336 11.8932 0.967221C11.7906 1.03688 11.6954 1.1169 11.6091 1.20599L10.3514 2.48653V4.80181L10.3506 4.8333Z" fill="#A7A7A7"/>
</svg>
