<svg width="18" height="18" viewBox="0 0 18 18" fill="none" xmlns="http://www.w3.org/2000/svg">
<path d="M11.2496 17.4374H3.02409C2.59531 17.4369 2.18416 17.2662 1.88096 16.963C1.57777 16.6599 1.40734 16.2489 1.40681 15.8202V8.66963L0.960501 9.11594C0.855006 9.22151 0.711771 9.28094 0.562531 9.28099C0.41329 9.28104 0.270122 9.22168 0.16456 9.11619C0.0589979 9.01069 4.69775e-05 8.8677 2.79466e-08 8.71846C-4.69216e-05 8.56922 0.0590643 8.42605 0.16456 8.32049L7.16103 1.3245C7.64918 0.837191 8.31073 0.563477 9.00049 0.563477C9.69024 0.563477 10.3518 0.837191 10.8399 1.3245L17.8354 8.32049C17.9409 8.42592 18 8.56883 18 8.71797C18 8.86712 17.9409 9.0102 17.8354 9.1157C17.73 9.2212 17.5871 9.28046 17.438 9.2805C17.2888 9.28055 17.1455 9.22137 17.04 9.11594L16.5942 8.66963V15.8202C16.5938 16.249 16.4233 16.6601 16.12 16.9633C15.8168 17.2665 15.4052 17.4371 14.9764 17.4374H11.2496ZM14.9764 16.3124C15.0411 16.3124 15.1051 16.2998 15.1649 16.275C15.2246 16.2503 15.2788 16.214 15.3246 16.1683C15.3703 16.1226 15.4063 16.0681 15.431 16.0084C15.4557 15.9487 15.4686 15.8848 15.4686 15.8202V7.54457L10.0435 2.11923C9.76641 1.84271 9.39049 1.68756 8.99902 1.68756C8.60755 1.68756 8.23213 1.84271 7.95502 2.11923L2.52992 7.54457V15.8202C2.53005 15.9507 2.58217 16.0758 2.67446 16.1681C2.76675 16.2604 2.89162 16.3122 3.02214 16.3124H6.18637V11.8825C6.18677 11.4165 6.37218 10.9697 6.70154 10.6402C7.03089 10.3107 7.47739 10.1252 7.9433 10.1245H10.0528C10.5189 10.125 10.966 10.3104 11.2955 10.64C11.6251 10.9695 11.8102 11.4164 11.8107 11.8825V16.3124H14.9764ZM10.6871 16.3124V11.8825C10.687 11.7147 10.6202 11.5538 10.5015 11.4352C10.3829 11.3165 10.222 11.2497 10.0543 11.2496H7.94477C7.77704 11.2499 7.61656 11.3166 7.49797 11.4352C7.37937 11.5538 7.31274 11.7147 7.31241 11.8825V16.3124H10.6871Z" fill="#A7A7A7"/>
</svg>
