<svg width="18" height="20" viewBox="0 0 18 20" fill="none" xmlns="http://www.w3.org/2000/svg">
<path d="M16.894 12.6745C16.9169 12.6072 16.9528 12.5452 16.9997 12.4918C17.0465 12.4385 17.1035 12.3949 17.1672 12.3635C17.2309 12.3322 17.3002 12.3137 17.3711 12.3091C17.4419 12.3045 17.513 12.314 17.5802 12.3369C17.6475 12.3597 17.7095 12.3957 17.7629 12.4425C17.8162 12.4894 17.8598 12.5463 17.8912 12.6101C17.9225 12.6738 17.941 12.7431 17.9456 12.8139C17.9501 12.8848 17.9407 12.9559 17.9178 13.0231C17.4635 14.3315 16.7201 15.5206 15.7429 16.502C14.7656 17.4835 13.5797 18.232 12.2733 18.6919C10.9669 19.1518 9.57361 19.3112 8.19707 19.1584C6.82053 19.0056 5.49615 18.5444 4.32244 17.8091C3.14872 17.0739 2.15586 16.0835 1.41769 14.9116C0.67953 13.7397 0.215057 12.4164 0.0588162 11.0403C-0.0974246 9.66412 0.0585874 8.27044 0.51525 6.9629C0.971912 5.65535 1.71747 4.46758 2.69649 3.48791C3.81252 2.36835 5.1984 1.5555 6.72026 1.12788C8.24212 0.700263 9.84855 0.672318 11.3844 1.04675C12.9202 1.42118 14.3335 2.18533 15.4878 3.26539C16.6421 4.34545 17.4983 5.70493 17.9739 7.21251C17.9957 7.28004 18.004 7.3512 17.9982 7.42193C17.9925 7.49266 17.973 7.56157 17.9406 7.62474C17.9083 7.6879 17.8638 7.74408 17.8098 7.79005C17.7557 7.83603 17.6931 7.87092 17.6256 7.89271C17.5581 7.91451 17.4869 7.92279 17.4162 7.91708C17.3455 7.91138 17.2765 7.89179 17.2134 7.85945C17.1502 7.82711 17.094 7.78265 17.0481 7.7286C17.0021 7.67455 16.9672 7.61198 16.9454 7.54445C16.565 6.3759 15.9247 5.30878 15.0726 4.4233C14.2205 3.53781 13.1788 2.85701 12.0257 2.43205C10.8726 2.00709 9.63824 1.84904 8.41529 1.96978C7.19235 2.09052 6.01268 2.4869 4.96497 3.12914C3.91725 3.77137 3.02875 4.64275 2.36625 5.67776C1.70375 6.71278 1.28448 7.88451 1.13997 9.10487C0.995455 10.3252 1.12945 11.5625 1.53189 12.7236C1.93433 13.8847 2.59474 14.9395 3.46347 15.8087C4.43842 16.7874 5.64723 17.5009 6.97526 17.8814C8.30329 18.2619 9.70651 18.2968 11.0518 17.9829C12.3971 17.6689 13.64 17.0165 14.6624 16.0875C15.6848 15.1584 16.453 13.9836 16.894 12.6745ZM12.7801 8.1623C12.7821 7.16862 12.3895 6.2148 11.6887 5.51039C11.3433 5.16234 10.9324 4.8861 10.4797 4.69759C10.0271 4.50908 9.54161 4.41203 9.05127 4.41203C8.56093 4.41203 8.07545 4.50908 7.62279 4.69759C7.17014 4.8861 6.75928 5.16234 6.41389 5.51039C5.94958 5.97586 5.61561 6.55507 5.44536 7.1901C5.27511 7.82512 5.27456 8.49372 5.44375 9.12903C5.61295 9.76434 5.94596 10.3441 6.40949 10.8103C6.87303 11.2766 7.45084 11.613 8.08515 11.7859L8.05121 12.8449C7.43518 12.9678 6.84758 13.205 6.31876 13.544C5.93176 13.7928 5.58019 14.0927 5.27358 14.4357C6.35152 15.2482 7.66942 15.6783 9.01911 15.6583C10.3688 15.6382 11.6733 15.169 12.7266 14.3249C12.4271 14.0097 12.0887 13.734 11.7195 13.5044C11.2073 13.1865 10.6421 12.9632 10.0508 12.8452L10.0169 11.7861C10.8119 11.5701 11.5135 11.098 12.013 10.443C12.5126 9.78788 12.7822 8.98637 12.7801 8.16256V8.1623ZM12.4543 4.74084C12.9636 5.25305 13.3521 5.87252 13.5915 6.55402C13.8308 7.23553 13.9149 7.96188 13.8377 8.68005C13.7605 9.39823 13.524 10.0901 13.1453 10.7052C12.7666 11.3203 12.2553 11.843 11.6488 12.2353C12.5356 12.6517 13.311 13.2725 13.9114 14.0467L14.2146 14.437L13.8574 14.7764C12.5544 16.0145 10.833 16.7166 9.03575 16.7431C7.2385 16.7696 5.49716 16.1185 4.1582 14.9193L3.78924 14.59L4.07978 14.1922C4.69487 13.351 5.51168 12.6779 6.45503 12.235C5.84891 11.8424 5.33802 11.3196 4.9596 10.7045C4.58118 10.0894 4.34476 9.39766 4.26759 8.67964C4.19041 7.96161 4.27441 7.23542 4.51348 6.55397C4.75254 5.87253 5.14064 5.25302 5.64948 4.74058C6.09512 4.29144 6.62526 3.93496 7.20933 3.69169C7.7934 3.44842 8.41985 3.32317 9.05256 3.32317C9.68526 3.32317 10.3117 3.44842 10.8958 3.69169C11.4799 3.93496 12.01 4.29144 12.4556 4.74058L12.4543 4.74084Z" fill="#A7A7A7"/>
</svg>
