<svg width="64" height="51" viewBox="0 0 64 51" fill="none" xmlns="http://www.w3.org/2000/svg">
<path fill-rule="evenodd" clip-rule="evenodd" d="M3.07598 0.667974C2.36485 0.668369 1.67585 0.91531 1.12636 1.36673C0.576877 1.81814 0.200899 2.44611 0.0624822 3.14364C-0.0759343 3.84118 0.0317733 4.56513 0.367256 5.19215C0.702738 5.81918 1.24524 6.3105 1.90234 6.5824C2.55944 6.85431 3.29049 6.88997 3.97094 6.68333C4.65139 6.47669 5.23914 6.04052 5.63407 5.44913C6.029 4.85774 6.20668 4.14772 6.13682 3.44002C6.06697 2.73233 5.75391 2.07074 5.25098 1.56797C4.96567 1.28199 4.62663 1.05524 4.25336 0.900781C3.88008 0.746323 3.47995 0.667203 3.07598 0.667974ZM61.033 35.608C61.8199 35.608 62.5746 35.2954 63.131 34.739C63.6874 34.1825 64 33.4279 64 32.641C64 31.8541 63.6874 31.0994 63.131 30.543C62.5746 29.9866 61.8199 29.674 61.033 29.674H15.441C14.6541 29.674 13.8994 29.9866 13.343 30.543C12.7866 31.0994 12.474 31.8541 12.474 32.641C12.474 33.4279 12.7866 34.1825 13.343 34.739C13.8994 35.2954 14.6541 35.608 15.441 35.608H61.033ZM61.033 50.057C61.8199 50.057 62.5746 49.7444 63.131 49.188C63.6874 48.6315 64 47.8769 64 47.09C64 46.3031 63.6874 45.5484 63.131 44.992C62.5746 44.4356 61.8199 44.123 61.033 44.123H15.441C15.0514 44.123 14.6655 44.1997 14.3056 44.3488C13.9456 44.4979 13.6185 44.7165 13.343 44.992C13.0675 45.2675 12.8489 45.5946 12.6998 45.9546C12.5507 46.3145 12.474 46.7003 12.474 47.09C12.474 47.4796 12.5507 47.8654 12.6998 48.2254C12.8489 48.5854 13.0675 48.9124 13.343 49.188C13.6185 49.4635 13.9456 49.682 14.3056 49.8311C14.6655 49.9802 15.0514 50.057 15.441 50.057H61.033ZM3.07598 44.016C2.36481 44.0161 1.67569 44.2629 1.12604 44.7142C0.576391 45.1655 0.200224 45.7934 0.0616286 46.4909C-0.0769664 47.1884 0.0305863 47.9125 0.365961 48.5396C0.701337 49.1667 1.24378 49.6582 1.90088 49.9302C2.55798 50.2022 3.28906 50.238 3.96958 50.0314C4.65009 49.8249 5.23793 49.3887 5.63293 48.7973C6.02794 48.2059 6.20567 47.4959 6.13584 46.7881C6.06601 46.0804 5.75294 45.4188 5.24998 44.916C4.96473 44.6302 4.62583 44.4036 4.25275 44.2491C3.87968 44.0947 3.47977 44.0154 3.07598 44.016ZM3.07598 29.567C2.36507 29.5672 1.67624 29.814 1.12685 30.2651C0.577452 30.7163 0.201479 31.344 0.0629831 32.0413C-0.0755129 32.7386 0.0320357 33.4623 0.367306 34.0892C0.702576 34.7161 1.24483 35.2074 1.90168 35.4793C2.55852 35.7512 3.28934 35.787 3.9696 35.5805C4.64987 35.374 5.23751 34.9381 5.6324 34.347C6.0273 33.7558 6.20502 33.046 6.13529 32.3386C6.06556 31.6311 5.75269 30.9697 5.24998 30.467C4.96479 30.1811 4.62591 29.9544 4.25282 29.8C3.87972 29.6455 3.47978 29.5663 3.07598 29.567ZM61.033 21.158C61.8199 21.158 62.5746 20.8454 63.131 20.289C63.6874 19.7325 64 18.9779 64 18.191C64 17.4041 63.6874 16.6494 63.131 16.093C62.5746 15.5366 61.8199 15.224 61.033 15.224H15.441C14.6541 15.224 13.8994 15.5366 13.343 16.093C12.7866 16.6494 12.474 17.4041 12.474 18.191C12.474 18.9779 12.7866 19.7325 13.343 20.289C13.8994 20.8454 14.6541 21.158 15.441 21.158H61.033ZM3.07598 15.118C2.36481 15.1181 1.67569 15.3649 1.12604 15.8162C0.576391 16.2675 0.200224 16.8954 0.0616286 17.5929C-0.0769664 18.2905 0.0305863 19.0145 0.365961 19.6416C0.701337 20.2687 1.24378 20.7602 1.90088 21.0322C2.55798 21.3042 3.28906 21.34 3.96958 21.1334C4.65009 20.9269 5.23793 20.4907 5.63293 19.8993C6.02794 19.3079 6.20567 18.5979 6.13584 17.8901C6.06601 17.1824 5.75294 16.5208 5.24998 16.018C4.96479 15.7321 4.62591 15.5054 4.25282 15.351C3.87972 15.1965 3.47978 15.1173 3.07598 15.118ZM61.033 6.70897C61.8199 6.70897 62.5746 6.39638 63.131 5.83996C63.6874 5.28354 64 4.52887 64 3.74197C64 2.95508 63.6874 2.20041 63.131 1.64399C62.5746 1.08757 61.8199 0.774974 61.033 0.774974H15.441C14.6541 0.774974 13.8994 1.08757 13.343 1.64399C12.7866 2.20041 12.474 2.95508 12.474 3.74197C12.474 4.52887 12.7866 5.28354 13.343 5.83996C13.8994 6.39638 14.6541 6.70897 15.441 6.70897H61.033Z" fill="#A7A7A7"/>
</svg>
