<svg width="18" height="18" viewBox="0 0 18 18" fill="none" xmlns="http://www.w3.org/2000/svg">
<path d="M16.9951 11.9611L16.3735 16.0657C16.3726 16.244 16.3143 16.4203 16.2019 16.5846C16.0881 16.752 15.9222 16.9042 15.7135 17.0325L15.6992 17.0409C15.4937 17.1651 15.2514 17.2639 14.9854 17.332C14.7137 17.4018 14.4221 17.4376 14.1275 17.4374H4.15556C3.86105 17.4376 3.56943 17.4018 3.29768 17.332C3.02564 17.2622 2.77834 17.1604 2.56963 17.0325C2.36132 16.9042 2.1958 16.7522 2.08236 16.585C1.96997 16.4207 1.91166 16.2443 1.91078 16.0661L1.29597 11.9977C1.24793 11.9949 1.20103 11.9907 1.15413 11.985C1.06204 11.9736 0.971999 11.9567 0.885331 11.9344C0.798862 11.9122 0.716115 11.8849 0.638262 11.8529C0.586556 11.8313 0.537085 11.8079 0.490135 11.7826H0.485559L0.420361 11.7425C0.287996 11.6602 0.182569 11.563 0.109809 11.4563C0.0373431 11.3501 1.42339e-05 11.2361 3.82318e-07 11.121V9.03456C-0.00013782 8.91916 0.0371941 8.8049 0.109809 8.69848C0.182279 8.59187 0.287749 8.49493 0.420361 8.41303L0.436946 8.40319C0.501265 8.36522 0.571145 8.33097 0.645697 8.30089C0.87931 8.20564 1.15346 8.15489 1.4338 8.155H2.07835L2.02116 8.02282C1.90106 7.74757 1.79983 7.46036 1.71576 7.16401C1.62711 6.8536 1.55676 6.53123 1.50357 6.20641C1.44638 5.86506 1.41035 5.52196 1.38919 5.18694C1.3686 4.83329 1.36746 4.48878 1.3829 4.16466C1.39834 3.84054 1.43494 3.5347 1.48813 3.2598C1.53524 3.00409 1.60859 2.75048 1.70775 2.50047C1.78442 2.29587 1.90501 2.09845 2.06634 1.91339C2.18088 1.77132 2.37039 1.6573 2.60395 1.58998C2.64666 1.57946 2.69064 1.57099 2.73549 1.56467C2.75722 1.5615 2.77724 1.55869 2.79668 1.55693C2.81613 1.55517 2.83786 1.55306 2.86303 1.55166C2.88819 1.55025 2.90992 1.54955 2.9368 1.54885C2.96368 1.54814 2.9877 1.54885 3.01115 1.54885C3.25368 1.56769 3.48244 1.62867 3.67058 1.72462C3.93806 1.85018 4.18377 1.99237 4.40377 2.14893C4.67839 2.34098 4.93667 2.54162 5.17758 2.75006C5.43952 2.97399 5.70718 3.22253 5.97026 3.4883C6.03889 3.55861 6.10295 3.62329 6.16071 3.68305L6.19846 3.72207C6.23925 3.62645 6.28005 3.53353 6.32085 3.4433C6.3666 3.34229 6.41102 3.24691 6.4541 3.15715C6.61882 2.81545 6.79726 2.49414 6.97855 2.20306C7.14514 1.93457 7.33569 1.67192 7.54933 1.41631C7.71594 1.2096 7.92173 1.01573 8.16243 0.838733C8.32636 0.706751 8.55853 0.613018 8.8207 0.572968L8.84758 0.570507C8.86932 0.56875 8.89162 0.56664 8.90478 0.565937L8.97455 0.563477H9.01802L9.06034 0.566992C9.07692 0.566992 9.09122 0.566992 9.1038 0.569453L9.1507 0.57332C9.41748 0.613324 9.65604 0.705324 9.83071 0.835569C10.0776 1.00755 10.2889 1.19766 10.4598 1.40155L10.465 1.40788C10.6807 1.65945 10.872 1.91864 11.038 2.18408C11.2228 2.47234 11.4012 2.79084 11.5659 3.12973C11.6159 3.23284 11.6685 3.34534 11.7238 3.4672C11.781 3.59095 11.829 3.70555 11.8725 3.80961L11.8999 3.87745L12.0458 3.72207C12.1266 3.63747 12.2015 3.56013 12.2705 3.49005C12.5336 3.22429 12.8013 2.97575 13.0632 2.75182C13.3054 2.54284 13.5648 2.34162 13.8404 2.14893C14.061 1.99146 14.3075 1.84844 14.5759 1.72216C14.7641 1.62621 14.9928 1.56523 15.2353 1.54638C15.2582 1.54638 15.2828 1.54638 15.3085 1.54638C15.336 1.54638 15.3612 1.54638 15.3835 1.5492C15.4058 1.55201 15.4355 1.55306 15.4544 1.55482C15.4733 1.55658 15.4944 1.55974 15.5224 1.56431C15.563 1.57026 15.6027 1.57802 15.6414 1.58752C15.875 1.65484 16.0645 1.76886 16.179 1.91093C16.3404 2.09598 16.461 2.2934 16.5376 2.49801C16.6367 2.74803 16.71 3.00164 16.7572 3.25733C16.811 3.53259 16.847 3.83738 16.8625 4.1622C16.8779 4.48702 16.8768 4.83013 16.8562 5.18413C16.8367 5.5195 16.799 5.8626 16.7418 6.2036C16.6886 6.52842 16.6182 6.85043 16.5296 7.16049C16.4455 7.45579 16.3437 7.7444 16.2242 8.01966L16.167 8.15184H16.5673C16.947 8.15254 17.3108 8.24541 17.5796 8.41022C17.7129 8.49189 17.8187 8.58892 17.8908 8.69575C17.9629 8.80259 18 8.91713 18 9.0328V11.1188C17.9997 11.2929 17.9153 11.463 17.7575 11.6075C17.6085 11.7466 17.3974 11.8565 17.1496 11.9239C17.0989 11.9374 17.0469 11.9492 16.994 11.959L16.9951 11.9611ZM5.31313 7.20268C5.31694 7.1251 5.32247 7.04612 5.32971 6.96574C5.34573 6.77802 5.36975 6.58678 5.4012 6.39343C5.43266 6.20008 5.4704 6.00674 5.51559 5.81304C5.56077 5.61934 5.60652 5.43548 5.65857 5.25057C5.58002 5.15237 5.50377 5.06004 5.4298 4.97356C5.33677 4.86294 5.24678 4.75865 5.15985 4.66069C5.05958 4.54749 4.96101 4.43945 4.86417 4.33657C4.76809 4.23427 4.66571 4.1281 4.55705 4.02018C4.35402 3.81558 4.15671 3.62364 3.96797 3.44892C3.77924 3.27421 3.59508 3.11109 3.43151 2.97786C3.35202 2.91212 3.27824 2.85271 3.21018 2.80209C3.19588 2.85693 3.18273 2.91423 3.17072 2.97329C3.13869 3.12902 3.11067 3.31534 3.08722 3.52556C3.06377 3.73578 3.04604 3.95866 3.0346 4.19349C3.02545 4.38894 3.02259 4.59284 3.02659 4.80236L3.06834 4.78126C3.15491 4.74065 3.25363 4.71091 3.35888 4.69373H3.36345C3.57409 4.65982 3.798 4.67852 3.98627 4.74576C4.08054 4.7792 4.16315 4.82374 4.22939 4.87682C4.29563 4.9299 4.3442 4.99049 4.37232 5.05511L5.30969 7.20549L5.31313 7.20268ZM3.17015 6.2268C3.21533 6.47675 3.27252 6.72775 3.34172 6.97453C3.41893 7.24521 3.5133 7.50887 3.62025 7.75846C3.63855 7.80088 3.65761 7.84365 3.67744 7.88678C3.70089 7.93705 3.72033 7.97712 3.73463 8.00841L3.76895 8.0752H3.97312L3.17015 6.2268ZM13.9251 8.0752H14.4724L14.5067 8.00806C14.5222 7.97712 14.5416 7.93775 14.5639 7.88678C14.5841 7.84342 14.6032 7.80065 14.6211 7.75846C14.7298 7.50887 14.8224 7.24521 14.8996 6.97453C14.9826 6.6838 15.0472 6.38781 15.0952 6.09392C15.1478 5.77437 15.1822 5.45447 15.1999 5.14476C15.2188 4.81501 15.2199 4.49441 15.2056 4.19314C15.1942 3.95936 15.1764 3.73613 15.153 3.52521C15.1295 3.31428 15.1015 3.12937 15.0695 2.97329C15.0569 2.91212 15.0443 2.85482 15.0306 2.80244C14.9603 2.85623 14.8865 2.91529 14.8098 2.97821C14.6486 3.1118 14.4667 3.27034 14.2757 3.44928C14.0846 3.62821 13.889 3.81593 13.6866 4.02088C13.5722 4.13525 13.4546 4.25794 13.3337 4.38894C13.2119 4.52007 13.0981 4.64592 12.994 4.76509C12.8899 4.88427 12.7887 5.00414 12.6834 5.13281C12.5927 5.24389 12.506 5.35287 12.4232 5.45974C12.4661 5.62777 12.5033 5.78948 12.5342 5.94311C12.5685 6.1122 12.5977 6.28059 12.6217 6.44687C12.6457 6.61314 12.6629 6.77591 12.676 6.94711L12.6794 6.99175L13.5276 5.04597V5.04387C13.5567 4.98121 13.6053 4.92261 13.6706 4.87126C13.8027 4.7673 13.9952 4.69878 14.2076 4.68002C14.3115 4.67099 14.4173 4.67421 14.5193 4.68951C14.5325 4.68951 14.5439 4.69338 14.557 4.69584C14.7647 4.73328 14.9404 4.8191 15.0466 4.93501C15.1528 5.05092 15.1811 5.18774 15.1255 5.31631L13.9245 8.07555L13.9251 8.0752ZM7.36231 5.18132L7.33543 5.27096C7.30455 5.37853 7.27252 5.48681 7.2445 5.59473L7.24049 5.60985L7.19531 5.77472C7.1833 5.85206 7.16557 5.92237 7.14841 5.99197L7.12096 6.10306L7.11467 6.13399C7.09065 6.25117 7.06854 6.37281 7.04833 6.49889C7.03041 6.61186 7.01477 6.72786 7.00143 6.84692C6.98885 6.96293 6.97913 7.07437 6.97283 7.18018C6.96712 7.27931 6.96426 7.38607 6.96426 7.50043C6.96426 7.58445 6.96426 7.65265 6.96712 7.70468C6.9694 7.76632 6.97341 7.82971 6.97913 7.89486C6.98256 7.93459 6.98713 7.97888 6.99285 8.0281V8.03337H8.167V4.32215C8.16666 4.20739 8.22933 4.09591 8.34487 4.00576V4.00119L8.41007 3.96112C8.48718 3.91371 8.57871 3.87609 8.67944 3.85038C8.77982 3.82463 8.88751 3.81136 8.99628 3.81136C9.10506 3.81136 9.21275 3.82463 9.31313 3.85038C9.41362 3.87617 9.50493 3.91379 9.58193 3.96112C9.65909 4.0085 9.7203 4.06477 9.76208 4.1267C9.80384 4.18842 9.82541 4.2546 9.82557 4.32145V8.03337H10.99L10.9934 8.00771C11.0009 7.95181 11.0066 7.90224 11.0106 7.85654C11.0174 7.78436 11.0222 7.71405 11.0249 7.64562C11.0249 7.58551 11.0289 7.51028 11.0289 7.42098C11.0289 7.1271 11.0043 6.82337 10.9603 6.51295C10.9122 6.18005 10.8424 5.84503 10.7555 5.51598C10.6623 5.16163 10.5473 4.80693 10.4186 4.46136C10.2837 4.09963 10.1327 3.74879 9.97255 3.41975C9.83872 3.14484 9.70603 2.89244 9.5785 2.66639C9.44753 2.43473 9.31999 2.22943 9.2016 2.05753C9.12954 1.95206 9.05977 1.85926 8.99457 1.7784C8.93337 1.85996 8.86589 1.95769 8.79325 2.06983C8.67887 2.2456 8.55533 2.45406 8.42551 2.6903C8.30026 2.9188 8.16986 3.17261 8.03832 3.44541C7.97274 3.58157 7.90716 3.72488 7.84158 3.87534C7.77638 4.0244 7.71576 4.17029 7.66028 4.31125C7.6048 4.45222 7.55219 4.59249 7.49843 4.74681C7.44753 4.89235 7.39949 5.03719 7.35545 5.18026L7.36231 5.18132ZM4.8207 10.9881C5.04048 10.9885 5.25112 11.0422 5.40692 11.1375C5.4838 11.1848 5.54482 11.2409 5.5865 11.3027C5.62852 11.3644 5.65015 11.4307 5.65015 11.4976C5.65015 11.5646 5.62852 11.6308 5.5865 11.6926C5.54493 11.7546 5.48391 11.811 5.40692 11.8585C5.25125 11.9539 5.04058 12.0077 4.8207 12.0082H2.95854L3.55219 15.9216H3.57278V16.0583C3.57231 16.105 3.58709 16.1513 3.61624 16.1944C3.63104 16.2162 3.64923 16.237 3.67058 16.2566C3.71396 16.2963 3.76952 16.3305 3.83414 16.3572C3.86586 16.3702 3.89957 16.3812 3.9348 16.3902C3.96929 16.399 4.00512 16.4057 4.04175 16.4102C4.07942 16.4148 4.11774 16.417 4.15613 16.4169H14.1304C14.1688 16.417 14.2071 16.4148 14.2448 16.4102C14.2814 16.4057 14.3172 16.399 14.3517 16.3902C14.387 16.3813 14.4207 16.3702 14.4524 16.3572C14.4844 16.3438 14.5143 16.3287 14.5416 16.3118C14.569 16.2949 14.5937 16.2764 14.6154 16.2566C14.6368 16.2373 14.6548 16.2167 14.6691 16.1951C14.6835 16.1738 14.6944 16.1516 14.7017 16.129C14.7091 16.1058 14.7128 16.0823 14.7126 16.0587V16.0383C14.7131 16.0304 14.7144 16.0225 14.7166 16.0148L15.3274 12.0093H8.86989C8.76112 12.0092 8.65345 11.996 8.55305 11.9703C8.45232 11.9446 8.36079 11.9069 8.28367 11.8595C8.20684 11.8122 8.14583 11.7561 8.10409 11.6943C8.06214 11.6326 8.04053 11.5663 8.04053 11.4994C8.04053 11.4325 8.06214 11.3662 8.10409 11.3045C8.14574 11.2426 8.20675 11.1863 8.28367 11.1389C8.43937 11.0435 8.65007 10.9898 8.86989 10.9895C10.7898 10.9895 11.6786 10.9895 12.5582 10.987L16.3403 10.9821V9.17517H1.65856V10.9817C2.04118 10.9817 2.52159 10.9839 3.01001 10.9853H3.19359C3.57964 10.9853 3.97026 10.9877 4.81784 10.9877L4.8207 10.9881Z" fill="#A7A7A7"/>
</svg>
