<svg width="60" height="72" viewBox="0 0 60 72" fill="none" xmlns="http://www.w3.org/2000/svg">
<path d="M13.586 16.8858C13.5801 15.7028 13.7793 14.5277 14.175 13.4128C14.7257 11.8108 15.7719 10.4255 17.1621 9.45743C18.5522 8.48935 20.2144 7.98867 21.908 8.02784C22.9692 8.03669 24.0235 8.19766 25.039 8.50584C26.4535 8.93243 27.7565 9.66587 28.855 10.6538C29.323 11.0358 29.725 11.3638 29.991 11.3638C30.5112 11.1497 30.9878 10.8419 31.397 10.4558C31.67 10.2418 31.93 10.0378 32.248 9.82184C33.6164 8.88366 35.1851 8.27823 36.829 8.05384C38.4432 7.83538 40.0863 8.07986 41.567 8.75884C42.3286 9.10854 43.0321 9.57294 43.653 10.1358C45.0926 11.4594 46.0311 13.2393 46.31 15.1748C46.5988 17.1259 46.2278 19.1176 45.256 20.8338C44.7655 21.6988 44.1373 22.4781 43.396 23.1408C42.306 24.1188 41.322 25.0138 40.429 25.8268C35.4 30.4058 32.995 32.5918 29.955 32.5998C27.097 32.6078 25.062 30.7458 21.169 27.1838C19.948 26.0658 18.516 24.7568 16.787 23.2538C15.8216 22.4631 15.0312 21.4803 14.466 20.3678C13.9037 19.2923 13.6025 18.0994 13.587 16.8858H13.586ZM22.851 42.9778C22.5583 43.0086 22.2624 42.9775 21.9826 42.8865C21.7027 42.7956 21.445 42.6468 21.2263 42.4499C21.0076 42.253 20.8328 42.0123 20.7131 41.7435C20.5934 41.4746 20.5315 41.1836 20.5315 40.8893C20.5315 40.595 20.5934 40.304 20.7131 40.0352C20.8328 39.7663 21.0076 39.5257 21.2263 39.3287C21.445 39.1318 21.7027 38.9831 21.9826 38.8921C22.2624 38.8012 22.5583 38.7701 22.851 38.8008H46.351C46.6437 38.7701 46.9395 38.8012 47.2194 38.8921C47.4993 38.9831 47.757 39.1318 47.9757 39.3287C48.1944 39.5257 48.3692 39.7663 48.4889 40.0352C48.6086 40.304 48.6705 40.595 48.6705 40.8893C48.6705 41.1836 48.6086 41.4746 48.4889 41.7435C48.3692 42.0123 48.1944 42.253 47.9757 42.4499C47.757 42.6468 47.4993 42.7956 47.2194 42.8865C46.9395 42.9775 46.6437 43.0086 46.351 42.9778H22.851ZM13.64 38.7678C13.9304 38.7386 14.2236 38.7706 14.5009 38.8617C14.7782 38.9528 15.0332 39.101 15.2497 39.2967C15.4661 39.4925 15.6391 39.7314 15.7575 39.9982C15.876 40.2649 15.9371 40.5535 15.9371 40.8453C15.9371 41.1372 15.876 41.4258 15.7575 41.6925C15.6391 41.9592 15.4661 42.1982 15.2497 42.394C15.0332 42.5897 14.7782 42.7379 14.5009 42.829C14.2236 42.9201 13.9304 42.9521 13.64 42.9228C13.3496 42.9521 13.0564 42.9201 12.7791 42.829C12.5018 42.7379 12.2468 42.5897 12.0303 42.394C11.8139 42.1982 11.6409 41.9592 11.5225 41.6925C11.404 41.4258 11.3429 41.1372 11.3429 40.8453C11.3429 40.5535 11.404 40.2649 11.5225 39.9982C11.6409 39.7314 11.8139 39.4925 12.0303 39.2967C12.2468 39.101 12.5018 38.9528 12.7791 38.8617C13.0564 38.7706 13.3496 38.7386 13.64 38.7678ZM22.851 51.3998C22.5583 51.4306 22.2624 51.3995 21.9826 51.3085C21.7027 51.2176 21.445 51.0688 21.2263 50.8719C21.0076 50.675 20.8328 50.4343 20.7131 50.1655C20.5934 49.8966 20.5315 49.6056 20.5315 49.3113C20.5315 49.017 20.5934 48.726 20.7131 48.4572C20.8328 48.1884 21.0076 47.9477 21.2263 47.7507C21.445 47.5538 21.7027 47.4051 21.9826 47.3141C22.2624 47.2232 22.5583 47.1921 22.851 47.2228H46.351C46.6437 47.1921 46.9395 47.2232 47.2194 47.3141C47.4993 47.4051 47.757 47.5538 47.9757 47.7507C48.1944 47.9477 48.3692 48.1884 48.4889 48.4572C48.6086 48.726 48.6705 49.017 48.6705 49.3113C48.6705 49.6056 48.6086 49.8966 48.4889 50.1655C48.3692 50.4343 48.1944 50.675 47.9757 50.8719C47.757 51.0688 47.4993 51.2176 47.2194 51.3085C46.9395 51.3995 46.6437 51.4306 46.351 51.3998H22.851ZM13.64 47.1898C13.9304 47.1606 14.2236 47.1926 14.5009 47.2837C14.7782 47.3748 15.0332 47.523 15.2497 47.7187C15.4661 47.9145 15.6391 48.1534 15.7575 48.4202C15.876 48.6869 15.9371 48.9755 15.9371 49.2673C15.9371 49.5592 15.876 49.8478 15.7575 50.1145C15.6391 50.3812 15.4661 50.6202 15.2497 50.816C15.0332 51.0117 14.7782 51.1599 14.5009 51.251C14.2236 51.3421 13.9304 51.3741 13.64 51.3448C13.3496 51.3741 13.0564 51.3421 12.7791 51.251C12.5018 51.1599 12.2468 51.0117 12.0303 50.816C11.8139 50.6202 11.6409 50.3812 11.5225 50.1145C11.404 49.8478 11.3429 49.5592 11.3429 49.2673C11.3429 48.9755 11.404 48.6869 11.5225 48.4202C11.6409 48.1534 11.8139 47.9145 12.0303 47.7187C12.2468 47.523 12.5018 47.3748 12.7791 47.2837C13.0564 47.1926 13.3496 47.1606 13.64 47.1898ZM22.851 59.8198C22.5583 59.8506 22.2624 59.8195 21.9826 59.7285C21.7027 59.6376 21.445 59.4888 21.2263 59.2919C21.0076 59.095 20.8328 58.8543 20.7131 58.5855C20.5934 58.3166 20.5315 58.0256 20.5315 57.7313C20.5315 57.437 20.5934 57.146 20.7131 56.8772C20.8328 56.6083 21.0076 56.3677 21.2263 56.1707C21.445 55.9738 21.7027 55.8251 21.9826 55.7341C22.2624 55.6432 22.5583 55.6121 22.851 55.6428H46.351C46.6437 55.6121 46.9395 55.6432 47.2194 55.7341C47.4993 55.8251 47.757 55.9738 47.9757 56.1707C48.1944 56.3677 48.3692 56.6083 48.4889 56.8772C48.6086 57.146 48.6705 57.437 48.6705 57.7313C48.6705 58.0256 48.6086 58.3166 48.4889 58.5855C48.3692 58.8543 48.1944 59.095 47.9757 59.2919C47.757 59.4888 47.4993 59.6376 47.2194 59.7285C46.9395 59.8195 46.6437 59.8506 46.351 59.8198H22.851ZM13.64 55.6098C13.9304 55.5806 14.2236 55.6126 14.5009 55.7037C14.7782 55.7948 15.0332 55.943 15.2497 56.1387C15.4661 56.3345 15.6391 56.5734 15.7575 56.8402C15.876 57.1069 15.9371 57.3955 15.9371 57.6873C15.9371 57.9792 15.876 58.2678 15.7575 58.5345C15.6391 58.8012 15.4661 59.0402 15.2497 59.236C15.0332 59.4317 14.7782 59.5799 14.5009 59.671C14.2236 59.7621 13.9304 59.7941 13.64 59.7648C13.3496 59.7941 13.0564 59.7621 12.7791 59.671C12.5018 59.5799 12.2468 59.4317 12.0303 59.236C11.8139 59.0402 11.6409 58.8012 11.5225 58.5345C11.404 58.2678 11.3429 57.9792 11.3429 57.6873C11.3429 57.3955 11.404 57.1069 11.5225 56.8402C11.6409 56.5734 11.8139 56.3345 12.0303 56.1387C12.2468 55.943 12.5018 55.7948 12.7791 55.7037C13.0564 55.6126 13.3496 55.5806 13.64 55.6098ZM41.525 -0.000162133H11.125C8.23099 -0.0217472 5.43143 1.02876 3.266 2.94884C2.25266 3.83455 1.43788 4.92436 0.875046 6.14688C0.312211 7.36941 0.0140169 8.69705 0 10.0428L0 61.9568C0.0140177 63.3025 0.312112 64.6301 0.874765 65.8526C1.43742 67.0751 2.25194 68.165 3.265 69.0508C5.42996 70.9704 8.22869 72.0208 11.122 71.9998H48.878C51.771 72.0207 54.5693 70.9702 56.734 69.0508C57.7473 68.1651 58.5621 67.0753 59.125 65.8528C59.6878 64.6303 59.986 63.3026 60 61.9568V10.0428C59.986 8.69705 59.6878 7.36941 59.125 6.14688C58.5621 4.92436 57.7473 3.83455 56.734 2.94884C54.5693 1.02945 51.771 -0.0210047 48.878 -0.000162133H41.525ZM41.525 67.8228H11.125C9.43497 67.8354 7.80018 67.2215 6.536 66.0998C5.94403 65.583 5.46789 64.9469 5.13875 64.2333C4.80961 63.5197 4.63488 62.7446 4.626 61.9588V10.0428C4.6346 9.25669 4.80919 8.48124 5.13834 7.76726C5.4675 7.05329 5.94378 6.41692 6.536 5.89984C7.79916 4.77818 9.43275 4.16372 11.122 4.17484H48.878C50.5669 4.16406 52.2001 4.7785 53.463 5.89984C54.055 6.41666 54.5312 7.0527 54.8603 7.76631C55.1895 8.47993 55.3642 9.25502 55.373 10.0408V61.9568C55.3643 62.7427 55.1896 63.5178 54.8604 64.2314C54.5313 64.945 54.0551 65.5811 53.463 66.0978C52.1999 67.2196 50.5663 67.8341 48.877 67.8228H41.525ZM18.567 14.6998C18.3237 15.4016 18.2036 16.1401 18.212 16.8828C18.2211 17.4936 18.3735 18.0937 18.657 18.6348C18.9488 19.221 19.3619 19.7385 19.869 20.1528L19.959 20.2268C21.723 21.7588 23.198 23.1088 24.459 24.2598C27.459 27.0038 29.026 28.4388 29.959 28.4358C31.067 28.4358 33.037 26.6358 37.159 22.8858C38.059 22.0698 39.045 21.1708 40.144 20.1858C40.5464 19.8278 40.8879 19.4066 41.155 18.9388C41.7015 17.9633 41.907 16.8333 41.739 15.7278C41.6056 14.7127 41.1268 13.7745 40.383 13.0708C40.1119 12.8225 39.8043 12.6171 39.471 12.4618C38.8413 12.1802 38.1448 12.0828 37.462 12.1808C36.5815 12.3093 35.743 12.6411 35.013 13.1498C34.873 13.2448 34.65 13.4198 34.413 13.6038C33.2157 14.7551 31.6471 15.4415 29.989 15.5398C29.2015 15.5357 28.4226 15.3757 27.6973 15.069C26.9719 14.7623 26.3145 14.315 25.763 13.7528C25.1415 13.1813 24.4085 12.7445 23.61 12.4698C23.0589 12.3006 22.4864 12.211 21.91 12.2038C21.1872 12.1833 20.4774 12.3989 19.888 12.8178C19.2723 13.3017 18.8128 13.9563 18.567 14.6998Z" fill="#A7A7A7"/>
</svg>
