<svg width="19" height="15" viewBox="0 0 19 15" fill="none" xmlns="http://www.w3.org/2000/svg">
<path d="M0.700951 5.28346C0.696566 4.58884 0.801508 3.89786 1.01193 3.23586C1.2661 2.40131 1.75375 1.6569 2.41732 1.09053C3.10461 0.525826 3.96969 0.222767 4.85913 0.235095C5.53158 0.239491 6.19651 0.376786 6.81571 0.639083C7.4349 0.901381 7.99612 1.2835 8.46711 1.76348C8.87383 2.1307 9.22305 2.44593 9.69576 2.44593C10.1457 2.44593 10.6457 2.01371 11.0729 1.64224C11.2299 1.506 11.3791 1.37651 11.5376 1.25752C12.2277 0.726679 13.0401 0.37777 13.9002 0.242844C14.7043 0.122539 15.526 0.256798 16.25 0.626815C16.6347 0.823923 16.9856 1.08085 17.2897 1.38801C18.0416 2.17253 18.5186 3.17994 18.6488 4.25879C18.8014 5.37826 18.6107 6.51767 18.1021 7.52654C17.8533 8.0148 17.5285 8.46048 17.1399 8.84694C16.486 9.49689 15.8963 10.0908 15.3611 10.6298C12.5113 13.5021 11.1499 14.873 9.67401 14.8777C8.30637 14.882 7.17146 13.7321 5.00087 11.5325C4.26243 10.7843 3.39724 9.9076 2.35457 8.90443C1.84407 8.44178 1.43404 7.8792 1.14992 7.25156C0.860639 6.63561 0.707183 5.96466 0.699951 5.28421L0.700951 5.28346ZM2.0791 3.58359C1.90592 4.13341 1.82021 4.70703 1.82511 5.28346C1.83066 5.80291 1.9478 6.31511 2.16859 6.78534C2.38758 7.2741 2.70589 7.71193 3.10327 8.07099L3.12527 8.09074C4.17668 9.10192 5.05287 9.9906 5.80006 10.7473C7.75366 12.7269 8.77483 13.7616 9.67476 13.7588C10.6812 13.7556 11.9368 12.4907 14.5671 9.84036C15.1031 9.30015 15.6941 8.70495 16.3503 8.053C16.6553 7.75017 16.9104 7.40086 17.1059 7.01808C17.5109 6.21187 17.6618 5.30178 17.5387 4.40803C17.4413 3.57154 17.0753 2.78916 16.4957 2.1782C16.2752 1.95456 16.0205 1.76733 15.7413 1.62349C15.2209 1.35985 14.6311 1.26554 14.0544 1.35376C13.3824 1.46185 12.7482 1.7369 12.2101 2.1537C12.0946 2.24044 11.9543 2.36218 11.8069 2.49017C11.2319 2.99013 10.5622 3.57059 9.69651 3.57059C8.79383 3.57059 8.29662 3.12062 7.71691 2.59841C7.2713 2.14425 6.72993 1.79529 6.13228 1.57699C5.7221 1.43778 5.29251 1.36421 4.85938 1.35901C4.23 1.34706 3.61671 1.55836 3.12827 1.95546C2.63065 2.38693 2.26643 2.95139 2.07835 3.58259L2.0791 3.58359Z" fill="#A7A7A7"/>
</svg>
